<svg xmlns="http://www.w3.org/2000/svg" viewBox="0 0 1036 760" width="1036" height="760"><path fill="#FFF" d="M0 0h1036v760H0z"/><g transform="translate(593.0 169.0) rotate(0.0 115.0 215.5) scale(1.043329946291189 1.0419386344076664)"><svg width="220.448" height="413.652" viewBox="0 0 220.448 413.652"><path d="M218.948 413.652H1.5l-1.5-1.5V1.5L1.5 0h217.448l1.5 1.5v410.652zM3 410.652h214.448V3H3z" fill="#231f20"/><path d="M218.948 52.263H1.5V1.5h217.448v42.299z" fill="#FFF"/><g fill="#231f20"><path d="M218.948 53.763H1.5l-1.5-1.5V1.5L1.5 0h217.448l1.5 1.5v50.763zM3 50.763h214.448V3H3z"/><path d="m44.308 26.882-.475-3.629-1.401-3.381-2.23-2.902-2.902-2.229-3.38-1.402-3.629-.474-3.629.474-3.381 1.402-2.901 2.23-2.23 2.901-1.401 3.381-.475 3.629.475 3.629 1.401 3.38 2.23 2.902 2.902 2.23 3.38 1.401 3.629.474 3.629-.474 3.381-1.402 2.902-2.229 2.229-2.902 1.401-3.38z"/><path d="M30.486 42.386h-.389l-3.629-.474-.38-.102-3.38-1.401-.339-.196-2.902-2.229-.276-.276-2.23-2.902-.196-.339-1.401-3.381-.102-.38-.474-3.629v-.389l.474-3.629.102-.38 1.401-3.38.196-.339 2.229-2.902.276-.276 2.902-2.23.339-.196 3.381-1.402.38-.102 3.629-.474h.389l3.629.474.38.102 3.38 1.401.339.196 2.902 2.229.276.276 2.23 2.902.196.339 1.402 3.381.102.38.474 3.629v.389l-.474 3.629-.102.38-1.401 3.38-.196.339-2.229 2.902-.276.276-2.902 2.23-.339.196-3.381 1.402-.38.102zm-3.433-3.424 3.238.423 3.238-.423 3.015-1.25 2.589-1.989 1.99-2.589 1.25-3.014.423-3.238-.423-3.238-1.25-3.015-1.99-2.589-2.589-1.989-3.014-1.25-3.238-.423-3.238.423-3.015 1.25-2.589 1.99-1.99 2.589-1.25 3.014-.423 3.238.423 3.238 1.25 3.015 1.99 2.589 2.589 1.989zm36.617-13.58h42.135v3H63.67z"/></g></svg></g><g transform="translate(350.0 169.0) rotate(0.0 115.0 215.5) scale(1.043329946291189 1.0419386344076664)"><svg width="220.448" height="413.652" viewBox="0 0 220.448 413.652"><path d="M218.948 52.263H1.5V1.5h217.448v42.299z" fill="#FFF"/><path d="M218.948 53.763H1.5l-1.5-1.5V1.5L1.5 0h217.448l1.5 1.5v50.763zM3 50.763h214.448V3H3z" fill="#231f20"/><path d="m43.927 26.877-.084 1.546-.253 1.526-.421 1.488-.585 1.433-.741 1.357-.888 1.267-1.422 1.573-1.644 1.338-1.828 1.074-1.97.783-2.067.475-2.115.159-3.628-.475-3.38-1.402-2.9-2.231-2.227-2.902-1.4-3.38-.474-3.629.475-3.626 1.401-3.379 2.228-2.9 2.9-2.228 3.378-1.401 3.627-.474 3.628.473 3.381 1.4 2.902 2.228 2.23 2.9 1.403 3.379z" fill="#fff"/><g fill="#231f20"><path d="m30.021 42.392-.307-.008-3.628-.475-.38-.102-3.379-1.402-.34-.196-2.9-2.231-.275-.276-2.228-2.902-.196-.339-1.4-3.38-.101-.38-.474-3.628v-.389l.474-3.627.102-.38 1.401-3.378.196-.339 2.229-2.9.276-.275 2.9-2.228.339-.196 3.378-1.401.38-.102 3.627-.474h.389l3.629.474.38.102 3.38 1.4.339.196 2.902 2.228.276.275 2.23 2.9.197.34 1.402 3.379.102.38.485 3.904-.102 1.709-.29 1.689-.476 1.647-.657 1.584-.83 1.5-1.003 1.409-1.588 1.73-1.832 1.469-2.034 1.174-2.188.851-2.291.509zm-3.349-3.432 3.278.429 1.848-.138 1.844-.424 1.757-.699 1.631-.958 1.467-1.194 1.283-1.419.787-1.122.661-1.21.521-1.276.375-1.327.226-1.362.072-1.324-.431-3.294-1.25-3.013-1.99-2.588-2.59-1.988-3.015-1.248-3.238-.423-3.236.423-3.012 1.249-2.587 1.988-1.988 2.588-1.249 3.012-.423 3.236.423 3.237 1.248 3.014 1.988 2.59 2.587 1.99z"/><path d="m43.927 26.877-.084 1.546-.253 1.526-.421 1.488-.585 1.433-.741 1.357-.888 1.267-1.838-1.434-1.84-1.435-1.837-1.433-1.842-1.437-1.844-1.439-1.845-1.439V12.869l3.628.473 3.381 1.4 2.902 2.228 2.23 2.9 1.403 3.379z"/><path d="M40.033 36.676 28.986 28.06l-.577-1.183V12.869l1.694-1.487 3.629.474.38.102 3.38 1.4.339.196 2.902 2.228.276.275 2.23 2.9.197.34 1.402 3.379.102.38.485 3.904-.102 1.709-.29 1.689-.476 1.647-.657 1.584-.83 1.5-.888 1.266zm-8.624-10.531 9.214 7.187.604-1.107.521-1.276.375-1.327.226-1.362.072-1.324-.431-3.294-1.25-3.013-1.99-2.588-2.59-1.988-3.015-1.248-1.738-.227v11.567zm31.881-.768h73.832v3H63.29z"/><path d="M218.948 413.652H1.5l-1.5-1.5V1.5L1.5 0h217.448l1.5 1.5v410.652zM3 410.652h214.448V3H3z"/></g></svg></g><g transform="translate(106.0 169.0) rotate(0.0 115.0 215.5) scale(1.043329946291189 1.0419386344076664)"><svg width="220.448" height="413.652" viewBox="0 0 220.448 413.652"><path d="M218.948 413.652H1.5l-1.5-1.5V1.5L1.5 0h217.448l1.5 1.5v410.652zM3 410.652h214.448V3H3z" fill="#231f20"/><path d="M218.948 52.263H1.5V1.5h217.448v42.299z" fill="#FFF"/><path d="M218.948 53.763H1.5l-1.5-1.5V1.5L1.5 0h217.448l1.5 1.5v50.763zM3 50.763h214.448V3H3z" fill="#231f20"/><path d="m43.929 26.882-.474-3.629-1.402-3.381-2.23-2.902-2.901-2.229-3.381-1.402-3.629-.474-3.629.474-3.38 1.402-2.902 2.23-2.23 2.901-1.401 3.381-.474 3.629.474 3.629 1.401 3.38 2.23 2.902 2.902 2.23 3.38 1.401 3.629.474 3.629-.474 3.381-1.402 2.902-2.229 2.229-2.902 1.402-3.38z" fill="#fff"/><g fill="#231f20"><path d="M30.107 42.386h-.389l-3.629-.474-.38-.102-3.38-1.401-.339-.196-2.902-2.229-.276-.276-2.23-2.902-.196-.339-1.401-3.381-.102-.38-.474-3.629v-.389l.474-3.629.102-.38 1.401-3.38.196-.339 2.229-2.902.276-.276 2.902-2.23.339-.196 3.381-1.402.38-.102 3.629-.474h.389l3.629.474.38.102 3.38 1.401.339.196 2.902 2.229.276.276 2.23 2.902.196.34 1.401 3.381.102.38.474 3.629v.389l-.474 3.629-.102.38-1.401 3.38-.196.339-2.229 2.902-.276.276-2.902 2.23-.339.196-3.38 1.402-.38.102zm-3.433-3.424 3.238.423 3.238-.423 3.014-1.25 2.589-1.989 1.989-2.589 1.25-3.014.423-3.238-.423-3.238-1.25-3.015-1.99-2.589-2.589-1.989-3.014-1.25-3.238-.423-3.238.423-3.015 1.25-2.589 1.99-1.99 2.589-1.25 3.014-.423 3.238.423 3.238 1.25 3.015 1.99 2.589 2.589 1.989zm36.617-13.58h109.692v3H63.291z"/></g></svg></g><g transform="translate(468.0 660.0) rotate(0.0 265.0 16.5) scale(1.949805387349074 1.8740416832301663)"><svg width="271.822" height="17.609" viewBox="0 0 271.822 17.609"><g fill="#231f20"><path d="m271.555 8.804-22.051 3.994-22.687 1.428-22.712.894-22.725.568-22.732.319-22.737.102-22.736-.102-22.732-.319-22.728-.568-22.714-.895-22.685-1.427L.267 8.804l22.051-3.993 22.687-1.428 22.712-.894 22.726-.569 22.731-.318 22.737-.102 22.736.102 22.732.318 22.728.569 22.714.894 22.685 1.428z"/><path d="m135.918 17.609-22.75-.102-22.746-.319-22.744-.569-22.735-.895-22.894-1.45L0 10.28V7.328l22.224-4.014 22.687-1.427L67.658.991 90.405.422l22.748-.32L135.904 0l22.75.102L181.4.421l22.744.569 22.735.895 22.894 1.45 22.049 3.993v2.952l-22.224 4.015-22.687 1.428-22.747.896-22.747.569-22.748.318zM22.497 11.306l22.599 1.422 22.679.893 22.706.568 22.716.318 22.722.102 22.723-.102 22.717-.318 22.709-.568 22.691-.894 22.564-1.42 13.816-2.502-13.813-2.502-22.598-1.422-22.679-.893-22.706-.568-22.716-.318L135.905 3l-22.723.102-22.717.318-22.709.568-22.691.894-22.564 1.42L8.685 8.804l13.813 2.502z"/></g></svg></g><g transform="translate(123.0 412.0) rotate(0.0 98.5 34.5) scale(1.0548975089425323 1.0719279167313966)"><svg width="186.748" height="64.37" viewBox="0 0 186.748 64.37"><path d="M185.248 62.87H1.5V1.5h183.748v51.137z" fill="#fff"/><path d="M185.248 64.37H1.5L0 62.87V1.5L1.5 0h183.748l1.5 1.5v61.37zM3 61.37h180.748V3H3z" fill="#231f20"/><path d="M15.335 62.87H1.5V1.5h13.835v51.137z" fill="#FFF"/><path d="M15.335 64.37H1.5L0 62.87V1.5L1.5 0h13.835l1.5 1.5v61.37zM3 61.37h10.835V3H3z" fill="#231f20"/></svg></g><g transform="translate(123.0 241.0) rotate(0.0 98.5 34.5) scale(1.0548975089425323 1.0719279167313966)"><svg width="186.748" height="64.37" viewBox="0 0 186.748 64.37"><path d="M185.248 62.87H1.5V1.5h183.748v51.137z" fill="#fff"/><path d="M185.248 64.37H1.5L0 62.87V1.5L1.5 0h183.748l1.5 1.5v61.37zM3 61.37h180.748V3H3z" fill="#231f20"/><path d="M15.335 62.87H1.5V1.5h13.835v51.137z" fill="#FFF"/><path d="M15.335 64.37H1.5L0 62.87V1.5L1.5 0h13.835l1.5 1.5v61.37zM3 61.37h10.835V3H3z" fill="#231f20"/></svg></g><g transform="translate(196.0 289.0) rotate(0.0 114.0 42.5) scale(1.0458523696812903 1.0403662089055348)"><svg width="218.004" height="81.702" viewBox="0 0 218.004 81.702"><path d="M216.504 80.202H13.183V12.294h203.321v56.585z" fill="#231f20"/><path d="M216.504 81.702H13.183l-1.5-1.5V12.294l1.5-1.5h203.322l1.5 1.5v67.908zm-201.821-3h200.322V13.794H14.683z" fill="#231f20"/><path d="M204.822 69.408H1.5V1.5h203.322v56.585z" fill="#fff"/><g fill="#231f20"><path d="M204.822 70.908H1.5l-1.5-1.5V1.5L1.5 0h203.322l1.5 1.5v67.908zM3 67.908h200.322V3H3z"/><path d="M16.809 69.408H1.5V1.5h15.309v56.585z"/><path d="M16.809 70.908H1.5l-1.5-1.5V1.5L1.5 0h15.309l1.5 1.5v67.908zM3 67.908h12.309V3H3zm34.349-46.32h82.693v3H37.349zm0 24.732h46.755v3H37.349z"/></g></svg></g><g transform="translate(610.0 325.0) rotate(0.0 98.5 34.0) scale(1.0548975089425323 1.0563927295323907)"><svg width="186.748" height="64.37" viewBox="0 0 186.748 64.37"><path d="M185.248 62.87H1.5V1.5h183.748v51.137z" fill="#fff"/><path d="M185.248 64.37H1.5L0 62.87V1.5L1.5 0h183.748l1.5 1.5v61.37zM3 61.37h180.748V3H3z" fill="#231f20"/><path d="M15.335 62.87H1.5V1.5h13.835v51.137z" fill="#FFF"/><path d="M15.335 64.37H1.5L0 62.87V1.5L1.5 0h13.835l1.5 1.5v61.37zM3 61.37h10.835V3H3z" fill="#231f20"/></svg></g><g transform="translate(297.0 313.0) rotate(0.0 331.0 185.0) scale(1.0421077652770323 1.0446724528344504)"><svg width="635.251" height="354.178" viewBox="0 0 635.251 354.178"><path d="m397.169 93.903 6.719-10.012 6.72-10.015 6.722-10.018 6.721-10.014 6.725-10.022 6.725-10.021 4.808 1.844 4.807 1.844 4.808 1.844 4.811 1.845 4.816 1.847 4.815 1.847-2.383 11.329-2.383 11.331-2.384 11.336-2.383 11.331-2.384 11.34-2.385 11.34-9.145-3.161-9.146-3.162-9.15-3.163-9.147-3.162-9.154-3.164z" fill="#fff"/><path d="M451.574 114.296 396.679 95.32l-.755-2.254 40.332-60.102 1.783-.565 28.865 11.071.931 1.709-14.302 68.007zM399.5 93.121l51.446 17.784 13.688-65.091-26.554-10.185z" fill="#231f20"/><path d="m439.478 52.78 3.181-1.661 3.466.434 1.842 3.002.021 3.584-1.099 3.426-1.875 3.077 4.562 2.028 4.888.991 4.967-.365 4.628-1.84 3.844-3.16 2.53-4.265.898-4.35-.151-4.435-1.377-4.216-2.466-3.69-3.221-3.062-3.682-2.5-.846-2.315-.375-2.437.023-2.467.331-2.448.557-2.404.706-2.362-.603-6.557-5.078-4.338-6.578-1.501-6.711.816-6.153 2.807-5.126 4.424-4.009 5.991-1.847 6.953.766 7.154 3.062 6.523 4.792 5.387z" fill="#231f20"/><path d="m454.573 69.157-.408-.026-5.199-1.091-4.562-2.027-.672-2.151 1.782-2.925.972-3.028-.017-2.926-1.246-2.03-2.286-.286-2.766 1.444-1.481-.052-6.133-3.776-.334-.28-4.793-5.387-.237-.36-3.061-6.522-.132-.48-.766-7.154.042-.545 1.846-6.953.203-.449 4.009-5.992.267-.301 5.126-4.424.358-.229 6.153-2.807.442-.124 6.711-.816.515.027 6.577 1.501.641.322 5.079 4.339.519 1.003.603 6.557-.057.567-.706 2.361-.516 2.244-.31 2.287-.021 2.251.334 2.169.629 1.721 3.472 2.382 3.435 3.316 2.466 3.689.179.368 1.377 4.216.073.415.151 4.435-.03.354-.898 4.35-.179.462-2.53 4.265-.337.393-3.844 3.161-.398.235-4.627 1.84-.445.102zm-4.538-3.925 4.525.918 4.532-.333 4.195-1.668 3.46-2.845 2.268-3.822.811-3.929-.138-4.043-1.247-3.818-2.259-3.379-3.011-2.863-3.58-2.431-.566-.726-.92-2.601-.393-2.679.036-2.654.356-2.585.556-2.405.648-2.174-.52-5.661-4.334-3.703-5.962-1.36-6.221.756-5.747 2.622L431.715 18l-3.757 5.615-1.711 6.443.71 6.628 2.862 6.098 4.501 5.06 5.219 3.214 2.426-1.266.88-.159 3.466.434 1.092.704 1.842 3.002.221.775.021 3.584-.072.467-1.247 3.748-.987 1.619zm-24.182 6.984-2.556-.13-2.539-.562-2.404-1.055-2.126-1.531-1.581-1.689 2.191-2.049 1.474 1.575 1.635 1.147 1.848.783 1.998.42 2.088.09 2.206-.201.272 2.988z" fill="#231f20"/><path d="M607.22 352.678H223.168l-2.572-.384-2.341-1.135-1.9-1.776-1.296-2.254-.57-2.537.213-2.593 2.981-13.821 2.981-13.825 2.982-13.83 2.981-13.825 2.984-13.835 2.983-13.835-2.752-18.521-2.752-18.516-2.752-18.523-2.753-18.524-2.753-18.526-2.753-18.527 6.82-22.676 12.564-20.069 17.401-16.058 20.994-10.952 23.134-5.042 23.646 1.243 28.996 5.682 28.997 5.682 28.998 5.682 28.998 5.682 29.001 5.683 29.002 5.683 15.34 4.532 14.222 7.321 12.603 9.849 10.544 12.027 8.111 13.786 5.391 15.059 7.729 30.277 7.729 30.277 7.73 30.279 7.73 30.277 7.73 30.282z"/><path d="M607.22 354.178H223.168l-.222-.017-2.572-.385-.432-.134-2.341-1.134-.37-.254-1.9-1.776-.276-.348-1.296-2.255-.163-.419-.57-2.537-.031-.452.242-2.786 17.834-82.704-16.475-110.867.047-.652 6.82-22.676.165-.364 12.563-20.069.254-.306 17.401-16.059.324-.228 20.994-10.951.374-.136 23.134-5.043.398-.032 23.856 1.269 174.129 34.127 15.602 4.637 14.459 7.473 12.807 10.042 10.709 12.256 8.231 14.041 5.431 15.194 46.379 181.673zm-383.94-3h382.009l-45.884-179.734-5.319-14.86-7.968-13.542-10.358-11.815-12.381-9.675-13.97-7.191-15.137-4.472-173.819-34.06-23.339-1.227-22.74 4.957-20.639 10.766-17.107 15.787-12.35 19.728-6.665 22.162 16.466 110.805-.017.537-17.871 82.875-.186 2.267.47 2.092 1.071 1.863 1.57 1.468 1.931.935z" fill="#231f20"/><path d="m281.288 252.793-7.343 2.27-7.674.573-7.65-.87-7.34-2.314-6.641-3.877-5.35-5.511-4.159-9.444 2.559-9.809 8.098-6.404 9.825-3.373 10.348-.99 10.057 2.291 5.881 4.806 4.418 6.192 2.801 7.07.622 7.561-2.595 7.076z" fill="#231f20"/><path d="m266.382 257.132-.281-.005-7.93-.93-7.646-2.449-6.641-3.878-.32-.25-5.351-5.511-.297-.44-4.159-9.444-.079-.983 2.559-9.809.521-.798 8.098-6.404.443-.242 10.17-3.448 10.348-.99.476.031 10.057 2.291.616.301 5.881 4.806.272.29 4.591 6.51 2.801 7.07.1.43.622 7.561-.087.639-2.595 7.076-.463.648-5.857 4.753-.502.268-7.674 2.332zm-7.447-3.84 7.365.838 7.364-.551 6.904-2.134 5.311-4.31 2.339-6.378-.577-7.009-2.652-6.693-4.195-5.88-5.453-4.456-9.479-2.159-9.93.95-9.415 3.233-7.503 5.933-2.3 8.818 3.84 8.719 5.02 5.17 6.318 3.689z" fill="#231f20"/><path d="m181.577 143.824-3.254 3.18-3.221 3.206-3.2 3.232-3.18 3.256-3.158 3.279-3.137 3.305-7.063-16.4-7.819-16.056-8.143-15.891-7.901-16.009-6.834-16.487-4.467-17.255-.157-1.894.057-1.902.224-1.89.362-1.869.491-1.839.619-1.799 1.004-2.582 1.005-2.586 1.006-2.585 1.005-2.587 1.008-2.59 1.007-2.591.722-2.958-.04-3.047-.759-2.951-1.42-2.697-2.016-2.284-2.522-1.707-2.442-.863-2.579-.232-2.556.412-2.377 1.027-2.049 1.582-1.595 2.04-1.105 1.844-1.106 1.847-1.104 1.844-1.107 1.848-1.109 1.852-1.109 1.851-.974 1.12-1.311.696-1.473.185-1.445-.338-1.23-.829-.852-1.217-2.256-4.859-2.256-4.857-2.256-4.858-2.258-4.863-2.26-4.866-2.259-4.865-1.771-2.723-2.442-2.142-2.929-1.403-3.198-.566-3.232.319-3.026 1.18-2.438 1.811-1.877 2.388-1.207 2.787-.491 2.999.241 3.029.957 2.884 1.325 2.807 1.327 2.81 1.327 2.811 1.328 2.811 1.33 2.816 1.329 2.816-1.685-2.622-2.308-2.093-2.772-1.424-3.046-.662-3.112.15-2.967.954-2.622 1.685-2.094 2.309-1.424 2.772-.662 3.045.15 3.113.955 2.967-1.685-2.622-2.309-2.094-2.772-1.424-3.045-.662-3.113.15-2.967.955-2.622 1.685-2.094 2.308-1.424 2.772-.661 3.046.15 3.112.954 2.967-1.771-2.723-2.442-2.141-2.929-1.403-3.198-.567-3.231.319-3.027 1.18-2.438 1.811-1.877 2.388L1.986 57.8l-.491 2.998.241 3.029.957 2.884 1.296 3.626 1.298 3.627 1.301 3.631 1.304 3.639 1.307 3.637 1.307 3.622 16.426 45.437 17.481 45.04 20.259 43.848 25.447 41.006 34.536 33.444 45.555 13.902 25.324-3.549 23.36-10.418 20.147-15.802 16.785-19.364 13.77-21.626 11.039-23.14-16.509-12.24-16.504-12.237-16.509-12.242-16.511-12.241-16.513-12.244z" fill="#fff"/><path d="m170.419 312.655-.646-.051-45.555-13.902-.606-.357-34.536-33.444-.231-.287-25.534-41.168-20.259-43.848-17.518-45.127L1.28 67.216l-1.04-3.27L0 60.917l.015-.361.594-3.353 1.404-3.118 1.877-2.388.285-.277 2.438-1.811.349-.193 3.026-1.18.398-.095 3.232-.319.409.016 3.198.566.387.124 2.929 1.404.341.225.65.57-.028-.585.032-.391.662-3.045.132-.367 1.424-2.772.223-.322 2.094-2.309.3-.254 2.622-1.685.352-.166 2.967-.954.387-.07 3.113-.15.391.032 3.045.662.367.132 2.772 1.424.322.223.41.372-.027-.552.032-.391.662-3.045.132-.367 1.424-2.772.223-.322 2.094-2.309.3-.254 2.622-1.685.352-.166 2.967-.954.387-.07 3.113-.15.391.032 3.045.662.367.132 1.178.605-4.488-9.531-1.029-3.238-.24-3.029.015-.361.594-3.353 1.404-3.118 1.877-2.388.285-.277 2.438-1.811.349-.193 3.026-1.18.398-.095L70.241 0l.409.016 3.198.566.387.124 2.929 1.404.341.225 2.442 2.141.269.31 1.874 2.909 13.49 29.049.616.88.771.519.915.214.933-.117.822-.436.704-.81 6.677-11.126 1.86-2.304 2.371-1.771 2.733-1.131 2.929-.425 2.944.312 2.782 1.035 2.807 1.957 2.219 2.578 1.545 3.021.807 3.305.04 3.046-.043.376-.782 3.146-6.035 15.521-.582 1.692-.463 1.738-.343 1.765-.209 1.77-.053 1.751.14 1.682 4.409 17.03 6.794 16.39 7.861 15.919 8.133 15.871 7.833 16.082 6.192 14.375 4.737-4.943 6.395-6.503 6.491-6.404 1.942-.132 99.058 73.447.46 1.851-11.127 23.3-13.902 21.802-16.992 19.562-20.147 15.801-.315.19-23.36 10.418-.403.116zm-44.98-16.716 44.892 13.7 24.786-3.474 22.997-10.256 19.888-15.598 16.618-19.172 13.662-21.455 10.467-21.943-97.038-71.95-5.55 5.483-6.365 6.473-6.28 6.569-2.466-.439-7.063-16.401-7.79-15.992-8.129-15.864-7.911-16.029-6.941-16.775-4.51-17.507-.161-2.064.067-2.032.24-2 .386-1.97.521-1.942.62-1.798 6.019-15.484.654-2.678-.035-2.676-.671-2.607-1.254-2.382-1.771-2.007-2.205-1.492-2.083-.736-2.204-.198-2.186.352-2.032.878-1.752 1.352-1.421 1.818-6.747 11.22-.974 1.12-.429.341-1.311.696-.516.163-1.473.185-.529-.028-1.445-.338-.496-.216-1.23-.829-.391-.384-.983-1.445-13.5-29.072-1.6-2.46-2.132-1.869L73.123 3.5l-2.793-.494-2.821.278-2.647 1.032-2.115 1.571-1.633 2.078-1.056 2.439-.431 2.635.212 2.666.871 2.625 7.928 16.79-2.618 1.451-1.578-2.455-2.015-1.827-2.422-1.244-2.66-.578-2.717.131-2.592.833-2.29 1.472-1.828 2.015-1.244 2.422-.578 2.66.131 2.717.893 2.778-2.69 1.27-1.578-2.455-2.015-1.827-2.422-1.244-2.66-.578-2.717.131-2.592.833-2.29 1.472-1.828 2.015-1.244 2.422-.578 2.66.131 2.717.894 2.778-2.685 1.277-1.658-2.549-2.132-1.869-2.558-1.226-2.793-.494-2.821.278-2.646 1.032-2.116 1.571-1.633 2.078-1.056 2.439-.431 2.635.212 2.667.9 2.712 7.8 21.745 16.426 45.436 17.469 45.007 20.184 43.678 25.301 40.77z" fill="#231f20"/><path d="m276.424 77.015-17.396 8.556-16.395 10.38-15.809 11.259-15.401 11.811-15.083 12.221-14.763 12.582-.248 11.265 1.638 11.152 3.388 10.751 5.089 10.057 6.724 9.044 8.204 7.729 10.611 6.989 11.577 5.244 12.131 3.811 12.368 2.965 12.376 2.931 12.043 4.046 4.361 2.55 3.543 3.59 2.201 4.526.15 5.009-2.33 4.424-4.115 2.886 9.87-8.97 4.612-12.642 1.728-13.405 1.123-13.484 2.479-13.277 6.782-11.517-5.243-17.079-5.241-17.075-5.243-17.08-5.243-17.082-5.244-17.083z"/><g fill="#231f20"><path d="m282.15 254.021-1.723-2.456 3.818-2.678 1.977-3.754-.128-4.293-1.953-4.014-3.231-3.273-4.056-2.373-11.831-3.974-24.782-5.909-12.3-3.876-11.783-5.357-10.815-7.15-8.379-7.926-6.858-9.262-5.182-10.283-3.441-10.984-1.654-11.403.248-11.265.527-1.109 14.763-12.581 15.112-12.246 15.432-11.835 15.852-11.29 16.603-10.505 17.396-8.556 1.324 2.692-17.324 8.521-16.326 10.337-15.742 11.213-15.358 11.779-15.052 12.197-14.222 12.121-.231 10.467 1.602 10.909 3.316 10.519 4.976 9.833 6.568 8.835 8.013 7.549 10.403 6.852 11.388 5.158 11.994 3.768 24.822 5.921 12.322 4.173 4.361 2.55.31.242 3.544 3.59.281.397 2.201 4.526.151.611.149 5.009-.172.744-2.33 4.423-.465.529zM125.139 223.59l-2.935-.618 1.594-7.575 1.509-5.804 2.016-5.575 2.52-5.365 3.004-5.11 3.463-4.811 3.795-4.372 21.246-22.122 2.152 2.089-21.179 22.051-3.703 4.268-3.296 4.591-2.859 4.874-2.397 5.117-1.916 5.317-1.435 5.537zM22.76 56.814l2.688-1.333 5.975 12.039-2.687 1.333zm21.591-10.19 2.682-1.344 5.135 10.24-2.682 1.345zM65.93 36.407l2.707-1.294 5.149 10.768-2.707 1.294zm233.621 286.05-.811-2.888 6.192-1.738 5.622-2.83 5.022-3.812 4.263-4.646 3.341-5.334 2.307-6.003 2.8 1.076-2.487 6.397-3.658 5.791-4.645 5.028-5.472 4.121-6.143 3.061zm160.314-51.35-4.175-2.32-3.509-3.206-2.733-3.88-1.862-4.374-.875-4.698.184-4.425 2.998.125-.177 4.248.783 4.015 1.637 3.768 2.39 3.343 3.04 2.736 3.734 2.033zm-100.706-75.301-4.138-.862-3.909-1.58-3.58-2.22-3.16-2.791-2.644-3.3-1.906-3.471 2.63-1.444 1.841 3.354 2.328 2.871 2.79 2.439 3.159 1.937 3.435 1.368 3.749.759z"/><path d="m256.24 169.26-4.417-.335.227-2.992 4.287.326 4.155-.407 4.038-1.09 3.807-1.731 3.463-2.333 3.098-2.98 2.08 2.162-3.394 3.234-3.891 2.596-4.263 1.917-4.522 1.199z"/></g><path d="m490.594 198.865-1.992 10.931-.879 11.075.279 11.106 1.424 11.017 2.501 10.825 3.467 10.556 1.75 14.717 1.749 14.712 1.75 14.717 1.75 14.712 1.75 14.723 1.751 14.722h118.868l2.794-.438 2.515-1.293 1.988-2.01 1.277-2.523.433-2.794-.459-2.791-4.555-13.861-4.557-13.866-4.558-13.869-4.556-13.866-4.56-13.875-4.56-13.875-4.133-12.577-4.134-12.579-4.135-12.584-4.134-12.58-4.137-12.589-4.137-12.589-6.655-15.846-9.106-14.576-11.321-12.93-13.248-10.949-14.833-8.679-16.037-6.18-2.549-.754-2.552-.755-2.552-.755-2.553-.756-2.557-.756-2.557-.757-.673 15.072-.673 15.068-.674 15.073-.673 15.074-.673 15.076z"/><path d="m457.045 168.799-2.104-2.138 2.67-2.617 2.904-2.351 3.111-2.069 3.291-1.77 3.444-1.454 3.429-1.084.905 2.86-3.361 1.063-3.18 1.349-3.041 1.643-2.874 1.918-2.681 2.178zm-126.782-51.89-2.104-2.138 2.669-2.617 2.905-2.351 3.111-2.069 3.291-1.769 3.444-1.455 3.428-1.084.905 2.86-3.361 1.063-3.179 1.35-3.041 1.642-2.875 1.918-2.681 2.178zM286.272 247.82l18.253-58.128 2.862.899-18.253 58.128zm338.49 106.358H505.894l-1.489-1.322-10.5-88.303-6.348-46.427 2.972-.406 6.351 46.452 10.346 87.006h117.419l2.44-.383 2.087-1.073 1.655-1.673 1.063-2.1.36-2.322-.401-2.44-52.101-158.542-6.586-15.679-8.977-14.372-11.162-12.748-13.061-10.795-14.624-8.556-15.867-6.115-15.262-4.515.851-2.877 15.434 4.571 16.254 6.285 15.032 8.818 13.42 11.116 11.466 13.124 9.215 14.79 6.698 15.959 52.211 158.935.459 2.791.002.473-.433 2.793-.144.448-1.276 2.523-.272.377-1.989 2.011-.381.279-2.514 1.293-.453.148z" fill="#231f20"/><path d="M624.762 352.678H505.894l-1.75-14.716-1.749-14.712-1.75-14.717-1.75-14.712-1.75-14.723-1.751-14.723 17.9 7.64 19.182 3.601 19.51.768 19.415-2.038 18.668-5.624 15.895-11.105 4.555 13.861 4.557 13.866 4.558 13.869 4.557 13.866 4.559 13.875 4.56 13.875.459 2.791-.433 2.794-1.277 2.523-1.989 2.01-2.514 1.293z" fill="#fff"/><path d="M624.762 354.178H505.894l-1.49-1.323-10.5-88.303 2.078-1.557 17.749 7.575 18.914 3.55 19.292.76 19.167-2.012 18.302-5.514 15.698-10.968 2.284.761 27.401 83.437.459 2.791.002.473-.433 2.794-.144.448-1.277 2.523-.272.377-1.988 2.01-.381.279-2.514 1.292-.453.148zm-117.536-3h117.419l2.44-.383 2.087-1.073 1.655-1.673 1.063-2.101.36-2.322-.401-2.44-26.68-81.185-14.241 9.949-.426.207-18.944 5.68-19.631 2.045-19.727-.792-19.495-3.695-15.515-6.622zm34.79-127.269-.588-2.942 3.653-.73 3.228-1.501 2.839-2.182 2.311-2.735 1.649-3.155.897-3.615 2.912.723-1.067 4.122-1.993 3.736-2.753 3.204-3.379 2.552-3.88 1.758z" fill="#231f20"/></svg></g><g transform="translate(82.0 87.0) rotate(0.0 426.0 274.5) scale(1.0405039360847255 1.0411115809914644)"><svg width="818.834" height="527.321" viewBox="0 0 818.834 527.321"><g><g><g><path style="fill:#fff" d="M204.618 56.103a1.42 1.42 0 0 1-.195-.013l-.767-.101a1.474 1.474 0 0 1-.38-.102l-.714-.296a1.489 1.489 0 0 1-.339-.196l-.613-.471a1.529 1.529 0 0 1-.276-.275l-.471-.613a1.474 1.474 0 0 1-.196-.34l-.296-.714a1.57 1.57 0 0 1-.102-.38l-.1-.767a1.49 1.49 0 0 1 0-.389l.1-.767c.017-.13.051-.259.102-.38l.296-.714c.05-.122.116-.235.196-.34l.471-.613c.079-.103.172-.196.275-.275l.613-.471c.104-.08.217-.146.338-.196l.714-.296c.122-.051.25-.085.381-.102l.767-.1c.064-.008.129-.013.194-.013h69.085c.065 0 .13.004.195.013l.767.101c.13.017.258.051.379.102l.714.296c.122.05.236.116.34.197l.613.471c.103.079.195.171.274.274l.471.613a1.5 1.5 0 0 1 .197.34l.296.714c.05.122.084.25.102.38l.1.767c.017.129.017.26 0 .388l-.1.767a1.481 1.481 0 0 1-.102.381l-.296.714c-.05.121-.116.235-.196.339l-.471.613c-.08.104-.172.196-.276.275l-.613.471c-.104.08-.218.146-.339.196l-.714.296c-.122.05-.249.084-.379.102l-.767.101c-.065.008-.13.013-.195.013h-69.083z"/><path style="fill:#231f20" d="m273.704 48.68.767.1.714.296.613.471.471.613.296.714.1.767-.1.767-.296.714-.471.613-.613.471-.714.296-.767.1h-69.086l-.767-.1-.714-.296-.613-.471-.471-.613-.296-.714-.1-.767.1-.767.296-.714.471-.613.613-.471.714-.296.767-.1h69.086m0-3h-69.086c-.13 0-.26.008-.388.025l-.767.1a3.028 3.028 0 0 0-.76.203l-.714.296a3 3 0 0 0-.679.392l-.613.471a2.994 2.994 0 0 0-.551.551l-.471.613c-.16.208-.292.436-.392.679l-.296.714a2.986 2.986 0 0 0-.203.76l-.1.767a2.972 2.972 0 0 0 0 .777l.1.767c.034.261.103.517.204.761l.296.714c.101.242.232.47.392.678l.471.613c.159.207.344.392.552.552l.613.471c.208.16.436.292.679.392l.714.296c.243.101.499.169.76.203l.767.1c.129.017.259.025.389.025h69.086c.13 0 .26-.008.389-.025l.767-.1c.261-.034.517-.103.76-.203l.714-.296a3.06 3.06 0 0 0 .679-.392l.613-.471a3.02 3.02 0 0 0 .551-.55l.471-.613c.16-.208.292-.437.393-.679l.296-.714c.101-.243.169-.499.203-.76l.1-.767a2.972 2.972 0 0 0 0-.777l-.1-.767a3.007 3.007 0 0 0-.204-.761l-.296-.714a3.022 3.022 0 0 0-.392-.679l-.471-.613a2.994 2.994 0 0 0-.551-.551l-.613-.471a3.004 3.004 0 0 0-.679-.393l-.714-.296c-.244-.101-.5-.17-.761-.204l-.767-.1a3.462 3.462 0 0 0-.391-.024z"/></g><g><path style="fill:#fff" d="M5.608 305.006c-.122 0-.243-.015-.361-.044l-.75-.186a1.508 1.508 0 0 1-.365-.144l-.676-.375a1.469 1.469 0 0 1-.315-.233l-.556-.537a1.523 1.523 0 0 1-.243-.305l-.399-.663a1.485 1.485 0 0 1-.157-.361l-.213-.743a1.493 1.493 0 0 1-.058-.388l-.015-.772c-.002-.13.013-.26.044-.387l.186-.75c.032-.127.08-.25.143-.364l.374-.677a1.49 1.49 0 0 1 .235-.317l.538-.556c.045-.046.093-.09.144-.13l44.24-35.226c.051-.041.104-.078.16-.111l.663-.399c.113-.068.234-.121.361-.157l.743-.213c.126-.036.256-.056.387-.058l.799-.014c.122 0 .244.015.362.044l.75.187c.127.032.25.08.364.143l.676.374c.115.063.222.143.316.234l.556.538c.094.09.175.193.242.304l.399.663c.068.113.121.234.157.361l.213.743c.036.126.056.256.058.388l.013.773c.002.13-.013.26-.044.387l-.186.75c-.032.127-.08.25-.144.365l-.374.676a1.48 1.48 0 0 1-.234.316l-.538.556c-.045.047-.093.09-.145.131l-44.24 35.226a1.343 1.343 0 0 1-.16.111l-.663.399a1.485 1.485 0 0 1-.361.157l-.743.213a1.493 1.493 0 0 1-.388.058l-.795.013z"/><path style="fill:#231f20" d="m50.516 262.396.75.186.677.374.556.537.399.663.213.743.013.773-.186.75-.374.676-.537.556-7.369 5.868-7.371 5.869-7.374 5.871-7.372 5.87-7.377 5.874-7.377 5.874-.663.399-.743.213-.773.013-.75-.186-.677-.374-.556-.537-.399-.663-.213-.743L3 300.23l.186-.75.374-.676.537-.556 7.369-5.868 7.371-5.869 7.374-5.871 7.372-5.87 7.377-5.874 7.377-5.874.663-.4.743-.213.773-.013m0-3h-.051l-.773.013a2.963 2.963 0 0 0-.776.116l-.743.213a3.003 3.003 0 0 0-.721.314l-.663.399a3.043 3.043 0 0 0-.32.222l-7.377 5.874-7.377 5.874-7.372 5.87-7.374 5.871-7.371 5.869-7.369 5.869a2.86 2.86 0 0 0-.288.262l-.537.556c-.183.189-.34.402-.468.632l-.374.676c-.127.23-.223.475-.287.729l-.186.75a3.037 3.037 0 0 0-.089.776l.013.773c.004.263.043.523.116.776l.213.743c.073.253.178.496.314.722l.399.663c.135.223.297.427.484.608l.556.537c.189.183.402.341.633.468l.676.374c.23.127.475.223.73.287l.75.186c.236.059.479.088.723.088h.052l.773-.013c.262-.005.523-.043.775-.116l.743-.213c.253-.073.496-.178.721-.314l.663-.399a2.73 2.73 0 0 0 .32-.223l7.377-5.874 7.377-5.874 7.372-5.87 7.374-5.871 7.371-5.869 7.369-5.868a2.86 2.86 0 0 0 .288-.262l.537-.556c.183-.189.34-.402.468-.632l.374-.676c.127-.23.223-.475.287-.729l.186-.75c.063-.253.093-.514.088-.775l-.013-.773a2.982 2.982 0 0 0-.115-.774l-.213-.743a2.98 2.98 0 0 0-.315-.723l-.399-.663a3.024 3.024 0 0 0-.484-.608l-.556-.537a2.964 2.964 0 0 0-.633-.468l-.676-.374a3.039 3.039 0 0 0-.73-.287l-.75-.186a2.92 2.92 0 0 0-.722-.09z"/></g><g><path style="fill:#fff" d="m70.289 445.029.834 4.031.868 4.029.881 4.029.879 4.033.858 4.033.819 4.04 4.034.817 4.032.858 4.029.878 4.033.883 4.031.868 4.036.837-4.031.835-4.029.868-4.029.882-4.033.879-4.033.858-4.04.818-.818 4.035-.857 4.031-.878 4.03-.883 4.033-.869 4.03-.838 4.037-.834-4.117-.867-4.115-.882-4.115-.879-4.119-.858-4.118-.818-4.126-4.034-.732-4.031-.772-4.031-.792-4.033-.796-4.031-.783-4.036-.751 4.031-.921 4.029-.954 4.029-.967 4.033-.965 4.032-.944 4.042-.904.817-3.949.857-3.946.879-3.944.882-3.947.869-3.945z"/><path style="fill:#231f20" d="m71.754 504.006-2.939-.007-4.941-23.714-7.074-1.324-16.123-3.121-.06-2.937 23.257-5.445 1.481-6.961 3.466-15.779 2.936.007 4.942 23.227 7.105 1.48 16.122 3.464v2.938L76.7 480.778l-1.48 7.105-3.466 16.123zm-23.526-29.789 13.167 2.569 4.02.729 1.204 1.184 1.673 8.23 2.011 9.423 2.84-13.125.814-4.021 1.172-1.172 8.059-1.673 9.159-1.997-13.198-2.856-4.02-.814-1.172-1.172-1.673-8.059-2.013-9.234-2.841 12.85-.814 3.935-1.141 1.16-8.06 1.844-9.187 2.199z"/></g><g><path style="fill:#fff" d="m778.192 151.056-.269-2.059-.796-1.919-1.265-1.647-1.647-1.265-1.919-.796-2.059-.269-2.06.269-1.919.796-1.647 1.265-1.265 1.647-.796 1.919-.269 2.059.269 2.06.796 1.919 1.266 1.647 1.646 1.265 1.919.796 2.06.269 2.059-.269 1.919-.796 1.647-1.265 1.266-1.647.795-1.919z"/><path style="fill:#231f20" d="m770.042 160.499-2.06-.269-.38-.102-1.918-.795-.339-.196-1.647-1.265-.276-.276-1.265-1.647-.196-.339-.796-1.919-.102-.38-.269-2.06v-.389l.269-2.06.102-.38.795-1.918.196-.339 1.265-1.647.276-.276 1.647-1.266.339-.196 1.919-.796.38-.102 2.06-.269h.389l2.06.269.38.102 1.918.795.339.196 1.647 1.265.276.276 1.266 1.647.196.339.795 1.919.102.38.269 2.06v.389l-.269 2.06-.102.38-.795 1.919-.196.34-1.265 1.647-.276.276-1.647 1.266-.339.196-1.919.796-.38.102-2.06.269h-.389zm-1.474-3.218 1.669.218 1.668-.218 1.553-.644 1.334-1.025 1.025-1.334.644-1.553.218-1.668-.218-1.669-.644-1.553-1.025-1.334-1.334-1.025-1.552-.644-1.668-.218-1.669.218-1.553.644-1.334 1.025-1.025 1.334-.644 1.553-.218 1.668.218 1.668.644 1.553 1.025 1.334 1.334 1.025 1.552.645z"/></g><g><path style="fill:#fff" d="m162.299 441.998-.27-2.06-.795-1.919-1.266-1.647-1.647-1.265-1.918-.795-2.06-.269-2.06.269-1.918.795-1.647 1.266-1.266 1.647-.795 1.918-.269 2.06.269 2.06.796 1.919 1.265 1.647 1.647 1.265 1.919.795 2.059.269 2.06-.269 1.919-.795 1.647-1.266 1.265-1.647.795-1.918z"/><path style="fill:#231f20" d="M154.538 451.441h-.389l-2.06-.269-.38-.102-1.918-.795-.339-.196-1.647-1.265-.276-.275-1.266-1.647-.196-.34-.796-1.918-.102-.38-.269-2.06v-.389l.269-2.06.102-.38.795-1.918.196-.339 1.265-1.647.276-.276 1.647-1.265.339-.196 1.919-.796.38-.102 2.06-.269h.389l2.06.269.38.102 1.919.795.339.196 1.647 1.265.276.276 1.265 1.647.196.339.796 1.918.102.38.269 2.06v.389l-.269 2.06-.102.38-.795 1.919-.196.339-1.265 1.647-.276.276-1.647 1.265-.339.196-1.919.796-.38.102-2.06.268zm-1.863-3.218 1.668.218 1.668-.218 1.553-.644 1.334-1.025 1.025-1.334.644-1.553.218-1.668-.218-1.669-.644-1.553-1.025-1.334-1.334-1.025-1.553-.644-1.668-.218-1.669.218-1.553.644-1.334 1.025-1.025 1.335-.644 1.552-.218 1.668.218 1.669.644 1.553 1.025 1.334 1.334 1.025 1.554.644z"/></g><g><path style="fill:#fff" d="m144.073 9.443-.27-2.06-.795-1.919-1.266-1.647-1.647-1.265-1.918-.795-2.06-.27-2.06.27-1.918.795-1.647 1.266-1.266 1.647-.795 1.918-.269 2.06.269 2.06.796 1.918 1.265 1.647 1.647 1.266 1.919.795 2.059.269 2.06-.269 1.919-.796 1.647-1.265 1.265-1.647.795-1.919z"/><path style="fill:#231f20" d="m135.923 18.886-2.06-.269-.38-.102-1.918-.795-.339-.196-1.647-1.265-.276-.276-1.265-1.647-.196-.339-.796-1.919-.102-.38-.269-2.06v-.39l.269-2.06.102-.38.795-1.918.196-.339 1.265-1.647.276-.276 1.647-1.266.339-.196 1.919-.796.38-.102 2.06-.268h.389l2.06.269.38.102 1.918.795.339.196 1.647 1.265.276.276 1.266 1.647.196.339.795 1.919.102.38.269 2.06v.389l-.269 2.06-.102.38-.795 1.918-.196.34-1.265 1.647-.276.276-1.647 1.266-.339.196-1.919.796-.38.102-2.06.269h-.389zm-1.474-3.219 1.669.218 1.669-.218 1.553-.644 1.334-1.025 1.025-1.334.644-1.552.218-1.669-.218-1.669-.644-1.553-1.025-1.334-1.334-1.025-1.552-.644L136.117 3l-1.669.218-1.553.644-1.334 1.025-1.025 1.334-.644 1.553-.218 1.668.218 1.669.644 1.553 1.025 1.334 1.334 1.025 1.554.644z"/></g><g><path style="fill:#fff" d="m434.32 237.43-.27-2.06-.795-1.919-1.266-1.647-1.647-1.265-1.918-.795-2.06-.27-2.06.27-1.918.795-1.647 1.266-1.266 1.647-.795 1.918-.269 2.06.269 2.06.796 1.918 1.265 1.647 1.647 1.266 1.919.795 2.059.269 2.06-.269 1.919-.796 1.647-1.265 1.265-1.647.795-1.919z"/><path style="fill:#231f20" d="M426.559 246.872h-.389l-2.06-.269-.38-.102-1.918-.795-.34-.196-1.647-1.265-.276-.275-1.266-1.647-.196-.34-.796-1.919-.102-.38-.269-2.06v-.389l.269-2.06.102-.38.795-1.918.196-.339 1.265-1.647.276-.276 1.647-1.265.339-.196 1.919-.796.38-.102 2.06-.269h.389l2.06.269.38.102 1.918.795.339.196 1.647 1.265.276.276 1.265 1.647.196.339.796 1.919.102.38.269 2.06v.389l-.269 2.06-.102.38-.795 1.918-.196.339-1.265 1.647-.275.276-1.647 1.266-.34.196-1.919.795-.38.102-2.058.269zm-1.863-3.218 1.668.218 1.669-.218 1.553-.644 1.334-1.025 1.025-1.334.644-1.552.218-1.668-.218-1.669-.644-1.553-1.025-1.334-1.334-1.025-1.552-.644-1.669-.218-1.669.218-1.553.644-1.334 1.025-1.025 1.334-.644 1.552-.218 1.669.218 1.669.644 1.552 1.025 1.334 1.334 1.025 1.553.644z"/></g><g><path style="fill:#fff" d="m677.647 27.937-.154-1.178-.455-1.096-.723-.941-.941-.723-1.096-.454-1.177-.154-1.178.154-1.096.454-.941.724-.723.941-.454 1.096-.154 1.177.154 1.177.455 1.097.723.941.941.722 1.096.455 1.177.154 1.177-.154 1.097-.455.941-.723.723-.941.454-1.096z"/><path style="fill:#231f20" d="M673.295 33.97h-.389l-1.177-.154-.38-.102-1.096-.454-.339-.196-.941-.723-.276-.276-.723-.941-.196-.339-.455-1.096-.102-.38-.154-1.177v-.389l.154-1.177.102-.38.455-1.096.196-.339.723-.941.276-.276.941-.723.339-.196 1.096-.455.38-.102 1.177-.154h.389l1.177.154.38.102 1.096.454.339.196.941.723.275.275.723.941.196.339.455 1.096.102.38.154 1.178v.389l-.154 1.177-.102.38-.455 1.096-.196.339-.723.941-.275.276-.941.723-.339.196-1.096.455-.38.102-1.177.154zm-.98-3.103.786.103.786-.103.73-.303.628-.483.483-.629.303-.73.103-.786-.103-.786-.303-.73-.483-.628-.628-.483-.73-.303-.786-.103-.786.103-.73.303-.629.483-.483.628-.303.73-.103.786.103.786.303.73.483.628.628.483.731.304z"/></g><g><path style="fill:#fff" d="m98.149 290.153-.154-1.178-.455-1.096-.723-.941-.941-.723-1.096-.455-1.177-.153-1.178.154-1.096.454-.941.724-.723.94-.454 1.097-.154 1.177.154 1.177.454 1.097.724.94.94.723 1.097.455 1.177.154 1.177-.154 1.097-.455.94-.723.723-.941.455-1.096z"/><path style="fill:#231f20" d="m93.408 296.186-1.177-.154-.38-.102-1.096-.455-.339-.196-.941-.723-.276-.276-.723-.941-.196-.339-.455-1.096-.102-.38-.154-1.177v-.389l.154-1.177.102-.38.455-1.096.196-.339.723-.941.275-.275.941-.723.339-.196 1.096-.455.38-.102 1.178-.154h.389l1.177.154.379.102 1.096.454.34.196.941.723.275.275.723.941.196.339.455 1.096.102.38.154 1.178v.389l-.154 1.177-.102.38-.453 1.096-.196.339-.723.941-.276.276-.941.723-.34.197-1.096.455-.38.102-1.177.154h-.389zm-.591-3.103.786.103.786-.103.73-.303.628-.483.482-.628.303-.73.103-.786-.103-.786-.303-.73-.483-.628-.628-.483-.73-.303-.786-.103-.786.103-.73.303-.628.483-.483.628-.303.73-.103.786.103.786.303.73.483.628.628.483.731.303z"/></g><g><path style="fill:#fff" d="m111.157 520.416-.154-1.178-.455-1.096-.723-.941-.941-.723-1.096-.454-1.177-.154-1.178.154-1.096.455-.941.723-.723.941-.455 1.096-.153 1.177.154 1.177.454 1.097.724.941.94.722 1.097.455 1.177.154 1.177-.154 1.097-.455.94-.723.723-.941.455-1.096z"/><path style="fill:#231f20" d="m106.416 526.449-1.177-.154-.38-.102-1.096-.455-.339-.196-.941-.723-.275-.276-.723-.941-.196-.339-.455-1.096-.102-.38-.154-1.178v-.389l.154-1.177.102-.38.455-1.096.196-.339.723-.941.276-.276.941-.723.339-.196 1.096-.455.38-.102 1.177-.154h.389l1.177.154.38.102 1.096.455.339.196.941.723.276.276.723.941.196.339.455 1.096.102.38.154 1.177v.389l-.154 1.177-.102.38-.455 1.096-.196.339-.723.941-.275.275-.941.723-.339.196-1.096.455-.38.102-1.178.154h-.39zm-.591-3.103.786.103.786-.103.73-.303.628-.483.483-.628.303-.73.103-.786-.103-.786-.303-.73-.483-.629-.628-.483-.73-.303-.786-.103-.786.103-.73.303-.628.483-.482.628-.303.73-.103.786.103.786.303.73.483.628.629.483.728.304z"/></g><g><path style="fill:#fff" d="m388.313 177.196-.025-.195-.026-.193-.025-.194-.026-.198-.026-.199-.026-.199-.075-.181-.075-.18-.075-.181-.076-.184-.077-.185-.077-.185-.119-.156-.119-.154-.119-.155-.118-.153-.124-.162-.124-.161-.156-.12-.154-.118-.155-.119-.153-.118-.161-.124-.162-.124-.181-.075-.18-.075-.181-.075-.184-.076-.185-.077-.185-.076-.195-.026-.193-.025-.194-.025-.198-.026-.198-.026-.199-.026-.195.025-.193.026-.194.025-.198.026-.199.026-.199.026-.181.075-.18.075-.18.075-.185.076-.185.077-.185.076-.156.12-.154.119-.155.119-.153.118-.161.124-.162.124-.119.155-.119.155-.119.155-.118.153-.124.161-.124.162-.075.181-.074.18-.075.18-.077.185-.076.185-.077.185-.026.195-.025.192-.025.194-.026.199-.026.198-.026.199.026.195.025.193.025.194.026.198.026.199.026.198.075.182.075.179.075.181.076.185.077.185.077.185.119.155.119.155.119.155.118.153.124.161.124.162.156.119.154.119.155.119.153.117.161.124.162.124.181.076.18.074.181.075.184.077.185.076.185.077.195.025.193.026.194.025.198.026.198.026.199.026.195-.026.193-.025.194-.025.198-.026.199-.026.199-.026.181-.076.18-.074.18-.075.185-.077.185-.076.185-.077.156-.12.154-.118.155-.119.153-.118.161-.124.162-.124.12-.156.118-.154.119-.155.118-.153.124-.162.124-.161.075-.182.074-.179.075-.181.077-.184.076-.185.077-.185.026-.195.025-.193.025-.194.026-.198.026-.199z"/><path style="fill:#231f20" d="m383.572 183.229-1.177-.154-1.476-.556-1.28-.919-.999-1.217-.651-1.436-.256-1.558.154-1.565.556-1.477.919-1.281 1.216-.998 1.437-.651 1.556-.255 1.566.154 1.477.556 1.28.919.999 1.217.651 1.436.256 1.558-.154 1.564-.556 1.477-.919 1.28-1.216.999-1.437.651-1.556.255h-.39zm-.591-3.103.786.103.787-.103.883-.42.475-.365.557-.807.229-.552.103-.786-.406-1.517-.483-.628-.628-.483-.73-.303-.786-.103-.964.176-.553.229-.628.483-.557.807-.229.552-.103.787.177.963.347.706.519.594.652.438.552.229z"/></g><g><path style="fill:#fff" d="m720.989 50.261.753 2.781.753 2.783.754 2.784.754 2.785.755 2.789.755 2.789 2.137-1.932 2.139-1.934 2.139-1.935 2.14-1.935 2.143-1.938 2.143-1.938-.87 2.746-.871 2.749-.871 2.75-.871 2.75-.872 2.754-.873 2.755 2.842-.47 2.845-.471 2.845-.471 2.847-.471 2.85-.471 2.851-.472-2.216 1.84-2.219 1.842-2.219 1.842-2.22 1.842-2.223 1.846-2.224 1.846 2.645 1.14 2.648 1.143 2.648 1.142 2.649 1.142 2.654 1.145 2.653 1.144-2.859.35-2.863.35-2.863.35-2.863.35-2.868.35-2.869.351 1.609 2.389 1.61 2.393 1.61 2.393 1.611 2.393 1.613 2.397 1.613 2.397-2.594-1.252-2.597-1.253-2.598-1.253-2.598-1.254-2.602-1.256-2.603-1.255.061 2.88.061 2.883.062 2.883.061 2.884.061 2.889.061 2.889-1.506-2.456-1.507-2.458-1.508-2.459-1.507-2.459-1.511-2.464-1.51-2.463-1.506 2.456-1.507 2.458-1.508 2.459-1.508 2.459-1.51 2.464-1.51 2.463.06-2.88.062-2.883.061-2.883.061-2.885.061-2.888.061-2.889-2.594 1.251-2.597 1.254-2.598 1.253-2.598 1.254-2.603 1.256-2.602 1.255 1.608-2.389 1.61-2.393 1.611-2.393 1.61-2.393 1.614-2.397 1.613-2.397-2.859-.35-2.863-.35-2.862-.35-2.864-.35-2.868-.35-2.868-.351 2.645-1.141 2.648-1.142 2.648-1.142 2.649-1.143 2.653-1.144 2.653-1.144-2.216-1.84-2.219-1.842-2.219-1.842-2.22-1.843-2.223-1.845-2.224-1.846 2.842.47 2.845.471 2.846.471 2.846.471 2.851.471 2.85.472-.869-2.746-.871-2.749-.871-2.75-.871-2.75-.873-2.754-.873-2.755 2.137 1.932 2.139 1.934 2.139 1.935 2.14 1.935 2.143 1.938 2.143 1.938.753-2.781.754-2.783.753-2.784.754-2.785.756-2.789z"/><path style="fill:#231f20" d="m713.218 113.984-2.779-.816.315-14.863-13.389 6.46-1.896-2.188 8.3-12.333-14.756-1.804-.412-2.866 13.65-5.888-11.438-9.495 1.203-2.634 14.667 2.427-4.489-14.172 2.436-1.566 11.026 9.971 3.885-14.349h2.896l3.885 14.349 11.026-9.971 2.436 1.566-4.489 14.172 14.667-2.427 1.203 2.634-11.438 9.495 13.65 5.888-.412 2.866-14.756 1.804 8.3 12.333-1.896 2.188-13.389-6.461.315 14.863-2.779.816-7.771-12.673-7.771 12.674zm9.05-16.327 6.154 10.036-.25-11.77 2.152-1.383 10.603 5.116-6.573-9.767 1.062-2.326 11.685-1.428-10.81-4.663-.364-2.531 9.058-7.519-11.615 1.922-1.675-1.933 3.555-11.223-8.732 7.896-2.454-.721L720.989 56l-3.077 11.363-2.454.72-8.732-7.896 3.555 11.223-1.675 1.933-11.615-1.922 9.058 7.519-.364 2.531-10.81 4.663 11.685 1.428 1.062 2.326-6.573 9.767 10.603-5.116 2.152 1.383-.25 11.77 6.154-10.036 2.56.001z"/></g><g><path style="fill:#fff" d="M291.688 525.788a1.503 1.503 0 0 1-.387-.067l-.738-.23a1.498 1.498 0 0 1-.354-.164l-.653-.413a1.505 1.505 0 0 1-.301-.25l-.524-.568a1.53 1.53 0 0 1-.227-.321l-.359-.685a1.484 1.484 0 0 1-.079-.178l-15.425-41.93a1.539 1.539 0 0 1-.055-.187l-.171-.754a1.484 1.484 0 0 1-.036-.393l.032-.772c.005-.131.028-.261.067-.386l.23-.738a1.51 1.51 0 0 1 .163-.353l.413-.654a1.51 1.51 0 0 1 .251-.302l.568-.524a1.51 1.51 0 0 1 .322-.227l.685-.358c.115-.06.237-.105.364-.134l.754-.171c.109-.025.22-.037.332-.037l.833.033c.131.005.262.028.387.067l.738.231c.125.039.243.094.353.164l.653.413c.111.07.212.154.301.25l.524.568c.089.097.166.205.227.321l.359.685c.03.058.057.117.079.178l15.425 41.929c.022.062.041.124.056.188l.17.754c.029.128.041.26.035.391l-.031.772a1.447 1.447 0 0 1-.067.386l-.23.738a1.48 1.48 0 0 1-.164.354l-.413.653c-.07.111-.154.212-.25.301l-.568.524a1.53 1.53 0 0 1-.321.227l-.685.359a1.506 1.506 0 0 1-.366.135l-.755.17a1.524 1.524 0 0 1-.33.037l-.832-.032z"/><path style="fill:#231f20" d="m276.56 476.492.772.031.738.23.654.413.524.568.359.685 2.57 6.985 2.57 6.986 2.569 6.983 2.571 6.989 2.573 6.993 2.573 6.994.171.755-.031.772-.23.738-.413.654-.568.524-.685.359-.755.171-.772-.031-.738-.23-.653-.413-.524-.568-.359-.685-2.569-6.985-2.57-6.986-2.569-6.983-2.571-6.989-2.573-6.994-2.573-6.993-.171-.755.031-.772.23-.738.413-.654.568-.524.685-.359.753-.171m0-3c-.222 0-.444.025-.662.074l-.755.171c-.254.057-.5.148-.73.269l-.685.359a3.01 3.01 0 0 0-.643.453l-.568.524a2.992 2.992 0 0 0-.502.603l-.413.654c-.139.22-.249.458-.327.707l-.23.738a3.02 3.02 0 0 0-.134.772l-.031.772c-.011.263.013.527.072.784l.171.755c.029.127.066.252.111.374l2.573 6.993 2.573 6.994 2.571 6.989 2.569 6.983 2.57 6.986 2.569 6.985c.045.122.098.241.158.357l.359.685a3 3 0 0 0 .453.643l.524.568c.178.193.38.361.602.501l.653.413c.221.14.459.25.708.327l.738.23c.25.078.51.123.772.134l.772.031a3.019 3.019 0 0 0 .784-.072l.755-.171c.254-.057.5-.148.73-.269l.685-.359c.233-.122.449-.275.643-.453l.568-.524c.193-.178.361-.38.501-.602l.413-.654c.139-.221.25-.459.327-.708l.23-.738c.078-.25.123-.51.134-.772l.031-.772a2.962 2.962 0 0 0-.072-.785l-.171-.755a3.01 3.01 0 0 0-.11-.373l-2.573-6.994-2.573-6.993-2.571-6.989-2.569-6.983-2.57-6.986-2.57-6.985a2.899 2.899 0 0 0-.158-.356l-.359-.685a2.985 2.985 0 0 0-.454-.644l-.524-.568a3.009 3.009 0 0 0-.602-.501l-.654-.413a3.007 3.007 0 0 0-.707-.327l-.738-.23a3.027 3.027 0 0 0-.773-.134l-.772-.031c-.037-.002-.078-.002-.119-.002z"/></g><g><path style="fill:#fff" d="M812.271 388.749a1.52 1.52 0 0 1-.384-.07l-.735-.237a1.571 1.571 0 0 1-.354-.167l-.649-.419a1.589 1.589 0 0 1-.3-.255l-.518-.574a1.626 1.626 0 0 1-.121-.153l-39.684-57.51a1.685 1.685 0 0 1-.101-.167l-.353-.688a1.527 1.527 0 0 1-.132-.37l-.162-.756a1.509 1.509 0 0 1-.031-.391l.04-.772c.007-.13.03-.259.07-.384l.237-.736c.041-.125.097-.244.168-.354l.419-.649c.071-.11.157-.211.255-.299l.574-.518c.097-.087.205-.162.32-.221l.688-.353c.117-.06.242-.104.37-.132l.756-.162c.104-.022.209-.033.314-.033.025 0 .849.042.849.042.13.007.259.03.384.07l.736.237c.125.041.243.097.354.167l.649.419a1.5 1.5 0 0 1 .3.256l.518.574c.043.048.083.099.12.152l39.684 57.51c.037.054.07.109.1.167l.353.688c.061.117.105.242.132.371l.162.756c.027.128.038.259.031.39l-.04.772c-.007.13-.03.259-.07.383l-.237.735c-.04.125-.097.244-.168.354l-.42.649c-.071.11-.157.211-.254.299l-.574.518a1.544 1.544 0 0 1-.321.222l-.688.353c-.117.06-.242.104-.371.132l-.756.162a1.499 1.499 0 0 1-.313.033c-.024 0-.847-.041-.847-.041z"/><path style="fill:#231f20" d="m772.961 323.876.772.04.736.237.649.42.518.574 6.611 9.58 6.612 9.583 6.615 9.586 6.613 9.583 6.617 9.589 6.617 9.589.353.688.162.756-.04.772-.237.736-.419.649-.574.518-.688.353-.756.162-.772-.04-.736-.237-.649-.42-.518-.574-6.611-9.58-6.612-9.583-6.615-9.586-6.613-9.583-6.617-9.589-6.617-9.589-.353-.688-.162-.756.04-.772.237-.736.42-.649.574-.518.688-.353.755-.162m0-3c-.211 0-.422.022-.628.067l-.756.162a3.019 3.019 0 0 0-.741.264l-.688.353a3.035 3.035 0 0 0-.641.442l-.574.518a3.013 3.013 0 0 0-.51.599l-.42.649a2.972 2.972 0 0 0-.336.709l-.237.736c-.08.248-.127.506-.141.767l-.04.772c-.013.262.008.525.062.781l.162.756c.055.258.144.507.264.741l.353.688c.059.116.126.228.2.335l6.617 9.589 6.617 9.589 6.613 9.583 6.615 9.586 6.612 9.583 6.611 9.58c.074.107.155.209.241.306l.518.574c.176.196.378.367.599.51l.649.42c.22.143.459.255.709.336l.736.237c.248.08.506.127.766.141l.772.04a3 3 0 0 0 .781-.062l.756-.162a2.96 2.96 0 0 0 .742-.265l.688-.353c.231-.119.446-.267.639-.441l.574-.518a2.99 2.99 0 0 0 .511-.6l.419-.649c.142-.22.255-.458.336-.708l.237-.736c.08-.248.127-.505.141-.766l.04-.772a3.062 3.062 0 0 0-.062-.782l-.162-.756a2.99 2.99 0 0 0-.264-.741l-.353-.688a2.904 2.904 0 0 0-.2-.335l-6.617-9.589-6.617-9.589-6.613-9.583-6.615-9.586-6.612-9.583-6.611-9.58a3.105 3.105 0 0 0-.241-.305l-.518-.574a3.008 3.008 0 0 0-.599-.51l-.649-.42a3.025 3.025 0 0 0-.708-.336l-.736-.237a3.027 3.027 0 0 0-.766-.141l-.772-.04a1.565 1.565 0 0 0-.153-.006z"/></g><g><path style="fill:#fff" d="m466.145 44.572-1.283.439-1.285.439-1.283.439-1.286.44-1.288.44-1.288.44-1.244.489-1.246.489-1.243.489-1.246.489-1.249.491-1.249.491-1.272.416-1.273.416-1.271.416-1.273.416-1.276.418-1.277.418-1.246.489-1.247.49-1.246.49-1.248.49-1.251.491-1.251.491-1.285.431-1.286.431-1.284.43-1.287.432-1.29.432-1.289.432.994.929.989.925.995.93.997.932.999.934.999.934.934.966.929.962.935.967.936.969.938.971.939.972.989.911.984.908.99.912.991.914.994.916.995.916.935.968.931.964.936.968.937.97.941.973.94.973.991.938.987.934.992.938.994.941.997.942.996.943-1.144-.737-1.145-.738-1.144-.738-1.146-.738-1.148-.74-1.149-.741-1.159-.675-1.16-.677-1.159-.675-1.16-.677-1.164-.678-1.163-.678-1.119-.743-1.12-.743-1.119-.742-1.12-.743-1.123-.745-1.123-.746-1.161-.676-1.162-.678-1.16-.677-1.163-.677-1.165-.68-1.165-.679-1.139-.744-1.14-.744-1.138-.744-1.14-.744-1.143-.747-1.143-.747-.099 1.359-.1 1.36-.099 1.358-.1 1.362-.1 1.363-.099 1.364-.166 1.335-.167 1.337-.166 1.334-.166 1.338-.167 1.34-.166 1.34-.089 1.343-.089 1.346-.089 1.343-.088 1.346-.09 1.348-.089 1.349-.166 1.337-.166 1.339-.166 1.336-.167 1.34-.167 1.342-.167 1.342-.108 1.362-.108 1.364-.107 1.362-.109 1.364-.108 1.367-.108 1.368-.144-1.359-.143-1.36-.143-1.358-.144-1.361-.144-1.363-.144-1.363-.201-1.332-.201-1.332-.201-1.331-.201-1.334-.201-1.336-.202-1.336-.124-1.342-.124-1.343-.124-1.341-.124-1.345-.124-1.346-.124-1.347-.202-1.333-.201-1.335-.201-1.333-.202-1.336-.201-1.338-.202-1.338-.135-1.358-.135-1.359-.135-1.358-.135-1.36-.136-1.363-.135-1.363-1.118.765-1.119.766-1.118.765-1.119.767-1.122.768-1.123.768-1.14.699-1.142.699-1.141.698-1.142.699-1.146.702-1.145.701-1.099.764-1.095.761-1.1.765-1.102.766-1.106.768-1.105.768-1.142.7-1.144.7-1.142.7-1.144.7-1.147.703-1.148.702-1.125.761-1.127.761-1.125.761-1.128.761-1.13.764-1.13.764.965-.957.962-.952.966-.957.968-.959.971-.962.97-.961.908-.984.905-.981.909-.985.91-.987.914-.989.913-.99.964-.931.961-.927.965-.931.967-.933.97-.936.97-.936.91-.986.905-.981.911-.987.912-.989.915-.991.914-.991.97-.949.967-.946.971-.95.972-.952.976-.955.975-.955-1.294-.404-1.296-.405-1.294-.404-1.297-.406-1.3-.406-1.299-.406-1.256-.464-1.258-.464-1.256-.464-1.258-.465-1.261-.466-1.261-.466-1.283-.391-1.283-.391-1.282-.39-1.285-.392-1.287-.392-1.287-.392-1.258-.465-1.26-.465-1.258-.465-1.259-.465-1.264-.467-1.263-.466-1.296-.414-1.297-.414-1.296-.413-1.299-.414-1.3-.415-1.301-.415 1.347.166 1.349.165 1.347.166 1.349.166 1.353.167 1.352.166 1.333.104 1.335.103 1.333.104 1.337.104 1.338.104 1.339.104 1.326.181 1.328.182 1.326.181 1.329.181 1.332.182 1.331.182 1.336.104 1.337.104 1.335.104 1.338.104 1.341.104 1.34.104 1.345.174 1.346.174 1.345.174 1.347.174 1.35.174 1.35.175-.497-1.27-.496-1.271-.497-1.269-.497-1.271-.498-1.275-.498-1.275-.426-1.277-.427-1.278-.426-1.277-.427-1.28-.427-1.281-.428-1.282-.499-1.251-.5-1.253-.5-1.251-.5-1.253-.501-1.257-.501-1.256-.427-1.279-.427-1.281-.427-1.278-.428-1.282-.428-1.284-.428-1.283-.49-1.277-.491-1.278-.49-1.276-.492-1.278-.492-1.281-.492-1.282.715 1.164.715 1.164.715 1.163.715 1.164.718 1.168.717 1.167.755 1.114.751 1.109.755 1.115.757 1.117.759 1.12.758 1.119.69 1.157.69 1.158.69 1.156.69 1.158.693 1.161.692 1.161.756 1.116.756 1.116.756 1.116.756 1.116.759 1.121.759 1.12.707 1.166.707 1.167.707 1.166.707 1.168.71 1.171.709 1.171.676-1.179.676-1.18.676-1.178.676-1.18.678-1.184.678-1.183.726-1.129.726-1.129.725-1.129.726-1.13.728-1.133.728-1.133.66-1.169.66-1.171.659-1.17.66-1.171.662-1.174.662-1.174.726-1.131.727-1.131.726-1.13.727-1.132.73-1.135.729-1.135.685-1.178.685-1.179.684-1.178.686-1.179.687-1.183.688-1.183-.457 1.285-.456 1.286-.456 1.284-.458 1.287-.457 1.289-.458 1.29-.393 1.285-.393 1.286-.392 1.285-.394 1.287-.394 1.29-.394 1.289-.466 1.261-.467 1.263-.467 1.261-.467 1.263-.468 1.266-.469 1.266-.393 1.287-.394 1.289-.393 1.286-.394 1.29-.394 1.291-.395 1.292-.464 1.28-.464 1.282-.463 1.28-.465 1.284-.465 1.285-.465 1.285 1.339-.2 1.34-.201 1.338-.2 1.342-.2 1.343-.201 1.344-.201 1.33-.13 1.332-.13 1.33-.13 1.333-.131 1.335-.13 1.335-.131 1.322-.207 1.323-.207 1.321-.208 1.325-.207 1.326-.208 1.326-.208 1.333-.131 1.334-.13 1.332-.13 1.335-.131 1.337-.131 1.337-.13 1.344-.193 1.345-.193 1.344-.193 1.346-.193 1.349-.193z"/><path style="fill:#231f20" d="m417.555 105.65-.862-8.164-1.199-7.934-.755-8.15-1.198-7.927-.57-5.717-4.629 3.169-6.92 4.239-6.534 4.545-6.94 4.252-6.709 4.535-1.895-2.309 5.802-5.748 5.412-5.867 5.858-5.656 5.406-5.863 4.091-4.007-5.385-1.683-7.623-2.814-7.624-2.321-7.645-2.821-7.725-2.463.639-2.918 8.096.996 7.948.617 8.059 1.098 7.941.615 5.647.728-2.061-5.272-2.586-7.747-2.972-7.44-2.594-7.769-2.924-7.608 2.678-1.323 4.294 6.99 4.499 6.638 4.191 7.024 4.496 6.631 2.969 4.897 2.795-4.876 4.398-6.848 3.917-6.955 4.41-6.868 4.08-7.023 2.71 1.255-2.742 7.721-2.338 7.659-2.832 7.662-2.335 7.652-1.954 5.402 5.557-.831 8.071-.791 7.857-1.235 8.094-.794 8.01-1.15.698 2.904-7.713 2.637-7.414 2.914-7.723 2.53-7.407 2.912-5.407 1.814 4.135 3.865 5.666 5.861 5.88 5.417 5.682 5.876 5.91 5.589-1.843 2.351-6.876-4.432-6.908-4.026-6.798-4.507-6.902-4.022-4.777-3.118-.412 5.628-1.005 8.1-.525 7.989-1.007 8.122-.642 8.12-2.986.043zm-4.188-41.798 2.34 1.09.811 8.161 1.199 7.938.755 8.15.396 2.612.338-2.717.525-7.989 1.006-8.11.59-8.09 2.316-1.146 6.843 4.47 6.911 4.028 6.798 4.507 2.285 1.329-1.929-1.996-5.881-5.417-5.673-5.868-5.919-5.53.548-2.518 7.721-2.587 7.417-2.916 7.723-2.53 2.506-.987-2.787.272-7.857 1.235-8.082.792-7.97 1.194-1.632-1.994 2.786-7.696 2.339-7.662 2.832-7.662.777-2.553-1.487 2.314-3.917 6.955-4.404 6.857-4.021 7.019-2.584.032-4.248-7.009-4.501-6.641-4.191-7.024-1.477-2.176.87 2.607 2.972 7.44 2.59 7.756 2.958 7.559-1.589 2.034-8.083-1.045-7.952-.617-8.059-1.098-2.664-.205 2.626.97 7.624 2.321 7.633 2.817 7.708 2.406.602 2.504-5.831 5.707-5.414 5.87-5.858 5.656-1.824 1.98 2.37-1.452 6.534-4.545 6.929-4.245 6.656-4.557z"/></g><g><path style="fill:#fff" d="m399.025 307.803-.154-1.178-.454-1.096-.724-.941-.94-.723-1.097-.454-1.177-.154-1.177.154-1.097.455-.94.723-.723.941-.455 1.096-.154 1.177.154 1.178.455 1.096.723.941.941.723 1.096.454 1.177.154 1.178-.154 1.096-.455.941-.723.723-.941.454-1.096z"/><path style="fill:#231f20" d="m394.285 313.836-1.177-.154-.38-.102-1.096-.455-.339-.196-.941-.723-.276-.276-.723-.941-.196-.339-.455-1.096-.102-.38-.154-1.177v-.389l.154-1.177.102-.38.454-1.096.196-.34.723-.941.275-.275.941-.723.339-.196 1.096-.455.38-.102 1.178-.154h.389l1.177.154.38.102 1.096.455.339.196.941.723.275.275.723.941.196.339.455 1.096.102.38.154 1.178v.389l-.154 1.177-.102.38-.454 1.096-.196.34-.723.941-.276.275-.941.723-.34.197-1.096.455-.38.102-1.177.154h-.387zm-.591-3.102.786.103.786-.103.73-.303.628-.483.483-.628.303-.73.103-.786-.103-.786-.303-.73-.483-.628-.628-.483-.73-.303-.786-.103-.786.103-.73.303-.628.483-.483.628-.303.73-.103.786.103.786.303.73.483.629.628.483.73.302z"/></g></g></g></svg></g></svg>