<svg xmlns="http://www.w3.org/2000/svg" viewBox="0 0 1100 800" width="1100" height="800"><path fill="#1F1F1F" d="M0 0h1100v800H0z"/><g transform="translate(165.0 126.0) rotate(0.0 324.5 296.0) scale(1.0585635178887447 1.057242917633276)"><svg width="613.095" height="559.947" viewBox="0 0 613.095 559.947"><path d="M429.051 222.99s-59.49-64.124-39.955-135.464c0 0-21.862-.854-25.905-.468.682-1.022-.376 22.356-.184 22.508l-4.566 19.849-10.004 17.632c-45.332 43.912-96.081-7.055-89.108-59.674-8.641-.031-26.013.003-34.633.83l8.609 21.92 2.61 22.699-.79 22.887-4.899 22.387c-5.275 10.366-14.008 25.182-20.163 36.915-5.564 10.606-8.837 18.691-8.837 18.691s4.819 26.743 18.669 47.736l1.596-1.041c28.866 9.527 24.66 7.283 47.175 27.396.001-.001 14.211 24.153 14.211 24.153l8.566 26.724 4.178 28.981c2.84 2.088 28.243 9.226 32.107 10.485 4.928.979 8.484 1.41 12.559 4.871l2.808-2.736c.06.093.085.22.07.34 1.352-14.802 6.517-44.983 10.339-59.338l10.89-27.539 17.398-23.658s25.599-11.586 27.86-10.874c1.278.403 19.399-56.212 19.399-56.212z" fill="#1F1F1F"/><path d="m606.925 383.176-7.078-12.854c-3.066 2.828-6.85 3.388-10.845 2.663-3.683 2.814-8.488 2.145-12.636.901-11.495 4.861-26.677 1.045-37.767-3.609-8.68-6.598-18.084-12.743-28.073-17.381-17.593-11.971-32.031-28.804-54.639-17.622-4.292-5.47-13.984-15.189-19.397-19.553l-11.856-7.441-12.924-5.409-13.108-2.161c2.984-5.386 9.327-17.354 11.692-22.917-11 2.818-29.607 12.061-29.607 12.061-5.34 4.325-8.278 11.073-12.142 16.712-18.755 27.372-23.456 66.366-27.821 99.044l.911-.646c5.446 7.443 7.209 15.716 6.876 24.738 5.776-.603 17.573-.796 23.403-.563 13.787 5.057 18.827 13.408 22.025 27.242.847 26.737 9.324 41.222 29.114 58.918 55.557-13.026 116.292-26.779 160.053-65.604.001.001 14.503-14.544 14.503-14.544l7.942-16.242 3.396-17.763zm-311.099 4.253c-3.574-48.865-26.055-99.382-78.467-108.811 3.151 5.893 10.045 17.666 13.584 23.377-11.424 1.164-26.116 7.539-35.748 13.641l-10.767 9.644-8.923 12.896c-7.354-1.314-19.675-2.457-27.131-2.313-11.3 8.308-25.572 15.181-38.004 21.581C99.223 371.82 80.951 384 62.164 382.123c-8.471-6.218-16.123 1.356-25.1-7.808l-11.762 15.559c-4.836 21.954-4.85 17.203.43 38.968l11.555 16.302 16.17 11.686c32.873 11.335 67.759 13.956 104.03 20.216 42.282 7.297 86.011 18.297 123.941 34.693 10.917-39.711 13.616-85.882 46.641-113.867-3.473-1.152-29.867-8.596-32.243-10.443zm4.673-341.55c1.415-6.346 4.573-9.516 11.357-8.55 5.907-1.046 13.797.651 12.405 8.315-7.656-.024-16.097.322-23.762.235z" fill="#1F1F1F"/><path d="M65.827 378.458c-3.719-.964-7.886-3.229-9.97-6.565-20.356-3.825-19.73 4.697-36.963 7.339-2.891-.094-5.697-2.119-7.335-4.403-6.008-13.898 14.125-17.828 22.708-23.466-12.765 2.566-26.709-3.948-31.657-16.244l-1.207-4.905.446-5.074 2.511-4.473 5.083-2.382c-.842-8.198 4.958-16.129 9.382-22.404l9.241-6.639 10.754-3.699 11.344-.646 10.854 1.575c9.093-13.099 15.756-29.547 23.873-43.257.282-1.034 3.27-5.278 3.27-5.278 24.209-30.656 32.273-30.548 43.91-72.222 16.826-40.487 45.594-78.107 93.293-78.573l8.545 21.756 2.632 22.94-.804 23.059c-2.307 19.782-13.922 43.733-25.348 59.758-24.073 60.749-67.665 111.585-113.678 156.875-10.44 6.805-18.529 9.617-30.884 6.928zm-32.489-44.696c11.685.078 24.69-16.191 11.926-24.285-2.114-1.136-4.955-1.612-7.216-.656-5.987 2.729-8.203 10.508-12.355 15.16-2.113 1.162-5.627 3.215-8.125 2.728l-3.703-1.281c1.005 2.956 4.197 4.27 7.065 3.204 3.074 3.155 7.961 5.377 12.408 5.13zm269.76-169.674c-35.187-6.332-46.465-45.373-45.144-76.699 11.076-.178 24.833.228 35.865-.2.301-.137.583-.502.818-.698 0-.237.283-.414.217-.651 1.562-7.248 3.07-16.032 4.254-23.365l.071.031.96-4.719c1.761-.474 5.067-1.817 6.588-2.807 1.953-1.213 4.263-3.246 6.691-3.221 3.039.491 5.451 3.915 8.143 5.21 4.306 2.141 3.403 2.3 4.221 6.672l-.014.009c1.33 5.658 2.22 12.39 3.746 17.984.028.515.26 1.493.473 1.964.02.162.042.33.069.501.268 1.688 1.71 2.936 3.417 3.013 8.674.389 23.137-.222 30.786-.125-.343.395-.534 21.609-.631 22.724l-4.621 20.093-10.173 17.93-16.155 12.749-20.136 4.235zM412.51 551.955c-4.597-2.192-9.509-5.244-14.66-7.189-36.058-13.613-83.823-19.944-117.042-33.788 6.394-29.724 14.963-65.303 27.813-92.959 30.709 18.77 52.743 1.721 75.307 15.267 7.54 9.418 8.228 10.845 11.32 22.407.418 25.194 9.558 43.79 28.515 60.143 3.708 3.344 6.152 8.99 7.543 13.786l.187 5.506c-4.022 8.175 6.682 7.127 4.649 17.54l-2.769 3.308c-12.445.479-10.007 1.819-20.863-4.021z" fill="#1F1F1F"/><path d="M181.531 553.981c-3.442-8.744 5.75-13.86 12.364-17.67 3.075-12.831 2.593-11.478 10.662-21.748 9.078-6.575 23.147-12.562 32.508-18.72 31.865 10.912 56.892 11.668 74.452 44.861-39.861 6.381-83.764 15.317-124.008 18.07 0-.002-5.978-4.793-5.978-4.793zm367.516-179.378c-10.6-2.057-19.738-9.559-26.58-17.581-3.678-3.57-10.81-10.854-14.286-14.612-16.862-17.776-33.311-39.059-46.651-59.635-9.633-15.2-17.993-35.036-27.48-50.31-12.028-15.7-26.614-35.163-35.187-53.178-.001.001-7.862-21.686-7.862-21.686l-4.326-22.655-1.318-23.024 2.359-24.358c73.33 2.213 87.772 44.918 114.635 103.303l9.121 13.483c6.643 6.642 18.627 21.011 23.977 28.727 9.911 13.844 19.733 34.537 24.21 50.958.711.514 1.573.338 2.118-.461.699-.342 1.376-1.14 2.096-1.443 1.418-1.238 3.563-1.731 5.257-2.484.533-.141 10.148-1.214 11.025-1.247l9.6 2.255 8.591 4.841 6.542 7.382c2.046 4.571 6.139 12.424 3.837 17.625 6.387 5.048 3.473 14.626.147 20.664-6.489 8.764-17.157 10.299-27.098 7.125 4.117 4.087 9.031 9.05 13.041 13.252 2.268 2.013 5.349 5.169 6.002 8.253.633 5.645-3.383 10.804-9.214 10.739-3.827.103-6.93-3.19-10.184-4.676-1.701 1.388-6.548 2.159-8.665 2.405-3.397 8.747-16.156 7.243-23.707 6.338zm35.224-50.406c4.159-.427 8.062-2.746 9.748-6.679 3.596.4 7.95-.503 10.664-3.006-3.746 1.641-8.195.524-10.549-2.857-2.887-3.72-5.119-9.396-9.932-11.086-7.218-.557-10.81 3.166-13.23 9.573-1.373 8.94 4.728 14.088 13.299 14.055zm-263.006-66.139c-3.509.02-17.197.134-20.432.07-3.752-8.426-8.316-17.678-12.081-26.098 7.255-11.817 16.761-28.232 23.988-40.066 13.059 21.225 27.84 44.847 40.828 66.114-8.057.078-24.264.075-32.303-.02z" fill="#1F1F1F"/><path d="M574.013 368.151a1.5 1.5 0 0 1-.056-2.999c3.189-.122 6.814-1.873 9.132-4.39l.774-3.082c-.634-2.271-1.524-4.381-3.48-4.963a1.43 1.43 0 0 1-.22-.085c-1.024-.49-2.293-.687-3.637-.896-1.196-.186-2.432-.377-3.601-.798-3.71-.842-6.947-3.17-9.806-5.226-.672-.484-.862-1.447-.378-2.12.483-.673 1.383-.852 2.057-.368 2.852 2.051 5.725 4.117 8.871 4.806.069.015.137.035.203.06.913.34 1.982.506 3.115.682 1.462.227 2.972.461 4.366 1.104 3.403 1.074 4.696 4.34 5.512 7.402.065.246.067.504.005.751-.709 2.828-.99 3.943-1.287 4.435l.006.005-.032.036a.9.9 0 0 1-.192.216c-2.865 3.154-7.26 5.275-11.292 5.429l-.06.001z" fill="#FFF"/><path d="M590.972 370.674a11.04 11.04 0 0 1-2.564-.3 1.502 1.502 0 0 1-.26-.088c-1.515-.671-2.967-1.601-4.371-2.501-.667-.427-1.322-.847-1.962-1.223a1.5 1.5 0 1 1 1.518-2.588c.674.395 1.363.836 2.063 1.285 1.266.811 2.574 1.649 3.84 2.226a8.274 8.274 0 0 0 7.157-1.821c.048-.098.108-.193.18-.281 3.383-4.259 2.322-8.219-3.546-13.237a1.51 1.51 0 0 1-.109-.103 662.74 662.74 0 0 0-13.764-13.95 1.502 1.502 0 0 1-.435-.864 1.502 1.502 0 0 1 .504-1.646 1.504 1.504 0 0 1 1.626-.407c10.321 3.741 23.516 2.049 28.102-10.505 1.405-4.814 2.191-9.848-1.741-13.414a1.5 1.5 0 1 1 2.016-2.222c5.168 4.688 4.202 11.008 2.575 16.572-3.36 9.207-13.047 16.743-27.055 13.803a666.104 666.104 0 0 1 10.289 10.505c2.625 2.246 10.194 8.816 4.221 16.9-.059.199-.16.389-.303.556l-.033.036-.061.062c-2.107 2.07-4.975 3.205-7.887 3.205zm-571.659 9.765c-.308 0-.612-.016-.914-.051-3.249-.18-6.119-1.948-7.881-4.859-1.826-3.017-2.068-6.657-.646-9.736.855-2.168 3.029-4.252 6.427-6.116a1.44 1.44 0 0 1 .104-.052c.884-.399 1.935-.998 2.95-1.576 1.094-.623 2.225-1.266 3.26-1.733a107.626 107.626 0 0 1 6.053-3.354c-4.179.135-8.229-.307-12.733-2.438-6.755-3.104-12.519-8.956-14.668-14.903l.032-.012c-.114-.285-.19-.597-.262-.886l-.991-4.029a1.495 1.495 0 0 1-.038-.49l.429-4.884a1.51 1.51 0 0 1 .186-.603l2.38-4.239a1.5 1.5 0 0 1 .671-.624l4.415-2.07A1.5 1.5 0 1 1 9.36 320.5l-3.979 1.865-1.986 3.538-.379 4.314 1.096 4.455c1.911 5.204 7.039 10.352 13.088 13.131 5.96 2.82 11.021 2.32 17.426 1.688.687-.068 1.383-.136 2.092-.202a1.5 1.5 0 0 1 .725 2.874 109.213 109.213 0 0 0-13.366 6.771c-.053.032-.107.06-.164.085-.92.408-2.017 1.031-3.076 1.635-1.056.601-2.147 1.223-3.144 1.678-2.702 1.49-4.453 3.094-5.065 4.64-1.036 2.25-.853 4.839.457 7.002 1.247 2.06 3.258 3.306 5.518 3.419.037.002.073.005.11.01 2.073.255 4.892-.922 7.154-1.87.492-.206.964-.404 1.409-.58a476.693 476.693 0 0 1 15.203-6.63 1.5 1.5 0 1 1 1.146 2.772 479.178 479.178 0 0 0-15.173 6.616c-.499.2-.953.39-1.426.588-2.303.966-5.105 2.14-7.713 2.14zM2.675 335.112h.01z" fill="#FFF"/><path d="M53.023 373.096c-4.373 0-11.895-.914-15.802-6.678-1.401-2.091-1.898-4.678-1.367-7.105.501-2.289 1.861-4.215 3.831-5.421.074-.046.153-.084.234-.116 3.134-1.235 6.453-1.408 9.662-1.577 5.406-.283 10.075-.528 13.247-5.471a1.501 1.501 0 0 1 2.526 1.621c-4.002 6.238-9.906 6.548-15.615 6.847-3.057.16-5.948.312-8.593 1.323-1.208.78-2.044 1.995-2.359 3.437a6.25 6.25 0 0 0 .924 4.788c3.623 5.346 11.607 5.495 14.867 5.312.833-.052 1.535.586 1.582 1.413s-.586 1.535-1.413 1.582c-.492.025-1.073.045-1.724.045z" fill="#FFF"/><path d="M76.043 380.947c-.798-.095-1.617-.183-2.45-.271-7.92-.843-17.776-1.891-20.504-11.778a1.512 1.512 0 0 1-.047-.548l.32-3.217c.02-.194.076-.382.167-.554l.756-1.427c.514-.968.84-1.583 1.179-1.921l.001-.001c.098-.097.197-.172.301-.225 2.595-1.913 4.744-2.877 8.277-2.558.088.008.175.024.26.047 6.297 1.721 12.635 2.499 16.336-3.418a1.5 1.5 0 1 1 2.543 1.591c-4.75 7.593-12.916 6.552-19.538 4.757-2.562-.207-4.015.456-6.11 2.005l-1.217 2.295-.263 2.638c2.287 7.675 10.2 8.517 17.854 9.331.748.08 1.485.158 2.207.242l10.04-2.609c10.504-4.883 18.528-14.231 26.29-23.273 2.854-3.325 5.806-6.764 8.788-9.852 18.959-17.456 34.761-39.148 50.042-60.127 3.794-5.209 7.717-10.595 11.591-15.777 5.226-9.421 10.768-21.373 16.128-32.933 3.253-7.014 6.325-13.639 9.22-19.477.036-.073.078-.142.125-.208 5.873-8.179 15.786-26.703 20.143-36.701l4.852-22.167.792-22.729-2.586-22.532-8.278-21.076a1.5 1.5 0 0 1 2.792-1.097l8.35 21.258c.048.121.08.248.094.377l2.621 22.839c.008.074.011.149.009.223l-.801 22.977c-.003.09-.014.18-.034.268l-4.144 18.937c-.47 2.149-.701 3.204-.902 3.764l.044.02c-4.458 10.27-14.335 28.744-20.444 37.289-2.861 5.776-5.908 12.345-9.132 19.297-5.4 11.645-10.984 23.686-16.276 33.216-.033.059-.07.116-.11.17-3.882 5.192-7.821 10.599-11.63 15.828-15.367 21.096-31.257 42.911-50.372 60.506-2.859 2.964-5.651 6.217-8.607 9.66-8 9.321-16.272 18.958-27.43 24.099a1.623 1.623 0 0 1-.25.09l-8.812 2.29c-.974.253-1.67.434-2.185.437zm481.29-5.448c-2.193 0-4.236-.173-5.849-.37-12.873-1.067-23.488-10.492-30.131-18.234-3.877-3.75-10.988-11.064-14.325-14.654-16.295-17.178-32.916-38.43-46.788-59.827-5.133-8.022-10.61-18.836-15.442-28.377-1.843-3.638-3.583-7.075-5.22-10.195-4.959-9.466-12.176-19.074-19.155-28.366-4.224-5.623-8.213-10.935-11.743-16.223-20.426-32.045-28.62-72.59-22.498-111.265a1.499 1.499 0 1 1 2.963.469c-6.009 37.961 2.026 77.747 22.047 109.157 3.467 5.192 7.432 10.471 11.63 16.06 7.05 9.387 14.341 19.095 19.414 28.775 1.646 3.138 3.391 6.584 5.239 10.232 4.8 9.478 10.241 20.22 15.289 28.108 13.77 21.24 30.269 42.338 46.453 59.398 3.316 3.569 10.546 10.999 14.272 14.599.034.033.066.067.097.103 6.274 7.325 16.26 16.265 28.205 17.256 2.886.351 12.455 1.184 16.801-2.58 1.448-1.255 2.175-2.893 2.222-5.007-.046-2.274-2.399-3.85-4.739-4.392-1.03-.099-2.159-.091-3.353-.084-1.455.011-2.963.02-4.368-.177-3.612-.318-7.547-2.04-11.956-5.257a1.5 1.5 0 0 1 1.768-2.424c3.9 2.845 7.442 4.427 10.527 4.7 1.263.174 2.658.165 4.009.156 1.253-.008 2.55-.017 3.766.108.058.006.115.015.171.028 3.514.778 7.095 3.35 7.173 7.344-.065 3.031-1.161 5.456-3.257 7.271-3.353 2.906-8.619 3.668-13.222 3.668zM274.372 258.393a1.499 1.499 0 0 1-1.284-2.275c6.203-10.276 12.805-21.39 19.189-32.139 6.47-10.893 13.161-22.157 19.45-32.571a1.503 1.503 0 0 1 1.278-.725c.519.027 1.01.268 1.284.714a10031.93 10031.93 0 0 0 16.455 26.606c7.878 12.709 16.025 25.852 23.483 38.056a1.498 1.498 0 0 1-1.272 2.282c-12.583.068-26.128.046-39.229.026-13.142-.021-26.731-.043-39.346.026h-.008zm19.992-3.047c6.453 0 12.963.01 19.367.021 12.177.019 24.739.039 36.547-.013-7.07-11.547-14.695-23.849-22.085-35.77-5.157-8.32-10.276-16.578-15.169-24.519-5.909 9.808-12.134 20.288-18.168 30.446-5.917 9.96-12.019 20.234-17.821 29.869a3787.59 3787.59 0 0 1 17.329-.034zm17.522-90.472c-14.33 0-26.347-4.935-35.725-14.672-13.343-13.853-20.676-37.538-19.615-63.355a1.506 1.506 0 0 1 1.56-1.437 1.5 1.5 0 0 1 1.437 1.56c-1.027 25.016 5.992 47.876 18.778 61.151 8.79 9.126 20.083 13.752 33.565 13.753h.067c1.704-.333 3.254-.631 4.673-.903 14.937-2.867 14.937-2.867 26.869-12.636 1.034-.846 2.154-1.763 3.379-2.76l9.841-17.344 4.51-19.606.419-20.345a1.5 1.5 0 1 1 2.999.062l-.422 20.5a1.489 1.489 0 0 1-.038.305l-4.594 19.971a1.494 1.494 0 0 1-.157.404l-8.512 15.002c-1.091 1.924-1.584 2.792-1.945 3.189l.01.012-.119.097c-.03.027-.06.051-.089.072-1.226.998-2.348 1.917-3.382 2.763-12.403 10.154-12.667 10.278-28.204 13.261-1.455.279-3.048.585-4.803.929-.163.03-.335.027-.502.027z" fill="#FFF"/><path d="M231.198 301.794c-.501 0-.99-.251-1.275-.707-15.597-25.04-25.46-46.308-30.152-65.02a1.501 1.501 0 0 1 1.09-1.82 1.501 1.501 0 0 1 1.82 1.09c4.614 18.404 14.358 39.392 29.788 64.163a1.5 1.5 0 0 1-1.271 2.294z" fill="#FFF"/><path d="M176.584 337.605a1.5 1.5 0 0 1-1.232-2.354l8.145-11.771c.067-.097.145-.185.232-.264l10.68-9.568c.083-.074.173-.138.27-.192l12.528-6.999c.072-.04.148-.075.226-.103l13.516-4.839c.078-.028.158-.049.239-.064l14.14-2.558a1.5 1.5 0 0 1 .534 2.952l-14.018 2.536-13.282 4.755-12.274 6.857-10.424 9.339-8.044 11.626c-.293.421-.76.647-1.236.647zm279.067-1.537c-.45 0-.886-.202-1.176-.569-16.192-20.441-36.378-32.585-56.839-34.196a1.499 1.499 0 0 1-1.193-2.225c15.231-27.361 25.27-52.376 29.837-74.352a1.5 1.5 0 0 1 2.938.611c-4.518 21.735-14.286 46.351-29.046 73.199 20.225 2.336 39.993 14.42 55.991 34.269 16.39-5.577 30.465-7.085 41.854-4.485a1.5 1.5 0 1 1-.668 2.924c-11.062-2.528-24.926-.932-41.204 4.739a1.463 1.463 0 0 1-.494.085zm-33.47 222.306c-.244 0-.489-.06-.711-.179l-.346-.186c-11.827-6.367-26.546-14.292-40.02-16.719a1.713 1.713 0 0 1-.098-.021c-29.912-7.482-61.003-17.365-91.072-26.923-59.359-18.869-120.74-38.38-181.083-42.622-20.722-2.819-41.046-8.375-55.859-15.254a1.535 1.535 0 0 1-.247-.145l-13.544-9.79c-1.592-1.15-2.412-1.743-2.813-2.156l-.023.017-1.438-1.948c-10.487-14.197-10.623-14.501-14.434-32.523l-.318-1.505a1.494 1.494 0 0 1-.006-.592l.546-2.871c3.165-16.685 3.283-16.955 12.666-28.935.922-1.178 1.938-2.474 3.057-3.916a1.5 1.5 0 1 1 2.369 1.84c-1.122 1.446-2.14 2.745-3.065 3.926-9.021 11.519-9.021 11.519-12.08 27.645l-.49 2.578.256 1.211c3.712 17.554 3.712 17.554 13.911 31.361l1.301 1.762 15.746 11.381c14.542 6.729 34.494 12.169 54.773 14.932 60.603 4.257 122.157 23.823 181.685 42.745 30.007 9.539 61.038 19.402 90.842 26.86 13.929 2.523 28.86 10.561 40.86 17.021l.023.013c.355-.023.764-.032 1.226-.042l8.219-.18 1.818-2.172c.444-3.076-.556-6.705-2.656-9.578-2.714-3.217-2.83-4.402-1.838-7.057.237-.633.503-1.346.748-2.323-.019-.204-.025-.404-.031-.586l-.145-4.255-1.803-4.711c-1.839-3.897-6.614-8.609-10.454-12.398-1.355-1.338-2.636-2.602-3.698-3.735-4.041-3.883-10.914-13.005-13.819-18.361-4.571-8.575-5.837-20.908-6.854-30.818a507.645 507.645 0 0 0-.413-3.929c-2.951-11.028-3.695-12.536-10.651-21.203l-.11-.057c-10.404-5.404-10.404-5.403-21.579-5.268l-1.063.013c-18.269 2.128-37.404-1.34-51.203-9.288a1.499 1.499 0 1 1 1.497-2.599c13.281 7.649 31.763 10.976 49.435 8.898.053-.006.105-.01.158-.01l1.14-.014c11.815-.143 12.03-.091 22.999 5.606l.391.203c.185.096.348.229.478.392 7.458 9.282 8.313 10.977 11.438 22.663.02.073.033.148.042.223.144 1.301.284 2.661.428 4.066.99 9.649 2.223 21.658 6.512 29.703 2.789 5.14 9.385 13.9 13.312 17.675 1.077 1.146 2.337 2.39 3.671 3.707 4.235 4.18 9.036 8.918 11.087 13.311.015.032.029.065.042.098l1.913 4.997c.06.155.093.319.098.485l.181 5.339a1.48 1.48 0 0 1-.041.403c-.297 1.234-.627 2.116-.892 2.824-.602 1.611-.651 1.742 1.352 4.111l.062.079c2.682 3.643 3.891 8.363 3.156 12.319a1.496 1.496 0 0 1-.325.689l-2.519 3.007a1.5 1.5 0 0 1-1.117.537l-10.54.232c-.014-.003-.027-.003-.04-.003z" fill="#FFF"/><path d="M281.177 510.45a1.5 1.5 0 0 1-1.472-1.797c4.372-21.687 12.147-50.796 19.346-72.435.704-1.737 1.32-3.261 1.893-4.679 7.63-18.879 8.099-19.548 25.068-35.793a1.49 1.49 0 0 1 1.288-.395c7.337 1.245 9.5 2.172 15.427 6.617.118.088.223.194.31.313 5.01 6.833 7.51 14.906 7.432 23.996-.007.829-.678 1.476-1.513 1.487a1.5 1.5 0 0 1-1.487-1.513c.072-8.349-2.189-15.756-6.721-22.018-5.202-3.889-7.02-4.713-13.208-5.797-16.285 15.596-16.502 16.135-23.815 34.227-.574 1.42-1.19 2.946-1.861 4.594-7.13 21.443-14.867 50.41-19.218 71.989a1.499 1.499 0 0 1-1.469 1.204z" fill="#FFF"/><path d="M327.06 398.332c-.125 0-.252-.016-.378-.049-27.114-7.053-50.082-18.534-72.292-29.637-37.641-18.816-73.194-36.589-124.551-31.299a1.5 1.5 0 0 1-.308-2.985c52.227-5.378 88.158 12.584 126.2 31.6 22.073 11.033 44.896 22.443 71.706 29.417a1.502 1.502 0 0 1-.377 2.953zm15.571 5.478a1.5 1.5 0 0 1-.869-2.724l25.397-18c.103-.073.213-.132.331-.177l29.082-11.133c.08-.031.163-.056.249-.073l2.705-.552c26.396-5.38 62.545-12.748 87.271-23.433a1.5 1.5 0 1 1 1.19 2.754c-25.012 10.809-61.338 18.213-87.862 23.619l-2.705.552-.004-.023c-.729.326-2.006.814-4.305 1.695l-24.371 9.329-25.243 17.891a1.502 1.502 0 0 1-.866.275zm80.421 112.99a1.501 1.501 0 0 1-.369-2.954 3047.31 3047.31 0 0 1 14.396-3.607c57.396-14.286 122.45-30.48 158.816-77.522.218-.498.567-1.213 1.096-2.294l6.567-13.432 3.292-17.216-.205-2.183c-1.42-15.235-1.42-15.235-9.448-29.136l-.759-1.315a1.5 1.5 0 1 1 2.599-1.499l.758 1.314c8.278 14.334 8.37 14.618 9.837 30.358l.224 2.393c.014.141.007.283-.02.422l-3.369 17.623a1.505 1.505 0 0 1-.125.377l-7.88 16.117a1.493 1.493 0 0 1-.168.274c-36.999 47.894-102.605 64.223-160.49 78.631-4.868 1.212-9.67 2.407-14.383 3.604-.123.03-.247.045-.369.045zm-234.441 43.147c-.468 0-.928-.006-1.379-.018a1.5 1.5 0 0 1-.898-.329l-5.695-4.564a1.498 1.498 0 0 1-.531-.869c-.681-3.32-.97-4.732-.906-5.432l-.014-.004.022-.07a.88.88 0 0 1 .125-.37c1.495-4.235 5.252-8.618 9.696-11.272l3.59-2.189 2.95-11.326c.05-.193.139-.374.259-.532l6.303-8.255c.707-.926 1.142-1.496 1.489-1.818l-.011-.015c4.97-3.604 11.092-6.721 17.014-9.736 4.869-2.479 9.904-5.042 14.063-7.78a1.501 1.501 0 0 1 1.65 2.506c-4.299 2.83-9.41 5.431-14.352 7.948-5.746 2.925-11.686 5.949-16.436 9.363l-7.152 9.367-3.027 11.621c-.098.376-.339.7-.671.903l-4.12 2.512c-3.198 1.91-6.977 5.612-8.413 9.689l.77 3.758 4.875 3.907c7.146.108 16.657-1.333 21.757-2.22 45.589-5.776 96.111-14.838 140.685-22.833l2.691-.482a1.5 1.5 0 1 1 .529 2.952l-2.69.483c-44.61 8.002-95.172 17.071-140.77 22.846-4.942.86-14.118 2.259-21.403 2.259zm143.11-485.963c-.099 0-.197-.01-.293-.029-.255-.051-.766-.122-1.36-.206-2.389-.34-3.33-.506-3.846-.765a1.5 1.5 0 1 1 1.345-2.682c.315.106 2.077.356 2.924.477.497.071.942.135 1.255.187 1.721-.279 4.667-1.406 6.129-2.35 3.1-3.152 3.981-6.332 2.622-9.453-2.835-4.527-7.859-7.177-12.72-9.742-1.762-.93-3.585-1.892-5.274-2.928a1.5 1.5 0 0 1 1.569-2.557c1.606.986 3.305 1.883 5.105 2.832 5.246 2.768 10.671 5.63 13.925 10.905.035.056.065.113.092.173 1.965 4.374.823 8.868-3.302 12.996a1.418 1.418 0 0 1-.22.182c-1.836 1.242-5.608 2.676-7.762 2.949a1.697 1.697 0 0 1-.189.011z" fill="#FFF"/><path d="M300.143 45.139a1.5 1.5 0 0 1-.667-.157c-7.221-3.595-12.054-9.597-13.608-16.899l.085-.018c-.105-.823-.066-2.396.013-5.61.003-.143.027-.285.071-.421l2.436-7.602c.052-.162.131-.315.234-.45l4.833-6.352c.088-.115.191-.217.308-.302l6.442-4.712c.137-.1.29-.176.452-.225l7.641-2.307c.14-.042.284-.064.43-.064l7.982-.02c.187-.017.337.028.496.083l7.539 2.623c.138.048.268.116.386.201l6.469 4.675c.138.099.257.221.354.361l4.551 6.557c.083.119.147.249.192.386l2.495 7.581c.053.162.079.332.075.502l-.178 7.98c-.002.12-.02.24-.051.356-1.826 6.788-8.565 11.184-13.897 13.677a1.5 1.5 0 1 1-1.27-2.718c4.708-2.201 10.625-5.988 12.223-11.57l.168-7.535-2.346-7.129-4.281-6.167-6.083-4.396L316.546 3l-7.506.018-7.185 2.169-6.06 4.432-4.545 5.973-2.292 7.151-.121 4.883c1.399 6.313 5.646 11.518 11.974 14.669a1.5 1.5 0 0 1-.668 2.844zm16.742 495.895a1.5 1.5 0 0 1-1.496-1.418c-.152-2.771-.441-5.761-.72-8.654-.282-2.922-.574-5.945-.729-8.777a1.5 1.5 0 0 1 1.416-1.58 1.51 1.51 0 0 1 1.58 1.416c.152 2.77.441 5.76.72 8.652.282 2.923.574 5.945.729 8.778a1.5 1.5 0 0 1-1.5 1.583z" fill="#FFF"/><path d="M293.7 58.935c4.21-.709 9.166-2.166 12.856-4.352 2.201-1.294 4.911-4.023 7.668-2.802 2.082.986 4.515 3.731 6.636 4.756 2.56 1.79 6.557 3.127 9.549 3.914" fill="none"/><g fill="#FFF"><path d="M330.409 61.951c-.126 0-.255-.016-.383-.05-2.436-.641-6.942-2.018-9.93-4.069-1.185-.597-2.37-1.577-3.517-2.526-1.044-.864-2.124-1.757-2.998-2.17-1.263-.559-2.746.354-4.697 1.707-.541.375-1.051.728-1.569 1.033-3.426 2.03-8.299 3.685-13.367 4.538a1.5 1.5 0 0 1-.498-2.958c4.717-.794 9.215-2.312 12.34-4.163.444-.261.906-.583 1.385-.915 1.991-1.379 4.716-3.269 7.655-1.968 1.248.59 2.474 1.605 3.661 2.586 1.045.865 2.126 1.759 3.021 2.191.072.035.141.075.207.121 2.606 1.822 6.802 3.096 9.071 3.693a1.5 1.5 0 0 1-.381 2.95z"/><path d="M304.575 65.723c-2.255 0-4.55-1.096-6.202-2.69a1.5 1.5 0 0 1 2.083-2.159c1.678 1.618 4.415 2.566 6.188 1.133a1.5 1.5 0 1 1 1.885 2.333c-1.196.969-2.568 1.383-3.954 1.383zm16.308-.176a7.816 7.816 0 0 1-4.133-1.18 1.5 1.5 0 0 1 1.592-2.542c1.636 1.025 3.838.956 5.125-.159a1.5 1.5 0 1 1 1.966 2.266c-1.234 1.07-2.871 1.615-4.55 1.615zm-8.666 8.53c-1.431 0-2.814-.485-3.865-1.447a1.5 1.5 0 0 1 2.025-2.213c1.111 1.016 2.88.737 3.98-.041a1.5 1.5 0 0 1 1.733 2.449 6.733 6.733 0 0 1-3.873 1.252zM32.478 335.857c-1.446 0-2.891-.16-4.305-.484-4.434-1.016-8.179-3.594-10.587-7.276a1.473 1.473 0 0 1-.296-.294c-.997-.196-2.333-.63-4.19-1.285-.475-.167-.869-.307-1.107-.379a1.5 1.5 0 0 1-.804-.586c-1.966-2.851-2.831-4.106-3.078-4.812l-.027.003-.018-.15a.93.93 0 0 1-.031-.307c-.438-4.702.802-10.776 3.142-15.282.019-.035.039-.07.06-.104 5.582-8.932 7.061-10.455 15.822-16.297.107-.071.223-.129.344-.17l10.62-3.652c.13-.045.265-.071.402-.079l11.225-.639c.101-.006.202-.001.301.013l10.186 1.478c5.299-7.867 9.887-16.829 14.329-25.505 4.458-8.708 9.068-17.712 14.423-25.679 3.674-4.944 8.114-9.605 12.409-14.112 7.653-8.033 15.568-16.34 19.433-26.376 1.688-4.321 8.534-23.651 9.965-28.261.012-.039.026-.078.042-.116 4.388-10.888 15.487-31.159 22.407-40.925.039-.055.081-.107.127-.156l15.801-16.951c.077-.083.163-.156.257-.22l18.354-12.41c.393-.266.746-.504 1.079-.657l-.014-.032c4.787-2.087 14.955-5.146 20.53-6.177 18.821-2.665 38.649-2.557 57.821-2.453 4.974.027 10.117.055 15.083.031.475-.055 1.319-.05 3.266-.027 2.024.025 6.661.082 7.823-.238a1.5 1.5 0 0 1 2.317 1.811c-.649 1.298-2.266 1.524-10.178 1.428-1.21-.015-2.583-.032-2.882.007-.061.008-.172.02-.234.02-5.016.025-10.2-.003-15.212-.031-19.067-.103-38.781-.21-57.323 2.413-5.293.98-15.011 3.897-19.688 5.912l-18.921 12.793-15.616 16.753c-6.685 9.461-17.745 29.664-21.992 40.174-1.481 4.75-8.325 24.072-10.015 28.397-4.078 10.588-12.202 19.114-20.058 27.36-4.427 4.646-8.608 9.035-12.132 13.774-5.214 7.761-9.783 16.684-14.201 25.314-4.63 9.045-9.419 18.397-15.05 26.605a1.497 1.497 0 0 1-1.452.636l-10.965-1.591-10.867.619-10.24 3.521c-8.281 5.527-9.431 6.725-14.749 15.232-2.049 3.978-3.175 9.494-2.788 13.591l2.347 3.405c.212.073.458.159.726.254.978.344 3.569 1.246 4.239 1.235.147-.031.224-.028.375-.014.836.061 3.691-1.498 4.636-2.007.234-.126.449-.242.637-.34 1.549-1.939 4.08-5.779 5.161-7.848.025-.048.053-.095.083-.14l2.773-4.163c.113-.17.259-.314.43-.426l4.16-2.708c.07-.045.144-.085.22-.118 3.141-1.366 6.727-.511 9.035.744 5.049 3.09 6.169 7.115 6.233 9.954.118 5.321-3.357 11.158-8.853 14.87a20.153 20.153 0 0 1-10.75 3.13zm-11.666-8.407c1.975 2.5 4.776 4.253 8.031 4.999 4.302.986 8.945.173 12.741-2.232 4.563-3.083 7.59-8.033 7.496-12.293-.067-3.043-1.66-5.541-4.734-7.424-2.011-1.092-4.467-1.35-6.23-.635l-3.789 2.467c-1.272 1.91-2.045 3.064-2.579 3.742l.056.029c-1.221 2.337-4.042 6.598-5.695 8.602a1.51 1.51 0 0 1-.481.385c-.225.113-.518.272-.857.454-1.443.776-2.785 1.473-3.959 1.906zM292.908 85.755l-.002.005.002-.005z"/><path d="M294.248 87.931a1.5 1.5 0 0 1-1.436-1.938c.102-.335.308-.663.567-.93.025-.052.05-.1.074-.143.006-.067.016-.135.031-.201 1.019-4.562 1.886-9.55 2.724-14.374.729-4.193 1.482-8.529 2.331-12.551a1.5 1.5 0 1 1 2.935.619c-.837 3.969-1.586 8.278-2.311 12.445-.83 4.774-1.687 9.707-2.698 14.272.008.534-.216.947-.333 1.149a1.5 1.5 0 0 1-.572.876c-.264.48-.771.776-1.312.776zm.986-.592-.002.001.002-.001zm.002-.001h-.001zm.446-.471zm.487-.891v.002-.002zm286.786 239.339c-1.177 0-2.375-.132-3.563-.403-4.092-.93-7.619-3.347-9.678-6.631a1.592 1.592 0 0 1-.117-.229c-2.535-6.194-.986-12.515 4.363-17.797.12-.118.259-.216.411-.288 2.999-1.425 4.188-1.99 4.814-2.117l-.001-.034.589-.025c2.236-.102 5.293-.24 7.291 1.365 2.621 1.811 4.312 4.459 5.946 7.022 1.242 1.946 2.416 3.786 3.934 5.201 2.538 1.539 5.696 1.293 8.514-.66.639-.93 1.356-2.937 1.545-4.095-.044-1.247-.321-3.635-.525-5.006l-3.705-8.489-6.11-6.895-8.051-4.537-8.987-2.112a110.8 110.8 0 0 1-2.458.231c-4.195.366-9.94.866-12.436 3.022a1.42 1.42 0 0 1-.229.163c-.812.47-1.71 1.157-2.343 1.792a1.505 1.505 0 0 1-.477.322c-.332.14-.854.293-1.317.425a1.56 1.56 0 0 1-1.031-.063l-.106-.046c-.609-.262-1.852-.798-2.062-2.157-2.441-8.922-9.396-26.142-13.822-34.215-4.623-7.932-15.325-23.351-21.187-30.517l-12.613-13.738a1.562 1.562 0 0 1-.138-.175l-9.161-13.557a1.572 1.572 0 0 1-.123-.219l-6.799-14.967c-7.032-15.524-17.77-38.042-29.796-54.306-27.509-34.423-69.251-33.82-109.624-33.238-7.258.105-14.763.214-22.003.106-1.828-.049-2.819-1.314-3.192-1.791l-.075-.094a1.763 1.763 0 0 1-.354-.653c-.104-.415-.222-.842-.34-1.276-.308-1.124-.625-2.284-.793-3.435-1.332-5.378-2.419-11.232-3.471-16.895a950.296 950.296 0 0 0-.936-4.989 1.499 1.499 0 1 1 2.946-.564c.312 1.633.624 3.308.939 5.005 1.049 5.646 2.133 11.483 3.452 16.794.012.05.022.101.029.153.139.987.438 2.082.728 3.14.093.34.185.677.271 1.008.316.398.532.59.859.598 7.176.106 14.66-.002 21.897-.106 41.091-.593 83.583-1.207 112.045 34.409 12.229 16.538 23.062 39.248 30.15 54.895l6.747 14.85 9.028 13.36 12.593 13.72c6.104 7.459 16.742 22.785 21.532 31.005 4.619 8.422 11.582 25.665 14.11 34.921l.218-.068a15.331 15.331 0 0 1 2.598-1.959c3.256-2.709 9.222-3.229 14.026-3.647a96.212 96.212 0 0 0 2.633-.252l.003.025c.457-.016 1.127.148 1.991.352l7.972 1.873c.138.032.27.084.393.153l8.456 4.765c.145.082.276.187.386.312l6.434 7.26c.104.118.189.251.252.395l3.878 8.887c.052.118.088.243.108.371.22 1.422.558 4.274.592 5.709.002.081-.002.162-.014.242-.232 1.671-1.231 4.47-2.294 5.815a1.514 1.514 0 0 1-.297.285c-3.249 2.349-7.049 2.952-10.331 1.737-.463.697-.894 1.463-1.343 2.264-1.27 2.262-2.709 4.826-5.339 6.253-2.111 1.337-4.716 2.04-7.432 2.04zm-10.631-8.519c1.648 2.558 4.459 4.447 7.733 5.191 3.157.718 6.369.245 8.813-1.3 1.955-1.064 3.064-3.042 4.24-5.135.441-.785.893-1.59 1.396-2.358-1.602-1.605-2.832-3.533-4.025-5.403-1.552-2.432-3.018-4.73-5.164-6.195a1.47 1.47 0 0 1-.111-.084c-1.104-.915-3.63-.801-5.298-.725l-.302.013-3.716 1.765c-3.052 3.089-6.05 8.006-3.566 14.231zM308.887 417.158c5.342-7.688 11.779-17.606 21.615-19.518l7.079 2.046c7.292 6.524 10.205 17.643 11.469 26.984-13.599 1.916-28.511-2.63-40.163-9.512zm-13.705-29.936a1.501 1.501 0 0 1-1.483-1.286l-4.011-27.817-8.513-26.58-14.079-23.929-2.125-1.93c-18.394-16.707-18.394-16.707-42.86-24.603l-1.938-.625a1.5 1.5 0 0 1 .922-2.855l1.938.625c25.082 8.094 25.082 8.094 43.956 25.237l2.293 2.082-.038.042c.455.532 1.129 1.678 2.555 4.1l12.048 20.478c.056.096.102.197.136.303l8.602 26.858c.025.079.044.161.056.243l4.029 27.941a1.5 1.5 0 0 1-1.488 1.716zm46.706 14.007a1.5 1.5 0 0 1-1.496-1.635c2.157-23.889 9.063-60.896 21.426-86.571.041-.084.088-.163.143-.238l17.517-23.819c.157-.214.369-.382.612-.488l26.644-11.547a1.5 1.5 0 1 1 1.193 2.753l-26.272 11.385-17.193 23.38c-12.151 25.309-18.95 61.814-21.081 85.415a1.502 1.502 0 0 1-1.493 1.365zm-306.351-26.8c5.132 5.263 13.426 6.93 20.451 5.362 8.778 6.675 21.089 2.223 29.947-2.143-8.424.715-18.435 1.832-26.257-2.074-4.91-2.916-10.97-5.104-16.636-5.861-2.485 1.382-5.081 3.225-7.505 4.716zm519.202.695c6.778 2.281 15.133 2.831 21.686-.428 4.096 1.226 9.27 1.74 12.917-.927 3.726.651 8.155-.036 11.011-2.674-1.038-1.099-1.849-2.591-2.88-3.695-4.155 1.228-9.054.376-12.904-1.449-1.861-.983-2.375-2.41-4.617-1.108a100.74 100.74 0 0 0-7.148 2.378c-3.518 6.165-11.246 8.951-18.065 7.903zm-85.782-44.472c7.882 1.795 16.62 5.652 23.395 10.039 10.939 8.791 23.433 17.902 37.101 21.839-10.061-10.638-21.665-22.194-31.724-32.832-9.076-2.828-19.778-1.635-28.772.954zm-358.988 27.911c13.558-6.904 28.953-14.412 41.187-23.544-6.213.108-13.157-.23-19.37-.121-7.108 7.484-14.815 16.082-21.817 23.665zm158.966 148.469c16.267 5.681 31.994 17.96 39.693 33.577 13.358-2.852 28.37-5.694 41.752-8.426-26.071-8.21-55.328-17.086-81.445-25.151z"/><path d="M292.976 74.063c-3.727 0-7.772-1.15-10.538-5.679l.03-.018c-.234-.52-.496-1.598-1.105-4.108a1.488 1.488 0 0 1-.03-.544l.693-5.407c.024-.189.084-.372.177-.539 3.797-6.82 11.678-10.989 17.771-13.316 1.063-7.842 6.144-8.187 11.723-7.797a61.43 61.43 0 0 0 1.653-.072c2.605-.134 5.557-.286 8.122.932.106.05.206.113.297.187.78.628 2.012 2.001 2.585 2.881.081.125.143.261.184.404a33.15 33.15 0 0 1 .899 4.302c.061.433-.07.872-.359 1.201-.29.329-.704.497-1.145.51-3.677-.047-7.649.032-11.49.106-3.766.073-7.657.148-11.295.11-5.561 2.111-12.746 5.836-16.186 11.767l-.62 4.839.775 3.193c2.3 3.611 5.798 4.709 11.635 3.672a1.501 1.501 0 0 1 .526 2.954c-1.307.229-2.778.422-4.302.422zm10.063-29.839c3.032 0 6.241-.059 9.347-.119 3.249-.063 6.594-.128 9.787-.12a28.207 28.207 0 0 0-.453-1.941c-.417-.58-1.199-1.452-1.701-1.895-1.857-.81-4.224-.688-6.514-.57-.616.032-1.221.063-1.807.076-.047.001-.093 0-.141-.003-5.544-.391-7.774.234-8.518 4.572zm291.118 274.532c5.102.384 10.812-1.712 13.621-6.159-3.819 1.002-8.327 1.819-12.214.755-.589 1.696-.923 3.674-1.407 5.404zM11.18 325.357c1.36 4.133 4.964 6.902 9.363 5.462-.648-.867-1.018-2.028-1.689-2.876-2.542-.52-5.672-.763-7.674-2.586z"/><path d="M324.076 44.671c-14.934-.188-32.257-1.711-40.868 13.308-1.275 6.869-.753 11.475 6.264 14.498 2.134.373 6.398.163 8.53-.233.518-2.299 2.755-18.133 2.019-13.395a16.8 16.8 0 0 0 .064-1.063c5.938-2.407 11.887-7.545 15.191-5.349 9.298 5.967 9.608 8.363 11.013 19.215 7.273 2.628 15.187-.982 17.095-8.597.109-10.344-12.06-13.793-19.308-18.384z"/><path d="M338.529 23.064c-5.433-28.642-45.672-29.12-51.388-.456-.673 6.271 1.086 9.923 4.178 12.108 2.577 3.402 6.396 6.096 9.796 8.381 1.16-1.747 2.621-3.293 3.902-4.959 6.763.494 13.544-1.447 17.563 1.656 1.294 3.227 1.496 4.878 1.496 4.878 9.103-4.633 15.433-11.413 14.453-21.608zm-35.863 232.928c-3.606-8.068-7.972-16.938-11.588-25.002-5.225 8.358-11.392 17.499-16.619 25.855 9.049-.164 19.161-.613 28.207-.853z"/></g></svg></g><g transform="translate(741.0 584.0) rotate(0.0 100.0 99.0) scale(1.0523934057029198 1.0581275417773337)"><svg width="190.043" height="187.123" viewBox="0 0 190.043 187.123"><pattern id="a" height="12" overflow="visible" patternUnits="userSpaceOnUse" viewBox="1.159 -13.159 12 12" width="12" x="874.504" y="3119.573"><path d="M1.159-13.159h12v12h-12z" fill="none"/><circle cx="13.159" cy="-4.159" fill="#fff" r="1.159"/><circle cx="7.159" cy="-1.159" fill="#fff" r="1.159"/><circle cx="1.159" cy="-4.159" fill="#fff" r="1.159"/><circle cx="13.159" cy="-10.159" fill="#fff" r="1.159"/><circle cx="7.159" cy="-7.159" fill="#fff" r="1.159"/><circle cx="1.159" cy="-10.159" fill="#fff" r="1.159"/><circle cx="7.159" cy="-13.159" fill="#fff" r="1.159"/></pattern><pattern xmlns:xlink="http://www.w3.org/1999/xlink" id="b" patternTransform="translate(-5.6915 -14.3285)" xlink:href="#a"/><path d="m31.589 143.282-12.155-6.315-9.755-9.615-6.138-12.245-2.229-13.515 2.229-13.515 6.138-12.246 9.755-9.615 12.155-6.315 13.547-2.032 13.546 2.033 12.155 6.315 9.756 9.615 6.136 12.245 2.23 13.515-2.23 13.515-6.137 12.246-9.756 9.615-12.154 6.315-13.546 2.032z" fill="url(#b)"/><path d="M119.02 123.277c-8.941-.497-21.133-.95-29.594-4.233-.218-5.958.109-12.71-.171-18.68 14.492 5.148 34.378 4.168 49.614 4.7 15.214-.527 35.005.432 49.486-4.699-.152 2.146.445 4.563-1.556 6.124l1.284 12.63-8.046 1.087-.181 1.449c-18.609 2.097-42.065 2.187-60.836 1.622zm69.063 33.015-1.342-11.352 1.492-.513.266-14.095c-31.962 1.787-67.907 6.017-99.187-2.221.188 5.046-.072 10.712.081 15.755l-.143-.041c.27 5.685-.006 12.172.144 17.838l-.045-.012a131.19 131.19 0 0 0-.107 4.685l.134-.003c.042 4.673-.125 10.048.05 14.727 14.418 5.088 34.253 4.055 49.405 4.611 15.142-.56 34.936.475 49.35-4.612.105-5.986.067-12.401-.026-18.382l.268-.077z" fill="#FFF"/><path d="M28.965 182.551c-7.922-.459-18.727-.839-26.223-3.762-.213-5.342.105-11.434-.179-16.789 12.84 4.576 30.449 3.719 43.953 4.187 13.479-.463 30.999.37 43.825-4.188-.299 5.357.025 11.447-.189 16.789-18.448 5.708-42.012 3.7-61.187 3.763z" fill="#FFF"/><path d="M28.965 166.854c-7.922-.459-18.727-.839-26.223-3.762-.214-5.301.104-11.331-.174-16.643 12.838 4.576 30.446 3.718 43.948 4.186 13.477-.462 30.996.371 43.82-4.187-.294 5.314.031 11.341-.185 16.643-18.447 5.707-42.011 3.7-61.186 3.763z" fill="#FFF"/><g fill="#231f20"><path d="M46.902 184.337h-.125c-3.219-.135-6.498-.177-9.969-.222-11.42-.147-23.229-.299-33.667-3.832l-1.019-1.38c-.086-3.167-.066-6.852-.046-10.416.018-3.334.037-6.782-.032-9.754l2.999-.07c.071 3.015.052 6.485.033 9.841-.018 3.147-.036 6.39.021 9.261 9.757 3.067 20.932 3.211 31.75 3.35 3.471.044 6.75.087 9.993.221 3.242-.134 6.52-.176 9.989-.221 10.823-.139 22.001-.283 31.764-3.354.052-1.949.033-4.008.014-6.01-.022-2.398-.046-4.878.051-7.201l2.997.125c-.093 2.246-.07 4.687-.048 7.047.022 2.398.046 4.878-.051 7.201l-1.018 1.358c-10.441 3.534-22.25 3.686-33.67 3.833-3.47.046-6.747.088-9.966.223zm43.154-36.724c-13.327-4.51-29.337-3.395-43.217-3.976-13.878.582-29.893-.534-43.217 3.976 13.327 4.51 29.337 3.395 43.217 3.976 13.878-.581 29.893.535 43.217-3.976z"/><path d="M46.902 153.087h-.125c-3.219-.135-6.496-.177-9.966-.221-11.42-.147-23.229-.299-33.67-3.833v-2.842c10.437-3.533 22.247-3.685 33.667-3.832 3.471-.045 6.749-.087 9.968-.222h.126c3.22.135 6.498.177 9.968.222 11.419.147 23.228.299 33.667 3.832v2.842c-10.437 3.533-22.247 3.685-33.667 3.832-3.47.046-6.749.088-9.968.222zm-37.749-5.474c8.737 2.01 18.349 2.133 27.696 2.253 3.47.045 6.748.087 9.99.221 3.243-.134 6.522-.177 9.993-.221 9.346-.121 18.958-.244 27.693-2.253-8.736-2.009-18.348-2.133-27.694-2.253-3.47-.044-6.75-.087-9.992-.221-3.243.134-6.521.177-9.992.221-9.347.12-18.96.244-27.694 2.253z"/><path d="M46.902 168.64h-.126c-3.22-.135-6.5-.177-9.971-.222-11.419-.147-23.228-.3-33.664-3.833l-1.019-1.403-.016-1.337c-.053-4.538-.118-10.186-.421-14.432l1.4-1.604 4.145-.265.191 2.994-2.648.169c.229 4.092.286 9.039.333 13.103l.003.261c9.753 3.063 20.921 3.207 31.735 3.346 3.472.045 6.752.087 9.995.222 3.243-.134 6.521-.177 9.992-.221 10.822-.14 22-.283 31.762-3.354.052-1.949.033-4.008.014-6.01-.022-2.398-.046-4.878.051-7.201l2.997.125c-.093 2.246-.071 4.687-.048 7.047.022 2.398.046 4.878-.051 7.201l-1.018 1.358c-10.44 3.533-22.249 3.686-33.668 3.833-3.471.046-6.749.088-9.968.223z"/><path d="M139.256 187.123h-.121c-3.586-.145-7.233-.191-11.095-.24-12.967-.164-26.376-.333-38.212-4.328l-1.02-1.367c-.096-2.655-.073-5.497-.051-8.245.022-2.715.045-5.522-.049-8.111l2.998-.108c.096 2.655.073 5.496.051 8.244-.02 2.354-.039 4.777.017 7.066 11.158 3.53 23.936 3.692 36.304 3.849 3.861.049 7.51.095 11.118.24 3.608-.145 7.256-.191 11.118-.24 12.367-.157 25.143-.318 36.304-3.849.056-2.251.036-4.633.017-6.947-.022-2.708-.046-5.508.051-8.125l2.998.11c-.094 2.55-.071 5.315-.049 7.99.022 2.708.046 5.508-.051 8.125l-1.02 1.366c-11.839 3.995-25.247 4.164-38.212 4.328-3.863.051-7.51.098-11.096.242z"/><path d="M139.256 187.124h-.121c-3.586-.145-7.233-.191-11.095-.24-12.967-.164-26.376-.333-38.212-4.328l-1.014-1.281c-.136-1.44-.076-8.653-.002-15.917.016-1.591.029-2.821.03-3.361l3 .006c-.001.544-.014 1.783-.03 3.386-.041 3.997-.119 11.74-.052 14.643 11.162 3.535 23.945 3.696 36.319 3.853 3.861.049 7.51.095 11.118.24 3.608-.145 7.256-.191 11.118-.24 12.361-.157 25.13-.318 36.287-3.843.07-4.965.067-11.043.064-16.449v-4.904l3 .003v4.899c.003 5.812.007 12.401-.081 17.57l-1.021 1.396c-11.839 3.995-25.247 4.164-38.212 4.328-3.863.047-7.51.094-11.096.239z"/><path d="M139.256 168.734h-.121c-3.587-.145-7.236-.191-11.099-.24-12.966-.164-26.373-.334-38.209-4.328l-1.02-1.382c-.086-3.274-.067-6.951-.049-10.506.018-3.562.036-7.246-.05-10.517l2.999-.079c.088 3.318.069 7.025.051 10.611-.016 3.152-.032 6.4.025 9.356 11.155 3.527 23.928 3.689 36.292 3.845 3.863.049 7.512.095 11.122.24 3.608-.145 7.256-.191 11.117-.24 12.364-.157 25.138-.319 36.298-3.847.057-2.786.04-5.803.023-8.73-.019-3.348-.039-6.81.051-9.964l2.999.085c-.088 3.104-.069 6.54-.05 9.862.019 3.326.039 6.766-.05 9.887l-1.02 1.379c-11.84 3.994-25.247 4.164-38.213 4.328-3.863.05-7.51.096-11.096.24z"/><path d="M139.256 150.98h-.121c-3.586-.145-7.233-.191-11.095-.24-12.967-.164-26.376-.333-38.212-4.328l-1.02-1.362c-.098-2.485-.074-5.14-.051-7.707.025-2.781.051-5.656-.08-8.296l1.327-1.564 7.161-.821.342 2.98-5.778.663c.071 2.311.049 4.722.027 7.066-.02 2.171-.04 4.406.015 6.521 11.159 3.531 23.937 3.692 36.306 3.849 3.861.049 7.51.095 11.118.24 3.608-.145 7.256-.191 11.118-.24 12.361-.157 25.131-.318 36.288-3.844.015-1.034.024-2.113.034-3.216.029-3.332.06-6.759.226-9.878l-2.631.038-.043-3 4.251-.062 1.518 1.609c-.25 3.434-.286 7.443-.32 11.319a420.893 420.893 0 0 1-.052 4.311l-1.02 1.394c-11.839 3.995-25.247 4.164-38.212 4.328-3.863.049-7.51.095-11.096.24zm48.827-49.453c-15.08-5.088-33.185-3.856-48.888-4.491-15.701.634-33.812-.597-48.888 4.491 15.08 5.088 33.185 3.856 48.888 4.491 15.7-.635 33.812.597 48.888-4.491z"/><path d="M139.256 107.516h-.121c-3.587-.145-7.234-.191-11.095-.24-12.966-.164-26.373-.333-38.212-4.328v-2.843c11.836-3.995 25.245-4.164 38.212-4.328 3.862-.049 7.509-.095 11.095-.24h.121c3.586.145 7.234.191 11.095.24 12.965.164 26.373.333 38.212 4.328v2.843c-11.836 3.995-25.245 4.164-38.212 4.328-3.862.049-7.509.096-11.095.24zm-43.534-5.989c10.172 2.469 21.424 2.611 32.354 2.75 3.861.049 7.51.095 11.118.24 3.608-.145 7.256-.191 11.118-.24 10.932-.139 22.184-.281 32.354-2.75-10.172-2.469-21.424-2.611-32.354-2.75-3.861-.049-7.509-.095-11.118-.24-3.608.145-7.256.191-11.118.24-10.931.139-22.183.281-32.354 2.75zm92.361 27.732c-15.08-5.088-33.185-3.857-48.888-4.491-15.701.634-33.812-.597-48.888 4.491 15.08 5.088 33.185 3.856 48.888 4.491 15.7-.635 33.812.597 48.888-4.491z"/><path d="M139.256 135.248h-.121c-3.587-.145-7.234-.191-11.095-.24-12.966-.164-26.373-.333-38.212-4.328v-2.843c11.835-3.994 25.243-4.164 38.209-4.328 3.863-.049 7.512-.095 11.099-.24h.121c3.586.145 7.233.191 11.094.24 12.966.164 26.373.334 38.213 4.328v2.843c-11.836 3.995-25.245 4.165-38.211 4.328-3.864.049-7.511.095-11.097.24zm-43.534-5.99c10.172 2.469 21.424 2.611 32.354 2.75 3.861.049 7.51.095 11.118.239 3.608-.145 7.257-.19 11.118-.239 10.932-.138 22.184-.281 32.354-2.75-10.173-2.469-21.423-2.611-32.355-2.75-3.861-.049-7.508-.095-11.117-.24-3.609.145-7.259.191-11.122.24-10.93.139-22.18.282-32.35 2.75z"/><path d="M139.256 125.107h-.121c-3.586-.145-7.233-.191-11.095-.24-12.967-.164-26.376-.333-38.212-4.328l-1.02-1.386c-.1-4.186-.1-10.123 0-17.646l1.215-1.453 2.852-.551.569 2.945-1.652.319c-.076 6.308-.079 11.427-.007 15.254 11.156 3.527 23.929 3.688 36.294 3.845 3.861.049 7.51.095 11.118.24 3.608-.145 7.256-.191 11.118-.24 12.358-.157 25.126-.318 36.282-3.842l.004-.417c.046-4.559.103-10.13.366-14.714l-3.071-.527.508-2.957 4.4.755 1.242 1.583c-.331 4.716-.394 10.912-.444 15.89l-.016 1.495-1.021 1.405c-11.839 3.995-25.247 4.164-38.212 4.328-3.864.051-7.511.098-11.097.242z"/></g><path d="m31.589 143.282-12.155-6.315-9.755-9.615-6.138-12.245-2.229-13.515 2.229-13.515 6.138-12.246 9.755-9.615 12.155-6.315 13.547-2.032 13.546 2.033 12.155 6.315 9.756 9.615 6.136 12.245 2.23 13.515-2.23 13.515-6.137 12.246-9.756 9.615-12.154 6.315-13.546 2.032z" fill="#FFF"/><path d="M45.02 146.795h-.445l-13.39-2.009-.469-.152-12.014-6.242-.361-.263-9.644-9.504-.288-.396-6.065-12.104-.139-.428L0 102.338v-.488l2.204-13.359.139-.428L8.409 75.96l.288-.396 9.644-9.504.361-.263 12.014-6.242.469-.152 13.389-2.009h.445l13.39 2.009.469.152 12.014 6.242.361.263 9.644 9.504.288.396 6.066 12.104.139.428 2.204 13.359v.488l-2.204 13.359-.139.428-6.066 12.104-.288.396-9.644 9.504-.361.263-12.014 6.242-.469.152zm-13.143-4.939 12.92 1.939 12.92-1.939 11.592-6.022 9.306-9.171 5.853-11.678 2.126-12.89-2.126-12.89-5.853-11.678-9.306-9.171-11.592-6.023-12.92-1.938-12.919 1.938-11.592 6.022-9.306 9.171-5.853 11.678-2.126 12.89 2.126 12.89 5.853 11.679 9.306 9.171z" fill="#231f20"/><path d="m124.515 96.955-13.735-7.122-11.011-10.87-6.943-13.826-2.506-15.268 2.506-15.268 6.943-13.826 11.011-10.87 13.735-7.122L139.814.474l15.299 2.309 7.56 3.92c9.553 5.004 18.942 19.857 21.755 23.516l4.881 19.65-2.506 15.268-6.943 13.826-11.012 10.87-13.735 7.122-15.299 2.309z" fill="#FFF"/><path d="M139.699 100.743h-.447l-15.143-2.285-.467-.152-13.595-7.048-.363-.264-10.898-10.759-.286-.394-6.873-13.685-.14-.431-2.48-15.111v-.486l2.48-15.112.14-.43L98.5 20.902l.287-.394 10.898-10.759.363-.264 13.595-7.048.467-.152L139.252 0h.448l15.142 2.286.467.152 13.595 7.048.363.264 10.898 10.759.287.394 6.872 13.684.14.43 2.48 15.112v.486l-2.48 15.112-.14.43-6.873 13.684-.287.394-10.898 10.759-.363.264-13.595 7.048-.467.152zm-14.897-5.215 14.673 2.214 14.672-2.214 13.172-6.829 10.561-10.426 6.659-13.259 2.404-14.643-2.404-14.643-6.658-13.259-10.561-10.426-13.172-6.829L139.476 3l-14.673 2.214-13.172 6.829-10.561 10.426-6.659 13.259-2.403 14.643 2.403 14.643 6.659 13.259 10.561 10.426z" fill="#231f20"/></svg></g><g transform="translate(47.0 19.0) rotate(0.0 512.5 387.0) scale(1.065169678931879 1.063530123047962)"><svg width="962.288" height="727.765" viewBox="0 0 962.288 727.765"><path d="M40.767 443.533c-1.799-1.653-4.32-4.481-6.194-6.099 16.772-13.384 41.363-34.72 33.873-58.397 2.143 2.41 6.488 7.519 8.453 9.937 6.786 23.148-17.178 44.258-33.546 57.465zm-28.84 10.926c-2.027-2.386-6.136-6.956-8.095-9.494l10.594 2.054.246-.016 3.068-1.025c3.112 2.772 7.13 5.829 10.152 8.751l-5.847 1.861z" fill="#1F1F1F"/><path d="m3.153 445.059-2.148-10.355c3.022-13.134 12.543-26.138 21.879-35.567 9.301-9.456 22.189-19.158 35.278-22.347l10.379 2.011 2.148 10.355c-3.022 13.134-12.543 26.138-21.879 35.567-9.301 9.456-22.189 19.158-35.278 22.347l-10.379-2.011z" fill="#1F1F1F"/><g fill="#FFF"><path d="m14.492 448.179-.006-.023c-.586.05-1.85-.197-5.597-.923l-4.962-.961-1.184-1.168-2.054-9.9.007-.642c3.558-15.43 15.383-29.153 22.115-35.96 6.653-6.757 20.026-18.6 35.219-22.473a30.207 30.207 0 0 1 .448-.112l.011.043c.773-.024 2.37.279 5.592.903l4.961.961 1.184 1.168 2.054 9.9-.007.642c-3.558 15.43-15.383 29.153-22.115 35.96-6.719 6.823-20.29 18.832-35.666 22.585zm-9.014-4.663 8.618 1.67c14.527-3.665 27.476-15.149 33.927-21.699 6.464-6.536 17.771-19.629 21.252-34.21l-1.783-8.598-8.617-1.67c-14.528 3.665-27.477 15.149-33.928 21.699-6.464 6.536-17.771 19.629-21.252 34.21z"/><path d="m14.492 448.179-.006-.023c-.586.05-1.85-.197-5.597-.923l-4.962-.961-1.184-1.168-2.054-9.9.007-.642c3.558-15.43 15.383-29.153 22.115-35.96 6.653-6.757 20.026-18.6 35.219-22.473a30.207 30.207 0 0 1 .448-.112l.011.043c.773-.024 2.37.279 5.592.903l4.961.961 1.184 1.168 2.054 9.9-.007.642c-3.558 15.43-15.383 29.153-22.115 35.96-6.719 6.823-20.29 18.832-35.666 22.585zm-9.014-4.663 8.618 1.67c14.527-3.665 27.476-15.149 33.927-21.699 6.464-6.536 17.771-19.629 21.252-34.21l-1.783-8.598-8.617-1.67c-14.528 3.665-27.477 15.149-33.928 21.699-6.464 6.536-17.771 19.629-21.252 34.21z"/><path d="m21.262 456.704-9.818-2.067-.855-.521c-1.204-1.48-2.608-3.013-3.966-4.495-1.384-1.51-2.814-3.071-4.071-4.616l2.326-1.894c1.202 1.476 2.603 3.005 3.957 4.483 1.264 1.38 2.567 2.802 3.742 4.216l8.979 1.891c14.465-3.398 27.305-14.751 33.696-21.247 6.469-6.542 17.782-19.646 21.252-34.214l-1.903-9.178c-1.173-1.333-2.327-2.8-3.445-4.222-1.175-1.492-2.389-3.036-3.59-4.375l2.234-2.002c1.265 1.411 2.509 2.993 3.713 4.523 1.175 1.494 2.391 3.039 3.593 4.379l.352.697 1.026 4.947c.74 3.572 1.022 4.929.986 5.581l.032.007c-3.546 15.418-15.377 29.15-22.114 35.964-6.666 6.775-20.145 18.664-35.486 22.139z"/><path d="M15.709 446.403c2.595 2.419 5.811 4.754 8.413 7.166 3.492-1.059 7.513-1.782 11.003-2.848 3.197-1.868 6.521-4.349 9.705-6.24-2.569-2.42-5.147-5.414-7.725-7.823-3.412 1.543-7.018 3.684-10.436 5.214-3.016 1.437-6.58 2.588-9.595 4.024m98.045-221.495c-12.246-9.187-10.107-6.666-16.834-20.33-3.987-18.971-.311-35.236 8.809-52.041 15.882-25.277 48.132-37.639 61.484-3.053 3.988 18.967.311 35.24-8.809 52.041-10.637 15.604-24.711 27.68-44.65 23.383z"/></g><path d="m127.516 122.521-12.543 5.132-10.458 8.59-8.059 10.855-6.02 12.094c-2.51 8.175-5.939 21.917-4.217 30.485.402.165.833.335 1.259.504.101 2.805.052 5.767.273 8.468a236.974 236.974 0 0 0 5.26 10.487c.986 2.498 1.253 2.901 3.813 3.868 3.094 1.675 6.854 3.523 10.007 5.084-1.305-2.419-3.457-5.513-4.729-7.951-1.461-2.193-3.543-5.187-3.769-7.897a200.425 200.425 0 0 0-1.458-8.413l.769.33c-1.746-8.716 1.331-22.281 4.182-30.51l5.801-12.03 8.118-10.548c.117-.044 9.949-8.516 10.076-8.494l12.066-4.732.215-.032 3.215.248.816-3.881c-.212-.682-13.908-1.398-14.617-1.657z" fill="#1F1F1F"/><path d="M128.231 225.954a568.298 568.298 0 0 0-3.668-.217c-9.929-.566-10.264-.693-17.929-6.809-.885-.705-1.874-1.495-2.998-2.379l-.412-.504-6.004-11.925-.146-.469-1.849-13.594 1.09-13.677 3.843-13.111 5.962-12.365 8.376-10.881 10.226-8.656.421-.252 6.215-2.437c4.56-1.788 6.129-2.403 6.854-2.489l.003-.048c1.363.086 2.578.155 3.669.217 9.928.566 10.263.693 17.929 6.809.884.705 1.873 1.495 2.997 2.379l.412.504 6.004 11.926.146.469 1.849 13.594-1.09 13.677-3.843 13.111-5.962 12.365-8.376 10.881-10.226 8.656-.421.252-6.215 2.437c-4.56 1.788-6.129 2.403-6.854 2.489zm-22.477-11.556c1.021.806 1.931 1.531 2.75 2.185 7.065 5.636 7.065 5.636 16.229 6.159 1.007.057 2.118.121 3.354.197l11.888-4.661 9.912-8.391 7.961-10.396 5.681-11.85 3.677-12.615 1.011-13.057-1.782-12.865-5.743-11.406a616.246 616.246 0 0 1-2.75-2.185c-7.065-5.636-7.065-5.636-16.229-6.159a580.058 580.058 0 0 1-3.354-.198l-11.888 4.661-9.912 8.391-7.961 10.396-5.681 11.85-3.677 12.616-1.011 13.056 1.783 12.865z" fill="#FFF"/><path d="M114.481 224.807a133.904 133.904 0 0 0-7.988-3.236c-1.051-.201-3.055-1.451-11.072-7.51-.984-.744-1.835-1.386-2.087-1.558l-.507-.586-5.829-12.014-.133-.427-2.045-13.606 1.279-13.615 3.667-13.208 6.118-12.237 8.247-11.035 10.353-8.504.384-.229 12.36-5.057.767-.099c.361.048 1.293.123 2.526.223 9.745.794 12.426 1.278 13.478 1.953a154.701 154.701 0 0 0 8.621 3.434l-1.025 2.82a157.177 157.177 0 0 1-8.944-3.57l-.407-.265c.085.077.149.11.151.112-1.206-.605-9.133-1.251-12.117-1.494-.983-.08-1.763-.144-2.266-.193l-11.798 4.827-10.035 8.243-7.807 10.515-5.855 11.763-3.489 12.67-1.203 13.039 1.972 12.835 5.563 11.467c.375.275.972.724 1.87 1.404 2.378 1.797 8.695 6.571 9.888 6.971a.982.982 0 0 0-.279-.034l.528.091a136.267 136.267 0 0 1 8.342 3.374z" fill="#FFF"/><path d="M874.196 366.921c.094-.104.19-.213.284-.315-8.363-19.775-33.718-42.188-54.969-46.335l-9.655 2.397c-.96.693-2.668 2.216-3.507 3.048l.003.005-.017.016c.08.02 1.694 3.433 1.742 3.484.13-.001 3.075-.831 3.134-.715l9.457 2.646 8.69 4.604c13.671 8.375 26.605 21.19 34.668 35.083l1.991 5.262c.135-.136.27-.282.406-.421.563 1.685 1.076 3.437 1.741 4.994-.531 2.633-.715 5.632-1.172 8.279 2.589-2.368 5.76-4.688 8.334-7.071.348-3.379.259-7.185.613-10.564-.655-1.367-1.189-2.905-1.743-4.397z" fill="#1F1F1F"/><path d="M847.252 389.853c-14.686-6.875-28.78-18.671-38.456-31.654l-5.511-8.437-3.594-9.502 1.525-9.988c24.428-9.618 60.768 27.859 67.162 49.86l-1.524 9.987c-10.878 2.877-8.838 2.858-19.602-.266z" fill="#FFF"/><path d="M856.738 393.023c-14.86-2.807-28.389-13.568-35.13-19.733-6.759-6.145-18.725-18.629-22.881-33.164l.019-.005c-.071-.559.113-1.769.668-5.398l.728-4.764 1.12-1.229 9.356-2.326.641-.018c14.86 2.807 28.389 13.568 35.13 19.733 6.759 6.145 18.725 18.629 22.881 33.164l-.019.005c.071.559-.113 1.769-.668 5.398l-.728 4.764-1.12 1.229-9.356 2.326zm-55.036-53.41c4.035 13.69 15.45 25.572 21.928 31.46 6.461 5.908 19.338 16.177 33.346 18.94l8.065-2.005 1.254-8.212c-4.035-13.69-15.45-25.572-21.928-31.46-6.461-5.908-19.338-16.177-33.346-18.94l-8.065 2.005c-.322 2.1-1.058 6.924-1.254 8.212z" fill="#FFF"/><path d="M856.738 393.023c-14.86-2.807-28.389-13.568-35.13-19.733-6.759-6.145-18.725-18.629-22.881-33.164l.019-.005c-.071-.559.113-1.769.668-5.398l.728-4.764 1.12-1.229 9.356-2.326.641-.018c14.86 2.807 28.389 13.568 35.13 19.733 6.759 6.145 18.725 18.629 22.881 33.164l-.019.005c.071.559-.113 1.769-.668 5.398l-.728 4.764-1.12 1.229-9.356 2.326zm-55.036-53.41c4.035 13.69 15.45 25.572 21.928 31.46 6.461 5.908 19.338 16.177 33.346 18.94l8.065-2.005 1.254-8.212c-4.035-13.69-15.45-25.572-21.928-31.46-6.461-5.908-19.338-16.177-33.346-18.94l-8.065 2.005c-.322 2.1-1.058 6.924-1.254 8.212z" fill="#FFF"/><path d="m866.954 390.492-2.002-2.235a124.335 124.335 0 0 0 6.08-5.838c.256-.264.582-.551.931-.854.509-.443 1.277-1.112 1.435-1.494l1.262-.925c-.571.048-.904.433-.977.611.334-.826.302-5.016.288-6.806-.011-1.306-.012-1.995.014-2.421-2.734-7.42-8.733-16.759-14.685-22.836-9.254-9.81-23.64-22.137-39.88-25.464l-8.767 2.177c-2.269 1.859-5.449 4.591-8.205 7.419l-2.148-2.094c2.962-3.039 6.375-5.953 8.717-7.862l.587-.293 4.71-1.169c3.549-.881 4.796-1.19 5.358-1.164l.004-.021c17.151 3.382 32.19 16.22 41.786 26.394 6.392 6.526 12.614 16.272 15.466 24.231l.016.964c.013-.039.032-.095.041-.172-.029.25-.021 1.333-.014 2.29.042 5.46-.045 7.972-1.088 8.842-.491.788-1.259 1.456-1.951 2.058-.278.242-.542.469-.745.677a128.817 128.817 0 0 1-6.233 5.985z" fill="#FFF"/><path d="M.981 697.597c5.205-28.677 15.279-57.827 28.891-83.6l8.158-8.435c3.588 28.42-15.132 69.604-27.682 95.276l-8.158 8.436z" fill="#1F1F1F"/><path d="M28.086 684.382a142.959 142.959 0 0 0-9.687-2.207c8.354-24.062 21.917-50.571 18.756-76.515 4.315.984 8.994 2.64 13.298 3.655 2.822 25.714-10.01 52.068-18.656 75.775zM9.822 710.457c-2.323-.832-5.676-1.55-8-2.411 2.115-2.698 7.528-6.985 8.853-10.239 4.223 1.544 9.196 2.876 13.406 4.504l-6.824 7.246c-1.784.167-5.598 2.066-7.435.9z" fill="#1F1F1F"/><path d="m3.662 708.229-2.57-.888L0 696.805l.02-.439 2.099-10.86c2.053-9.662 6.005-22.209 9.22-32.063 3.58-9.802 8.224-22.127 12.55-30.942l5.067-9.864.256-.358 7.361-7.61 2.57.888 1.091 10.536-.02.439-2.099 10.86c-2.047 9.642-6.001 22.198-9.219 32.063l-.017.05c-3.562 9.75-8.205 22.072-12.533 30.892l-5.067 9.864-.256.357zm-.656-11.512.737 7.112 4.969-5.136 4.953-9.642c4.25-8.662 8.852-20.875 12.387-30.551 3.192-9.791 7.112-22.236 9.122-31.704l2.052-10.615-.736-7.112-4.969 5.136-4.953 9.642c-4.251 8.663-8.858 20.892-12.396 30.575-3.175 9.735-7.097 22.183-9.115 31.68z" fill="#FFF"/><path d="M14.304 712.197c-1.894-.638-3.991-1.213-6.02-1.77-2.069-.568-4.208-1.155-6.183-1.82l.957-2.843c1.894.638 3.991 1.213 6.02 1.77 1.752.481 3.555.976 5.266 1.52l6.52-6.922 5.111-9.522c1.955-4.37 8.498-19.241 12.205-30.622 4.136-11.317 8.164-27.038 9.322-31.678l1.858-10.647-.846-9.335c-1.187-.298-2.383-.665-3.548-1.023-2.81-.863-5.71-1.758-8.417-1.645l-.123-2.998c3.215-.127 6.37.838 9.421 1.775 1.525.469 2.966.911 4.372 1.207l1.186 1.333.961 10.614-.017.393-1.924 11.001c-1.149 4.609-5.227 20.535-9.411 31.983-3.749 11.514-10.381 26.576-12.324 30.917l-.048.097-5.23 9.744-.229.319-7.309 7.76z" fill="#FFF"/><path d="M7.436 709.66c13.817-4.925 30.519-4.164 44.987-4.444 14.466.28 31.174-.481 44.987 4.444-13.817 4.925-30.519 4.164-44.987 4.444-14.466-.28-31.174.481-44.987-4.444zm2.522-10.557c3.757 1.396 8.096 2.544 11.854 3.94 1.715-3.717 4.037-7.666 5.735-11.39 1.152-2.964 2.001-6.424 3.126-9.399-3.49-.642-7.298-1.772-10.786-2.417-1.663 4.004-3.091 8.643-4.767 12.641-1.532 2.22-3.589 4.434-5.162 6.625z" fill="#FFF"/><path d="m706.21 82.095-11.957.93-11.402 3.685c-16.945 8.737-29.565 24.043-33.45 42.875.425.34.94.679 1.475 1.019-.442 3.914-1.358 7.987-.387 11.729.883 3.192 1.824 7.03 2.52 10.268 1.804 2.871 3.511 6.26 5.205 9.198-.558-5.613-1.654-11.83-2.204-17.444.355-3.973 1.235-8.354 1.596-12.326l-.075-.054 5.136-13.021 8.173-11.221 10.419-9.26 12.379-6.313 13.267-2.931c.156-.063 19.562 2.449 19.729 2.441-6.032-6.685-11.965-7.783-20.424-9.575z" fill="#1F1F1F"/><path d="M679.331 177.025c-15.439-6.892-21.192-16.184-23.708-32.314l1.62-14.07 5.148-13.185 8.305-11.459 10.546-9.436 12.587-6.474 13.785-1.531c16.86 1.048 26.009 3.998 34.621 18.746 3.446 13.218 3.493 14.42 1.572 27.875-5.573 16.043-13.663 29.984-32.033 35.944.77-.219-8.495 5.277-8.854 5.56l-9.531 2.105z" fill="#1F1F1F"/><path d="M691.717 180.231c-3.204 0-6.698-.47-12.276-1.328-.41.035-.995-.288-2.802-1.301l-10.271-5.757-.493-.445-8.037-11.41-.225-.485c-3.421-13.106-3.509-14.684-1.58-28.137l.021.003c.114-.459.39-1.164.863-2.377l4.486-11.357 8.45-11.602 10.771-9.573 12.797-6.537c13.072-3.267 14.751-3.372 27.757-1.373.411-.037.995.288 2.802 1.301l10.271 5.757.493.445 8.037 11.41.225.485c3.42 13.108 3.509 14.686 1.58 28.137l-.092-.013c-.197.864-.887 2.63-2.545 6.878l-2.733 6.866-8.45 11.602-10.771 9.573-12.797 6.537c-7.466 1.867-11.216 2.701-15.481 2.701zm-11.946-4.312c12.748 1.963 13.878 1.904 26.531-1.257l12.148-6.248 10.195-9.122 8.028-11.078 4.968-12.723c1.846-12.89 1.789-14.019-1.47-26.52l-7.685-10.909-11.639-6.524c-12.749-1.963-13.878-1.904-26.531 1.257l-12.148 6.248-10.195 9.122-8.028 11.078-4.968 12.723c-1.846 12.893-1.789 14.021 1.47 26.52l7.685 10.909 11.639 6.524z" fill="#FFF"/><path d="M666.498 171.864c-1.14-1.147-2.368-2.285-3.668-3.489-3.842-3.557-7.814-7.235-10.155-11.766-8.213-17.328-3.965-39.542 10.799-56.636l.132-.135 9.051-8.104 10.449-6.338 11.635-3.716 11.818-.919.473.039 11.498 2.812.474.207c4.278 2.841 9.489 6.864 15.486 11.957l-1.941 2.287c-5.806-4.931-10.847-8.832-14.987-11.599l-11.009-2.693-11.402.886-10.952 3.539-9.858 6.026-8.656 7.784c-13.938 16.187-17.989 37.088-10.319 53.273 2.076 4.017 5.853 7.514 9.505 10.895 1.324 1.226 2.575 2.385 3.759 3.576z" fill="#FFF"/><path d="M369.848 1.327c-10.695-.254-10.194-.34-19.535 4.897-6.034 5.954-10.483 7.539-11.708 11.746l-.063-.085c-21.481 26.374-31.568 52.429-12.835 62.04l-1.26-13.513c3.625-10.76 22.155-26.147 20.705-38.228 8.91-9.955 20.316-21.377 34.695-18.436-3.098-2.407-7.155-5.775-9.999-8.421z" fill="#1F1F1F"/><path d="m327.682 83.595-3.863-9.651 1.386-10.367 5.816-15.971c3.332-6.253 10.579-16.72 13.058-19.164-1.31 1.291 15.902-16.539 25.037-20.358l10.391.154 3.863 9.651c-.658 13.223-7.624 27.443-15.03 38.168-7.364 10.749-18.158 22.354-30.267 27.691 0 .002-10.391-.153-10.391-.153z" fill="#FFF"/><path d="M335.269 84.888c-1.57 0-4.042-.037-7.992-.096l-1.37-.942-3.69-9.22-.105-.633c.779-15.541 9.853-30.853 15.191-38.597 5.321-7.757 16.377-21.714 30.608-27.994l.018.041c.722-.167 2.777-.136 10.538-.021l1.37.942 3.69 9.22.105.633c-.779 15.542-9.854 30.854-15.192 38.597-5.322 7.758-16.378 21.714-30.608 27.994l-.018-.041c-.354.083-1.03.117-2.545.117zm-6.948-3.081 8.597.128c13.41-6.044 23.944-19.374 29.05-26.817 5.123-7.429 13.798-22.03 14.651-36.722l-3.196-7.985-8.598-.128c-13.41 6.045-23.944 19.374-29.05 26.817-5.123 7.43-13.797 22.031-14.65 36.722z" fill="#FFF"/><path d="M326.985 84.567c-1.988-1.255-3.821-2.901-5.595-4.492-1.217-1.092-2.366-2.124-3.541-3.019l-.488-.647-1.829-4.672c-1.304-3.329-1.805-4.61-1.893-5.255l-.039-.001c.347-14.214 8.439-28.788 15.168-38.51 5.359-7.84 16.463-21.89 30.552-27.828l.579-.118L369.903 0l.954.339c3.587 2.935 6.379 5.374 9.053 7.908l-2.064 2.177c-2.515-2.384-5.143-4.687-8.473-7.423l-9.162.024c-13.253 5.708-23.828 19.124-28.971 26.646-6.452 9.324-14.196 23.203-14.632 36.584l3.395 8.673c1.156.906 2.291 1.924 3.392 2.913 1.681 1.508 3.418 3.068 5.192 4.188z" fill="#FFF"/><path d="M881.865 697.44c-22.921-6.087-33.185-23.117-27.785-46.249l6.765-13.756 9.864-11.72 12.305-9.12 13.828-6.581 14.981-3.207c17.956-.36 28.756 2.852 40.443 16.813 5.079 15.434 4.849 13.966 2.666 29.922l-6.765 13.756-9.864 11.72-12.305 9.121-13.828 6.581-14.981 3.207z" fill="#1F1F1F"/><path d="M887.16 723.632c10.638-4.551 23.903-3.891 35.256-4.133 11.351.243 24.621-.418 35.256 4.133-10.638 4.551-23.903 3.891-35.256 4.133-11.351-.243-24.62.418-35.256-4.133zm14.438-16.149-15.176-.481-.494-.101-14.122-5.474-.517-.336-10.69-10.655-.262-.35c-.944-1.75-2.077-3.593-3.173-5.376-1.115-1.814-2.268-3.689-3.251-5.51l2.641-1.425c.942 1.746 2.073 3.585 3.166 5.364 1.078 1.753 2.19 3.563 3.151 5.326l10.312 10.278 13.59 5.267 14.737.467 14.511-3.106 13.444-6.397 11.959-8.864 9.557-11.355 6.509-13.232 1.73-14.471-4.229-13.918c-.842-1.238-1.63-2.595-2.394-3.909-.773-1.332-1.574-2.71-2.398-3.902l2.467-1.707c.893 1.29 1.723 2.719 2.526 4.102.774 1.333 1.575 2.712 2.4 3.904l.202.418 4.388 14.441.054.614-1.798 15.038-.144.484-6.9 13.93-10.042 11.869-12.466 9.205-14.065 6.647z" fill="#FFF"/><path d="m896.757 699.425-15.177-.481-.494-.101-14.122-5.474-.517-.336-10.69-10.654-.377-.626-4.387-14.442-.054-.614 1.798-15.038.144-.484 6.899-13.929 10.041-11.868 12.468-9.207 14.062-6.647 15.226-3.214 15.178.481.494.101 14.121 5.474.517.336 10.69 10.654.377.626 4.387 14.442.054.614-1.798 15.038-.144.484-6.899 13.928-10.041 11.868-12.468 9.207-14.062 6.647zm-14.825-3.472 14.738.467 14.513-3.106 13.441-6.396 11.961-8.866 9.556-11.354 6.508-13.231 1.73-14.471-4.187-13.78-10.2-10.166-13.589-5.267-14.739-.467-14.513 3.106-13.441 6.396-11.961 8.866-9.556 11.354-6.508 13.231-1.73 14.471 4.187 13.78 10.2 10.166z" fill="#FFF"/><path d="m960.169 639.564-3.899.344-1.607 13.431c.05.179-6.784 13.563-6.761 13.712l-9.733 11.503-12.123 8.952-13.673 6.463-14.76 3.116c-13.444-.163-14.905.047-27.542-5.39l-.514.79c-11.219-6.045-15.329-18.373-16.704-27.141-.168 3.766.367 11.207 1.076 14.908l4.872 7.611 2.814 6.172 9.416 6.85 6.423 1.382-.416-.618 10.362 4.017 15.323.485 14.979-3.206 13.831-6.582 12.304-9.119 9.865-11.721 6.766-13.758 1.821-15.227z" fill="#FFF"/></svg></g><g transform="translate(271.0 764.0) rotate(0.0 223.0 10.5) scale(1.1196662089256977 1.1211360845656932)"><svg width="398.333" height="18.731" viewBox="0 0 398.333 18.731"><path d="m398.333 9.648-1.837-.148-1.839-.148-1.836-.148-1.84-.148-1.844-.149-1.843-.148-1.838-.148-1.839-.149-1.837-.148-1.841-.148-1.844-.149-1.843-.148-1.838-.148-1.84-.149-1.838-.148-1.841-.148-1.845-.149-1.844-.148-1.838-.149-1.839-.148-1.837-.148-1.841-.148-1.844-.149-1.844-.148-1.838-.149-1.841-.148-1.838-.148-1.842-.148-1.846-.149-1.845-.149-1.838-.148-1.841-.148-1.838-.149-1.842-.148-1.845-.149-1.846-.148-1.84-.088-1.843-.088-1.84-.088-1.844-.088-1.848-.088-1.847-.088-1.841-.088-1.843-.088-1.841-.088-1.844-.088-1.848-.088-1.848-.089-1.842-.087-1.844-.088-1.841-.088-1.845-.088-1.849-.089-1.848-.088-1.841-.088-1.843-.088-1.841-.088-1.845-.088-1.848-.088-1.847-.088-1.843-.088-1.844-.088-1.842-.088-1.846-.088-1.849-.088-1.849-.089-1.843-.087-1.844-.088-1.842-.088-1.846-.088-1.849-.089-1.849-.088-1.843-.032-1.844-.031-1.842-.032-1.847-.031-1.849-.032-1.849-.032-1.843-.031-1.845-.032-1.843-.031-1.846-.032-1.85-.032-1.85-.031-1.843-.032-1.846-.031-1.843-.032-1.848-.032-1.85-.031-1.85-.032-1.843-.031-1.845-.032-1.843-.032-1.847-.031-1.849-.032-1.85-.031-1.845-.032-1.846-.032-1.844-.031-1.848-.032-1.851-.032-1.851-.031-1.844-.032-1.846-.031-1.844-.032-1.848-.032-1.851-.031L199.179 0l-1.843.024-1.845.024-1.842.024-1.846.024-1.85.025-1.849.024-1.843.024-1.845.024-1.843.024-1.847.024-1.85.025-1.849.024-1.844.024-1.846.024-1.843.024-1.848.024-1.85.024-1.851.025-1.843.024-1.845.024-1.843.024-1.847.024-1.85.024-1.849.025-1.845.024-1.846.024-1.844.024-1.848.024-1.852.024-1.851.025-1.844.024-1.847.024-1.844.024-1.848.024-1.851.024-1.851.024-1.841.083-1.843.082-1.841.082-1.844.082-1.848.082-1.848.082-1.841.083-1.844.082-1.841.082-1.845.082-1.848.082-1.848.083-1.842.082-1.844.082-1.842.082-1.846.082-1.848.082-1.849.083-1.842.082-1.843.082-1.841.082-1.845.082-1.849.083-1.848.082-1.843.082-1.844.082-1.843.082-1.846.083-1.85.082-1.849.082-1.843.083-1.845.082-1.842.082-1.846.082-1.85.082-1.849.083-1.837.145-1.839.146-1.837.146-1.84.146-1.844.146-1.844.146-1.837.146-1.839.146-1.837.145-1.841.146-1.845.146-1.844.147-1.838.145-1.84.146-1.837.146-1.842.146-1.845.146-1.845.146-1.837.146-1.84.146-1.836.145-1.842.146-1.844.147-1.844.146-1.839.146-1.841.145-1.838.146-1.842.146-1.846.147-1.845.146-1.839.146-1.841.146-1.838.145-1.842.146-1.846.147L0 9.083l1.837.148 1.839.148 1.836.148 1.84.148 1.844.149 1.843.149 1.837.148 1.84.148 1.836.148 1.841.148 1.844.149 1.844.149 1.838.148 1.84.148 1.837.148 1.842.148 1.845.149 1.844.149 1.837.148 1.84.148 1.837.148 1.841.149 1.844.148 1.844.149 1.838.148 1.841.148 1.838.148 1.842.149 1.845.149 1.846.148 1.838.148 1.841.149 1.838.148 1.842.148 1.845.149 1.846.149 1.84.088 1.843.088 1.84.087 1.844.088 1.847.089 1.848.088 1.841.088 1.843.088 1.84.088 1.845.088 1.848.088 1.848.088 1.842.088 1.843.088 1.841.088 1.846.088 1.848.088 1.849.088 1.841.088 1.843.088 1.841.088 1.845.088 1.847.088 1.848.088 1.843.088 1.844.088 1.842.088 1.846.088 1.849.089 1.849.088 1.843.088 1.844.088 1.842.088 1.846.088 1.849.088 1.849.088 1.843.032 1.844.031 1.842.032 1.847.032 1.849.031 1.849.032 1.843.031 1.845.032 1.842.032 1.847.031 1.85.032 1.85.032 1.843.031 1.846.032 1.843.031 1.847.032 1.851.032 1.85.031 1.843.032 1.845.031 1.843.032 1.847.032 1.849.031 1.85.032 1.844.031 1.847.032 1.843.032 1.849.031 1.851.032 1.851.032 1.844.031 1.846.032 1.844.031 1.848.032 1.851.032 1.851.031 1.843-.024 1.845-.024 1.842-.024 1.846-.024 1.849-.024 1.85-.024 1.843-.025 1.845-.024 1.843-.024 1.846-.024 1.85-.024 1.85-.024 1.844-.024 1.846-.025 1.843-.024 1.848-.024 1.85-.024 1.85-.024 1.844-.024 1.845-.025 1.843-.024 1.846-.024 1.85-.024 1.85-.024 1.845-.024 1.846-.024 1.844-.025 1.848-.024 1.851-.024 1.852-.024 1.844-.024 1.847-.024 1.844-.025 1.848-.024 1.851-.024 1.851-.024 1.841-.082 1.843-.082 1.84-.082 1.845-.082 1.848-.083 1.848-.082 1.841-.082 1.843-.082 1.841-.082 1.846-.083 1.848-.082 1.848-.082 1.842-.082 1.844-.082 1.842-.082 1.845-.083 1.849-.082 1.849-.082 1.842-.083 1.843-.082 1.841-.082 1.845-.082 1.848-.082 1.849-.083 1.842-.082 1.845-.082 1.842-.082 1.847-.082 1.849-.083 1.85-.082 1.843-.082 1.845-.082 1.842-.082 1.846-.083 1.85-.082 1.849-.083 1.837-.145 1.839-.146 1.837-.145 1.84-.146 1.844-.147 1.843-.146 1.838-.145 1.839-.146 1.837-.146 1.841-.146 1.844-.146 1.845-.146 1.838-.146 1.84-.146 1.837-.145 1.842-.146 1.845-.147 1.844-.146 1.838-.146 1.839-.145 1.837-.146 1.842-.146 1.844-.146 1.844-.146 1.839-.146 1.84-.146 1.839-.146 1.842-.146 1.845-.146 1.846-.147 1.839-.145 1.84-.146 1.838-.146 1.843-.146 1.845-.146z" fill="#231f20"/></svg></g><g transform="translate(281.0 143.0) rotate(0.0 9.5 9.5) scale(0.7889382552007641 0.7844756399669695)"><svg width="24.083" height="24.22" viewBox="0 0 24.083 24.22"><path d="M12.041 22.72c-.095 0-.189-.009-.283-.027l-2.791-.537a1.468 1.468 0 0 1-.349-.113l-2.576-1.198a1.502 1.502 0 0 1-.463-.334l-1.943-2.073a1.527 1.527 0 0 1-.215-.295l-1.385-2.482a1.518 1.518 0 0 1-.18-.549l-.346-2.821a1.486 1.486 0 0 1 0-.365l.346-2.821c.024-.193.085-.379.179-.548l1.384-2.481c.061-.105.133-.204.217-.294L5.58 3.709c.131-.14.287-.253.462-.334l2.576-1.198c.11-.052.228-.09.349-.113l2.791-.537a1.507 1.507 0 0 1 .566 0l2.79.537c.121.023.237.061.349.113l2.577 1.198c.174.081.331.194.463.334l1.943 2.073c.083.089.156.188.216.295l1.384 2.482c.094.169.154.355.179.547l.347 2.821c.015.122.015.245 0 .366l-.347 2.821a1.512 1.512 0 0 1-.179.547l-1.384 2.481a1.575 1.575 0 0 1-.216.295l-1.943 2.073c-.132.14-.288.254-.463.334l-2.577 1.198a1.515 1.515 0 0 1-.349.113l-2.79.537a1.407 1.407 0 0 1-.283.028z" fill="#fff"/><path d="m12.041 3 2.791.538 2.577 1.197 1.943 2.073 1.384 2.481.347 2.821-.347 2.82-1.384 2.481-1.943 2.073-2.577 1.198-2.791.537-2.791-.537-2.577-1.198-1.943-2.073-1.384-2.482L3 12.11l.347-2.82L4.73 6.808l1.943-2.073L9.25 3.537zm0-3c-.19 0-.38.018-.568.054l-2.79.538a2.987 2.987 0 0 0-.697.225L5.409 2.015a2.994 2.994 0 0 0-.924.669L2.542 4.756a3.018 3.018 0 0 0-.432.591L.727 7.829c-.189.338-.31.71-.357 1.095l-.347 2.821c-.03.243-.03.489 0 .732l.347 2.82c.047.384.169.756.357 1.095l1.384 2.482c.119.214.264.413.432.591l1.943 2.073c.262.28.576.507.924.668l2.577 1.198c.223.104.457.179.698.226l2.791.537a3 3 0 0 0 1.134 0l2.791-.537a3.01 3.01 0 0 0 .698-.225l2.577-1.198c.348-.162.662-.389.924-.669l1.943-2.073c.167-.179.312-.377.431-.591l1.384-2.481c.189-.338.31-.71.357-1.095l.347-2.82a2.98 2.98 0 0 0 0-.731l-.347-2.821a2.997 2.997 0 0 0-.358-1.096l-1.384-2.481a3.007 3.007 0 0 0-.431-.59l-1.943-2.073a3.002 3.002 0 0 0-.925-.669L16.097.82A2.987 2.987 0 0 0 15.4.595L12.609.057A2.792 2.792 0 0 0 12.041 0z" fill="#231f20"/></svg></g><g transform="translate(236.0 353.0) rotate(64.30290247883629 25.5 30.5) scale(0.7751231077877074 0.775331740301998)"><svg width="65.796" height="78.676" viewBox="0 0 65.796 78.676"><path d="M6.083 77.173c-.822.066-1.246-.785-1.902-1.106-.609-.558-1.38-1.027-1.92-1.668-.505-.557-.53-1.345-.599-2.033-.065-.809-.411-1.774.17-2.476 9.784-11.923 22.763-28.533 32.544-40.454 5.31-6.781 16.171-20.342 21.635-27.003.736-.806 1.995-.756 2.994-.795 1.198-.544 2.026.666 2.913 1.253.606.643 1.613 1.058 1.913 1.969.315.815.235 1.698.375 2.532 1.267.563-11.07 14.27-11.19 14.842-9.499 12.138-22.874 28.426-32.369 40.563L9.741 76.245a1.546 1.546 0 0 1-.746.504c-.942.315-1.949.241-2.912.424z" fill="#fff"/><path d="M5.987 78.676c-1.043 0-1.73-.62-2.151-1-.102-.092-.254-.23-.315-.263l-.353-.241c-.203-.186-.428-.359-.653-.536-.453-.354-.966-.755-1.401-1.271-.757-.833-.855-1.891-.927-2.663l-.018-.188c-.015-.178-.039-.333-.063-.49-.123-.809-.309-2.032.571-3.093 4.891-5.959 10.685-13.224 16.289-20.249 5.586-7.002 11.362-14.243 16.25-20.201C38.564 21.651 49.493 8.01 54.85 1.479 55.993.224 57.594.177 58.654.146l.047-.001c1.616-.541 2.853.509 3.537 1.089.17.145.336.29.507.403l.263.221c.122.129.321.281.531.441.579.441 1.372 1.045 1.716 2.089.258.66.308 1.363.352 1.983.012.158.022.316.038.473.045.1.081.206.106.316.287 1.246-.355 2.563-8.678 12.445-1.119 1.329-2.273 2.699-2.646 3.197l-.017.078-.215.274c-4.748 6.068-10.555 13.285-16.171 20.265-5.628 6.995-11.448 14.228-16.196 20.298L10.906 77.19a3.04 3.04 0 0 1-1.467.992c-.707.237-1.43.296-2.068.348-.337.028-.676.053-1.007.116l-.16.021a2.303 2.303 0 0 1-.217.009zm-.935-3.842c.326.193.582.423.794.615.068.062.161.146.232.203.362-.055.709-.084 1.048-.111.514-.042.999-.082 1.393-.214l10.963-13.475c4.745-6.065 10.571-13.307 16.206-20.31 5.564-6.915 11.316-14.064 16.03-20.085.248-.426.924-1.243 3.062-3.781 2.341-2.781 7.078-8.405 7.937-10.093a11.678 11.678 0 0 1-.102-.995c-.034-.469-.062-.875-.184-1.187-.079-.232-.429-.499-.71-.713-.244-.186-.517-.394-.773-.645a9.618 9.618 0 0 1-.651-.52c-.217-.184-.579-.491-.723-.527l-.268.122-.564.028c-.587.018-1.391.041-1.625.297-5.294 6.46-16.202 20.074-21.561 26.917C30.66 36.328 24.89 43.561 19.31 50.555 13.7 57.588 7.898 64.86 2.99 70.841c-.018.086.044.492.081.734.035.229.068.455.085.67l.018.181c.032.351.077.832.197.965.271.319.621.593.991.883.236.185.47.369.69.56z" fill="#231f20"/></svg></g><g transform="translate(84.0 582.0) rotate(0.0 11.5 11.5) scale(0.9550305194535565 0.9496284062758051)"><svg width="24.083" height="24.22" viewBox="0 0 24.083 24.22"><path d="M12.041 22.72c-.095 0-.189-.009-.283-.027l-2.791-.537a1.468 1.468 0 0 1-.349-.113l-2.576-1.198a1.502 1.502 0 0 1-.463-.334l-1.943-2.073a1.527 1.527 0 0 1-.215-.295l-1.385-2.482a1.518 1.518 0 0 1-.18-.549l-.346-2.821a1.486 1.486 0 0 1 0-.365l.346-2.821c.024-.193.085-.379.179-.548l1.384-2.481c.061-.105.133-.204.217-.294L5.58 3.709c.131-.14.287-.253.462-.334l2.576-1.198c.11-.052.228-.09.349-.113l2.791-.537a1.507 1.507 0 0 1 .566 0l2.79.537c.121.023.237.061.349.113l2.577 1.198c.174.081.331.194.463.334l1.943 2.073c.083.089.156.188.216.295l1.384 2.482c.094.169.154.355.179.547l.347 2.821c.015.122.015.245 0 .366l-.347 2.821a1.512 1.512 0 0 1-.179.547l-1.384 2.481a1.575 1.575 0 0 1-.216.295l-1.943 2.073c-.132.14-.288.254-.463.334l-2.577 1.198a1.515 1.515 0 0 1-.349.113l-2.79.537a1.407 1.407 0 0 1-.283.028z" fill="#fff"/><path d="m12.041 3 2.791.538 2.577 1.197 1.943 2.073 1.384 2.481.347 2.821-.347 2.82-1.384 2.481-1.943 2.073-2.577 1.198-2.791.537-2.791-.537-2.577-1.198-1.943-2.073-1.384-2.482L3 12.11l.347-2.82L4.73 6.808l1.943-2.073L9.25 3.537zm0-3c-.19 0-.38.018-.568.054l-2.79.538a2.987 2.987 0 0 0-.697.225L5.409 2.015a2.994 2.994 0 0 0-.924.669L2.542 4.756a3.018 3.018 0 0 0-.432.591L.727 7.829c-.189.338-.31.71-.357 1.095l-.347 2.821c-.03.243-.03.489 0 .732l.347 2.82c.047.384.169.756.357 1.095l1.384 2.482c.119.214.264.413.432.591l1.943 2.073c.262.28.576.507.924.668l2.577 1.198c.223.104.457.179.698.226l2.791.537a3 3 0 0 0 1.134 0l2.791-.537a3.01 3.01 0 0 0 .698-.225l2.577-1.198c.348-.162.662-.389.924-.669l1.943-2.073c.167-.179.312-.377.431-.591l1.384-2.481c.189-.338.31-.71.357-1.095l.347-2.82a2.98 2.98 0 0 0 0-.731l-.347-2.821a2.997 2.997 0 0 0-.358-1.096l-1.384-2.481a3.007 3.007 0 0 0-.431-.59l-1.943-2.073a3.002 3.002 0 0 0-.925-.669L16.097.82A2.987 2.987 0 0 0 15.4.595L12.609.057A2.792 2.792 0 0 0 12.041 0z" fill="#231f20"/></svg></g><g transform="translate(352.0 6.0) rotate(0.0 48.5 48.5) scale(1.0115230199697587 1.0115230199697587)"><svg width="95.895" height="95.895" viewBox="0 0 95.895 95.895"><path d="m47.947 1.222.033.278.032.274.033.276.034.282.033.282.034.282.058.266.057.261.058.263.059.269.059.269.059.269.025.271.024.268.024.269.025.274.025.275.025.276.058.266.058.262.058.265.059.269.059.271.06.27.024.272.025.267.024.27.025.275.025.276.025.276.068.26.068.256.067.258.07.264.069.264.07.264.034.266.034.262.035.264.035.269.035.271.035.27.068.26.068.256.068.258.069.264.069.264.07.264.035.267.034.264.035.265.035.27.035.271.036.272.068.26.068.257.068.259.069.264.07.265.069.265.021.268.021.264.021.266.021.271.022.272.021.273.055.262.054.259.055.26.055.266.056.267.056.267.021.268.021.264.021.266.021.271.021.272.022.273.055.263.054.26.055.262.055.266.056.268.056.268.021.269.021.264.021.267.022.272.021.273.022.273.068.26.068.256.068.259.069.263.069.264.07.264.034.267.034.262.035.264.035.27.035.27.035.27.069.26.067.257.068.258.069.264.07.264.069.264.035.267.034.264.035.265.035.27.036.272.035.271.069.261.067.257.068.259.069.264.07.265.07.265.022.27.021.266.022.268.023.274.022.274.023.274.055.265.056.26.055.263.057.268.056.268.057.269.022.27.022.266.022.268.022.274.023.274.022.274.056.266.055.262.056.263.057.269.057.27.056.27.025.275.024.272.025.273.024.279.025.279.025.28.275.024.27.024.273.025.278.024.279.025.278.025.265.056.26.055.262.055.268.057.269.057.268.056.27.022.266.022.268.022.273.022.274.023.274.022.266.056.261.055.264.056.269.057.269.057.27.056.27.023.267.021.268.022.274.023.275.022.275.023.26.068.256.068.258.067.264.07.264.069.264.069.266.035.262.034.264.035.27.035.27.035.27.035.26.068.257.068.258.068.263.069.264.069.264.07.267.035.264.034.265.034.27.036.272.035.271.036.26.068.258.068.258.067.264.07.265.069.265.07.268.021.264.021.266.021.271.021.273.022.272.021.262.055.259.054.261.054.265.056.267.056.267.056.268.021.264.02.266.021.271.022.273.021.272.022.263.055.26.054.262.055.267.055.267.056.268.056.269.021.265.021.266.021.272.022.273.021.273.022.26.068.257.068.258.067.263.07.264.069.265.069.266.035.262.034.264.035.27.035.27.035.27.035.261.069.256.067.258.068.264.069.264.07.264.069.267.035.264.034.265.035.271.035.271.036.271.035.261.068.257.068.259.068.264.069.265.07.265.069.271.025.267.024.269.024.275.025.275.025.276.025.265.058.262.058.263.058.269.059.269.059.27.059.271.024.267.025.27.024.274.025.276.025.275.025.267.058.262.058.265.058.269.059.271.059.271.059.279.033.275.033.276.033.283.033.283.033.283.034-.278.033-.274.032-.276.033-.281.034-.283.033-.282.034-.265.058-.262.057-.263.058-.268.059-.27.059-.269.059-.271.025-.267.024-.269.024-.275.025-.275.025-.275.025-.267.058-.262.058-.264.058-.27.059-.27.059-.271.06-.271.024-.268.025-.27.024-.275.025-.276.025-.276.025-.26.068-.256.068-.258.067-.263.07-.264.069-.264.07-.266.034-.263.034-.264.035-.269.035-.27.035-.271.035-.26.068-.256.068-.258.068-.264.069-.264.069-.264.07-.267.035-.263.034-.265.035-.271.035-.271.035-.271.036-.261.068-.257.068-.259.068-.264.069-.265.07-.264.069-.268.021-.265.021-.266.021-.271.021-.272.022-.272.021-.263.055-.259.054-.26.055-.266.055-.267.056-.266.056-.268.021-.265.021-.265.021-.272.021-.272.021-.272.022-.264.055-.26.054-.261.055-.267.055-.268.056-.268.056-.268.021-.265.021-.267.021-.272.022-.273.021-.272.022-.261.068-.256.068-.258.068-.264.069-.264.069-.264.07-.266.034-.263.034-.264.035-.269.035-.271.035-.27.035-.26.069-.257.067-.258.068-.263.069-.265.07-.264.069-.267.035-.263.034-.266.035-.27.035-.271.036-.272.035-.261.069-.257.067-.259.068-.264.069-.265.07-.265.07-.27.022-.266.021-.268.022-.273.023-.274.022-.275.023-.264.055-.261.056-.262.055-.268.057-.269.056-.269.057-.27.022-.266.022-.268.022-.274.022-.274.023-.274.022-.266.056-.262.055-.263.056-.269.057-.27.057-.269.056-.276.025-.271.024-.273.025-.279.024-.28.025-.28.025-.024.275-.024.27-.024.273-.025.278-.025.279-.025.278-.056.265-.055.26-.055.262-.057.268-.056.269-.057.268-.022.27-.022.266-.022.268-.022.273-.022.274-.023.274-.056.266-.055.261-.056.264-.056.269-.057.269-.057.27-.022.27-.022.267-.022.268-.022.274-.023.275-.022.275-.069.26-.067.256-.068.258-.069.264-.07.264-.069.264-.035.266-.034.262-.034.264-.035.27-.036.27-.035.27-.068.26-.067.257-.068.258-.07.263-.069.264-.069.264-.035.267-.035.264-.034.265-.035.27-.036.272-.035.271-.069.26-.067.258-.068.258-.07.264-.069.265-.07.265-.021.268-.021.264-.02.266-.022.271-.021.273-.022.272-.055.262-.054.259-.054.261-.056.265-.056.267-.055.267-.021.268-.021.264-.021.266-.021.271-.022.273-.021.272-.055.263-.055.26-.054.262-.056.267-.056.267-.056.268-.021.269-.021.265-.021.266-.021.272-.022.273-.021.273-.069.26-.067.257-.068.258-.069.263-.07.264-.069.265-.035.266-.034.262-.034.264-.035.27-.036.27-.035.27-.068.261-.068.256-.068.258-.069.264-.069.264-.07.264-.035.267-.034.264-.034.265-.036.271-.035.271-.036.271-.068.261-.068.257-.068.259-.069.264-.07.265-.069.265-.025.271-.024.267-.024.269-.025.275-.025.275-.025.276-.058.265-.057.262-.058.263-.059.269-.059.269-.06.27-.024.271-.024.267-.025.27-.024.274-.025.276-.025.275-.059.267-.057.262-.058.265-.059.269-.06.271-.059.271-.033.279-.033.275-.032.276-.034.283-.033.283-.034.283-.033-.278-.032-.274-.033-.276-.033-.281-.034-.283-.033-.282-.059-.265-.057-.262-.058-.263-.059-.268-.059-.27-.059-.269-.025-.271-.024-.267-.024-.269-.025-.275-.025-.275-.025-.275-.058-.267-.058-.262-.058-.264-.059-.27-.059-.27-.06-.271-.024-.271-.024-.268-.025-.27-.025-.275-.025-.276-.025-.276-.068-.26-.067-.256-.068-.258-.069-.263-.07-.264-.069-.264-.035-.266-.034-.263-.034-.264-.035-.269-.036-.27-.035-.271-.068-.26-.068-.256-.067-.258-.07-.264-.069-.264-.07-.264-.034-.267-.035-.263-.034-.265-.036-.271-.035-.271-.035-.271-.069-.261-.067-.257-.068-.259-.07-.264-.069-.265-.07-.264-.021-.268-.021-.265-.021-.266-.021-.271-.021-.272-.022-.272-.055-.263-.054-.259-.054-.26-.056-.266-.056-.267-.055-.266-.022-.268-.02-.265-.021-.265-.022-.272-.021-.272-.021-.272-.055-.264-.055-.26-.054-.261-.056-.267-.056-.268-.056-.268-.021-.268-.021-.265-.021-.267-.022-.272-.021-.273-.022-.272-.068-.261-.067-.256-.068-.258-.069-.264-.07-.264-.069-.264-.035-.266-.034-.263-.035-.264-.035-.269-.035-.271-.035-.27-.068-.26-.068-.257-.068-.258-.069-.263-.069-.265-.07-.264-.035-.267-.034-.263-.035-.266-.035-.27-.035-.271-.036-.272-.068-.261-.068-.257-.068-.259-.069-.264-.07-.265-.069-.265-.022-.27-.022-.266-.022-.268-.022-.273-.023-.274-.022-.275-.056-.264-.055-.261-.056-.262-.056-.268-.057-.269-.057-.269-.022-.27-.022-.266-.022-.268-.022-.274-.022-.274-.023-.274-.056-.266-.055-.262-.056-.263-.056-.269-.057-.27-.057-.269-.025-.276-.024-.271-.024-.273-.025-.279-.025-.28-.025-.28-.275-.024-.27-.024-.272-.024-.278-.025-.279-.025-.279-.025-.264-.056-.261-.055-.262-.055-.268-.057-.268-.056-.269-.057-.27-.022-.266-.022-.268-.022-.273-.022-.274-.022-.274-.023-.265-.056-.262-.055-.263-.056-.269-.056-.27-.057-.269-.057-.271-.022-.267-.022-.268-.022-.274-.022-.275-.023-.274-.022-.26-.069-.257-.067-.258-.068-.263-.069-.264-.07-.265-.069-.266-.035-.262-.034-.264-.034-.269-.035-.271-.036-.27-.035-.26-.068-.256-.067-.258-.068-.264-.07-.264-.069-.264-.069-.267-.035-.263-.035-.265-.034-.271-.035-.271-.036-.271-.035-.261-.069-.257-.067-.259-.068-.264-.07-.265-.069-.265-.07-.268-.021-.264-.021-.266-.02-.271-.022-.272-.021-.272-.022-.263-.055-.259-.054-.26-.054-.266-.056-.267-.056-.266-.055-.268-.021-.265-.021-.266-.021-.271-.021-.272-.022-.272-.021-.264-.055-.26-.055-.261-.054-.267-.056-.268-.056-.268-.056-.268-.021-.265-.021-.267-.021-.272-.021-.273-.022-.273-.021-.26-.069-.256-.067-.258-.068-.264-.069-.264-.07-.264-.069-.266-.035-.263-.034-.264-.034-.269-.035-.271-.036-.27-.035-.26-.068-.257-.068-.258-.068-.263-.069-.265-.069-.264-.07-.267-.035-.264-.034-.265-.034-.27-.036-.272-.035-.271-.036-.261-.068-.257-.068-.259-.068-.264-.069-.265-.07-.264-.069-.272-.025-.267-.024-.269-.024-.275-.025-.275-.025-.275-.025-.266-.058-.261-.057-.264-.058-.268-.059-.27-.059-.269-.06-.272-.024-.267-.024-.269-.025-.275-.024-.275-.025-.276-.025-.266-.059-.263-.057-.264-.058-.27-.059-.271-.06-.27-.059-.279-.033-.275-.033-.277-.032-.282-.034-.284-.033-.283-.034.278-.033.274-.032.276-.033.282-.033.282-.034.282-.033.266-.059.261-.057.263-.058.269-.059.269-.059.269-.059.271-.025.268-.024.269-.024.274-.025.275-.025.276-.025.266-.058.262-.058.265-.058.269-.059.271-.059.27-.06.272-.024.267-.024.27-.025.275-.025.276-.025.276-.025.26-.068.256-.067.258-.068.264-.069.264-.07.264-.069.266-.035.262-.034.264-.034.269-.035.271-.036.27-.035.26-.068.256-.068.258-.067.264-.07.264-.069.264-.07.267-.034.264-.035.265-.034.27-.036.271-.035.272-.035.26-.069.257-.067.259-.068.264-.07.265-.069.265-.07.268-.021.264-.021.266-.021.271-.021.272-.021.273-.022.262-.055.259-.054.26-.054.266-.056.267-.056.267-.055.268-.022.264-.02.266-.021.271-.022.272-.021.273-.021.263-.055.26-.055.262-.054.266-.056.268-.056.268-.056.269-.021.264-.021.267-.021.272-.022.273-.021.273-.022.26-.068.256-.067.259-.068.263-.069.264-.07.264-.069.267-.035.262-.034.264-.035.27-.035.27-.035.27-.035.26-.068.257-.068.258-.068.264-.069.264-.069.264-.07.267-.035.264-.034.265-.035.27-.035.272-.035.271-.036.261-.068.257-.068.259-.068.264-.069.265-.07.265-.069.27-.022.266-.022.268-.022.274-.022.274-.023.274-.022.265-.056.26-.055.263-.056.268-.056.268-.057.269-.057.27-.022.266-.022.268-.022.274-.022.274-.022.274-.023.266-.056.262-.055.263-.056.269-.056.27-.057.27-.057.275-.025.272-.024.273-.024.279-.025.279-.025.28-.025.024-.275.024-.27.025-.272.024-.278.025-.279.025-.279.056-.264.055-.261.055-.262.057-.268.057-.268.056-.269.022-.27.022-.266.022-.268.022-.273.023-.274.022-.274.056-.265.055-.262.056-.263.057-.269.057-.27.056-.269.023-.271.021-.267.022-.268.023-.274.022-.275.023-.274.068-.26.068-.257.067-.258.07-.263.069-.264.069-.265.035-.266.034-.262.035-.264.035-.269.035-.271.035-.27.068-.26.068-.256.068-.258.069-.264.069-.264.07-.264.035-.267.034-.263.034-.265.036-.271.035-.271.036-.271.068-.261.068-.257.067-.259.07-.264.069-.265.07-.265.021-.268.021-.264.021-.266.021-.271.022-.272.021-.272.055-.263.054-.259.054-.26.056-.266.056-.267.056-.266.021-.268.02-.265.021-.266.022-.271.021-.272.022-.272.055-.264.054-.26.055-.261.055-.267.056-.268.056-.268.021-.268.021-.265.021-.267.022-.272.021-.273.022-.273.068-.26.068-.256.067-.258.07-.264.069-.264.069-.264.035-.266.034-.263.035-.264.035-.269.035-.271.035-.27.069-.26.067-.257.068-.258.069-.264.07-.264.069-.264.035-.267.034-.264.035-.265.035-.27.036-.272.035-.271.068-.261.068-.257.068-.259.069-.264.07-.265.069-.265.025-.271.024-.267.024-.269.025-.275.025-.275.025-.275.058-.266.058-.261.058-.264.059-.269.059-.269.059-.27.024-.271.025-.267.024-.269.025-.275.025-.275.025-.276.058-.266.058-.263.058-.264.059-.27.059-.271.059-.271.033-.278.033-.275.033-.277.033-.283.033-.283z" fill="#fff"/><path d="m46.459 94.851-6.531-38.884-38.882-6.529-.001-2.979 38.883-6.531 6.529-38.882 2.979-.002 6.531 38.884 38.882 6.529.001 2.979-38.883 6.531-6.529 38.882zm1.356-10.175.132.504 5.143-30.729 1.361-1.361 30.729-5.142-30.729-5.143-1.361-1.361-5.142-30.728-5.143 30.728-1.361 1.361-30.729 5.142 30.728 5.143 1.361 1.361z" fill="#231f20"/></svg></g><g transform="translate(864.0 540.0) rotate(0.0 6.5 6.5) scale(0.9566561189197145 0.9427804771919647)"><svg width="13.589" height="13.789" viewBox="0 0 13.589 13.789"><path d="M6.795 12.289c-.119 0-.237-.014-.354-.042l-1.173-.285a1.511 1.511 0 0 1-.216-.07l-1.116-.459a1.492 1.492 0 0 1-.573-.417l-.781-.92a1.383 1.383 0 0 1-.132-.182l-.636-1.027a1.51 1.51 0 0 1-.221-.677l-.09-1.204a1.66 1.66 0 0 1 0-.223l.09-1.204a1.51 1.51 0 0 1 .221-.677l.635-1.027c.039-.064.083-.125.132-.182l.781-.92a1.5 1.5 0 0 1 .573-.417l1.116-.459c.07-.029.143-.052.216-.07l1.173-.285a1.518 1.518 0 0 1 .709 0l1.173.285c.073.018.146.041.216.07l1.116.459c.222.091.419.234.574.417l.78.92c.048.057.092.117.131.181l.635 1.026c.127.205.202.437.221.677l.09 1.204a1.66 1.66 0 0 1 0 .223l-.09 1.204a1.51 1.51 0 0 1-.221.677l-.635 1.027a1.462 1.462 0 0 1-.131.181l-.78.92a1.503 1.503 0 0 1-.574.417l-1.116.459c-.07.029-.143.052-.216.07l-1.173.285a1.42 1.42 0 0 1-.354.045z" fill="#fff"/><path d="m6.794 3 1.173.285 1.116.458.781.92.635 1.027.09 1.204-.09 1.204-.635 1.027-.781.92-1.116.459-1.173.285-1.173-.285-1.116-.459-.781-.92-.634-1.027L3 6.894l.09-1.204.635-1.026.781-.92 1.116-.459zm0-3c-.237 0-.475.028-.707.084L4.914.369A3.011 3.011 0 0 0 4.48.51L3.364.969a3.006 3.006 0 0 0-1.147.834l-.781.92a3.223 3.223 0 0 0-.263.363L.538 4.112a3.01 3.01 0 0 0-.44 1.355l-.09 1.204a3.018 3.018 0 0 0 0 .446l.09 1.204c.036.48.187.945.44 1.355l.635 1.026c.079.127.167.248.264.362l.781.92c.31.366.704.652 1.147.834l1.116.459c.141.058.286.105.433.141l1.173.285a3.02 3.02 0 0 0 1.416 0l1.173-.285c.148-.036.293-.083.433-.141l1.116-.459a2.988 2.988 0 0 0 1.147-.834l.781-.92c.097-.114.185-.235.264-.362l.635-1.026a3.01 3.01 0 0 0 .44-1.355l.09-1.204a3.018 3.018 0 0 0 0-.446l-.09-1.204a3.002 3.002 0 0 0-.44-1.354l-.635-1.027a3.029 3.029 0 0 0-.264-.363l-.781-.92a2.991 2.991 0 0 0-1.148-.834L9.107.51a3.114 3.114 0 0 0-.432-.141L7.502.084A3.026 3.026 0 0 0 6.794 0z" fill="#231f20"/></svg></g><g transform="translate(485.0 63.0) rotate(0.0 4.5 4.5) scale(0.6623003900213408 0.6526941765175139)"><svg width="13.589" height="13.789" viewBox="0 0 13.589 13.789"><path d="M6.795 12.289c-.119 0-.237-.014-.354-.042l-1.173-.285a1.511 1.511 0 0 1-.216-.07l-1.116-.459a1.492 1.492 0 0 1-.573-.417l-.781-.92a1.383 1.383 0 0 1-.132-.182l-.636-1.027a1.51 1.51 0 0 1-.221-.677l-.09-1.204a1.66 1.66 0 0 1 0-.223l.09-1.204a1.51 1.51 0 0 1 .221-.677l.635-1.027c.039-.064.083-.125.132-.182l.781-.92a1.5 1.5 0 0 1 .573-.417l1.116-.459c.07-.029.143-.052.216-.07l1.173-.285a1.518 1.518 0 0 1 .709 0l1.173.285c.073.018.146.041.216.07l1.116.459c.222.091.419.234.574.417l.78.92c.048.057.092.117.131.181l.635 1.026c.127.205.202.437.221.677l.09 1.204a1.66 1.66 0 0 1 0 .223l-.09 1.204a1.51 1.51 0 0 1-.221.677l-.635 1.027a1.462 1.462 0 0 1-.131.181l-.78.92a1.503 1.503 0 0 1-.574.417l-1.116.459c-.07.029-.143.052-.216.07l-1.173.285a1.42 1.42 0 0 1-.354.045z" fill="#fff"/><path d="m6.794 3 1.173.285 1.116.458.781.92.635 1.027.09 1.204-.09 1.204-.635 1.027-.781.92-1.116.459-1.173.285-1.173-.285-1.116-.459-.781-.92-.634-1.027L3 6.894l.09-1.204.635-1.026.781-.92 1.116-.459zm0-3c-.237 0-.475.028-.707.084L4.914.369A3.011 3.011 0 0 0 4.48.51L3.364.969a3.006 3.006 0 0 0-1.147.834l-.781.92a3.223 3.223 0 0 0-.263.363L.538 4.112a3.01 3.01 0 0 0-.44 1.355l-.09 1.204a3.018 3.018 0 0 0 0 .446l.09 1.204c.036.48.187.945.44 1.355l.635 1.026c.079.127.167.248.264.362l.781.92c.31.366.704.652 1.147.834l1.116.459c.141.058.286.105.433.141l1.173.285a3.02 3.02 0 0 0 1.416 0l1.173-.285c.148-.036.293-.083.433-.141l1.116-.459a2.988 2.988 0 0 0 1.147-.834l.781-.92c.097-.114.185-.235.264-.362l.635-1.026a3.01 3.01 0 0 0 .44-1.355l.09-1.204a3.018 3.018 0 0 0 0-.446l-.09-1.204a3.002 3.002 0 0 0-.44-1.354l-.635-1.027a3.029 3.029 0 0 0-.264-.363l-.781-.92a2.991 2.991 0 0 0-1.148-.834L9.107.51a3.114 3.114 0 0 0-.432-.141L7.502.084A3.026 3.026 0 0 0 6.794 0z" fill="#231f20"/></svg></g><g transform="translate(892.0 571.0) rotate(0.0 32.5 32.5) scale(1.1539349180706209 1.1525027039486515)"><svg width="56.329" height="56.399" viewBox="0 0 56.329 56.399"><path d="M28.163 55.891C23.682 43.419 12.916 32.755.521 28.163 12.932 23.696 23.832 12.991 28.166.491c4.333 12.5 15.232 23.207 27.642 27.674-12.395 4.592-23.162 15.255-27.645 27.726z" fill="#fff"/><path d="m29.575 56.399-2.823-.001C22.426 44.361 12.176 34.081 0 29.569l.013-2.817C12.131 22.391 22.626 11.89 26.75.001h2.834c4.122 11.89 14.615 22.392 26.732 26.754l.013 2.817c-12.176 4.51-22.427 14.789-26.754 26.827zM4.442 28.177c10.327 4.814 19.02 13.522 23.721 23.755 4.702-10.233 13.396-18.938 23.724-23.753-10.285-4.728-19.114-13.537-23.72-23.659-4.61 10.122-13.439 18.931-23.725 23.657z" fill="#231f20"/></svg></g><g transform="translate(138.0 615.0) rotate(0.0 6.5 6.5) scale(0.9566561189197145 0.9427804771919647)"><svg width="13.589" height="13.789" viewBox="0 0 13.589 13.789"><path d="M6.795 12.289c-.119 0-.237-.014-.354-.042l-1.173-.285a1.511 1.511 0 0 1-.216-.07l-1.116-.459a1.492 1.492 0 0 1-.573-.417l-.781-.92a1.383 1.383 0 0 1-.132-.182l-.636-1.027a1.51 1.51 0 0 1-.221-.677l-.09-1.204a1.66 1.66 0 0 1 0-.223l.09-1.204a1.51 1.51 0 0 1 .221-.677l.635-1.027c.039-.064.083-.125.132-.182l.781-.92a1.5 1.5 0 0 1 .573-.417l1.116-.459c.07-.029.143-.052.216-.07l1.173-.285a1.518 1.518 0 0 1 .709 0l1.173.285c.073.018.146.041.216.07l1.116.459c.222.091.419.234.574.417l.78.92c.048.057.092.117.131.181l.635 1.026c.127.205.202.437.221.677l.09 1.204a1.66 1.66 0 0 1 0 .223l-.09 1.204a1.51 1.51 0 0 1-.221.677l-.635 1.027a1.462 1.462 0 0 1-.131.181l-.78.92a1.503 1.503 0 0 1-.574.417l-1.116.459c-.07.029-.143.052-.216.07l-1.173.285a1.42 1.42 0 0 1-.354.045z" fill="#fff"/><path d="m6.794 3 1.173.285 1.116.458.781.92.635 1.027.09 1.204-.09 1.204-.635 1.027-.781.92-1.116.459-1.173.285-1.173-.285-1.116-.459-.781-.92-.634-1.027L3 6.894l.09-1.204.635-1.026.781-.92 1.116-.459zm0-3c-.237 0-.475.028-.707.084L4.914.369A3.011 3.011 0 0 0 4.48.51L3.364.969a3.006 3.006 0 0 0-1.147.834l-.781.92a3.223 3.223 0 0 0-.263.363L.538 4.112a3.01 3.01 0 0 0-.44 1.355l-.09 1.204a3.018 3.018 0 0 0 0 .446l.09 1.204c.036.48.187.945.44 1.355l.635 1.026c.079.127.167.248.264.362l.781.92c.31.366.704.652 1.147.834l1.116.459c.141.058.286.105.433.141l1.173.285a3.02 3.02 0 0 0 1.416 0l1.173-.285c.148-.036.293-.083.433-.141l1.116-.459a2.988 2.988 0 0 0 1.147-.834l.781-.92c.097-.114.185-.235.264-.362l.635-1.026a3.01 3.01 0 0 0 .44-1.355l.09-1.204a3.018 3.018 0 0 0 0-.446l-.09-1.204a3.002 3.002 0 0 0-.44-1.354l-.635-1.027a3.029 3.029 0 0 0-.264-.363l-.781-.92a2.991 2.991 0 0 0-1.148-.834L9.107.51a3.114 3.114 0 0 0-.432-.141L7.502.084A3.026 3.026 0 0 0 6.794 0z" fill="#231f20"/></svg></g><g transform="translate(297.0 176.0) rotate(22.583699866105935 22.5 27.0) scale(0.68393215393033 0.6863592455132441)"><svg width="65.796" height="78.676" viewBox="0 0 65.796 78.676"><path d="M6.083 77.173c-.822.066-1.246-.785-1.902-1.106-.609-.558-1.38-1.027-1.92-1.668-.505-.557-.53-1.345-.599-2.033-.065-.809-.411-1.774.17-2.476 9.784-11.923 22.763-28.533 32.544-40.454 5.31-6.781 16.171-20.342 21.635-27.003.736-.806 1.995-.756 2.994-.795 1.198-.544 2.026.666 2.913 1.253.606.643 1.613 1.058 1.913 1.969.315.815.235 1.698.375 2.532 1.267.563-11.07 14.27-11.19 14.842-9.499 12.138-22.874 28.426-32.369 40.563L9.741 76.245a1.546 1.546 0 0 1-.746.504c-.942.315-1.949.241-2.912.424z" fill="#fff"/><path d="M5.987 78.676c-1.043 0-1.73-.62-2.151-1-.102-.092-.254-.23-.315-.263l-.353-.241c-.203-.186-.428-.359-.653-.536-.453-.354-.966-.755-1.401-1.271-.757-.833-.855-1.891-.927-2.663l-.018-.188c-.015-.178-.039-.333-.063-.49-.123-.809-.309-2.032.571-3.093 4.891-5.959 10.685-13.224 16.289-20.249 5.586-7.002 11.362-14.243 16.25-20.201C38.564 21.651 49.493 8.01 54.85 1.479 55.993.224 57.594.177 58.654.146l.047-.001c1.616-.541 2.853.509 3.537 1.089.17.145.336.29.507.403l.263.221c.122.129.321.281.531.441.579.441 1.372 1.045 1.716 2.089.258.66.308 1.363.352 1.983.012.158.022.316.038.473.045.1.081.206.106.316.287 1.246-.355 2.563-8.678 12.445-1.119 1.329-2.273 2.699-2.646 3.197l-.017.078-.215.274c-4.748 6.068-10.555 13.285-16.171 20.265-5.628 6.995-11.448 14.228-16.196 20.298L10.906 77.19a3.04 3.04 0 0 1-1.467.992c-.707.237-1.43.296-2.068.348-.337.028-.676.053-1.007.116l-.16.021a2.303 2.303 0 0 1-.217.009zm-.935-3.842c.326.193.582.423.794.615.068.062.161.146.232.203.362-.055.709-.084 1.048-.111.514-.042.999-.082 1.393-.214l10.963-13.475c4.745-6.065 10.571-13.307 16.206-20.31 5.564-6.915 11.316-14.064 16.03-20.085.248-.426.924-1.243 3.062-3.781 2.341-2.781 7.078-8.405 7.937-10.093a11.678 11.678 0 0 1-.102-.995c-.034-.469-.062-.875-.184-1.187-.079-.232-.429-.499-.71-.713-.244-.186-.517-.394-.773-.645a9.618 9.618 0 0 1-.651-.52c-.217-.184-.579-.491-.723-.527l-.268.122-.564.028c-.587.018-1.391.041-1.625.297-5.294 6.46-16.202 20.074-21.561 26.917C30.66 36.328 24.89 43.561 19.31 50.555 13.7 57.588 7.898 64.86 2.99 70.841c-.018.086.044.492.081.734.035.229.068.455.085.67l.018.181c.032.351.077.832.197.965.271.319.621.593.991.883.236.185.47.369.69.56z" fill="#231f20"/></svg></g><g transform="translate(621.0 120.0) rotate(111.70648064589287 22.5 27.0) scale(0.68393215393033 0.6863592455132441)"><svg width="65.796" height="78.676" viewBox="0 0 65.796 78.676"><path d="M6.083 77.173c-.822.066-1.246-.785-1.902-1.106-.609-.558-1.38-1.027-1.92-1.668-.505-.557-.53-1.345-.599-2.033-.065-.809-.411-1.774.17-2.476 9.784-11.923 22.763-28.533 32.544-40.454 5.31-6.781 16.171-20.342 21.635-27.003.736-.806 1.995-.756 2.994-.795 1.198-.544 2.026.666 2.913 1.253.606.643 1.613 1.058 1.913 1.969.315.815.235 1.698.375 2.532 1.267.563-11.07 14.27-11.19 14.842-9.499 12.138-22.874 28.426-32.369 40.563L9.741 76.245a1.546 1.546 0 0 1-.746.504c-.942.315-1.949.241-2.912.424z" fill="#fff"/><path d="M5.987 78.676c-1.043 0-1.73-.62-2.151-1-.102-.092-.254-.23-.315-.263l-.353-.241c-.203-.186-.428-.359-.653-.536-.453-.354-.966-.755-1.401-1.271-.757-.833-.855-1.891-.927-2.663l-.018-.188c-.015-.178-.039-.333-.063-.49-.123-.809-.309-2.032.571-3.093 4.891-5.959 10.685-13.224 16.289-20.249 5.586-7.002 11.362-14.243 16.25-20.201C38.564 21.651 49.493 8.01 54.85 1.479 55.993.224 57.594.177 58.654.146l.047-.001c1.616-.541 2.853.509 3.537 1.089.17.145.336.29.507.403l.263.221c.122.129.321.281.531.441.579.441 1.372 1.045 1.716 2.089.258.66.308 1.363.352 1.983.012.158.022.316.038.473.045.1.081.206.106.316.287 1.246-.355 2.563-8.678 12.445-1.119 1.329-2.273 2.699-2.646 3.197l-.017.078-.215.274c-4.748 6.068-10.555 13.285-16.171 20.265-5.628 6.995-11.448 14.228-16.196 20.298L10.906 77.19a3.04 3.04 0 0 1-1.467.992c-.707.237-1.43.296-2.068.348-.337.028-.676.053-1.007.116l-.16.021a2.303 2.303 0 0 1-.217.009zm-.935-3.842c.326.193.582.423.794.615.068.062.161.146.232.203.362-.055.709-.084 1.048-.111.514-.042.999-.082 1.393-.214l10.963-13.475c4.745-6.065 10.571-13.307 16.206-20.31 5.564-6.915 11.316-14.064 16.03-20.085.248-.426.924-1.243 3.062-3.781 2.341-2.781 7.078-8.405 7.937-10.093a11.678 11.678 0 0 1-.102-.995c-.034-.469-.062-.875-.184-1.187-.079-.232-.429-.499-.71-.713-.244-.186-.517-.394-.773-.645a9.618 9.618 0 0 1-.651-.52c-.217-.184-.579-.491-.723-.527l-.268.122-.564.028c-.587.018-1.391.041-1.625.297-5.294 6.46-16.202 20.074-21.561 26.917C30.66 36.328 24.89 43.561 19.31 50.555 13.7 57.588 7.898 64.86 2.99 70.841c-.018.086.044.492.081.734.035.229.068.455.085.67l.018.181c.032.351.077.832.197.965.271.319.621.593.991.883.236.185.47.369.69.56z" fill="#231f20"/></svg></g><g transform="translate(737.0 280.0) rotate(-174.53989437774035 22.5 27.0) scale(0.68393215393033 0.6863592455132441)"><svg width="65.796" height="78.676" viewBox="0 0 65.796 78.676"><path d="M6.083 77.173c-.822.066-1.246-.785-1.902-1.106-.609-.558-1.38-1.027-1.92-1.668-.505-.557-.53-1.345-.599-2.033-.065-.809-.411-1.774.17-2.476 9.784-11.923 22.763-28.533 32.544-40.454 5.31-6.781 16.171-20.342 21.635-27.003.736-.806 1.995-.756 2.994-.795 1.198-.544 2.026.666 2.913 1.253.606.643 1.613 1.058 1.913 1.969.315.815.235 1.698.375 2.532 1.267.563-11.07 14.27-11.19 14.842-9.499 12.138-22.874 28.426-32.369 40.563L9.741 76.245a1.546 1.546 0 0 1-.746.504c-.942.315-1.949.241-2.912.424z" fill="#fff"/><path d="M5.987 78.676c-1.043 0-1.73-.62-2.151-1-.102-.092-.254-.23-.315-.263l-.353-.241c-.203-.186-.428-.359-.653-.536-.453-.354-.966-.755-1.401-1.271-.757-.833-.855-1.891-.927-2.663l-.018-.188c-.015-.178-.039-.333-.063-.49-.123-.809-.309-2.032.571-3.093 4.891-5.959 10.685-13.224 16.289-20.249 5.586-7.002 11.362-14.243 16.25-20.201C38.564 21.651 49.493 8.01 54.85 1.479 55.993.224 57.594.177 58.654.146l.047-.001c1.616-.541 2.853.509 3.537 1.089.17.145.336.29.507.403l.263.221c.122.129.321.281.531.441.579.441 1.372 1.045 1.716 2.089.258.66.308 1.363.352 1.983.012.158.022.316.038.473.045.1.081.206.106.316.287 1.246-.355 2.563-8.678 12.445-1.119 1.329-2.273 2.699-2.646 3.197l-.017.078-.215.274c-4.748 6.068-10.555 13.285-16.171 20.265-5.628 6.995-11.448 14.228-16.196 20.298L10.906 77.19a3.04 3.04 0 0 1-1.467.992c-.707.237-1.43.296-2.068.348-.337.028-.676.053-1.007.116l-.16.021a2.303 2.303 0 0 1-.217.009zm-.935-3.842c.326.193.582.423.794.615.068.062.161.146.232.203.362-.055.709-.084 1.048-.111.514-.042.999-.082 1.393-.214l10.963-13.475c4.745-6.065 10.571-13.307 16.206-20.31 5.564-6.915 11.316-14.064 16.03-20.085.248-.426.924-1.243 3.062-3.781 2.341-2.781 7.078-8.405 7.937-10.093a11.678 11.678 0 0 1-.102-.995c-.034-.469-.062-.875-.184-1.187-.079-.232-.429-.499-.71-.713-.244-.186-.517-.394-.773-.645a9.618 9.618 0 0 1-.651-.52c-.217-.184-.579-.491-.723-.527l-.268.122-.564.028c-.587.018-1.391.041-1.625.297-5.294 6.46-16.202 20.074-21.561 26.917C30.66 36.328 24.89 43.561 19.31 50.555 13.7 57.588 7.898 64.86 2.99 70.841c-.018.086.044.492.081.734.035.229.068.455.085.67l.018.181c.032.351.077.832.197.965.271.319.621.593.991.883.236.185.47.369.69.56z" fill="#231f20"/></svg></g><g transform="translate(760.0 149.0) rotate(20.610614750135753 54.0 54.5) scale(1.0004909816854568 1.0070865632478079)"><svg width="107.947" height="108.233" viewBox="0 0 107.947 108.233"><path d="M40.161 1.5c5.471 12.79 11.889 26.964 17.325 39.768 11.195-8.258 23.932-17.195 35.148-25.422-8.34 11.134-17.406 23.779-25.777 34.889 12.749 5.566 26.857 12.128 39.59 17.728-13.812-1.657-29.296-3.186-43.103-4.88 1.554 13.824 2.925 29.323 4.442 43.15-5.471-12.79-11.889-26.964-17.325-39.768-11.195 8.258-23.932 17.195-35.148 25.422 8.341-11.133 17.407-23.778 25.778-34.888C28.341 51.933 14.234 45.37 1.5 39.77c13.812 1.657 29.296 3.186 43.103 4.88-1.554-13.823-2.925-29.322-4.442-43.15z" fill="#fff"/><path d="M67.786 108.233a1.498 1.498 0 0 1-1.378-.91c-2.575-6.018-5.412-12.463-8.155-18.696-2.83-6.429-5.748-13.057-8.428-19.331-5.495 4.034-11.374 8.251-17.076 12.342-5.538 3.974-11.265 8.083-16.548 11.958a1.5 1.5 0 0 1-2.088-2.109c3.925-5.238 8.087-10.917 12.113-16.409 4.153-5.666 8.435-11.507 12.528-16.966-6.247-2.745-12.847-5.73-19.247-8.625C13.303 46.68 6.889 43.779.898 41.143a1.5 1.5 0 0 1 .782-2.863c6.5.78 13.501 1.545 20.271 2.286 6.981.764 14.18 1.551 20.953 2.366-.746-6.774-1.459-13.973-2.151-20.955-.672-6.785-1.367-13.8-2.082-20.314a1.5 1.5 0 0 1 2.87-.753c2.574 6.017 5.41 12.459 8.153 18.69 2.831 6.43 5.75 13.061 8.431 19.336 5.496-4.034 11.375-8.252 17.077-12.344 5.538-3.973 11.264-8.082 16.547-11.957a1.5 1.5 0 0 1 2.088 2.109c-3.923 5.235-8.083 10.912-12.106 16.4-4.154 5.668-8.439 11.514-12.534 16.975 6.238 2.741 12.829 5.722 19.22 8.614 6.213 2.811 12.637 5.717 18.637 8.355a1.5 1.5 0 0 1-.782 2.863c-6.499-.779-13.498-1.545-20.267-2.285-6.983-.763-14.183-1.551-20.958-2.366.746 6.774 1.459 13.973 2.151 20.955.672 6.785 1.367 13.8 2.082 20.314a1.5 1.5 0 0 1-1.494 1.664zM50.461 65.465a1.498 1.498 0 0 1 1.381.914c2.871 6.763 6.066 14.021 9.156 21.04 1.416 3.215 2.855 6.485 4.271 9.727-.359-3.527-.712-7.091-1.059-10.595-.755-7.624-1.536-15.506-2.356-22.8a1.497 1.497 0 0 1 .436-1.233 1.496 1.496 0 0 1 1.238-.423c7.293.895 15.177 1.757 22.801 2.591 3.491.382 7.043.77 10.558 1.164-3.235-1.453-6.5-2.93-9.708-4.381-6.979-3.157-14.196-6.422-20.921-9.359a1.502 1.502 0 0 1-.599-2.278c4.424-5.871 9.115-12.271 13.651-18.459 2.074-2.83 4.185-5.709 6.281-8.553-2.874 2.073-5.782 4.16-8.641 6.211-6.227 4.467-12.665 9.087-18.573 13.445a1.498 1.498 0 0 1-2.271-.621c-2.872-6.765-6.067-14.024-9.158-21.045a3594.119 3594.119 0 0 1-4.269-9.721c.359 3.527.712 7.091 1.059 10.595.755 7.624 1.536 15.506 2.356 22.8.051.456-.109.911-.436 1.233s-.78.477-1.238.423c-7.292-.895-15.174-1.757-22.796-2.59-3.492-.382-7.046-.771-10.563-1.165 3.226 1.449 6.481 2.922 9.68 4.369 6.988 3.161 14.214 6.43 20.949 9.371a1.502 1.502 0 0 1 .599 2.278c-4.422 5.868-9.11 12.264-13.644 18.45a3981.427 3981.427 0 0 1-6.287 8.562c2.874-2.073 5.783-4.161 8.642-6.212 6.226-4.467 12.664-9.085 18.571-13.443.26-.195.573-.295.89-.295z" fill="#231f20"/></svg></g></svg>