<svg xmlns="http://www.w3.org/2000/svg" viewBox="0 0 1035 760" width="1035" height="760"><path fill="#1F1F1F" d="M0 0h1035v760H0z"/><g transform="translate(24.0 277.0) rotate(0.0 107.5 107.5) scale(1.0122315232436607 1.0106708033657688)"><svg width="212.402" height="212.73" viewBox="0 0 212.402 212.73"><path d="m205.943 60.322-57.038 41.46 62.815 32.039-70.344-4.903 27.525 64.92-50.734-48.972-20.645 67.425-7.386-70.127-59.155 38.381 39.418-58.469-69.985-8.622 67.779-19.452-48.07-51.591 64.425 28.667L80.887.658l30.926 63.371 42.46-56.298-17.044 68.424z" fill="#fff"/><path d="m98.956 212.73-2.926-.282-7.13-67.694-57.103 37.049-2.06-2.097 38.051-56.44L.23 114.942l-.23-2.93 65.428-18.776-46.402-49.803 1.707-2.393 62.19 27.672L79.389.736 82.235 0l29.853 61.173 40.987-54.345 2.653 1.266-16.453 66.05 66.331-15.285 1.219 2.675-55.06 40.022 60.637 30.928-.786 2.833-67.904-4.733 26.57 62.668-2.423 1.665-48.975-47.273zm-9.637-71.824 2.308 1.101 6.615 62.807 18.49-60.386 2.476-.64 45.439 43.86-24.652-58.144 1.485-2.082 63.001 4.392-56.259-28.695-.2-2.55 51.084-37.132-61.541 14.181-1.792-1.825 15.265-61.281-38.028 50.421-2.546-.246L82.767 7.931 86.046 71l-2.108 1.448-57.7-25.674L69.29 92.98l-.684 2.464-60.704 17.42 62.68 7.723 1.06 2.327-35.303 52.366z" fill="#231f20"/></svg></g><g transform="translate(54.0 419.0) rotate(0.0 36.0 116.0) scale(1.0020597895674441 1.0188889718444085)"><svg width="71.852" height="227.699" viewBox="0 0 71.852 227.699"><g fill="#FFF"><path d="M1.5 1.5h68.852v142.72H1.5z"/><path d="M70.352 145.719H1.5l-1.5-1.5V1.5L1.5 0h68.852l1.5 1.5v142.719zm-67.352-3h65.852V3H3zm63.855 52.602-4.139 15.466-11.323 11.324-15.467 4.139-15.467-4.139-11.324-11.324-4.139-15.466 4.139-15.467 11.324-11.324 15.467-4.139 15.467 4.139 11.323 11.324z"/><path d="M36.314 227.699h-.776l-15.467-4.139-.673-.389-11.323-11.323-.388-.673-4.139-15.467v-.775l4.139-15.467.388-.673 11.323-11.324.673-.389 15.467-4.139h.776l15.467 4.139.673.389 11.324 11.324.388.673 4.139 15.467v.775l-4.139 15.467-.388.673-11.324 11.324-.673.389zm-15.079-6.933 14.691 3.932 14.691-3.932 10.755-10.755 3.931-14.69-3.932-14.69-10.755-10.755-14.691-3.932-14.691 3.932-10.753 10.754-3.931 14.69 3.931 14.69z"/></g></svg></g><g transform="translate(448.0 554.0) rotate(0.0 -109.0 27.5) scale(-1.054770659957422 1.0761314054276154)"><svg width="206.68" height="51.109" viewBox="0 0 206.68 51.109"><path d="M194.594 43.176H82.018l-2.757-6.654-1.681-7.004-.564-7.18.564-7.18 1.682-7.004L82.018 1.5h112.576l-2.757 6.654-1.681 7.004-.565 7.18.565 7.18 1.681 7.004z" fill="#fff"/><path d="M194.594 44.676H82.018l-1.386-.926-2.83-6.879-1.718-7.236-.564-7.415.601-7.413 1.754-7.228L80.632.925 82.018 0h112.576l1.386 2.074-2.712 6.545-1.626 6.774-.546 6.945.546 6.945 1.626 6.774 2.711 6.545zm-111.573-3h109.328l-1.97-4.804-1.718-7.236-.565-7.416.601-7.413 1.754-7.228L192.349 3H83.021l-2.328 5.619-1.626 6.774-.546 6.945.546 6.945 1.626 6.774z" fill="#231f20"/><path d="M119.074 43.176H6.498l-2.757-6.654-1.681-7.004-.565-7.18.565-7.18 1.681-7.004L6.498 1.5h112.576l-2.757 6.654-1.681 7.004-.565 7.18.565 7.18 1.681 7.004z" fill="#fff"/><g fill="#231f20"><path d="M119.074 44.676H6.498l-1.386-.926-2.83-6.879-1.718-7.236L0 22.22l.602-7.413L2.356 7.58 5.113.926 6.498 0h112.576l1.386 2.074-2.712 6.545-1.626 6.774-.546 6.945.546 6.945 1.626 6.774 2.712 6.545zm-111.574-3h109.328l-1.97-4.804-1.718-7.236-.565-7.416.601-7.413 1.754-7.228L116.829 3H7.5L5.172 8.619l-1.626 6.774L3 22.338l.546 6.945 1.626 6.774z"/><path d="M94.358 43.176H64.676l-2.757-6.654-1.682-7.004-.564-7.18.564-7.18 1.682-7.004L64.676 1.5h29.682l-2.756 6.654-1.682 7.004-.564 7.18.564 7.18 1.682 7.004z"/><path d="M94.358 44.676H64.676l-1.386-.926-2.83-6.879-1.718-7.236-.565-7.416.601-7.413 1.754-7.228L63.289.924 64.676 0h29.683l1.386 2.074-2.712 6.545-1.626 6.774-.546 6.945.546 6.945 1.626 6.774 2.711 6.545zm-28.68-3h26.436l-1.97-4.804-1.718-7.236-.565-7.416.601-7.413 1.754-7.228L92.113 3H65.678L63.35 8.619l-1.626 6.774-.546 6.945.546 6.945 1.626 6.774zM194.652 0h12.027v3h-12.027zm0 41.676h12.027v3h-12.027zm-55.661-18.181h39.718v3h-39.718z"/></g><path d="M171.379 49.609h-13.846l-.096-4.61-.445-4.587-1.042-4.485-1.86-4.208-2.741-3.694-3.466-3.03h13.846l3.552 2.927 2.688 3.738 1.78 4.251 1.027 4.496.481 4.589z" fill="#ee4878"/><path d="M171.379 51.109h-13.845l-1.5-1.469-.095-4.553-.43-4.432-.988-4.251-1.735-3.925-2.545-3.43-3.344-2.924.987-2.629h13.845l.954.342 3.817 3.209 2.853 4.034 1.858 4.496 1.057 4.674.489 4.706.122 4.613zm-12.377-3h10.836l-.08-3.015-.466-4.441-.978-4.282-1.664-3.974-2.474-3.441-2.987-2.461h-9.312l.676.636 2.908 3.981 1.949 4.474 1.074 4.68.451 4.701z" fill="#231f20"/></svg></g><g transform="translate(82.0 634.0) rotate(0.0 424.0 14.0) scale(1.2110220140381442 1.1899702507437313)"><svg width="700.235" height="23.53" viewBox="0 0 700.235 23.53"><ellipse cx="350.118" cy="11.765" fill="#F3E9EC" rx="350.118" ry="11.765"/></svg></g><g transform="translate(469.0 598.0) rotate(0.0 -108.0 26.0) scale(-1.006528455398208 1.0064061623023477)"><svg width="214.599" height="51.669" viewBox="0 0 214.599 51.669"><path d="M203.69 50.169H47.615l-3.219-7.771-1.964-8.179-.659-8.385.659-8.385 1.964-8.178L47.615 1.5H203.69l-3.219 7.771-1.964 8.179-.659 8.385.659 8.384 1.964 8.179z" fill="#fff"/><path d="M203.69 51.669H47.615l-1.386-.926-3.292-7.995-2-8.411-.66-8.62.696-8.617 2.036-8.403L46.228.926 47.615 0H203.69l1.386 2.074-3.174 7.661-1.908 7.95-.641 8.149.641 8.149 1.908 7.949 3.174 7.661zm-155.073-3h152.828l-2.433-5.92-2-8.411-.66-8.62.696-8.617 2.036-8.403L201.445 3H48.617l-2.791 6.735-1.908 7.949-.641 8.149.641 8.149 1.908 7.949z" fill="#1F1F1F"/><path d="M163.413 50.169H7.338l-3.22-7.771-1.963-8.179-.66-8.385.66-8.385 1.963-8.178L7.338 1.5h156.075l-3.22 7.771-1.963 8.179-.66 8.385.66 8.384 1.963 8.179z" fill="#FFF"/><path d="M163.413 51.669H7.338l-1.386-.926-3.292-7.995-2-8.411L0 25.716l.696-8.617 2.036-8.403L5.951.925 7.338 0h156.075l1.386 2.074-3.174 7.661-1.908 7.95-.641 8.149.641 8.149 1.908 7.949 3.174 7.661zm-155.073-3h152.828l-2.433-5.92-2-8.411-.66-8.62.696-8.617 2.036-8.403L161.167 3H8.34L5.549 9.736l-1.908 7.949L3 25.834l.641 8.149 1.908 7.949z" fill="#1F1F1F"/><path d="M111.675 50.169h-52.6l-3.219-7.771-1.964-8.179-.659-8.385.66-8.385 1.963-8.178L59.075 1.5h52.6l-3.219 7.771-1.964 8.179-.659 8.385.659 8.384 1.964 8.179z" fill="#fff"/><g fill="#1F1F1F"><path d="M111.675 51.669h-52.6l-1.386-.926-3.292-7.995-2-8.411-.659-8.62.696-8.617 2.036-8.403L57.689.926 59.075 0h52.6l1.386 2.074-3.174 7.661-1.908 7.95-.641 8.149.641 8.149 1.908 7.949 3.174 7.661zm-51.598-3h49.352l-2.433-5.92-2-8.411-.66-8.62.696-8.617 2.036-8.403L109.43 3H60.077l-2.791 6.735-1.908 7.949-.641 8.149.641 8.149 1.908 7.949zm143.613 0h10.908v3H203.69zm0-48.669h10.908v3H203.69z"/></g></svg></g><g transform="translate(236.0 209.0) rotate(0.0 381.0 221.5) scale(1.0269610981206072 1.0292296576126985)"><svg width="741.995" height="430.419" viewBox="0 0 741.995 430.419"><path d="m56.154 186.268 24.151-26.812V88L29.08 53.263v92.479z" fill="#1F1F1F"/><path d="M56.095 187.08 28.58 145.894V52.32l52.225 35.415v71.914zM29.58 145.59l26.632 39.866 23.593-26.192v-71L29.58 54.207z" fill="#FFF"/><path d="m57.436 91.07-7.582-5.022-7.593-5.01-7.608-4.986-7.673-4.881-4.734-2.753-4.506-3.106-4.206-3.494-3.758-3.962-1.864-3.157-.698-3.604.475-3.64 1.655-3.273 3.334-2.564 4.192-.497 4.105 1.084 3.748 2.017 12.519 8.668 12.505 8.694 12.502 8.7 12.496 8.701" fill="#1F1F1F"/><path d="M56.608 92.321 33.831 77.306l-7.656-4.869-4.78-2.783-4.614-3.188-4.335-3.616-3.961-4.231-1.865-3.157-.181-.478-.698-3.603-.015-.479.475-3.641.149-.482 1.655-3.273.424-.513 3.335-2.564.738-.301 4.191-.496.56.039 4.433 1.214 3.89 2.104 50.026 34.765-1.714 2.462-49.95-34.713-3.518-1.893-3.657-.966-3.498.415-2.737 2.105-1.385 2.74-.411 3.145.603 3.11 1.646 2.788 3.581 3.774 4.085 3.394 4.403 3.036 4.684 2.723 7.724 4.912L58.265 89.82z" fill="#FFF"/><path d="m19.961 138.93 1.106-.426 1.107-.426 1.11-.428 1.111-.427 3.043-.299 3.042-.316 3.046-.343 3.036-.391 4.027-.819 3.811-1.505 3.024-2.715 1.08-3.902-.721-3.778-2.369-3.011-3.446-1.713-3.806-.713-6.236-.36-6.247-.251-6.251-.198-6.248-.118-4.431.851-3.786 2.453-2.563 3.71-.904 4.417.154 2.152.48 2.103.803 2.002 1.068 1.868 14.807 21.494 14.748 21.535 14.665 21.597 14.542 21.68 14.289 24.13 13.398 24.645 13.13 24.791 13.068 24.825 17.375 24.29 23.253 18.741 27.423 11.827 29.591 4.037 23.92-2.622 22.782-7.744 20.565-12.496 17.367-16.656 7.391-7.477 7.388-7.475 7.394-7.48 7.393-7.48-23.045-32.786-23.044-32.784-23.048-32.79-23.047-32.789-6.667 6.193-6.517 6.353-6.351 6.521-6.124 6.729-16.668-18.14-17.731-17.118-18.183-16.636-18.158-16.647-3.332-3.958-3.334-3.958-3.338-3.965-3.339-3.965-3.388-10.734-5.162-9.987-7.472-8.385-8.441-7.45-2.95-4.837-2.958-4.827-2.978-4.823-3.021-4.794-3.141-3.874-4.064-2.864-4.81-1.229-4.897.746-4.425 2.983-2.394 4.759-.449 5.352.639 5.346 1.05 5.602 1.05 5.6 1.051 5.604 1.048 5.593-1.93 4.136-1.129 4.439-.62 4.537-.238 4.587.348 5.355.89 5.3 1.206 5.242 1.447 5.164" fill="#1F1F1F"/><path d="m214.453 381.43-.366-.005-29.591-4.037-.391-.108-27.423-11.828-.347-.21-23.253-18.74-.279-.295-17.483-24.464-13.067-24.825-13.129-24.788-13.39-24.63-14.262-24.083-14.496-21.609-14.661-21.589-14.745-21.53-14.872-21.597-1.157-2.055-.874-2.227-.513-2.329L0 128.329l.027-.408.904-4.416.235-.552 2.563-3.711.419-.406 3.785-2.453.533-.214 4.742-.878 6.248.118 6.271.199 6.259.251 6.453.385 3.805.713.391.131 3.446 1.713.512.416 2.369 3.011.294.646.722 3.778-.028.682-1.08 3.901-.444.716-3.024 2.715-.451.279-4.063 1.58-4.134.837-3.036.391-8.974.943-4.244 1.634-1.078-2.8 4.434-1.707.392-.093 9.11-.955 2.958-.382 3.845-.782 3.437-1.357 2.497-2.243.87-3.14-.587-3.076-1.934-2.458-2.958-1.47-3.506-.657-6.141-.355-6.22-.249-6.238-.199-6.072-.114-3.99.767-3.29 2.132-2.221 3.214-.801 3.915.131 1.832.428 1.875.72 1.796.985 1.724 14.772 21.442 14.75 21.539 14.669 21.601 14.546 21.688 14.335 24.201 13.424 24.693 13.139 24.805 13.021 24.738 17.197 24.04 22.934 18.483 27.047 11.666 29.204 3.983 23.574-2.583 22.471-7.639 20.283-12.324 17.249-16.542 28.656-28.993-90.475-128.717-5.407 5.023-6.491 6.329-6.324 6.492-6.088 6.693-2.214.005-16.668-18.14-17.669-17.054-36.446-33.396-13.343-15.846-.284-.515-3.349-10.611-5.015-9.704-7.287-8.177-8.374-7.39-.288-.344-8.882-14.48-2.965-4.708-2.954-3.642-3.669-2.585-4.247-1.085-4.262.649-3.82 2.575-2.088 4.149-.412 4.912.622 5.194 4.184 22.3-.116.911-1.87 4.009-1.073 4.219-.6 4.39-.231 4.438.338 5.191.877 5.225 1.189 5.153 1.43 5.096-2.889.809-1.447-5.163-1.224-5.31-.925-5.54-.349-5.529.25-4.713.652-4.704 1.224-4.703 1.726-3.7-4.11-21.925-.66-5.748.449-5.352.155-.548 2.394-4.759.502-.57 4.425-2.982.612-.24 4.897-.745.597.029 4.81 1.228.493.228 4.064 2.863.301.282 3.245 4.019 3.021 4.795 8.779 14.312 8.399 7.426 7.685 8.694 5.259 10.224 3.298 10.448 13.089 15.543 36.268 33.217 17.76 17.146 15.621 16.997 5.019-5.516 6.386-6.558 6.545-6.381 6.693-6.218 2.248.236 92.185 131.149-.161 1.918-29.566 29.912-17.655 16.883-20.861 12.634-23.102 7.815z" fill="#FFF"/><path d="m225.997 233.977-3.128-7.532-3.932-7.089-4.484-6.79-4.995-6.495 2.378-1.829 5.091 6.626 4.605 6.982 4.075 7.367 3.161 7.61z" fill="#FFF"/><path d="m43.027 72.483-2.831-.264-2.837-.266-2.838-.261-2.84-.251-2.952-.248-2.949-.225-2.956-.19-2.947-.102-4.431.851-3.786 2.454-2.563 3.71-.904 4.417.904 4.416 2.564 3.711 3.785 2.453 4.431.851 5.756-.184 5.743-.386 5.737-.467 5.746-.504 3.762-.766 3.391-1.772 2.415-2.946.806-3.725-.697-3.946-2.204-3.334-3.387-2.134z" fill="#1F1F1F"/><path d="m19.925 95.038-.331-.026-4.431-.851-.533-.214-3.786-2.454-.418-.406-2.563-3.71-.235-.552-.904-4.417v-.602l.904-4.417.235-.552 2.563-3.71.418-.406 3.786-2.454.533-.214 4.766-.876 2.947.102 5.968.418 14.517 1.323 3.917.892.466.193 3.387 2.133.452.442 2.204 3.334.226.566.697 3.946-.011.578-.806 3.726-.306.633-2.414 2.945-.465.379-3.392 1.772-.395.14-3.93.791-11.492.972-5.764.387zm-3.909-3.768 3.98.764 5.589-.179 5.69-.383 11.368-.961 3.47-.707 2.932-1.532 1.991-2.429.668-3.084-.591-3.35-1.854-2.804-2.897-1.825-3.572-.813-17.125-1.504-2.937-.188-2.734-.094-3.978.764-3.291 2.133-2.22 3.213-.781 3.816.781 3.816 2.22 3.214z" fill="#FFF"/><path d="m40.386 95.974-6.246-.598-6.253-.584-6.258-.526-6.265-.337-4.431.85-3.786 2.454-2.563 3.71-.904 4.417.904 4.417 2.563 3.71 3.785 2.453 4.432.851 6.254-.182 6.247-.367 6.239-.463 6.242-.529 3.763-.77 3.393-1.783 2.413-2.953.807-3.731-.722-3.915-2.28-3.252-3.428-2.025z" fill="#1F1F1F"/><path d="m15.407 118.29-.326-.026-4.431-.851-.533-.214-3.785-2.454-.418-.406-2.563-3.71-.235-.552-.906-4.417v-.602l.904-4.417.235-.552 2.563-3.71.418-.406 3.786-2.454.533-.214 4.795-.876 6.265.337 6.304.53 12.691 1.21 3.905.847.445.174 3.428 2.025.465.43 2.28 3.251.247.589.722 3.916-.009.589-.807 3.73-.304.632-2.413 2.954-.464.379-3.392 1.782-.397.142-3.937.795-6.242.529-6.255.464-6.269.369zm-3.904-3.768 3.982.764 6.09-.177 6.202-.365 6.217-.461 6.138-.521 3.469-.71 2.934-1.541 1.992-2.438.667-3.084-.608-3.299-1.906-2.719-2.941-1.737-3.582-.777-12.407-1.173-6.245-.525-6.037-.324-3.964.761-3.292 2.134-2.22 3.213-.781 3.816.781 3.816 2.22 3.213z" fill="#FFF"/><path d="M412.618 120.769h-45.954l-28.866 2.206-27.958 7.442-26.04 12.634-23.854 16.428-6.041 4.803-5.954 4.92-5.868 5.026-5.777 5.132 23.045 32.786 23.044 32.785 23.048 32.789 23.047 32.789 21.03-23.49 21.031-23.492 21.033-23.495 21.034-23.495v-71.824z" fill="#1F1F1F"/><path d="m329.608 311.51-2.345-.138-92.185-131.149.231-1.984 5.777-5.132 5.888-5.043 5.974-4.937 6.145-4.883 24.049-16.542 26.31-12.733 28.23-7.488 28.979-2.21h45.954l1.5 1.5v95.768l-.382 1zm-91.305-131.917 90.329 128.509 82.486-92.138v-93.695h-44.397l-28.67 2.191-27.685 7.369-25.809 12.521-23.717 16.334-6 4.771-5.932 4.902-5.848 5.009z" fill="#FFF"/><path d="M449.928 54.169c-11.461 0-21.01 8.784-21.964 20.206l-4.62 55.294h53.169l-4.62-55.294c-.955-11.422-10.503-20.206-21.965-20.206z" fill="#1F1F1F"/><g fill="#FFF"><path d="M476.513 131.169h-53.169l-1.495-1.625 4.62-55.294c1.011-12.101 11.315-21.581 23.459-21.581s22.448 9.479 23.459 21.581l4.62 55.294zm-51.539-3h49.908L470.398 74.5c-.882-10.559-9.874-18.831-20.47-18.831s-19.587 8.271-20.47 18.831z"/><path d="M473.986 99.423s-1.632-20.61-2.093-25.049c-2.358-22.682-17.246-26.594-31.64-23.424-15.568 3.429-23.909-7.782-23.909-7.782s2.297 25.199 26.411 26.407c0 0 2.041 10.328 13.821 7.429 0 .001 2.258 16.475 17.41 22.419z"/><path d="M473.438 100.82c-13.148-5.158-17.055-17.609-18.049-22.038-3.513.586-6.538.09-9.009-1.485-2.908-1.853-4.235-4.714-4.774-6.293-24.125-1.943-26.731-27.438-26.755-27.699l2.697-1.032c.318.422 7.997 10.379 22.383 7.212 9.293-2.047 17.258-.924 23.035 3.245 5.872 4.239 9.378 11.469 10.419 21.488.458 4.407 2.03 24.244 2.096 25.086zm-17.22-25.272 1.845 1.253c.02.146 2.097 14.009 14.227 20.216-.451-5.644-1.531-19.046-1.888-22.487-.949-9.133-4.042-15.649-9.191-19.366-6.398-4.618-14.752-4.043-20.634-2.748-10.432 2.298-17.768-1.55-21.801-4.756.602 2.181 1.566 4.897 3.092 7.618 4.497 8.022 11.551 12.329 20.964 12.801l1.396 1.208c.006.03.771 3.592 3.791 5.498 2.103 1.328 4.862 1.584 8.199.763z"/><path d="m444.685 86.428-2.127-3.125-3.64-.674-3.627 1.814-1.342-2.683 4.077-2.039.944-.133 4.749.88.967.63 2.479 3.642z"/></g><path d="m426.332 94.36 7.465.093 8.195-.974 5.004 1.576 1.168 5.947-4.226 3.736-9.451 1.436-9.115-.327z" fill="#1F1F1F"/><path d="m434.433 107.674-9.114-.327-1.441-1.624.96-11.488 1.514-1.375 7.367.093 8.098-.962.627.059 5.004 1.575 1.021 1.142 1.168 5.947-.478 1.413-4.226 3.736-.768.359zm-7.435-3.269 7.402.266 8.876-1.349 3.251-2.874-.831-4.229-3.847-1.211-8.071.946-6.068-.076zM281.475 357.127l.041-.032.04-.032.041-.032.041-.031 2.811-2.696 2.811-2.697 2.817-2.701 2.816-2.701 3.308-26.905 3.789-26.841 4.541-26.722 6.064-26.404 3.263-9.667 3.887-9.443 4.318-9.256 4.663-9.093-21.235 36.872-15.179 39.786-10.477 41.286-6.28 42.121 1.978-1.202 1.979-1.202 1.981-1.204z" fill="#FFF"/><path d="m274.334 363.221-2.263-1.503 6.309-42.27 10.53-41.451 15.281-40 21.235-36.872 2.635 1.433-4.662 9.093-4.293 9.207-3.86 9.379-3.205 9.504-6.047 26.332-4.525 26.637-3.783 26.799-3.304 26.878-.45.899-11.677 11.121zm6.973-43.107-5.796 38.882 5.166-3.139-.005-.006 10.797-10.358 3.242-26.375 3.793-26.868 4.548-26.763 6.121-26.633 2.852-8.447-5.175 8.986-15.105 39.594zm-.187 36.428.437.521-.719-.986z" fill="#FFF"/><path d="M405.901 120.769h115.396l8.417 1.521 8.415 1.521 8.421 1.522 8.42 1.522 7.345 4.384 7.343 4.383 7.348 4.386 7.348 4.385 5.34 6.673 5.345 6.678 5.348 6.683 5.349 6.683 2.653 8.132 2.652 8.129 2.654 8.136 2.654 8.135.011.086.012.088.013.093.013.093.012.087.012.088.013.093.012.094.012.086.012.089.013.093.013.093.012.087.012.089.013.093.012.094 1.874 13.903 1.873 13.899 1.875 13.909 1.874 13.909 1.783 13.917 1.781 13.913 1.784 13.923 1.783 13.923 1.59 13.941 1.59 13.936 1.591 13.946 1.591 13.947 1.155 13.979 1.154 13.976 1.154 13.985 1.155 13.985-22.335.052-22.336.053-22.339.052-22.339.053-22.336.052-22.337.053-22.339.052-22.34.053-22.337.052-22.338.053-22.341.052-22.34.053-22.337.052-22.338.053-22.341.052-22.34.053 1.092-11.92 1.092-11.916 1.093-11.924 1.093-11.924 1.319-11.897 1.318-11.893 1.319-11.901 1.319-11.901 1.646-11.857 1.644-11.854 1.646-11.861 1.645-11.862 2.407-11.718 2.406-11.714 2.408-11.722 2.408-11.722.815-2.414.815-2.415.816-2.419.817-2.419.971-2.358.971-2.359.973-2.363.972-2.363 1.079-2.311 1.079-2.313 1.08-2.316 1.08-2.316 1.165-2.271 1.165-2.272 1.166-2.275 1.167-2.275 3.255-.221 3.257-.221 3.261-.221 3.262-.221 3.068-1.172 3.069-1.173 3.074-1.174 3.074-1.174 2.824-1.684 2.825-1.685 2.83-1.687 2.83-1.687 2.606-2.009 2.608-2.009 2.611-2.013 2.612-2.013 3.044-3.154 3.044-3.155 3.05-3.16 3.049-3.161 2.382-3.68 2.382-3.682 2.386-3.688 2.386-3.687 1.679-4.053 1.679-4.053 1.682-4.06 1.682-4.06.915-4.283.916-4.286.916-4.289z" fill="#1F1F1F"/><path d="m284.743 430.419-1.499-1.618c.109-1.378 11.057-138.396 25.909-189.883 2.971-10.297 8.741-23.704 16.25-37.75l2.646 1.414c-7.412 13.867-13.099 27.066-16.013 37.168-13.895 48.165-24.385 172.024-25.669 187.666l354.206-.832c-3.046-56.29-16.017-151.556-25.512-221.293l-.198-1.444a94.376 94.376 0 0 0-31.492-58.32 94.451 94.451 0 0 0-62.074-23.256H405.901v-3h115.396a97.45 97.45 0 0 1 64.045 23.995 97.383 97.383 0 0 1 32.493 60.173l.198 1.448c9.591 70.442 22.727 166.916 25.619 223.116l-1.495 1.577z" fill="#FFF"/><path d="M616.349 203.642a96.793 96.793 0 0 0-1.648-8.887H540.72s17.035 42.869 28.374 84.496c24.868 91.295 67.948 88.874 67.948 88.874l.059-.138c-5.389-51.238-13.694-112.513-20.554-162.898l-.198-1.447z" fill="#FFF"/><path d="M636.688 369.632c-2.23 0-12.453-.586-25.216-10.525-23.267-18.117-36.675-53.211-43.825-79.461-11.187-41.071-28.151-83.909-28.321-84.337l1.394-2.054h73.981l1.461 1.158a98.797 98.797 0 0 1 1.674 9.025l.198 1.448c6.346 46.607 15.037 110.439 20.56 162.943l-.169.879-1.298.914c-.047.002-.195.01-.439.01zm-93.771-173.378c3.517 9.054 17.791 46.504 27.624 82.603 21.639 79.44 57.161 87.014 64.901 87.706-5.525-52.156-14.102-115.15-20.382-161.273l-.197-1.444a95.658 95.658 0 0 0-1.359-7.591h-70.587z" fill="#FFF"/><path d="m515.97 31.552-.98-3.233-.979-3.233-.981-3.239-.982-3.238-3.699-.438-3.697-.45-3.704-.467-3.695-.501-4.901-1.894-2.588-4.469 1.425-4.978 4.532-2.476 7.063-.789 7.079-.647 7.099.039 6.737 2.023 7.511 5.926 7.096 6.432 6.93 6.611 6.916 6.605 48.611 50.928 47.079 52.347 44.743 54.356 38.488 58.806 8.796 28.609.626 29.912-9.475 28.269-21.516 20.391-26.892 7.544-27.799-3.133-25.245-12.132-20.437-19.174-28.667-47.579-24.462-49.945-22.838-50.714-21.741-51.186-.441-.47-.441-.47-.443-.472-.443-.471-5.24-12.539-5.237-12.535-5.242-12.544-5.241-12.543 6.818-10.709 6.816-10.705 6.82-10.712z" fill="#1F1F1F"/><path d="m682.444 361.788-27.8-3.132-.482-.139-25.245-12.132-.377-.258-20.437-19.174-.258-.32-28.729-47.692-24.462-49.946-22.859-50.758-21.649-50.97-1.586-1.688-.291-.449-20.959-50.161.119-1.384 26.905-42.258-3.437-11.344-10.137-1.241-4.048-.59-4.901-1.894-.757-.647-2.589-4.469-.144-1.165 1.425-4.978.723-.903 4.533-2.477.553-.174 7.062-.789L509.871 0l7.1.039.423.063 6.736 2.023.498.259 7.59 5.992 7.096 6.432 13.875 13.243 48.66 50.978 47.109 52.379 44.883 54.538 38.487 58.806.179.38 8.796 28.609.066.41.626 29.912-.077.508-9.475 28.269-.391.612-21.516 20.391-.627.355-26.891 7.544zm-27.211-6.085 27.256 3.071 26.252-7.365 20.975-19.878 9.273-27.667-.616-29.441-8.672-28.206-38.326-58.56-44.691-54.293-47.036-52.297-48.58-50.896-13.798-13.166-7.03-6.372-7.247-5.717-6.256-1.879-6.81-.037-7.007.64-6.739.753-3.723 2.034-1.077 3.762 2.004 3.46 4.244 1.64 7.211.943 7.385.886 1.259 1.055 3.922 12.943-.17 1.241-26.854 42.178 20.552 49.187 1.583 1.686.287.44 21.74 51.186 22.825 50.685 24.412 49.843 28.526 47.345 20.117 18.874z" fill="#FFF"/><path d="m509.637 52.105-4.299-2.229-4.304-2.231-4.306-2.232-4.306-2.233-4.109.586-4.111.57-4.117.548-4.12.514-3.314.24-3.299-.305-2.979-1.396-1.909-2.674-.361-3.466 1.394-3.206 2.554-2.413 3.135-1.612 4.626-1.801 4.645-1.772 4.7-1.61 4.812-1.147 7.605-.002 7.381 1.912 7.049 2.928 6.807 3.46" fill="#1F1F1F"/><path d="m508.947 53.436-16.789-8.703-11.874 1.638-4.133.515-3.391.248-.246-.002-3.3-.305-.498-.135-2.979-1.396-.585-.487-1.909-2.674-.271-.716-.361-3.467.116-.754 1.394-3.206.346-.492 2.554-2.413.344-.243 3.277-1.676 9.28-3.576 4.887-1.668 5.16-1.188 7.604-.002.377.047 7.58 1.98 7.154 2.976 6.807 3.461-1.36 2.673-6.755-3.434-6.899-2.865-7.094-1.838-7.237.002-4.571 1.089-4.632 1.587-9.14 3.523-2.876 1.479-2.177 2.056-1.115 2.563.279 2.681 1.451 2.032 2.386 1.118 2.915.269 3.191-.231 8.147-1.053 8.206-1.153.902.153 17.216 8.924z" fill="#FFF"/><path d="m502.131 72.537-4.984-2.48-4.989-2.483-4.993-2.485-4.992-2.484-5.142.531-5.145.518-5.159.227-5.043-.934-3.354-2.818-.916-4.261 1.672-4.058 3.534-2.586 6.298-2.074 6.345-1.935 6.419-1.656 6.55-.906 6.108.957 5.92 1.837 5.794 2.227 5.668 2.485" fill="#1F1F1F"/><path d="m501.463 73.88-19.569-9.739-9.858 1.006-5.244.232-.339-.023-5.043-.934-.691-.327-3.354-2.817-.502-.833-.916-4.262.08-.886 1.672-4.058.501-.64 3.535-2.585.416-.214 6.298-2.075 6.377-1.944 6.651-1.708 6.549-.906.438.004 6.321 1.007 5.919 1.836 5.888 2.26 5.732 2.511-1.204 2.748-5.669-2.485-5.729-2.201L494 45.075l-5.782-.906-6.244.864-6.336 1.635-6.283 1.917-6.04 1.99-3.003 2.196-1.334 3.238.71 3.302 2.658 2.233 4.486.831 4.988-.219 10.199-1.043.822.149 19.959 9.933z" fill="#FFF"/><path d="m503.614 69.943-9.465-3.919-9.767-3.061-10.107.389-9.07 4.701-3.286 2.56-2.545 3.29-1.234 3.952 1.065 3.939 2.787 2.302 3.513.883 3.631-.202 3.559-.818 1.806-.532 1.8-.539 1.796-.547 1.789-.558 6.022 12.323 7.704 11.383 8.598 10.73 9.213 10.216" fill="#1F1F1F"/><path d="m510.31 127.439-9.214-10.216-8.726-10.894-7.81-11.564-5.456-11.167-5.985 1.8-3.9.876-3.63.203-.45-.043-3.513-.883-.59-.299-2.786-2.302-.492-.764-1.066-3.939.016-.839 1.234-3.952.246-.471 2.809-3.555 3.518-2.709 9.07-4.7.632-.168 10.107-.389.506.068 9.893 3.106 9.465 3.919-1.148 2.771-9.403-3.892-9.456-2.964-9.513.366-8.65 4.483-3.028 2.359-2.265 2.928-1.023 3.277.827 3.056 2.157 1.783 2.963.745 3.276-.183 3.434-.789 7.08-2.146 1.795.773 5.975 12.229 7.612 11.245 8.559 10.683 9.157 10.149z" fill="#FFF"/></svg></g><g transform="translate(232.0 168.0) rotate(0.0 63.0 83.0) scale(1.024390243902439 1.023667690334357)"><svg width="123" height="162.162" viewBox="0 0 123 162.162"><g fill="#FFF"><path d="M61.411 160.662c-7.165 0-12.973-5.808-12.973-12.973h25.946c0 7.165-5.808 12.973-12.973 12.973z"/><path d="M61.411 162.162c-7.98 0-14.473-6.493-14.473-14.473v-1.5h28.946v1.5c0 7.98-6.492 14.473-14.473 14.473zm-11.375-12.973c.737 5.621 5.557 9.973 11.375 9.973s10.639-4.353 11.375-9.973z"/><path d="M81.542 147.689H42.318l-6-6v-25.716h51.225v25.716l-6.001 6z"/><path d="M82.164 149.189H41.697l-6.879-6.879v-27.837h54.225v27.837zm-39.225-3h37.982l5.121-5.121v-23.595H37.818v23.595z"/><path d="M61.5 123C27.589 123 0 95.411 0 61.5S27.589 0 61.5 0 123 27.589 123 61.5 95.411 123 61.5 123zm0-120C29.243 3 3 29.243 3 61.5S29.243 120 61.5 120 120 93.757 120 61.5 93.757 3 61.5 3z"/><path d="m73.867 120.676-2.983-.318 7.434-69.726c-.99.174-1.67.501-2.42.86-1.258.604-2.683 1.288-5.4 1.288s-4.142-.684-5.4-1.288c-1.11-.532-2.068-.992-4.102-.992-2.033 0-2.99.46-4.099.992-1.257.604-2.682 1.288-5.397 1.288-2.716 0-4.141-.684-5.399-1.288-.749-.359-1.429-.686-2.418-.86l7.407 69.474-2.983.318-7.598-71.265L42 47.5c2.716 0 4.141.684 5.399 1.288 1.109.532 2.067.992 4.1.992 2.032 0 2.99-.46 4.099-.992 1.257-.604 2.682-1.288 5.397-1.288 2.717 0 4.142.684 5.4 1.288 1.11.532 2.068.992 4.102.992s2.993-.46 4.102-.992c1.258-.604 2.683-1.288 5.4-1.288l1.492 1.659z"/></g></svg></g><g transform="translate(97.0 432.0) rotate(0.0 120.0 109.0) scale(1.0027156883225403 1.004344480942794)"><svg width="239.35" height="217.057" viewBox="0 0 239.35 217.057"><path d="m43.432 209.866-8.866 4.732-10.003.966-9.616-2.923-7.756-6.391-4.732-8.866-.966-10.003 2.923-9.616 6.391-7.756 8.866-4.732 10.003-.966 9.615 2.923 7.757 6.391 4.732 8.866.966 10.003-2.923 9.615z" fill="#FFF"/><path d="m27.169 217.194-.69-.009-.689-.026-.689-.043-.688-.06-5.242-1.041-4.937-2.045-4.436-2.98-3.768-3.79-5.001-9.383-1.016-10.584 3.088-10.175 6.756-8.21 4.443-2.971 4.937-2.045 5.244-1.03 5.344.016 5.242 1.041 4.937 2.045 4.436 2.98 3.768 3.79 5 9.383 1.016 10.584-3.088 10.175-6.756 8.21-3.839 2.637-4.231 1.945-4.503 1.188zm-.094-51.513-4.129.353-4.007 1.057-3.765 1.731-3.416 2.347-6.012 7.306-2.748 9.055.905 9.419 4.45 8.35 3.354 3.373 3.948 2.652 4.394 1.82 4.665.927 4.756.012 4.666-.916 4.394-1.819 3.954-2.643 6.012-7.306 2.748-9.055-.905-9.419-4.45-8.35-3.354-3.373-3.948-2.652-4.394-1.82-4.665-.927-.612-.053-.613-.038-.613-.023z" fill="#231f20"/><path d="m82.442 175.718-7.669-9.368-7.666-9.366-7.672-9.372-7.672-9.373 18.176-11.51 20.539-6.378 21.496-1.252 21.45 2.105 11.528 1.358 11.586.401 11.333-2.236 9.925-5.907 8.449-10.813 3.501-13.296-1.443-13.684-6.15-12.302-8.817-8.384-11.032-5.132-12.09-1.364-11.888 2.586-4.473-11.251-4.472-11.247-4.476-11.255-4.475-11.254 27.21-5.933 27.679 3.092 25.265 11.721 20.185 19.186 14.294 28.856 2.792 32.086-9.12 30.877-20.26 24.99-18.108 11.458-20.465 6.336-21.412 1.234-21.366-2.1-11.613-1.365-11.67-.392-11.409 2.282z" fill="#FFF"/><path d="m83.393 176.879-.526-.052-.527-.053-.529-.053-.529-.053-7.669-9.369-7.667-9.366-7.672-9.372-7.672-9.372.053-.526.053-.527.053-.529.053-.529 18.426-11.69 20.822-6.505 21.801-1.296 21.757 2.129 11.221 1.326 11.277.423 11.047-2.098 9.682-5.709 8.09-10.372 3.332-12.752-1.406-13.115-5.905-11.79-8.465-8.05-10.591-4.928-11.607-1.311-11.413 2.483-.486-.209-.487-.21-.488-.21-.488-.21-4.473-11.251-4.472-11.247-4.475-11.255-4.475-11.255.209-.486.21-.487.21-.488.21-.488 27.684-6.038 28.162 3.146 25.705 11.927 20.538 19.521 14.543 29.368 2.831 32.655-9.293 31.421-20.622 25.429-18.359 11.638-20.747 6.463-21.718 1.278-21.673-2.124-11.305-1.334-11.361-.414-11.123 2.144zm-29.511-38.42 7.196 8.791 7.193 8.788 7.198 8.794 7.198 8.794L92.781 168l11.391-2.062 11.601.441 11.545 1.362 21.062 2.076 21.105-1.189 20.181-6.209 17.858-11.279 19.897-24.55 8.949-30.333-2.753-31.517-14.045-28.343-19.522-18.642-24.413-11.524-26.794-3.294-26.46 5.338 4.198 10.557 4.196 10.554 4.199 10.561 4.199 10.561 12.082-2.203 12.169 1.668 11.062 5.339 8.86 8.506 6.396 12.815 1.479 14.252-3.67 13.84-8.808 11.253-10.172 6.106-11.62 2.373-11.892-.379-11.834-1.389-20.772-2.066-20.822 1.069-19.972 5.908z" fill="#231f20"/></svg></g><g transform="translate(236.0 265.0) rotate(0.0 65.5 76.0) scale(1.023485475881682 1.0387267396964457)"><svg width="127.994" height="146.333" viewBox="0 0 127.994 146.333"><g><g><path style="fill:#1f1f1f" d="M80.307 42.378v61.6l-24.15 26.81-27.08-40.53v-47.88c2.35 2.34 3.66 3.65 6 6h6.12c0 7.16 5.81 12.97 12.979 12.97 7.16 0 12.97-5.81 12.97-12.97h7.16c2.34-2.35 3.66-3.66 6.001-6z"/><g><path style="fill:#1f1f1f" d="m126.564 65.286-3.388-10.734-5.162-9.987-7.472-8.384-8.441-7.45-2.95-4.838-2.958-4.827-2.978-4.822-3.021-4.795-3.141-3.874-4.064-2.864-4.81-1.228-4.897.746-4.425 2.982-2.394 4.759-.449 5.353.639 5.346 1.05 5.601 1.05 5.6 1.051 5.605 1.048 5.592-1.93 4.137-1.129 4.438-.62 4.538-.238 4.587.348 5.355.89 5.3 1.206 5.241 1.447 5.164-50.865 1.62 1.106-.425 1.107-.427 1.11-.427 1.111-.428 3.043-.298 3.042-.317 3.046-.342 3.036-.392 4.027-.819 3.811-1.505 3.024-2.715 1.08-3.901-.721-3.779-2.369-3.011-3.446-1.712-3.806-.713-6.236-.361-6.247-.25-6.251-.199-6.248-.118-4.431.851-3.786 2.454-2.563 3.71-.904 4.416.154 2.153.48 2.102.803 2.002 1.068 1.868 14.807 21.494 14.748 21.535 14.665 21.597"/><path style="fill:#fff" d="m69.382 82.232-1.447-5.164-1.224-5.31-.925-5.539-.349-5.53.25-4.713.652-4.704 1.224-4.702 1.726-3.7-4.11-21.925-.66-5.748.449-5.352.155-.549 2.394-4.759.502-.569L72.444.985l.612-.239L77.953 0l.597.03 4.81 1.228.493.227 4.064 2.864.301.281 3.245 4.02 3.021 4.795 8.779 14.311 8.399 7.427 7.685 8.694 5.259 10.223 3.388 10.735-2.861.903-3.349-10.612-5.015-9.704-7.287-8.176-8.374-7.391-.288-.343-8.882-14.48-2.965-4.708-2.954-3.643-3.669-2.585-4.247-1.084-4.262.649-3.82 2.575-2.088 4.149-.412 4.911.622 5.195 4.184 22.3-.116.91-1.87 4.009-1.073 4.219-.6 4.392-.231 4.436.338 5.192.877 5.224 1.189 5.154 1.43 5.095zM46.98 146.333l-14.665-21.597-14.745-21.53L2.698 81.609l-1.157-2.054-.874-2.228-.513-2.328L0 72.846l.027-.407.904-4.417.235-.552 2.563-3.71.419-.406L7.933 60.9l.533-.214 4.742-.877 6.248.118 6.271.199 6.259.25 6.453.386 3.805.712.391.131 3.446 1.713.512.416 2.369 3.011.294.646.722 3.779-.028.681-1.08 3.901-.444.716-3.024 2.715-.451.279-4.063 1.58-4.134.837-3.036.392-8.975.943-4.243 1.633-1.077-2.8 4.433-1.706.392-.093 9.111-.956 2.957-.381 3.845-.783 3.437-1.357 2.497-2.242.87-3.141-.587-3.076-1.934-2.458-2.957-1.469-3.507-.657-6.141-.355-6.22-.249-6.238-.199-6.072-.114-3.99.766-3.29 2.133-2.221 3.213-.801 3.915.131 1.832.428 1.875.72 1.797.986 1.724 14.771 21.441 14.75 21.539 14.669 21.601z"/></g><g><g><path style="fill:#1f1f1f" d="m43.027 17.001-2.831-.265-2.837-.266-2.838-.26-2.84-.252-2.952-.247-2.949-.226-2.956-.19-2.947-.101-4.431.851-3.786 2.453-2.563 3.71-.904 4.417.904 4.417 2.564 3.71 3.785 2.453 4.431.851 5.756-.184 5.743-.385 5.737-.468 5.746-.504 3.762-.766 3.391-1.772 2.415-2.945.806-3.726-.697-3.946-2.204-3.334-3.387-2.134z"/></g><path style="fill:#fff" d="m19.925 39.555-.331-.026-4.431-.851-.533-.214-3.786-2.453-.418-.406-2.563-3.71-.235-.552-.904-4.417v-.602l.904-4.417.235-.552 2.563-3.71.418-.406 3.786-2.454.533-.214 4.765-.876 2.947.101 5.968.419 14.516 1.323 3.917.892.467.193 3.387 2.134.452.442 2.204 3.334.226.566.697 3.946-.011.578-.806 3.726-.306.634-2.414 2.945-.465.378-3.392 1.772-.395.14-3.93.791-11.492.972-5.764.387-5.809.187zm-3.909-3.768 3.98.764 5.589-.178 5.69-.383 11.368-.961 3.47-.707 2.933-1.532 1.991-2.428.668-3.084-.591-3.35-1.854-2.805-2.897-1.825-3.572-.813-17.125-1.504-2.937-.188-2.734-.093-3.978.764-3.291 2.133-2.22 3.213-.781 3.816.781 3.816 2.22 3.214 3.29 2.131z"/></g><g><g><path style="fill:#1f1f1f" d="m40.386 40.491-6.246-.598-6.253-.583-6.258-.526-6.265-.338-4.431.851-3.786 2.453-2.563 3.71-.904 4.417.904 4.417 2.563 3.71 3.785 2.454 4.432.85 6.254-.181 6.247-.368 6.239-.462 6.242-.529 3.763-.771 3.393-1.782 2.413-2.953.807-3.731L50 46.615l-2.28-3.251-3.428-2.025z"/></g><path style="fill:#fff" d="m15.407 62.808-.326-.026-4.431-.851-.533-.214-3.785-2.454-.418-.406-2.563-3.71-.235-.552-.906-4.417v-.602l.904-4.417.235-.552 2.563-3.71.418-.406 3.786-2.454.533-.214 4.795-.875 6.265.337 6.304.53 12.691 1.21 3.905.848.445.174 3.428 2.025.465.43 2.28 3.251.247.589.722 3.916-.009.589-.807 3.73-.305.632-2.413 2.953-.464.378-3.392 1.783-.397.142-3.937.795-6.242.53-6.255.464-6.269.369-6.299.185zm-3.904-3.768 3.982.764 6.09-.177 6.202-.365 6.217-.461 6.138-.521 3.468-.709 2.934-1.542 1.992-2.438.667-3.084-.608-3.299-1.906-2.719-2.941-1.737-3.582-.777-12.407-1.172-6.245-.525-6.037-.324-3.964.761-3.291 2.133-2.22 3.213-.781 3.816.781 3.816 2.22 3.213 3.291 2.134z"/></g></g></g></svg></g><g transform="translate(183.0 101.0) rotate(0.0 110.5 45.0) scale(1.0082668759238644 1.0169491525423728)"><svg width="219.188" height="88.5" viewBox="0 0 219.188 88.5"><path d="M38.757 84.709a4.581 4.581 0 0 1-6.258 1.677L3.791 69.811a4.581 4.581 0 0 1 4.581-7.935L37.08 78.451a4.581 4.581 0 0 1 1.677 6.258z" fill="#FFF"/><path d="M34.78 88.502a6.036 6.036 0 0 1-3.031-.818L3.041 71.11a6.089 6.089 0 0 1-2.226-8.307 6.037 6.037 0 0 1 3.692-2.833 6.045 6.045 0 0 1 4.615.608L37.83 77.152a6.089 6.089 0 0 1 2.226 8.307 6.039 6.039 0 0 1-3.693 2.833c-.523.14-1.055.21-1.583.21zM6.087 62.761c-.268 0-.537.035-.802.106a3.062 3.062 0 0 0-1.871 1.436 3.085 3.085 0 0 0 1.128 4.209L33.25 85.086a3.064 3.064 0 0 0 2.338.308 3.062 3.062 0 0 0 1.871-1.436 3.085 3.085 0 0 0-1.128-4.209L7.622 63.175a3.062 3.062 0 0 0-1.535-.414z" fill="#231f20"/><path d="M68.696 54.77a4.581 4.581 0 0 1-6.258-1.677L45.864 24.385a4.581 4.581 0 0 1 7.935-4.581l16.574 28.708a4.581 4.581 0 0 1-1.677 6.258z" fill="#FFF"/><path d="M66.416 56.882a6.087 6.087 0 0 1-5.277-3.04L44.565 25.135c-1.677-2.904-.678-6.63 2.226-8.307s6.63-.678 8.307 2.226l16.574 28.708a6.088 6.088 0 0 1-2.226 8.307 6.046 6.046 0 0 1-3.03.813zm-16.59-37.87a3.06 3.06 0 0 0-1.535.414c-.713.412-1.223 1.076-1.436 1.871s-.104 1.625.308 2.338l16.574 28.708a3.086 3.086 0 0 0 4.209 1.128 3.086 3.086 0 0 0 1.128-4.209L52.499 20.554a3.06 3.06 0 0 0-1.871-1.436 3.095 3.095 0 0 0-.802-.106z" fill="#231f20"/><path d="M109.594 43.811a4.581 4.581 0 0 1-4.581-4.581V6.081a4.581 4.581 0 0 1 9.162 0V39.23a4.581 4.581 0 0 1-4.581 4.581z" fill="#FFF"/><path d="M109.594 45.311a6.088 6.088 0 0 1-6.081-6.081V6.081c0-3.353 2.728-6.081 6.081-6.081s6.081 2.728 6.081 6.081V39.23a6.088 6.088 0 0 1-6.081 6.081zm0-42.311a3.084 3.084 0 0 0-3.081 3.081V39.23c0 1.699 1.382 3.081 3.081 3.081s3.081-1.382 3.081-3.081V6.081A3.084 3.084 0 0 0 109.594 3z" fill="#231f20"/><path d="M150.492 54.77a4.581 4.581 0 0 1-1.677-6.258l16.574-28.708a4.581 4.581 0 0 1 7.935 4.581L156.75 53.093a4.582 4.582 0 0 1-6.258 1.677z" fill="#FFF"/><path d="M152.772 56.882a6.037 6.037 0 0 1-3.03-.814 6.089 6.089 0 0 1-2.226-8.307l16.574-28.708a6.039 6.039 0 0 1 3.693-2.833 6.045 6.045 0 0 1 4.615.608c1.407.812 2.413 2.124 2.833 3.692s.205 3.208-.607 4.614L158.05 53.842a6.088 6.088 0 0 1-5.278 3.04zm-1.531-3.411a3.085 3.085 0 0 0 4.209-1.128l16.574-28.708c.411-.713.521-1.543.308-2.338s-.723-1.459-1.436-1.871c-.713-.411-1.543-.521-2.338-.308s-1.459.723-1.871 1.436l-16.574 28.708a3.086 3.086 0 0 0 1.128 4.209z" fill="#231f20"/><path d="M180.431 84.709a4.581 4.581 0 0 1 1.677-6.258l28.708-16.574a4.581 4.581 0 0 1 4.581 7.935l-28.708 16.574a4.581 4.581 0 0 1-6.258-1.677z" fill="#FFF"/><path d="M184.408 88.502c-.528 0-1.06-.07-1.584-.21a6.045 6.045 0 0 1-3.693-2.833 6.088 6.088 0 0 1 2.226-8.307l28.708-16.574c1.407-.813 3.046-1.028 4.615-.608s2.88 1.427 3.693 2.833a6.088 6.088 0 0 1-2.226 8.307l-28.708 16.574a6.042 6.042 0 0 1-3.031.818zm28.693-25.741c-.534 0-1.061.14-1.536.414L182.857 79.75a3.086 3.086 0 0 0-1.128 4.209c.411.713 1.076 1.223 1.871 1.436s1.625.104 2.338-.308l28.708-16.574a3.086 3.086 0 0 0 1.128-4.209 3.06 3.06 0 0 0-1.871-1.436 3.097 3.097 0 0 0-.802-.107z" fill="#231f20"/></svg></g><g transform="translate(413.0 202.0) rotate(0.0 300.5 214.0) scale(1.013685598917836 1.0143574235321442)"><svg width="592.886" height="421.942" viewBox="0 0 592.886 421.942"><g><g><g><path style="fill:#fff" d="m47.965 78.521-3.428-1.257-3.496 1.045-3.51 1.001-2.218 2.897-2.249 2.874-.092 3.649-.131 3.646 2.073 3.004 2.034 3.03 3.444 1.21 3.427 1.257 3.497-1.045 3.509-1.001 2.219-2.897 2.248-2.874.092-3.649.131-3.646-2.072-3.004-2.035-3.03z"/><path style="fill:#231f20" d="m44.248 102.314-.946-.029-6.852-2.459-.748-.579-4.096-6.018-.264-.906.222-7.279.318-.886 4.457-5.759.78-.531 6.988-2.04.946.029 3.417 1.253 3.434 1.206.748.579 4.096 6.019.264.905-.222 7.279-.318.887-4.457 5.759-.78.531-6.987 2.039zm-6.333-5.154 5.952 2.136 6.069-1.771 3.869-4.999.193-6.318-3.557-5.227-5.952-2.136-6.069 1.771-3.869 5-.193 6.318 3.557 5.226z"/></g><g><path style="fill:#fff" d="m517.965 45.521-3.428-1.257-3.496 1.045-3.51 1.001-2.218 2.897-2.249 2.874-.092 3.649-.131 3.646 2.073 3.004 2.034 3.03 3.444 1.21 3.427 1.257 3.497-1.045 3.509-1.001 2.219-2.897 2.248-2.874.092-3.649.131-3.646-2.072-3.004-2.035-3.03z"/><path style="fill:#231f20" d="m514.248 69.314-.946-.029-6.852-2.459-.748-.579-4.096-6.018-.264-.906.222-7.279.318-.886 4.457-5.759.78-.531 6.988-2.04.946.029 3.417 1.253 3.434 1.206.748.579 4.096 6.019.264.905-.222 7.279-.318.887-4.457 5.759-.78.531-6.987 2.039zm-6.333-5.154 5.952 2.136 6.069-1.771 3.869-4.999.193-6.318-3.557-5.227-5.952-2.136-6.069 1.771-3.869 5-.193 6.318 3.557 5.226z"/></g><g><path style="fill:#fff" d="M7.748 12.867c-5.94-1.664-8.888 6.049-3.178 8.308 5.94 1.664 8.888-6.049 3.178-8.308z"/><path style="fill:#231f20" d="M6.204 22.911a7.528 7.528 0 0 1-2.038-.292l-.148-.049C.271 21.088-.532 17.732.307 15.24c.92-2.732 3.91-4.921 7.845-3.818l.148.05c3.747 1.482 4.55 4.838 3.711 7.33-.754 2.236-2.896 4.109-5.807 4.109zM5.05 19.752c2.202.58 3.653-.531 4.117-1.908.398-1.181.103-2.727-1.899-3.553-2.204-.581-3.654.531-4.117 1.908-.398 1.181-.104 2.727 1.899 3.553z"/></g><g><path style="fill:#fff" d="m106.575 7.541 3.587 6.465 5.281 5.175 6.391 3.717 7.179 1.735-7.179 1.811-6.391 3.717-5.281 5.175-3.587 6.465-1.881 7.151-1.805-7.151-3.588-6.465-5.28-5.175-6.391-3.717-7.729-1.831 7.729-1.715 6.391-3.718 5.281-5.175 3.587-6.465 1.805-7.159z"/><path style="fill:#231f20" d="m106.145 49.334-2.905-.014-1.758-6.962-3.387-6.103-4.991-4.891-6.037-3.512-7.512-1.779.021-2.924 7.501-1.666 6.028-3.506 4.991-4.891 3.386-6.103L103.24.014 106.145 0l1.833 6.978 3.39 6.109 4.991 4.891 6.04 3.513 6.966 1.684.014 2.913-6.974 1.759-6.047 3.517-4.991 4.891-3.39 6.11-1.832 6.969zM86.609 24.661l1.366.324.408.163 6.687 3.942 5.281 5.175.262.343 3.587 6.465.143.361.381 1.508.54-1.868 3.587-6.465.262-.344 5.576-5.4 6.391-3.717.387-.158 1.29-.325-1.275-.308-.402-.162-6.687-3.942-5.281-5.175-.262-.343-3.727-6.812-.4-1.523-.381 1.509-.143.361-3.587 6.465-.262.344-5.576 5.4-6.391 3.717-.429.168-1.345.297z"/></g><g><path style="fill:#fff" d="M43.428 164.911c-.332-.215-.733-.592-.942-.932-.592-.362-1.094-1.051-1.34-1.693-.144-.364-.093-.993-.112-1.362-.14-.631.222-1.845.439-2.446 5.726-5.52 46.519-46.141 56.748-55.996.864-.669 2.102-.481 3.108-.492l1.636.63c.795.998 2.082 1.708 2.536 2.971.213.73.055 1.644.116 2.382 1.035.708-11.542 12.045-11.86 12.568a6498.278 6498.278 0 0 1-45.332 44.852c-.864.669-2.102.482-3.109.492l-1.634-.63-.254-.344z"/><path style="fill:#231f20" d="M46.409 167.4c-.193 0-.377-.004-.551-.009-.18-.005-.358-.013-.526-.007l-.555-.1-1.634-.629-.667-.508-.111-.15a4.999 4.999 0 0 1-.951-.934c-.715-.531-1.326-1.346-1.669-2.24-.206-.519-.206-1.1-.206-1.565l-.001-.178c-.145-.962.199-2.21.524-3.111l.37-.57c2.427-2.34 11.153-10.985 21.258-20.996 13.876-13.747 29.603-29.328 35.491-35.001l.122-.105c1.125-.873 2.489-.838 3.484-.813.18.004.358.01.527.007l.555.1 1.636.63.634.465c.214.268.513.543.829.835.717.66 1.529 1.408 1.945 2.562.229.773.212 1.456.197 2.058-.004.156-.009.31-.008.458.036.118.06.24.07.367.099 1.242-.739 2.544-10.024 11.364-1.002.951-2.037 1.935-2.214 2.137l-.007-.006-.11.14a6453.88 6453.88 0 0 1-45.344 44.864l-.131.114c-.928.719-2.02.821-2.933.821zm-.811-3.015.335.007c.573.014 1.221.03 1.527-.154a6469.79 6469.79 0 0 0 45.168-44.69c.226-.271.741-.767 2.454-2.395 2.229-2.118 7.967-7.568 9.031-9.192a11.138 11.138 0 0 1-.003-.897c.01-.383.021-.817-.048-1.053-.138-.375-.596-.796-1.126-1.285-.288-.265-.583-.536-.862-.843l-1.026-.395-.336-.007c-.576-.014-1.223-.03-1.527.155-5.933 5.721-21.575 21.217-35.383 34.897-9.778 9.688-18.267 18.098-21.024 20.771-.202.635-.289 1.16-.272 1.326l.028.221c.006.117.006.256.007.405 0 .154 0 .441.021.539.131.333.441.742.708.905l.493.491c.071.115.296.341.481.46l.381.359.973.375zm58.582-56.191c.026.331.182.736.59 1.015l-.59-1.015z"/></g><g><path style="fill:#fff" d="M524.819 419.199c-.315-.241-.684-.648-.867-1.002-.562-.408-1.008-1.133-1.204-1.793-.115-.374-.016-.997-.005-1.367-.09-.64.366-1.822.629-2.404 6.139-5.057 49.978-42.37 60.944-51.398.913-.6 2.133-.315 3.137-.248l1.582.756c.715 1.057 1.942 1.866 2.297 3.159.156.744-.073 1.644-.071 2.383.977.787-12.446 11.108-12.804 11.604a6475.528 6475.528 0 0 1-48.694 41.179c-.914.599-2.133.316-3.138.248l-1.58-.755-.226-.362z"/><path style="fill:#231f20" d="M528.265 421.941c-.438 0-.852-.043-1.217-.081a13.081 13.081 0 0 0-.524-.048l-.546-.143-1.58-.755-.625-.558-.099-.159a5.065 5.065 0 0 1-.876-1.005c-.671-.585-1.217-1.445-1.489-2.363-.164-.534-.119-1.111-.083-1.576l.013-.179c-.07-.97.37-2.187.765-3.061l.413-.54c2.604-2.145 11.988-10.092 22.855-19.293 14.896-12.614 31.781-26.912 38.09-32.105l.13-.096c1.19-.781 2.545-.641 3.535-.539.18.019.356.037.525.048l.546.143 1.582.756.595.513c.192.284.469.582.762.897.663.714 1.415 1.523 1.74 2.707.168.788.098 1.468.035 2.067-.016.155-.033.308-.043.456.027.12.041.244.042.37.002 1.247-.935 2.479-10.879 10.547-1.073.871-2.183 1.771-2.374 1.958l-.006-.006-.121.131a6504.243 6504.243 0 0 1-48.706 41.189l-.14.104c-.75.496-1.569.621-2.32.621zm-1.241-3.097.332.033c.572.06 1.216.126 1.535-.034a6509.061 6509.061 0 0 0 48.517-41.03c.246-.252.799-.707 2.634-2.196 2.387-1.937 8.532-6.923 9.72-8.458.007-.285.035-.587.067-.895.04-.381.084-.813.034-1.055-.108-.385-.532-.841-1.022-1.369-.266-.286-.539-.58-.794-.908l-.992-.474c-.11-.01-.222-.022-.335-.034-.572-.058-1.217-.125-1.535.036-6.358 5.237-23.15 19.457-37.974 32.009-10.516 8.905-19.645 16.635-22.605 19.087-.251.618-.379 1.134-.375 1.301l.011.221a7.9 7.9 0 0 1-.025.408c-.012.153-.034.439-.021.539.104.341.382.773.635.957l.453.528c.062.12.27.363.445.498l.351.386.944.45zm62.788-51.449c0 .332.124.749.509 1.059l-.509-1.059z"/></g><g><path style="fill:#fff" d="M490.212 212.264a44502.807 44502.807 0 0 0 22.824-81.216c.205-.612 6.252-22.773 6.613-22.283 1.677-2.329 4.856-3.529 7.653-2.829l-.007.026.007-.026-.007.026.007-.026-.007.026c3.566 1.037 5.716 4.95 4.811 8.533-5.13 18.078-12.013 42.824-17.143 60.9a11277.137 11277.137 0 0 1-11.415 40.617c-1.006 3.549-4.973 5.729-8.533 4.811l.007-.026-.007.026.007-.026-.007.026.007-.026c-3.571-1.013-5.71-4.968-4.81-8.533z"/><path style="fill:#231f20" d="M496.697 222.535a8.25 8.25 0 0 1-2.055-.259l-.026-.044-.002.008c-4.283-1.214-6.965-5.951-5.856-10.343l.011-.04c7.124-25.25 15.656-55.611 22.823-81.213.074-.237.357-1.257.778-2.768 4.464-16.017 5.446-19.434 6.28-20.277 2.096-2.657 5.749-3.935 9.017-3.119l.04.068.008-.027c4.271 1.242 6.949 5.977 5.847 10.341-2.574 9.073-5.574 19.767-8.574 30.462a11146.043 11146.043 0 0 1-8.58 30.48c-2.868 10.3-8.629 30.802-11.415 40.617-1.032 3.636-4.574 6.114-8.296 6.114zm-1.247-3.149c2.787.681 5.887-1.073 6.655-3.783 2.784-9.811 8.544-30.306 11.413-40.61 2.569-9.051 5.574-19.766 8.58-30.479 3.001-10.698 6.002-21.396 8.565-30.429.707-2.8-1.022-5.879-3.787-6.683l-.017-.031c-2.167-.504-4.676.441-5.993 2.27h-.027c-.737 1.666-4.371 14.704-5.58 19.04-.605 2.171-.752 2.694-.801 2.842a43257.447 43257.447 0 0 1-22.797 81.126c-.697 2.806 1.061 5.936 3.771 6.704l.018.033zm24.265-109.738.045.604a1.462 1.462 0 0 0 1.07-.61l-1.115.006z"/></g></g></g></svg></g></svg>