<svg xmlns="http://www.w3.org/2000/svg" viewBox="0 0 1100 800" width="1100" height="800"><path fill="#FFF" d="M0 0h1100v800H0z"/><g transform="translate(407.0 7.0) rotate(0.0 154.5 148.0) scale(1.0643501264131057 1.0635316436594113)"><svg width="290.318" height="278.318" viewBox="0 0 290.318 278.318"><g fill="#231f20"><path d="M49.21 77.755c-6.083-1.886-13.092-3.733-19.101-5.411 16.88 16.637 34.466 33.085 51.373 49.802-22.858 5.991-46.529 11.484-69.392 17.454 24.952 7.225 49.845 13.693 74.799 21.272-7.701 28.101-16.425 56.809-24.153 84.841 20.508-20.806 41.033-42.744 61.574-63.517 7.403 28.261 14.21 57.522 21.566 85.795 7.357-28.273 14.164-57.534 21.566-85.795 20.542 20.773 41.067 42.711 61.574 63.517-7.918-28.713-16.817-57.953-24.661-86.688 23.295-6.345 51.839-12.977 76.715-19.437-22.867-5.951-46.534-11.456-69.392-17.443 16.801-16.614 34.545-33.216 51.374-49.802-22.779 6.28-46.028 13.346-68.817 19.59 6.243-22.789 13.309-46.038 19.59-68.817-16.587 16.828-33.188 34.572-49.802 51.373-5.988-22.858-11.493-46.525-17.443-69.392-5.951 22.867-11.456 46.534-17.443 69.392-16.613-16.799-33.215-34.543-49.801-51.372 6.28 22.779 13.346 46.028 19.59 68.817-16.54-4.589-33.127-9.384-49.716-14.179z"/><path d="M146.329 268.369h-2.904c-6.935-26.622-13.967-56.632-20.899-83.243-19.305 19.58-40.406 42.055-59.72 61.641l-2.516-1.452c7.385-26.813 16.397-56.613 23.764-83.422-23.322-7.09-50.033-14.076-73.382-20.852l.04-2.892c21.367-5.585 45.479-11.231 66.842-16.787-15.724-15.488-33.775-32.446-49.498-47.949l1.452-2.515c21.291 5.865 44.997 13.019 66.273 18.891-5.873-21.274-13.027-44.986-18.893-66.273l2.516-1.452c15.506 15.724 32.459 33.772 47.948 49.497 5.552-21.36 11.211-45.473 16.776-66.84h2.904c5.566 21.371 11.223 45.478 16.775 66.84 15.488-15.723 32.445-33.775 47.948-49.497l2.515 1.452c-5.865 21.291-13.018 44.997-18.892 66.273 21.275-5.872 44.986-13.028 66.274-18.892l1.452 2.515c-15.725 15.505-33.774 32.458-49.498 47.949 21.36 5.552 45.472 11.211 66.84 16.776v2.903c-24.006 6.252-51.263 12.548-75.245 19.047 7.498 27.411 16.715 57.83 24.26 85.227l-2.516 1.452c-19.316-19.589-40.414-42.059-59.72-61.641-6.927 26.61-13.963 56.625-20.896 83.244zm-24.086-87.226 2.519.675c6.707 25.592 13.555 54.596 20.115 80.204 6.56-25.604 13.411-54.617 20.115-80.204l2.519-.675c18.603 18.811 39.037 40.504 57.522 59.401-7.172-25.632-15.809-54.387-22.837-80.083-.894-.571-1.289-2.084.385-2.759l-.005-.021c22.665-6.149 48.836-12.322 71.526-18.092-20.346-5.186-43.473-10.67-63.801-15.992l-.675-2.518c14.946-14.778 32.227-31.084 47.257-45.75-20.213 5.682-42.983 12.497-63.249 18.051l-1.844-1.843c5.555-20.271 12.368-43.033 18.051-63.25-14.663 15.027-30.976 32.313-45.749 47.257l-2.519-.675c-5.325-20.332-10.806-43.452-15.992-63.802-5.186 20.346-10.671 43.473-15.992 63.802l-2.519.675c-14.777-14.947-31.084-32.228-45.75-47.258 5.683 20.213 12.497 42.983 18.051 63.25l-1.844 1.843c-20.27-5.555-43.033-12.368-63.249-18.051 15.028 14.664 32.314 30.979 47.259 45.752l-.677 2.517c-20.441 5.357-43.664 10.844-64.118 16.081 21.925 6.226 47.675 13.1 69.572 19.756l1.02 1.834c-6.968 25.438-15.513 53.894-22.614 79.275 18.484-18.892 38.923-40.593 57.523-59.4z"/></g></svg></g><g transform="translate(298.0 49.0) rotate(0.0 11.5 11.5) scale(0.9550305194535565 0.9496284062758051)"><svg width="24.083" height="24.22" viewBox="0 0 24.083 24.22"><path d="M12.041 22.72c-.095 0-.189-.009-.283-.027l-2.791-.537a1.468 1.468 0 0 1-.349-.113l-2.576-1.198a1.502 1.502 0 0 1-.463-.334l-1.943-2.073a1.527 1.527 0 0 1-.215-.295l-1.385-2.482a1.518 1.518 0 0 1-.18-.549l-.346-2.821a1.486 1.486 0 0 1 0-.365l.346-2.821c.024-.193.085-.379.179-.548l1.384-2.481c.061-.105.133-.204.217-.294L5.58 3.709c.131-.14.287-.253.462-.334l2.576-1.198c.11-.052.228-.09.349-.113l2.791-.537a1.507 1.507 0 0 1 .566 0l2.79.537c.121.023.237.061.349.113l2.577 1.198c.174.081.331.194.463.334l1.943 2.073c.083.089.156.188.216.295l1.384 2.482c.094.169.154.355.179.547l.347 2.821c.015.122.015.245 0 .366l-.347 2.821a1.512 1.512 0 0 1-.179.547l-1.384 2.481a1.575 1.575 0 0 1-.216.295l-1.943 2.073c-.132.14-.288.254-.463.334l-2.577 1.198a1.515 1.515 0 0 1-.349.113l-2.79.537a1.407 1.407 0 0 1-.283.028z" fill="#fff"/><path d="m12.041 3 2.791.538 2.577 1.197 1.943 2.073 1.384 2.481.347 2.821-.347 2.82-1.384 2.481-1.943 2.073-2.577 1.198-2.791.537-2.791-.537-2.577-1.198-1.943-2.073-1.384-2.482L3 12.11l.347-2.82L4.73 6.808l1.943-2.073L9.25 3.537zm0-3c-.19 0-.38.018-.568.054l-2.79.538a2.987 2.987 0 0 0-.697.225L5.409 2.015a2.994 2.994 0 0 0-.924.669L2.542 4.756a3.018 3.018 0 0 0-.432.591L.727 7.829c-.189.338-.31.71-.357 1.095l-.347 2.821c-.03.243-.03.489 0 .732l.347 2.82c.047.384.169.756.357 1.095l1.384 2.482c.119.214.264.413.432.591l1.943 2.073c.262.28.576.507.924.668l2.577 1.198c.223.104.457.179.698.226l2.791.537a3 3 0 0 0 1.134 0l2.791-.537a3.01 3.01 0 0 0 .698-.225l2.577-1.198c.348-.162.662-.389.924-.669l1.943-2.073c.167-.179.312-.377.431-.591l1.384-2.481c.189-.338.31-.71.357-1.095l.347-2.82a2.98 2.98 0 0 0 0-.731l-.347-2.821a2.997 2.997 0 0 0-.358-1.096l-1.384-2.481a3.007 3.007 0 0 0-.431-.59l-1.943-2.073a3.002 3.002 0 0 0-.925-.669L16.097.82A2.987 2.987 0 0 0 15.4.595L12.609.057A2.792 2.792 0 0 0 12.041 0z" fill="#231f20"/></svg></g><g transform="translate(67.0 118.0) rotate(0.0 82.0 79.5) scale(1.3811689405423615 1.376087238738154)"><svg width="118.74" height="115.545" viewBox="0 0 118.74 115.545"><path d="m84.854 114.781-5.054-8.529-5.224-8.34-4.954-8.499-5.226-8.344-5.024-8.542-5.314 8.417-5.511 8.214-5.248 8.381-5.514 8.218-5.351 8.415 3.57-9.288 3.318-9.303 3.609-9.19 3.319-9.306 3.6-9.272-9.9 1.149-9.867.869-9.832 1.179-9.87.87-9.922 1.118 9.507-3.052 9.36-3.259 9.456-2.962 9.364-3.261 9.513-3.019-7.032-6.984-6.792-7.132-7.012-6.91-6.794-7.134-7.022-7.02 8.284 5.482 8.355 5.238 8.182 5.497 8.357 5.24 8.263 5.506 1.132-9.857 1.398-9.761 1.087-9.797 1.398-9.765L60.629.176l.824 9.887 1.058 9.791.746 9.817 1.058 9.795.79 9.886 8.444-5.309 8.534-5.041 8.369-5.305 8.537-5.043 8.477-5.291-7.258 6.849-7.036 6.971-7.25 6.744-7.039 6.974-7.277 6.821 9.397 3.238 9.245 3.475 9.347 3.181 9.248 3.477 9.404 3.275-9.874-1.348-9.831-1.098-9.788-1.407-9.835-1.099-9.865-1.38 3.275 9.346 2.993 9.375 3.288 9.272 2.995 9.378z" fill="#fff"/><path d="m83.564 115.546-5.054-8.529-5.204-8.309-4.979-8.54-5.201-8.303-3.798-6.457-4 6.336-5.534 8.249-5.222 8.342-5.539 8.257-5.331 8.384-2.666-1.343 3.57-9.287 3.305-9.268 3.626-9.235 3.303-9.262 2.714-6.991-7.429.862-9.908.873L20.43 72.5l-9.917.874-9.886 1.115L0 71.57l9.507-3.052 9.326-3.248 9.5-2.977 9.319-3.246 7.193-2.283-5.275-5.239-6.821-7.161-6.979-6.877-6.828-7.168-6.996-6.993 1.888-2.312 8.284 5.482 8.323 5.218 8.222 5.524 8.318 5.214 6.256 4.169.852-7.42 1.403-9.802 1.082-9.75 1.404-9.812L59.14 0l2.984.052.824 9.887 1.054 9.755.751 9.864 1.054 9.747.597 7.46 6.348-3.991 8.57-5.063 8.328-5.281 8.578-5.068 8.445-5.271 1.824 2.363-7.257 6.848-7.01 6.946-7.284 6.777-7.005 6.941-5.492 5.148 7.044 2.427 9.284 3.49 9.302 3.165 9.293 3.493 9.369 3.262-.696 2.903-9.874-1.348-9.794-1.094-9.835-1.413-9.788-1.092-7.469-1.045 2.461 7.024 3.007 9.414 3.273 9.227 3.01 9.423 3.238 9.339zm-25.46-43.82 2.561.04 5.024 8.542 5.203 8.308 4.979 8.54 3.108 4.962-1.799-5.633-3.273-9.227-3.009-9.42-3.261-9.307 1.624-1.981 9.865 1.38 9.793 1.093 9.835 1.413 5.804.648-5.492-2.064-9.302-3.165-9.29-3.491-9.358-3.224-.537-2.513 7.277-6.821 7.009-6.945 7.284-6.777 4.121-4.083-5.056 2.987-8.328 5.281-8.575 5.066-8.408 5.287-2.294-1.15-.79-9.886-1.054-9.753-.751-9.864-.627-5.8-.838 5.857-1.082 9.75-1.403 9.808-1.126 9.816-2.322 1.077-8.263-5.507-8.322-5.217-8.222-5.524-4.964-3.111 4.063 4.266 6.979 6.877 6.825 7.165 7.003 6.954-.603 2.494-9.513 3.02-9.324 3.247-9.5 2.977-5.492 1.913 5.837-.514 9.784-1.174 9.914-.874 9.859-1.145 1.571 2.033-3.6 9.272-3.305 9.267-3.626 9.235-1.951 5.472 3.286-4.898 5.222-8.342 5.537-8.254z" fill="#231f20"/></svg></g><g transform="translate(435.0 666.0) rotate(0.0 48.5 48.5) scale(1.0115230199697587 1.0115230199697587)"><svg width="95.895" height="95.895" viewBox="0 0 95.895 95.895"><path d="m47.947 1.222.033.278.032.274.033.276.034.282.033.282.034.282.058.266.057.261.058.263.059.269.059.269.059.269.025.271.024.268.024.269.025.274.025.275.025.276.058.266.058.262.058.265.059.269.059.271.06.27.024.272.025.267.024.27.025.275.025.276.025.276.068.26.068.256.067.258.07.264.069.264.07.264.034.266.034.262.035.264.035.269.035.271.035.27.068.26.068.256.068.258.069.264.069.264.07.264.035.267.034.264.035.265.035.27.035.271.036.272.068.26.068.257.068.259.069.264.07.265.069.265.021.268.021.264.021.266.021.271.022.272.021.273.055.262.054.259.055.26.055.266.056.267.056.267.021.268.021.264.021.266.021.271.021.272.022.273.055.263.054.26.055.262.055.266.056.268.056.268.021.269.021.264.021.267.022.272.021.273.022.273.068.26.068.256.068.259.069.263.069.264.07.264.034.267.034.262.035.264.035.27.035.27.035.27.069.26.067.257.068.258.069.264.07.264.069.264.035.267.034.264.035.265.035.27.036.272.035.271.069.261.067.257.068.259.069.264.07.265.07.265.022.27.021.266.022.268.023.274.022.274.023.274.055.265.056.26.055.263.057.268.056.268.057.269.022.27.022.266.022.268.022.274.023.274.022.274.056.266.055.262.056.263.057.269.057.27.056.27.025.275.024.272.025.273.024.279.025.279.025.28.275.024.27.024.273.025.278.024.279.025.278.025.265.056.26.055.262.055.268.057.269.057.268.056.27.022.266.022.268.022.273.022.274.023.274.022.266.056.261.055.264.056.269.057.269.057.27.056.27.023.267.021.268.022.274.023.275.022.275.023.26.068.256.068.258.067.264.07.264.069.264.069.266.035.262.034.264.035.27.035.27.035.27.035.26.068.257.068.258.068.263.069.264.069.264.07.267.035.264.034.265.034.27.036.272.035.271.036.26.068.258.068.258.067.264.07.265.069.265.07.268.021.264.021.266.021.271.021.273.022.272.021.262.055.259.054.261.054.265.056.267.056.267.056.268.021.264.02.266.021.271.022.273.021.272.022.263.055.26.054.262.055.267.055.267.056.268.056.269.021.265.021.266.021.272.022.273.021.273.022.26.068.257.068.258.067.263.07.264.069.265.069.266.035.262.034.264.035.27.035.27.035.27.035.261.069.256.067.258.068.264.069.264.07.264.069.267.035.264.034.265.035.271.035.271.036.271.035.261.068.257.068.259.068.264.069.265.07.265.069.271.025.267.024.269.024.275.025.275.025.276.025.265.058.262.058.263.058.269.059.269.059.27.059.271.024.267.025.27.024.274.025.276.025.275.025.267.058.262.058.265.058.269.059.271.059.271.059.279.033.275.033.276.033.283.033.283.033.283.034-.278.033-.274.032-.276.033-.281.034-.283.033-.282.034-.265.058-.262.057-.263.058-.268.059-.27.059-.269.059-.271.025-.267.024-.269.024-.275.025-.275.025-.275.025-.267.058-.262.058-.264.058-.27.059-.27.059-.271.06-.271.024-.268.025-.27.024-.275.025-.276.025-.276.025-.26.068-.256.068-.258.067-.263.07-.264.069-.264.07-.266.034-.263.034-.264.035-.269.035-.27.035-.271.035-.26.068-.256.068-.258.068-.264.069-.264.069-.264.07-.267.035-.263.034-.265.035-.271.035-.271.035-.271.036-.261.068-.257.068-.259.068-.264.069-.265.07-.264.069-.268.021-.265.021-.266.021-.271.021-.272.022-.272.021-.263.055-.259.054-.26.055-.266.055-.267.056-.266.056-.268.021-.265.021-.265.021-.272.021-.272.021-.272.022-.264.055-.26.054-.261.055-.267.055-.268.056-.268.056-.268.021-.265.021-.267.021-.272.022-.273.021-.272.022-.261.068-.256.068-.258.068-.264.069-.264.069-.264.07-.266.034-.263.034-.264.035-.269.035-.271.035-.27.035-.26.069-.257.067-.258.068-.263.069-.265.07-.264.069-.267.035-.263.034-.266.035-.27.035-.271.036-.272.035-.261.069-.257.067-.259.068-.264.069-.265.07-.265.07-.27.022-.266.021-.268.022-.273.023-.274.022-.275.023-.264.055-.261.056-.262.055-.268.057-.269.056-.269.057-.27.022-.266.022-.268.022-.274.022-.274.023-.274.022-.266.056-.262.055-.263.056-.269.057-.27.057-.269.056-.276.025-.271.024-.273.025-.279.024-.28.025-.28.025-.024.275-.024.27-.024.273-.025.278-.025.279-.025.278-.056.265-.055.26-.055.262-.057.268-.056.269-.057.268-.022.27-.022.266-.022.268-.022.273-.022.274-.023.274-.056.266-.055.261-.056.264-.056.269-.057.269-.057.27-.022.27-.022.267-.022.268-.022.274-.023.275-.022.275-.069.26-.067.256-.068.258-.069.264-.07.264-.069.264-.035.266-.034.262-.034.264-.035.27-.036.27-.035.27-.068.26-.067.257-.068.258-.07.263-.069.264-.069.264-.035.267-.035.264-.034.265-.035.27-.036.272-.035.271-.069.26-.067.258-.068.258-.07.264-.069.265-.07.265-.021.268-.021.264-.02.266-.022.271-.021.273-.022.272-.055.262-.054.259-.054.261-.056.265-.056.267-.055.267-.021.268-.021.264-.021.266-.021.271-.022.273-.021.272-.055.263-.055.26-.054.262-.056.267-.056.267-.056.268-.021.269-.021.265-.021.266-.021.272-.022.273-.021.273-.069.26-.067.257-.068.258-.069.263-.07.264-.069.265-.035.266-.034.262-.034.264-.035.27-.036.27-.035.27-.068.261-.068.256-.068.258-.069.264-.069.264-.07.264-.035.267-.034.264-.034.265-.036.271-.035.271-.036.271-.068.261-.068.257-.068.259-.069.264-.07.265-.069.265-.025.271-.024.267-.024.269-.025.275-.025.275-.025.276-.058.265-.057.262-.058.263-.059.269-.059.269-.06.27-.024.271-.024.267-.025.27-.024.274-.025.276-.025.275-.059.267-.057.262-.058.265-.059.269-.06.271-.059.271-.033.279-.033.275-.032.276-.034.283-.033.283-.034.283-.033-.278-.032-.274-.033-.276-.033-.281-.034-.283-.033-.282-.059-.265-.057-.262-.058-.263-.059-.268-.059-.27-.059-.269-.025-.271-.024-.267-.024-.269-.025-.275-.025-.275-.025-.275-.058-.267-.058-.262-.058-.264-.059-.27-.059-.27-.06-.271-.024-.271-.024-.268-.025-.27-.025-.275-.025-.276-.025-.276-.068-.26-.067-.256-.068-.258-.069-.263-.07-.264-.069-.264-.035-.266-.034-.263-.034-.264-.035-.269-.036-.27-.035-.271-.068-.26-.068-.256-.067-.258-.07-.264-.069-.264-.07-.264-.034-.267-.035-.263-.034-.265-.036-.271-.035-.271-.035-.271-.069-.261-.067-.257-.068-.259-.07-.264-.069-.265-.07-.264-.021-.268-.021-.265-.021-.266-.021-.271-.021-.272-.022-.272-.055-.263-.054-.259-.054-.26-.056-.266-.056-.267-.055-.266-.022-.268-.02-.265-.021-.265-.022-.272-.021-.272-.021-.272-.055-.264-.055-.26-.054-.261-.056-.267-.056-.268-.056-.268-.021-.268-.021-.265-.021-.267-.022-.272-.021-.273-.022-.272-.068-.261-.067-.256-.068-.258-.069-.264-.07-.264-.069-.264-.035-.266-.034-.263-.035-.264-.035-.269-.035-.271-.035-.27-.068-.26-.068-.257-.068-.258-.069-.263-.069-.265-.07-.264-.035-.267-.034-.263-.035-.266-.035-.27-.035-.271-.036-.272-.068-.261-.068-.257-.068-.259-.069-.264-.07-.265-.069-.265-.022-.27-.022-.266-.022-.268-.022-.273-.023-.274-.022-.275-.056-.264-.055-.261-.056-.262-.056-.268-.057-.269-.057-.269-.022-.27-.022-.266-.022-.268-.022-.274-.022-.274-.023-.274-.056-.266-.055-.262-.056-.263-.056-.269-.057-.27-.057-.269-.025-.276-.024-.271-.024-.273-.025-.279-.025-.28-.025-.28-.275-.024-.27-.024-.272-.024-.278-.025-.279-.025-.279-.025-.264-.056-.261-.055-.262-.055-.268-.057-.268-.056-.269-.057-.27-.022-.266-.022-.268-.022-.273-.022-.274-.022-.274-.023-.265-.056-.262-.055-.263-.056-.269-.056-.27-.057-.269-.057-.271-.022-.267-.022-.268-.022-.274-.022-.275-.023-.274-.022-.26-.069-.257-.067-.258-.068-.263-.069-.264-.07-.265-.069-.266-.035-.262-.034-.264-.034-.269-.035-.271-.036-.27-.035-.26-.068-.256-.067-.258-.068-.264-.07-.264-.069-.264-.069-.267-.035-.263-.035-.265-.034-.271-.035-.271-.036-.271-.035-.261-.069-.257-.067-.259-.068-.264-.07-.265-.069-.265-.07-.268-.021-.264-.021-.266-.02-.271-.022-.272-.021-.272-.022-.263-.055-.259-.054-.26-.054-.266-.056-.267-.056-.266-.055-.268-.021-.265-.021-.266-.021-.271-.021-.272-.022-.272-.021-.264-.055-.26-.055-.261-.054-.267-.056-.268-.056-.268-.056-.268-.021-.265-.021-.267-.021-.272-.021-.273-.022-.273-.021-.26-.069-.256-.067-.258-.068-.264-.069-.264-.07-.264-.069-.266-.035-.263-.034-.264-.034-.269-.035-.271-.036-.27-.035-.26-.068-.257-.068-.258-.068-.263-.069-.265-.069-.264-.07-.267-.035-.264-.034-.265-.034-.27-.036-.272-.035-.271-.036-.261-.068-.257-.068-.259-.068-.264-.069-.265-.07-.264-.069-.272-.025-.267-.024-.269-.024-.275-.025-.275-.025-.275-.025-.266-.058-.261-.057-.264-.058-.268-.059-.27-.059-.269-.06-.272-.024-.267-.024-.269-.025-.275-.024-.275-.025-.276-.025-.266-.059-.263-.057-.264-.058-.27-.059-.271-.06-.27-.059-.279-.033-.275-.033-.277-.032-.282-.034-.284-.033-.283-.034.278-.033.274-.032.276-.033.282-.033.282-.034.282-.033.266-.059.261-.057.263-.058.269-.059.269-.059.269-.059.271-.025.268-.024.269-.024.274-.025.275-.025.276-.025.266-.058.262-.058.265-.058.269-.059.271-.059.27-.06.272-.024.267-.024.27-.025.275-.025.276-.025.276-.025.26-.068.256-.067.258-.068.264-.069.264-.07.264-.069.266-.035.262-.034.264-.034.269-.035.271-.036.27-.035.26-.068.256-.068.258-.067.264-.07.264-.069.264-.07.267-.034.264-.035.265-.034.27-.036.271-.035.272-.035.26-.069.257-.067.259-.068.264-.07.265-.069.265-.07.268-.021.264-.021.266-.021.271-.021.272-.021.273-.022.262-.055.259-.054.26-.054.266-.056.267-.056.267-.055.268-.022.264-.02.266-.021.271-.022.272-.021.273-.021.263-.055.26-.055.262-.054.266-.056.268-.056.268-.056.269-.021.264-.021.267-.021.272-.022.273-.021.273-.022.26-.068.256-.067.259-.068.263-.069.264-.07.264-.069.267-.035.262-.034.264-.035.27-.035.27-.035.27-.035.26-.068.257-.068.258-.068.264-.069.264-.069.264-.07.267-.035.264-.034.265-.035.27-.035.272-.035.271-.036.261-.068.257-.068.259-.068.264-.069.265-.07.265-.069.27-.022.266-.022.268-.022.274-.022.274-.023.274-.022.265-.056.26-.055.263-.056.268-.056.268-.057.269-.057.27-.022.266-.022.268-.022.274-.022.274-.022.274-.023.266-.056.262-.055.263-.056.269-.056.27-.057.27-.057.275-.025.272-.024.273-.024.279-.025.279-.025.28-.025.024-.275.024-.27.025-.272.024-.278.025-.279.025-.279.056-.264.055-.261.055-.262.057-.268.057-.268.056-.269.022-.27.022-.266.022-.268.022-.273.023-.274.022-.274.056-.265.055-.262.056-.263.057-.269.057-.27.056-.269.023-.271.021-.267.022-.268.023-.274.022-.275.023-.274.068-.26.068-.257.067-.258.07-.263.069-.264.069-.265.035-.266.034-.262.035-.264.035-.269.035-.271.035-.27.068-.26.068-.256.068-.258.069-.264.069-.264.07-.264.035-.267.034-.263.034-.265.036-.271.035-.271.036-.271.068-.261.068-.257.067-.259.07-.264.069-.265.07-.265.021-.268.021-.264.021-.266.021-.271.022-.272.021-.272.055-.263.054-.259.054-.26.056-.266.056-.267.056-.266.021-.268.02-.265.021-.266.022-.271.021-.272.022-.272.055-.264.054-.26.055-.261.055-.267.056-.268.056-.268.021-.268.021-.265.021-.267.022-.272.021-.273.022-.273.068-.26.068-.256.067-.258.07-.264.069-.264.069-.264.035-.266.034-.263.035-.264.035-.269.035-.271.035-.27.069-.26.067-.257.068-.258.069-.264.07-.264.069-.264.035-.267.034-.264.035-.265.035-.27.036-.272.035-.271.068-.261.068-.257.068-.259.069-.264.07-.265.069-.265.025-.271.024-.267.024-.269.025-.275.025-.275.025-.275.058-.266.058-.261.058-.264.059-.269.059-.269.059-.27.024-.271.025-.267.024-.269.025-.275.025-.275.025-.276.058-.266.058-.263.058-.264.059-.27.059-.271.059-.271.033-.278.033-.275.033-.277.033-.283.033-.283z" fill="#fff"/><path d="m46.459 94.851-6.531-38.884-38.882-6.529-.001-2.979 38.883-6.531 6.529-38.882 2.979-.002 6.531 38.884 38.882 6.529.001 2.979-38.883 6.531-6.529 38.882zm1.356-10.175.132.504 5.143-30.729 1.361-1.361 30.729-5.142-30.729-5.143-1.361-1.361-5.142-30.728-5.143 30.728-1.361 1.361-30.729 5.142 30.728 5.143 1.361 1.361z" fill="#231f20"/></svg></g><g transform="translate(757.0 85.0) rotate(63.94990319846958 19.5 38.0) translate(0.0 0.0) scale(0.9831354458141118 0.9774542461384127)"><svg width="37.635" height="46.038" viewBox="0 0 37.635 46.038"><path d="m23.945 13.388.025-3.65L21.805 6.8l-2.127-2.966-3.477-1.108-3.464-1.146-3.465 1.146-3.477 1.109L3.668 6.8 1.503 9.738l.025 3.65-.025 3.65 2.165 2.939 2.127 2.965 3.477 1.109 3.465 1.146 3.465-1.146 3.476-1.109 2.127-2.966 2.165-2.938z" fill="#fff"/><path d="m12.737 26.777-7.87-2.556L0 17.527l.029-4.149L0 9.25l4.866-6.693L12.737 0l7.871 2.556 4.866 6.693-.028 4.139.028 4.138-4.866 6.693zm-6.012-5.113 6.012 1.953 6.012-1.953 3.718-5.114-.021-3.172.021-3.152-3.718-5.114-6.012-1.952-6.012 1.953-3.718 5.114.022 3.151-.022 3.172z" fill="#231f20"/><path d="M38.172 71.381c-.354-6.497-9.52-6.495-9.873 0 .354 6.497 9.519 6.495 9.873 0z" fill="#fff"/><path d="M33.236 77.753c-3.027 0-6.21-2.16-6.435-6.29V71.3c.225-4.129 3.407-6.29 6.434-6.291 3.027 0 6.21 2.16 6.435 6.29v.163c-.225 4.13-3.407 6.291-6.434 6.291zm-3.435-6.372c.173 2.487 1.951 3.372 3.434 3.372 1.484 0 3.261-.885 3.434-3.372-.173-2.487-1.951-3.372-3.434-3.372-1.484 0-3.262.886-3.434 3.372z" fill="#231f20"/></svg></g><g transform="translate(38.0 410.0) rotate(18.687229118411032 29.0 36.5) scale(0.9896597617991332 0.979813164393858)"><svg width="58.606" height="74.504" viewBox="0 0 58.606 74.504"><path d="M2.414 65.031a32306.161 32306.161 0 0 0 36.537-49.257c.298-.363 10.144-13.85 10.263-13.424 1.742-1.148 4.212-1.14 5.931.06l-.012.016.012-.016-.012.016.012-.016-.012.016c2.154 1.628 2.601 4.843 1.058 7.042-8.166 10.952-19.25 25.979-27.416 36.929a8250.725 8250.725 0 0 1-18.272 24.634c-1.602 2.15-4.861 2.603-7.042 1.058l.012-.016-.013.016.012-.016-.012.016.012-.016C1.308 70.46.879 67.22 2.414 65.031z" fill="#fff"/><path d="M6.404 74.504a6.572 6.572 0 0 1-3.81-1.191l-.008-.05-.01.013c-2.768-2.063-3.404-6.233-1.39-9.106l.024-.034a32303.849 32303.849 0 0 0 36.536-49.255c.126-.161.577-.774 1.243-1.675C46.212 3.425 47.812 1.258 48.738.884c2.234-1.275 5.165-1.171 7.267.296l.013.078.021-.028c2.798 2.115 3.418 6.197 1.382 9.1-4.11 5.512-8.923 12.008-13.737 18.503a8032.353 8032.353 0 0 1-13.706 18.461 8294.384 8294.384 0 0 1-18.272 24.634c-1.252 1.679-3.27 2.576-5.302 2.576zm-2.031-3.607c1.544 1.056 3.833.707 4.927-.762a8473.522 8473.522 0 0 0 18.269-24.628c4.085-5.478 8.895-11.969 13.705-18.46A7960.057 7960.057 0 0 1 54.991 8.572c1.075-1.534.739-3.816-.76-4.949l-.004-.025c-1.209-.804-2.958-.805-4.186.004l-.009-.002c-1.086 1.172-6.736 8.822-8.63 11.388-.737.997-1.227 1.659-1.291 1.737a31546.158 31546.158 0 0 1-36.48 49.183c-1.075 1.552-.733 3.867.738 4.963zm44.6-67.694-.166.584c.533.147.976-.031 1.209-.193z" fill="#231f20"/></svg></g><g transform="translate(997.0 710.0) rotate(0.0 -29.5 37.0) scale(-1.0067228611404975 0.9932352625362396)"><svg width="58.606" height="74.504" viewBox="0 0 58.606 74.504"><path d="M2.414 65.031a32306.161 32306.161 0 0 0 36.537-49.257c.298-.363 10.144-13.85 10.263-13.424 1.742-1.148 4.212-1.14 5.931.06l-.012.016.012-.016-.012.016.012-.016-.012.016c2.154 1.628 2.601 4.843 1.058 7.042-8.166 10.952-19.25 25.979-27.416 36.929a8250.725 8250.725 0 0 1-18.272 24.634c-1.602 2.15-4.861 2.603-7.042 1.058l.012-.016-.013.016.012-.016-.012.016.012-.016C1.308 70.46.879 67.22 2.414 65.031z" fill="#fff"/><path d="M6.404 74.504a6.572 6.572 0 0 1-3.81-1.191l-.008-.05-.01.013c-2.768-2.063-3.404-6.233-1.39-9.106l.024-.034a32303.849 32303.849 0 0 0 36.536-49.255c.126-.161.577-.774 1.243-1.675C46.212 3.425 47.812 1.258 48.738.884c2.234-1.275 5.165-1.171 7.267.296l.013.078.021-.028c2.798 2.115 3.418 6.197 1.382 9.1-4.11 5.512-8.923 12.008-13.737 18.503a8032.353 8032.353 0 0 1-13.706 18.461 8294.384 8294.384 0 0 1-18.272 24.634c-1.252 1.679-3.27 2.576-5.302 2.576zm-2.031-3.607c1.544 1.056 3.833.707 4.927-.762a8473.522 8473.522 0 0 0 18.269-24.628c4.085-5.478 8.895-11.969 13.705-18.46A7960.057 7960.057 0 0 1 54.991 8.572c1.075-1.534.739-3.816-.76-4.949l-.004-.025c-1.209-.804-2.958-.805-4.186.004l-.009-.002c-1.086 1.172-6.736 8.822-8.63 11.388-.737.997-1.227 1.659-1.291 1.737a31546.158 31546.158 0 0 1-36.48 49.183c-1.075 1.552-.733 3.867.738 4.963zm44.6-67.694-.166.584c.533.147.976-.031 1.209-.193z" fill="#231f20"/></svg></g><g transform="translate(356.0 708.0) rotate(0.0 11.5 11.5) scale(0.9550305194535565 0.9496284062758051)"><svg width="24.083" height="24.22" viewBox="0 0 24.083 24.22"><path d="M12.041 22.72c-.095 0-.189-.009-.283-.027l-2.791-.537a1.468 1.468 0 0 1-.349-.113l-2.576-1.198a1.502 1.502 0 0 1-.463-.334l-1.943-2.073a1.527 1.527 0 0 1-.215-.295l-1.385-2.482a1.518 1.518 0 0 1-.18-.549l-.346-2.821a1.486 1.486 0 0 1 0-.365l.346-2.821c.024-.193.085-.379.179-.548l1.384-2.481c.061-.105.133-.204.217-.294L5.58 3.709c.131-.14.287-.253.462-.334l2.576-1.198c.11-.052.228-.09.349-.113l2.791-.537a1.507 1.507 0 0 1 .566 0l2.79.537c.121.023.237.061.349.113l2.577 1.198c.174.081.331.194.463.334l1.943 2.073c.083.089.156.188.216.295l1.384 2.482c.094.169.154.355.179.547l.347 2.821c.015.122.015.245 0 .366l-.347 2.821a1.512 1.512 0 0 1-.179.547l-1.384 2.481a1.575 1.575 0 0 1-.216.295l-1.943 2.073c-.132.14-.288.254-.463.334l-2.577 1.198a1.515 1.515 0 0 1-.349.113l-2.79.537a1.407 1.407 0 0 1-.283.028z" fill="#fff"/><path d="m12.041 3 2.791.538 2.577 1.197 1.943 2.073 1.384 2.481.347 2.821-.347 2.82-1.384 2.481-1.943 2.073-2.577 1.198-2.791.537-2.791-.537-2.577-1.198-1.943-2.073-1.384-2.482L3 12.11l.347-2.82L4.73 6.808l1.943-2.073L9.25 3.537zm0-3c-.19 0-.38.018-.568.054l-2.79.538a2.987 2.987 0 0 0-.697.225L5.409 2.015a2.994 2.994 0 0 0-.924.669L2.542 4.756a3.018 3.018 0 0 0-.432.591L.727 7.829c-.189.338-.31.71-.357 1.095l-.347 2.821c-.03.243-.03.489 0 .732l.347 2.82c.047.384.169.756.357 1.095l1.384 2.482c.119.214.264.413.432.591l1.943 2.073c.262.28.576.507.924.668l2.577 1.198c.223.104.457.179.698.226l2.791.537a3 3 0 0 0 1.134 0l2.791-.537a3.01 3.01 0 0 0 .698-.225l2.577-1.198c.348-.162.662-.389.924-.669l1.943-2.073c.167-.179.312-.377.431-.591l1.384-2.481c.189-.338.31-.71.357-1.095l.347-2.82a2.98 2.98 0 0 0 0-.731l-.347-2.821a2.997 2.997 0 0 0-.358-1.096l-1.384-2.481a3.007 3.007 0 0 0-.431-.59l-1.943-2.073a3.002 3.002 0 0 0-.925-.669L16.097.82A2.987 2.987 0 0 0 15.4.595L12.609.057A2.792 2.792 0 0 0 12.041 0z" fill="#231f20"/></svg></g><g transform="translate(961.0 222.0) rotate(0.0 44.5 43.0) scale(0.7495368030992083 0.7442987580596304)"><svg width="118.74" height="115.545" viewBox="0 0 118.74 115.545"><path d="m84.854 114.781-5.054-8.529-5.224-8.34-4.954-8.499-5.226-8.344-5.024-8.542-5.314 8.417-5.511 8.214-5.248 8.381-5.514 8.218-5.351 8.415 3.57-9.288 3.318-9.303 3.609-9.19 3.319-9.306 3.6-9.272-9.9 1.149-9.867.869-9.832 1.179-9.87.87-9.922 1.118 9.507-3.052 9.36-3.259 9.456-2.962 9.364-3.261 9.513-3.019-7.032-6.984-6.792-7.132-7.012-6.91-6.794-7.134-7.022-7.02 8.284 5.482 8.355 5.238 8.182 5.497 8.357 5.24 8.263 5.506 1.132-9.857 1.398-9.761 1.087-9.797 1.398-9.765L60.629.176l.824 9.887 1.058 9.791.746 9.817 1.058 9.795.79 9.886 8.444-5.309 8.534-5.041 8.369-5.305 8.537-5.043 8.477-5.291-7.258 6.849-7.036 6.971-7.25 6.744-7.039 6.974-7.277 6.821 9.397 3.238 9.245 3.475 9.347 3.181 9.248 3.477 9.404 3.275-9.874-1.348-9.831-1.098-9.788-1.407-9.835-1.099-9.865-1.38 3.275 9.346 2.993 9.375 3.288 9.272 2.995 9.378z" fill="#fff"/><path d="m83.564 115.546-5.054-8.529-5.204-8.309-4.979-8.54-5.201-8.303-3.798-6.457-4 6.336-5.534 8.249-5.222 8.342-5.539 8.257-5.331 8.384-2.666-1.343 3.57-9.287 3.305-9.268 3.626-9.235 3.303-9.262 2.714-6.991-7.429.862-9.908.873L20.43 72.5l-9.917.874-9.886 1.115L0 71.57l9.507-3.052 9.326-3.248 9.5-2.977 9.319-3.246 7.193-2.283-5.275-5.239-6.821-7.161-6.979-6.877-6.828-7.168-6.996-6.993 1.888-2.312 8.284 5.482 8.323 5.218 8.222 5.524 8.318 5.214 6.256 4.169.852-7.42 1.403-9.802 1.082-9.75 1.404-9.812L59.14 0l2.984.052.824 9.887 1.054 9.755.751 9.864 1.054 9.747.597 7.46 6.348-3.991 8.57-5.063 8.328-5.281 8.578-5.068 8.445-5.271 1.824 2.363-7.257 6.848-7.01 6.946-7.284 6.777-7.005 6.941-5.492 5.148 7.044 2.427 9.284 3.49 9.302 3.165 9.293 3.493 9.369 3.262-.696 2.903-9.874-1.348-9.794-1.094-9.835-1.413-9.788-1.092-7.469-1.045 2.461 7.024 3.007 9.414 3.273 9.227 3.01 9.423 3.238 9.339zm-25.46-43.82 2.561.04 5.024 8.542 5.203 8.308 4.979 8.54 3.108 4.962-1.799-5.633-3.273-9.227-3.009-9.42-3.261-9.307 1.624-1.981 9.865 1.38 9.793 1.093 9.835 1.413 5.804.648-5.492-2.064-9.302-3.165-9.29-3.491-9.358-3.224-.537-2.513 7.277-6.821 7.009-6.945 7.284-6.777 4.121-4.083-5.056 2.987-8.328 5.281-8.575 5.066-8.408 5.287-2.294-1.15-.79-9.886-1.054-9.753-.751-9.864-.627-5.8-.838 5.857-1.082 9.75-1.403 9.808-1.126 9.816-2.322 1.077-8.263-5.507-8.322-5.217-8.222-5.524-4.964-3.111 4.063 4.266 6.979 6.877 6.825 7.165 7.003 6.954-.603 2.494-9.513 3.02-9.324 3.247-9.5 2.977-5.492 1.913 5.837-.514 9.784-1.174 9.914-.874 9.859-1.145 1.571 2.033-3.6 9.272-3.305 9.267-3.626 9.235-1.951 5.472 3.286-4.898 5.222-8.342 5.537-8.254z" fill="#231f20"/></svg></g><g transform="translate(1042.0 128.0) rotate(0.0 6.5 6.5) scale(0.9566561189197145 0.9427804771919647)"><svg width="13.589" height="13.789" viewBox="0 0 13.589 13.789"><path d="M6.795 12.289c-.119 0-.237-.014-.354-.042l-1.173-.285a1.511 1.511 0 0 1-.216-.07l-1.116-.459a1.492 1.492 0 0 1-.573-.417l-.781-.92a1.383 1.383 0 0 1-.132-.182l-.636-1.027a1.51 1.51 0 0 1-.221-.677l-.09-1.204a1.66 1.66 0 0 1 0-.223l.09-1.204a1.51 1.51 0 0 1 .221-.677l.635-1.027c.039-.064.083-.125.132-.182l.781-.92a1.5 1.5 0 0 1 .573-.417l1.116-.459c.07-.029.143-.052.216-.07l1.173-.285a1.518 1.518 0 0 1 .709 0l1.173.285c.073.018.146.041.216.07l1.116.459c.222.091.419.234.574.417l.78.92c.048.057.092.117.131.181l.635 1.026c.127.205.202.437.221.677l.09 1.204a1.66 1.66 0 0 1 0 .223l-.09 1.204a1.51 1.51 0 0 1-.221.677l-.635 1.027a1.462 1.462 0 0 1-.131.181l-.78.92a1.503 1.503 0 0 1-.574.417l-1.116.459c-.07.029-.143.052-.216.07l-1.173.285a1.42 1.42 0 0 1-.354.045z" fill="#fff"/><path d="m6.794 3 1.173.285 1.116.458.781.92.635 1.027.09 1.204-.09 1.204-.635 1.027-.781.92-1.116.459-1.173.285-1.173-.285-1.116-.459-.781-.92-.634-1.027L3 6.894l.09-1.204.635-1.026.781-.92 1.116-.459zm0-3c-.237 0-.475.028-.707.084L4.914.369A3.011 3.011 0 0 0 4.48.51L3.364.969a3.006 3.006 0 0 0-1.147.834l-.781.92a3.223 3.223 0 0 0-.263.363L.538 4.112a3.01 3.01 0 0 0-.44 1.355l-.09 1.204a3.018 3.018 0 0 0 0 .446l.09 1.204c.036.48.187.945.44 1.355l.635 1.026c.079.127.167.248.264.362l.781.92c.31.366.704.652 1.147.834l1.116.459c.141.058.286.105.433.141l1.173.285a3.02 3.02 0 0 0 1.416 0l1.173-.285c.148-.036.293-.083.433-.141l1.116-.459a2.988 2.988 0 0 0 1.147-.834l.781-.92c.097-.114.185-.235.264-.362l.635-1.026a3.01 3.01 0 0 0 .44-1.355l.09-1.204a3.018 3.018 0 0 0 0-.446l-.09-1.204a3.002 3.002 0 0 0-.44-1.354l-.635-1.027a3.029 3.029 0 0 0-.264-.363l-.781-.92a2.991 2.991 0 0 0-1.148-.834L9.107.51a3.114 3.114 0 0 0-.432-.141L7.502.084A3.026 3.026 0 0 0 6.794 0z" fill="#231f20"/></svg></g><g transform="translate(260.0 84.0) rotate(0.0 6.5 6.5) scale(0.9566561189197145 0.9427804771919647)"><svg width="13.589" height="13.789" viewBox="0 0 13.589 13.789"><path d="M6.795 12.289c-.119 0-.237-.014-.354-.042l-1.173-.285a1.511 1.511 0 0 1-.216-.07l-1.116-.459a1.492 1.492 0 0 1-.573-.417l-.781-.92a1.383 1.383 0 0 1-.132-.182l-.636-1.027a1.51 1.51 0 0 1-.221-.677l-.09-1.204a1.66 1.66 0 0 1 0-.223l.09-1.204a1.51 1.51 0 0 1 .221-.677l.635-1.027c.039-.064.083-.125.132-.182l.781-.92a1.5 1.5 0 0 1 .573-.417l1.116-.459c.07-.029.143-.052.216-.07l1.173-.285a1.518 1.518 0 0 1 .709 0l1.173.285c.073.018.146.041.216.07l1.116.459c.222.091.419.234.574.417l.78.92c.048.057.092.117.131.181l.635 1.026c.127.205.202.437.221.677l.09 1.204a1.66 1.66 0 0 1 0 .223l-.09 1.204a1.51 1.51 0 0 1-.221.677l-.635 1.027a1.462 1.462 0 0 1-.131.181l-.78.92a1.503 1.503 0 0 1-.574.417l-1.116.459c-.07.029-.143.052-.216.07l-1.173.285a1.42 1.42 0 0 1-.354.045z" fill="#fff"/><path d="m6.794 3 1.173.285 1.116.458.781.92.635 1.027.09 1.204-.09 1.204-.635 1.027-.781.92-1.116.459-1.173.285-1.173-.285-1.116-.459-.781-.92-.634-1.027L3 6.894l.09-1.204.635-1.026.781-.92 1.116-.459zm0-3c-.237 0-.475.028-.707.084L4.914.369A3.011 3.011 0 0 0 4.48.51L3.364.969a3.006 3.006 0 0 0-1.147.834l-.781.92a3.223 3.223 0 0 0-.263.363L.538 4.112a3.01 3.01 0 0 0-.44 1.355l-.09 1.204a3.018 3.018 0 0 0 0 .446l.09 1.204c.036.48.187.945.44 1.355l.635 1.026c.079.127.167.248.264.362l.781.92c.31.366.704.652 1.147.834l1.116.459c.141.058.286.105.433.141l1.173.285a3.02 3.02 0 0 0 1.416 0l1.173-.285c.148-.036.293-.083.433-.141l1.116-.459a2.988 2.988 0 0 0 1.147-.834l.781-.92c.097-.114.185-.235.264-.362l.635-1.026a3.01 3.01 0 0 0 .44-1.355l.09-1.204a3.018 3.018 0 0 0 0-.446l-.09-1.204a3.002 3.002 0 0 0-.44-1.354l-.635-1.027a3.029 3.029 0 0 0-.264-.363l-.781-.92a2.991 2.991 0 0 0-1.148-.834L9.107.51a3.114 3.114 0 0 0-.432-.141L7.502.084A3.026 3.026 0 0 0 6.794 0z" fill="#231f20"/></svg></g><g transform="translate(968.0 107.0) rotate(-90.00000000000001 -29.5 37.0) scale(-1.0067228611404975 0.9932352625362396)"><svg width="58.606" height="74.504" viewBox="0 0 58.606 74.504"><path d="M2.414 65.031a32306.161 32306.161 0 0 0 36.537-49.257c.298-.363 10.144-13.85 10.263-13.424 1.742-1.148 4.212-1.14 5.931.06l-.012.016.012-.016-.012.016.012-.016-.012.016c2.154 1.628 2.601 4.843 1.058 7.042-8.166 10.952-19.25 25.979-27.416 36.929a8250.725 8250.725 0 0 1-18.272 24.634c-1.602 2.15-4.861 2.603-7.042 1.058l.012-.016-.013.016.012-.016-.012.016.012-.016C1.308 70.46.879 67.22 2.414 65.031z" fill="#fff"/><path d="M6.404 74.504a6.572 6.572 0 0 1-3.81-1.191l-.008-.05-.01.013c-2.768-2.063-3.404-6.233-1.39-9.106l.024-.034a32303.849 32303.849 0 0 0 36.536-49.255c.126-.161.577-.774 1.243-1.675C46.212 3.425 47.812 1.258 48.738.884c2.234-1.275 5.165-1.171 7.267.296l.013.078.021-.028c2.798 2.115 3.418 6.197 1.382 9.1-4.11 5.512-8.923 12.008-13.737 18.503a8032.353 8032.353 0 0 1-13.706 18.461 8294.384 8294.384 0 0 1-18.272 24.634c-1.252 1.679-3.27 2.576-5.302 2.576zm-2.031-3.607c1.544 1.056 3.833.707 4.927-.762a8473.522 8473.522 0 0 0 18.269-24.628c4.085-5.478 8.895-11.969 13.705-18.46A7960.057 7960.057 0 0 1 54.991 8.572c1.075-1.534.739-3.816-.76-4.949l-.004-.025c-1.209-.804-2.958-.805-4.186.004l-.009-.002c-1.086 1.172-6.736 8.822-8.63 11.388-.737.997-1.227 1.659-1.291 1.737a31546.158 31546.158 0 0 1-36.48 49.183c-1.075 1.552-.733 3.867.738 4.963zm44.6-67.694-.166.584c.533.147.976-.031 1.209-.193z" fill="#231f20"/></svg></g><g transform="translate(608.0 625.0) rotate(63.94990319846958 19.5 38.0) translate(0.0 62.0) scale(0.9831354458141118 0.9774542461384127)"><svg width="38.652" height="14.323" viewBox="0 63.43 38.652 14.323"><path d="m23.945 13.388.025-3.65L21.805 6.8l-2.127-2.966-3.477-1.108-3.464-1.146-3.465 1.146-3.477 1.109L3.668 6.8 1.503 9.738l.025 3.65-.025 3.65 2.165 2.939 2.127 2.965 3.477 1.109 3.465 1.146 3.465-1.146 3.476-1.109 2.127-2.966 2.165-2.938z" fill="#fff"/><path d="m12.737 26.777-7.87-2.556L0 17.527l.029-4.149L0 9.25l4.866-6.693L12.737 0l7.871 2.556 4.866 6.693-.028 4.139.028 4.138-4.866 6.693zm-6.012-5.113 6.012 1.953 6.012-1.953 3.718-5.114-.021-3.172.021-3.152-3.718-5.114-6.012-1.952-6.012 1.953-3.718 5.114.022 3.151-.022 3.172z" fill="#231f20"/><path d="M38.172 71.381c-.354-6.497-9.52-6.495-9.873 0 .354 6.497 9.519 6.495 9.873 0z" fill="#fff"/><path d="M33.236 77.753c-3.027 0-6.21-2.16-6.435-6.29V71.3c.225-4.129 3.407-6.29 6.434-6.291 3.027 0 6.21 2.16 6.435 6.29v.163c-.225 4.13-3.407 6.291-6.434 6.291zm-3.435-6.372c.173 2.487 1.951 3.372 3.434 3.372 1.484 0 3.261-.885 3.434-3.372-.173-2.487-1.951-3.372-3.434-3.372-1.484 0-3.262.886-3.434 3.372z" fill="#231f20"/></svg></g><g transform="translate(1002.0 381.0) rotate(0.0 6.0 6.0) scale(0.8830671866951211 0.870258902023352)"><svg width="13.589" height="13.789" viewBox="0 0 13.589 13.789"><path d="M6.795 12.289c-.119 0-.237-.014-.354-.042l-1.173-.285a1.511 1.511 0 0 1-.216-.07l-1.116-.459a1.492 1.492 0 0 1-.573-.417l-.781-.92a1.383 1.383 0 0 1-.132-.182l-.636-1.027a1.51 1.51 0 0 1-.221-.677l-.09-1.204a1.66 1.66 0 0 1 0-.223l.09-1.204a1.51 1.51 0 0 1 .221-.677l.635-1.027c.039-.064.083-.125.132-.182l.781-.92a1.5 1.5 0 0 1 .573-.417l1.116-.459c.07-.029.143-.052.216-.07l1.173-.285a1.518 1.518 0 0 1 .709 0l1.173.285c.073.018.146.041.216.07l1.116.459c.222.091.419.234.574.417l.78.92c.048.057.092.117.131.181l.635 1.026c.127.205.202.437.221.677l.09 1.204a1.66 1.66 0 0 1 0 .223l-.09 1.204a1.51 1.51 0 0 1-.221.677l-.635 1.027a1.462 1.462 0 0 1-.131.181l-.78.92a1.503 1.503 0 0 1-.574.417l-1.116.459c-.07.029-.143.052-.216.07l-1.173.285a1.42 1.42 0 0 1-.354.045z" fill="#fff"/><path d="m6.794 3 1.173.285 1.116.458.781.92.635 1.027.09 1.204-.09 1.204-.635 1.027-.781.92-1.116.459-1.173.285-1.173-.285-1.116-.459-.781-.92-.634-1.027L3 6.894l.09-1.204.635-1.026.781-.92 1.116-.459zm0-3c-.237 0-.475.028-.707.084L4.914.369A3.011 3.011 0 0 0 4.48.51L3.364.969a3.006 3.006 0 0 0-1.147.834l-.781.92a3.223 3.223 0 0 0-.263.363L.538 4.112a3.01 3.01 0 0 0-.44 1.355l-.09 1.204a3.018 3.018 0 0 0 0 .446l.09 1.204c.036.48.187.945.44 1.355l.635 1.026c.079.127.167.248.264.362l.781.92c.31.366.704.652 1.147.834l1.116.459c.141.058.286.105.433.141l1.173.285a3.02 3.02 0 0 0 1.416 0l1.173-.285c.148-.036.293-.083.433-.141l1.116-.459a2.988 2.988 0 0 0 1.147-.834l.781-.92c.097-.114.185-.235.264-.362l.635-1.026a3.01 3.01 0 0 0 .44-1.355l.09-1.204a3.018 3.018 0 0 0 0-.446l-.09-1.204a3.002 3.002 0 0 0-.44-1.354l-.635-1.027a3.029 3.029 0 0 0-.264-.363l-.781-.92a2.991 2.991 0 0 0-1.148-.834L9.107.51a3.114 3.114 0 0 0-.432-.141L7.502.084A3.026 3.026 0 0 0 6.794 0z" fill="#231f20"/></svg></g><g transform="translate(86.0 127.0) rotate(0.0 251.0 331.0) scale(1.0596708687612404 1.0609314401102599)"><svg width="473.732" height="623.98" viewBox="0 0 473.732 623.98"><path d="m88.227 414.601 15.166-33.331 37.612-38.605-15.273 63.941z" fill="#231f20"/><path d="M278.328 44.231c-6.552.807-9.846-.547-15.067-4.257l-.423-3.364c.343-.771 1.136-2.277 1.569-3.003l2.713-1.332c2.425-.193 5.732 1.083 8.082 1.566 1.501.464 7.671.337 9.312.353-.136 2.046.04 8.128.1 10.262z" fill="#fff"/><path d="M250.623 33.272c.395-1.514 1.615-6.738 1.704-8.64l2.555-4.559 3.553-3.841 4.75-2.195 5.132-1.015c6.689.826 10.672 2.948 13.918 8.735l-3.477 1.512-5.341.509c-3.715-1.52-10.714-6.03-12.516.017l-.846 9.18c-3.656 3.814-5.209 3.593-10.157 4.147zM123.3 305.513c-5.612 11.333-10.124 28.522-14.152 40.513 6.528.432 23.139 1.622 29.334 3.028 4.011-12.286 11.423-37.852 14.809-50.419-1.479-1.866-14.826-3.153-17.071-3.621l-9.539 5.155zm6.577 163.794c-2.599-15.22-6.948-46.109-8.411-61.393-11.77.272-16.06 5.712-24.56 12.189l-7.088 10.553L86.57 446.5v15.311l3.774 25.223 40.566-8.811zm189.114-197.48c3.343-7.298 3.848-10.825 11.93-14.259 2.468-.288 7.278.082 9.68.719l4.086 2.715 2.908 3.946.742 9.845a30461.7 30461.7 0 0 1-29.346-2.966z" fill="#231f20"/><path d="M465.493 345.219c-4.092-7.661-10.672-19.904-15.896-26.833-10.642 1.954-21.88 9.167-31.085 14.684l-2.1 4.156.277.14-1.168 1.464 4.403 5.307.105.325-.481 7.915c.102.396-4.065 2.869-4.272 3.132-.157.085-2.596 1.85-2.735 1.758l-11.025-.479 6.947 6.559c.631 8.957 1.153 6.871-4.346 13.918l-.293.173-7.53 1.214c-.284.077-13.814-3.866-14.077-3.877 5.716 6.265 5.024 3.937 5.685 12.61l-.095.325-4.266 5.513-.249.167-6.887 1.9c-21.414-5.278-44-17.378-64.001-26.546-6.774-3.776-26.477-.819-34.205.996-19.459-13.319-41.645-27.715-61.266-40.756-17.159-8.817-48.846-19.779-63.105-32.901-10.692 35.931-21.714 76.416-32.357 112.344 4.414 41.423 12.965 87.771 18.236 129.273 77.869-23.777 163.846-44.75 240.527-71.997 31.788-18.277 28.798-15.627 51.346-44.474l.276-10.34 12.139-6.263 11.273-8.251 8.512-11.086 5.033-13.04.465-13.998z" fill="#433F43"/><path d="M212.986 328.755c20.281 13.528 43.175 28.34 63.299 42.099 3.512-.429 10.575-.921 14.109-.98 7.137-1.062 17.262-1.088 24.441-.1-32.531-13.486-69.206-27.868-101.849-41.019z" fill="#231f20"/><path d="m295.058 246.394-3.574-1.053 7.909 2.42z" fill="none"/><path d="M48.905 395.218c4.622-23.042 11.893-54.326 16.515-77.364.576-2.384 6.133-28.159 6.924-29.611l3.762-3.888c19.283 2.957 43.813 7.055 63.182 9.826-.175.17-12.676 7.189-12.761 7.444-5.221 7.549-9.441 19.199-11.626 28.052-1.189 3.53-4.025 12.062-4.998 15.576l.238.347c9.465.735 20.025 2.313 29.503 3.053-11.337 9.744-24.808 24.943-33.647 36.957l-8.007 14.12-4.696 14.25c-14.384 3.188-35.772 5.4-50.314 7.684zm42.804-66.59 3.591-.389.232-.09c.157-.183 6.242-4.4 6.301-4.659l1.485-3.293c.185-.262-.043-7.514.043-7.774l-.043-.201-1.484-3.292c-.06-.259-6.145-4.476-6.302-4.66l-.232-.089c-1.978-.381-5.769-.393-7.74.068-1.777.799-4.813 3.062-6.152 4.477l-.112.155-1.507 3.343c-.18.263.039 7.514-.044 7.774l.043.201 1.507 3.342c.073.161 2.844 2.673 3.01 2.729.258.003 7.129 2.425 7.404 2.358z" fill="#fff"/><path d="M83.69 327.12c-6.117-4.71-4.854-8.256-4.945-15.018l1.764-3.916c1.468-1.597 4.845-4.068 6.824-4.961 2.133-.43 6.333-.436 8.467.004l6.783 4.931 1.777 3.942v8.214l-1.777 3.942-6.783 4.932-4.3.466zm-52.485 69.52 5.567-26.923 5.979-26.934 5.565-26.918 5.981-26.933.769-2.456 1.795-1.865 2.032-1.605 2.532-.534 2.524-.178 13.352 2.262-3.987 4.122-.116.198-1.014 3.386-5.788 25.804-5.366 25.779-5.781 25.8-5.367 25.784-5.842 26.072-19.004 2.924z" fill="#fff"/><path d="M30.158 611.627c-2.377-3.301-4.615-9.369-4.94-13.424-1.154-55.883-3.429-118.371-4.584-174.251 27.061-4.301 58.58-7.287 85.246-13.812l1.47 3.664-10.443 6.299c-.28.069-7.462 12.898-7.652 13.058-.131.254-2.78 14.849-2.831 15.136.142 11.134 1.929 27.081 4.218 37.854l.384.241c10.58-2.108 22.831-4.921 33.344-7.325l1.621 3.547c-.107.112-16.727 12.732-16.793 12.871-15.821 19.809-29.811 50.776-38.388 74.438-.001-.001-8.344 27.038-8.344 27.038-6.039 9.31-14.018 17.012-24.059 21.925zm23.694-145.801c6.412-1.041 8.882-2.876 11.865-8.622.509-1.979.396-5.792.057-7.795l-.059-.184-1.823-3.182c-.145-.112-2.622-3.036-2.808-3.083-1.776-.985-5.396-2.183-7.43-2.349-6.411 1.04-8.882 2.877-11.864 8.622-.509 1.978-.396 5.792-.057 7.794l.059.183 1.822 3.182c.146.113 2.623 3.038 2.81 3.085 1.776.985 5.395 2.183 7.428 2.349z" fill="#fff"/><path d="m49.598 466.006-3.867-1.744c-1.597-1.468-4.068-4.844-4.961-6.824-.427-2.127-.441-6.312 0-8.438l2.109-3.682 2.852-3.142 3.867-1.744 4.155-.862 4.156.862 3.866 1.745 2.852 3.141 2.11 3.682.457 4.219-.457 4.219c-.904 1.972-3.353 5.364-4.961 6.823-1.889 1.07-5.863 2.375-8.023 2.606l-4.155-.861zM16.999 621.07l-4.942-3.497-3.06-5.224-1.395-5.833-1.163-34.646-1.558-34.522-1.162-34.615-1.559-34.517-1.163-34.671 1.09-4.082 3.134-2.85 2.038-.871 14.372-1.924.756 34.764 1.155 34.849.76 34.939 1.156 34.853.756 34.807.48 3.376 2.363 6.523 1.837 2.988.087.101 8.828 7.769-11.071 3.564-5.998.647z" fill="#fff"/><path d="M436.854 224.096c-11.178-6.058-22.905-12.377-34.313-17.962l1.303-3.755c12.648 5.263 53.006 4.47 39.532 24.989l-6.522-3.272z" fill="#231f20"/><path d="M409.427 233.253c-35.959-9.974-85.034-24.605-120.931-34.598 3.186-5.735 18.377-33.396 21.398-38.397 47.494 22.96 99.01 47.686 145.226 72.858l-6.266 11.681zM241.84 71.297c2.324-9.706 5.81-25.878 7.614-35.716 4.189-.524 5.758-.188 8.868-3.48l.153-.304.822-8.919 1.614-2.884c3.749-2.232 8.619.901 12.16 2.241l4.718-.45c.148.007 3.061-1.327 3.204-1.368 3.835 3.684 3.468 10.2 3.338 15.11-5.599.77-11.968-1.39-17.267-1.855l-1.965.965c-.526.586-1.168 1.86-1.376 2.617l.283 2.251c5.115 5.518 13.684 3.882 20.421 4.283.136 6.93.068 20.961-.169 27.791-9.177.372-32.957-.068-42.418-.282z" fill="#fff"/><path d="M217.102 211.589c1.545-14.5 3.384-29.659 5.265-44.136.706-9.534 2.3-16.16 12.529-18.914 11.044.503 25.651 4.717 36.641 6.013 15.25 5.803 11.405 22.57 29.878 24.611l-10.931 19.771c-59.55-14.432-49.065-27.832-69.588 13.696l-3.794-1.041z" fill="#231f20"/><path d="M368.545 394.464c-18.715-7.007-40.459-16.884-58.397-25.708l1.189-1.42c-3.172-31.176-.006-65.844 7.054-96.305 14.505 2.439 30.809 4.975 45.235.882l7.768-.381 7.312 2.396c5.141 5.118 14.638 6.927 21.032 9.876l6.446 5.303 2.482 8.021-4.66 6.778-12.477.7c8.277 3.934 20.274 8.103 26.735 14.894l1.967 5.001.181 5.423-3.378 4.251-5.312.963-4.438-1.154c9.181 3.205 7.721 2.538 13.78 9.96l-.562 9.199-7.515 5.144-8.834-.384 5.438 5.134.202 8.554-5.242 6.743-8.422 1.357c-2.161-.606-9.21-2.352-10.95-3.713l3.057 3.877.712 8.012-4.919 6.355c-8.228 2.442-7.198 2.44-15.484.242z" fill="#fff"/><path d="M420.264 325.473c-1.972-10.842-15.952-13.731-24.439-18.265l.694-3.827c1.993-.199 5.95-.173 7.895-.529 12.268-12.542-8.764-21.112-19.01-23.493-3.658-3.165-8.4-5.77-13.148-6.803-7.769-.157-15.763 2.724-23.566 2.609 1.923-9.217-4.888-17.153-14.101-17.747l.089-.277c-39.569-11.682-79.792-24.107-118.737-37.125 6.071-8.259 14.957-40.265 26.453-36.132 69.398 20.359 140.963 40.35 210.361 60.708 13.514 4.996.705 20.195-2.637 28.337-8.327 17.529-17.627 35.913-26.069 53.377-.944-.205-2.843-.625-3.785-.833z" fill="#fff"/><path d="M280.669 356.569c-27.394-11.275-64.907-26.496-91.666-39.222l-29.86-14.897-22.921-21.55-7.487-30.679c.869-43.629 12.31-94.695 26.954-135.865 4.306-4.278 24.975-35.691 40.141-36.786 33.308-12.257 82.876-5.142 117.716-7.419l13.385 1.766 12.388 5.502 10.449 8.615 9.044 10.058 8.064 12.98c-2.013 6.875-6.417 20.136-8.899 26.696 16.589 12.433 40.312 27.87 57.819 38.94l20.241 10.994 22.861 6.45c-4.59 7.67-10.392 16.671-15.452 24.034l-2.614-2.986-.187-.126c-12.281-3.872-27.415-7.097-39.995-10.164l-12.029-2.96c-21.408-10.821-56.754-28.125-78.321-38.391-2.443 4.13-8.016 14.193-10.38 18.501-12.817-1.266-16.249-11.326-22.497-20.535-.229-.067-7.063-4.012-7.303-4.026-3.98-.45-27.067-4.912-31.515-5.729-5.656-1.209-11.554 2.483-15.026 6.761.048 1.346-.402 3.772-.969 4.987-1.728 18.745-4.747 39.051-6.29 57.806 38.134 13.348 79.472 24.822 118.011 37.398-7.738 1.879-12.478 4.354-14.294 12.834l-.147-.041c-7.814 31.345-10.681 67.103-7.445 99.279z" fill="#fff"/><path d="M470.108 19.657c-.327-1.281-1.484-3.706-2.169-4.841-1.613-1.377-4.501-2.845-6.566-3.262l-2.943.359-2.26 1.476.29-.846-1.823-4.763c-3.161-2.583-6.594-4.215-10.597-2.578l-2.146 1.477-2.642-3.55-6.627-2.152-4.785.631-3.765 2.435-3.608-1.695-7.097 1.081c-7.269 7.375-9.231 16.122-11.35 25.816l-4.376-1.333-4.688.903c-8.239 6.889-8.198 22.725-11.824 32.438-7.744 24.05-15.806 51.144-24.342 74.896 23.257 16.937 51.667 36.385 77.242 49.606 7.321-10.223 13.906-22.796 18.131-34.657l.131.052c10.591-40.965 15.909-89.603 17.814-131.493z" fill="#fff"/><g fill="#231f20"><path d="m348.177 163.707-2.791-1.101 5.983-15.167 3.099-7.567 2.599-7.637 2.869-7.679 4.963-15.862 5.327-15.867 4.843-15.932 5.105-15.922 4.195-16.07 1.065-4.378.998-4.404.144-.382 2.153-3.975.251-.339 3.156-3.203.785-.42 4.412-.851.721.038 8.632 2.631.942.844 3.567 8.332.12.548.256 9.21-.019.286-1.503 9.114-1.507 8.071 4.161 2.691.341.302 3.861 4.656.259.456 2.077 5.896 1.356 6.204.211 6.075-2.998.105-.206-5.938-1.271-5.705-1.908-5.384-3.544-4.273-4.813-3.112-.66-1.535 1.686-9.028 1.475-8.941-.245-8.78-3.18-7.428-7.609-2.319-3.589.692-2.68 2.72-1.954 3.607-.958 4.226-1.076 4.425-4.225 16.174-5.121 15.978-4.849 15.952-5.331 15.878-4.979 15.91-2.881 7.715-2.616 7.68-3.123 7.634z"/><path d="m428.005 44.539-2.895-.784.793-2.931.356-3.172.632-2.979.169-3.174.425-3.044.119-5.922.315-5.892-.84-5.519-2.395-4.585-4.518-2.121-5.738.873-3.988 4.845-3.008 6.033-1.841 6.668-1.614 6.82-2.919-.691 1.627-6.874 1.998-7.132 3.332-6.599 4.461-5.42.933-.529 6.757-1.028.863.125 5.387 2.529.693.663 2.745 5.255.153.469.916 6.224-.322 5.997-.133 6.137-.428 3.068-.19 3.33-.641 3.023-.38 3.293z"/><path d="m440.719 45.461-2.943-.583.984-4.972 1.695-9.879 1.003-9.928-.122-8.574-1.136-3.772-2.173-2.92-5.589-1.814-3.89.512-3.562 2.302-1.629-2.519 3.846-2.486.618-.227L432.383 0l.659.06 6.366 2.067.74.532 2.616 3.514.232.463 1.273 4.225.064.411.126 8.87-.008.172-1.03 10.169-1.711 9.968zM140.545 538.494l-1.908-1.233-3.595-25.906-3.96-25.772-3.57-25.87-3.959-25.765-3.573-25.828 1.158-1.67 33.207-7.434 33.232-7.654 33.01-8.452 33.101-8.281 33.381-8.044 10.044-.909 4.928.259 5.059.12 4.888.675-.41 2.972-4.802-.663-4.847-.106-4.864-.255-9.616.885-33.045 7.979-33.081 8.276-33.037 8.459-33.277 7.665-31.868 7.134 3.38 24.438 3.959 25.766 3.57 25.87 3.96 25.77 3.36 24.207 39.846-11.664 41.54-11.806 41.406-12.195 41.534-11.832 41.381-12.243 32.305-11.505 29.257-17.403 20.961-25.982.881-32.995-15.449-30.274 2.672-1.363 15.622 30.613.164.722-.904 33.884-.332.902-21.449 26.586-.401.347-29.878 17.74-32.52 11.579-41.473 12.273-41.536 11.833-41.407 12.194-41.542 11.807zm77.187-322.553-2.988-.26 1.204-13.859 1.884-13.853 1.608-13.784 1.877-13.76.903-13.729-.367-6.489-1.841-6.347-2.082-6.293-5.784-12.149 2.71-1.287 5.893 12.404 2.128 6.436 1.962 6.896.382 6.751-.001.183-.923 13.978-1.881 13.783-1.608 13.783-1.879 13.809z"/><path d="m311.834 369.619-.121-1.293-.422 1.097-31.015-11.934-30.751-12.691-30.697-12.753-30.288-13.811-29.779-14.857-.357-.25-22.758-21.398-.43-.737-7.435-30.461-.04-.45 2.006-31.705 4.888-31.273 6.826-31.152 11.107-35.064a37.973 37.973 0 0 1 6.899-12.703l15.364-18.678c5.198-6.319 12.137-10.722 20.068-12.733l25.683-6.513a38.147 38.147 0 0 1 10.053-1.164l39 .699 43.857-.642.218.013 13.279 1.751.413.116 12.258 5.445.345.214 10.528 8.702 9.149 10.209 7.92 12.748-2.548 1.583-7.85-12.635-8.827-9.816-10.123-8.347-11.874-5.273-12.955-1.708-43.797.641-39.049-.699a35.278 35.278 0 0 0-9.262 1.072l-25.683 6.513a34.883 34.883 0 0 0-18.488 11.731l-15.364 18.678a34.97 34.97 0 0 0-6.356 11.703l-11.087 34.999-6.759 30.864-4.861 31.116-1.972 31.271 7.275 29.807 22.273 20.942 29.534 14.736 30.194 13.768 30.646 12.731 30.714 12.676 28.837 11.095-1.171-16.358.256-18.693 1.069-18.857 2.644-18.507 3.442-18.441.737-3.193 1.293-4.698 2.893.797-1.278 4.638-.709 3.07-3.418 18.315-2.624 18.38-1.05 18.602-.252 18.565 1.336 18.583-1.357 1.601z"/><path d="m335.358 258.68-20.195-5.948-20.105-6.338-20.165-5.939-20.101-6.338-20.387-6.023-9.9-4.704-10.447-2.561-10.561-.154-9.52 4.095-7.213 7.86-2.21-2.028 7.43-8.097.512-.364 10.11-4.349.615-.122 11.386.205 11.047 2.74 9.932 4.719 20.081 5.914 20.101 6.337 20.165 5.939 20.105 6.339 20.167 5.939zm40.579 138.616-7.783-1.91-14.393-5.547-14.159-6.329-14.12-6.183-13.829-6.726-5.206-1.628.896-2.863 5.521 1.744 13.875 6.75 14.077 6.162 14.097 6.304 14.23 5.482 7.126 1.737 6.588-1.818 4.031-5.208-.589-6.637-4.116-5.22 2.355-1.857 4.393 5.57.316.797.681 7.668-.308 1.051-4.697 6.068-.787.528-7.445 2.054z"/><path d="m396.398 380.661-.642-.036-8.29-2.343-5.222-2.693-5.444-2.208-5.396-2.42-5.576-1.779-5.734-1.514.768-2.901 5.806 1.536 5.887 1.886 5.423 2.433 5.581 2.27 5.145 2.653 7.541 2.102 7.212-1.163 4.321-5.558-.166-7.008-5.348-5.047-5.108-2.759 1.426-2.639 5.281 2.851.317.229 5.947 5.614.47 1.055.193 8.168-.316.956-5.011 6.446-.946.56z"/><path d="m412.779 359.279-8.898-.386-.526-.12-8.269-3.54-5.041-1.827-4.809-2.161-5.066-1.838-4.816-2.164-4.967-1.798 1.022-2.82 5.123 1.859 4.816 2.163 5.066 1.839 4.809 2.161 4.964 1.796 8.097 3.465 8.125.353 6.158-4.216.452-7.432-4.931-5.944-7.443-2.784-7.774-3.158 1.129-2.779 7.735 3.142 7.777 2.909.629.447 5.566 6.708.342 1.049-.532 8.757-.65 1.147-7.176 4.912z"/><path d="m412.01 336.104-.645-.024-7.312-1.902-7.428-2.067-7.096-2.622-7.126-2.364-7.085-2.695 1.067-2.803 7.024 2.673 7.112 2.358 7.086 2.618 7.225 2.005 6.968 1.812 4.137-.751 2.453-3.085-.146-4.344-1.673-4.255-3.414-3.164-9.403-5.264-10.057-4.426-10.067-4.632-10.183-4.107-10.199-4.226 1.148-2.771 10.187 4.22 10.235 4.13 10.11 4.65 10.229 4.509 9.909 5.595 3.795 3.518.376.551 1.894 4.814.103.499.172 5.154-.324.983-3.147 3.96-.907.542z"/><path d="m389.58 305.718-.17-2.995 13.504-.757 3.555-5.171-2.019-6.524-5.747-4.727-7.282-2.946-7.236-2.26-.441-.223-5.965-4.386-6.657-2.182-7.223.355-7.579 1.721-7.562.473-7.64-.074-7.432-.864-7.534-.729-7.309-1.289-1.21-1.773.974-4.839.161-.435 2.674-4.688 3.465-3.611.63-.392 4.767-1.506.425-.069 5.012-.09.498.076 4.878 1.653 4.116 2.483.49.478 2.58 4.047.167.359 1.435 4.591.066.528-.165 3.075 6.203-.391 7.61-1.724 7.633-.375.541.073 7.149 2.343.421.217 5.956 4.379 7.171 2.245 7.552 3.055.39.232 6.272 5.158.48.715 2.366 7.647-.197 1.293-4.384 6.377-1.153.648zm-48.196-32.684 5.415.046.162-3.018-1.295-4.143-2.284-3.583-3.67-2.215-4.172-1.38-4.539.082-4.194 1.325-3.066 3.196-2.238 4.008-.625 3.102 5.738 1.012 7.387.71z"/><path d="m417.341 339.822-2.677-1.353 8.989-17.794 7.763-16.253 8.152-16.136 7.764-16.256 8.067-15.969.537-2.462v-2.339l-1.093-2.071-1.502-1.794-2.246-.909-41.937-12.269-42.108-11.903-42.022-12.294-42.113-11.904-41.862-12.247-2.014-.111-1.845.082-1.626.876-1.532 1.033-.965 1.66-3.356 6.053-2.975 6.183-3.412 6.158-2.98 6.193-3.214 6.143-2.822-.837 1.097-11.554 1.495-11.608 1.086-11.548 1.496-11.614 1.155-11.88 1.576-4.691 2.423-3.9.422-.442 4.092-2.776 4.286-1.646.606-.098 4.794.235 25.413 4.779 6.35.992.497.171 7.502 4.172.518.477 2.454 3.671 6.023 9.874 3.836 3.384 2.223 1.008 6.006 1.613-.778 2.898-6.355-1.728-2.537-1.15-.369-.238-4.186-3.693-.283-.34-6.108-10.014-2.219-3.316-6.951-3.867-6.132-.958-25.356-4.767-4.166-.192-3.825 1.469-3.373 2.331-2.163 3.48-1.317 4.034-1.077 11.441-1.496 11.613-1.086 11.548-1.495 11.609-.363 3.822 2.638-5.478 3.411-6.158 2.975-6.183 4.565-8.141.458-.489 2.005-1.344 1.994-1.074.644-.178 2.263-.101.151.001 2.599.184 42.015 12.291 42.113 11.904 42.022 12.294 42.108 11.903 42.164 12.343 2.663 1.078.587.428 2.02 2.465 1.341 2.54.173.7-.034 3.193-.739 3.163-8.138 16.109-7.765 16.255-8.151 16.137-7.764 16.253zM308.576 161.84l-1.083-9.175-.473-2.294-1.026-7.26.033-7.027.289-7.29 1.288-6.908 1.576-7.091 1.297-3.638 2.826 1.007-1.265 3.549-1.495 6.771-1.258 6.751-.259 6.912-.031 6.867.979 6.841.491 2.395 1.09 9.238zM22.955 623.98l-.638-.069-5.567-1.868-.39-.198-4.794-3.393-.428-.466-2.968-5.068-.165-.409L6.6 606.5l-1.161-34.578-1.56-34.545-1.159-34.592-1.56-34.542L0 433.653l.05-.437 1.032-3.868.44-.723 2.963-2.695.42-.27 1.898-.811.39-.107 20.239-2.709 20.153-3.101 20.265-2.713 20.1-3.093 34.152-7.64.856 2.868-5.836 2.198-6.898 2.687-12.688 7.653-7.372 12.696-2.738 14.722.728 15.193 2.042 15.127.529 1.835.097 1.499.513 1.783.103 1.547 6.779-1.321 8.022-1.967 8.243-1.606 8.019-1.966 8.106-1.68 1.215 2.66-21.846 16.704-15.752 22.88-12.125 25.239-10.368 26.073-8.284 26.866-.222.443-5.168 7.062-6.015 6.511-7.074 5.111-7.725 4.36-8.449 2.688zm-5.041-4.711 5.046 1.694 5.359-.578 7.856-2.529 7.236-4.119 6.748-4.885 5.629-6.136 4.865-6.662 8.267-26.796 10.452-26.271 12.314-25.592 15.954-23.172.324-.341 16.812-12.855-1.615.334-8.036 1.97-8.243 1.606-8.022 1.967-8.229 1.604-1.737-1.09-.448-1.807-.095-1.492-.513-1.782-.097-1.5-.502-1.681-2.079-15.446-.74-15.432.023-.346 2.818-15.148.177-.479 7.695-13.252.522-.531 10.659-6.43-17.86 3.992-20.178 3.105-20.265 2.713-20.153 3.101-20.065 2.686-1.478.631-2.45 2.228-.86 3.227 1.152 34.351 1.56 34.542 1.161 34.591 1.56 34.545 1.156 34.445 1.278 5.346 2.691 4.596z"/><path d="m122.712 411.286-2.877-.85 6.705-22.697 6.315-22.782 6.712-22.717 6.313-22.778 6.711-22.717 2.877.85-6.705 22.693-6.313 22.777-6.712 22.718-6.314 22.782z"/><path d="m27.183 423.984-2.928-.65 5.969-26.889 5.574-26.951 5.972-26.907 5.573-26.946 6.006-27.029.728-2.323.35-.591 1.841-1.893 1.912-1.511.62-.291 2.588-.531 2.431-.171.356.017 17.977 3.047 18.007 2.647 18.006 3.053 18.004 2.646 17.999 3.051-.501 2.958-17.967-3.046-18.004-2.646-18.006-3.052-18.007-2.648-17.832-3.022-2.149.151-1.938.409-1.556 1.23-1.374 1.427-.604 1.926-5.954 26.821-5.573 26.946-5.972 26.906-5.574 26.952z"/><path d="m45.081 421.429-2.927-.655 5.77-25.752 5.374-25.814 5.774-25.771 5.374-25.809 5.801-25.872 1.104-3.684.359-.612 3.493-3.611 2.157 2.086-3.24 3.348-.984 3.283-5.758 25.696-5.373 25.809-5.774 25.77-5.375 25.815zm49.353-7.714-2.852-.933 4.569-13.866 8.179-14.423 10.102-12.88 11.014-12.414 9.55-8.937-2.591-.222-5.848-.826-5.906-.433-5.808-.822-5.809-.436-1.323-1.928 2.008-6.668 3.259-9.805 2.888-10.005 3.848-9.849 5.218-8.879.543-.539 8.814-5.092.696-.2 10.261-.372.287.017 7.088 1.123 1.697.47-.8 2.891-1.614-.446-6.694-1.052-9.744.353-8.148 4.708-4.957 8.434-3.673 9.456-2.845 9.871-3.264 9.821-1.457 4.84 4.045.306 5.853.826 5.907.433 5.817.823 5.865.5.897 2.59-11.959 11.192-10.813 12.192-9.974 12.721-7.924 14.008zM453.905 47.398l-2.967-.44 4.361-29.426-.776-4.455-1.527-3.988-3.411-2.281-1.409-.386-1.676.298-1.654.354-1.438.988-1.699-2.472 1.683-1.157.536-.23 1.996-.427 2.06-.366.657.03 1.97.538.438.2 4.011 2.682.567.71 1.826 4.849.843 4.837.006.477z"/><path d="m437.161 185.525-2.473-1.699 4.001-5.821 3.451-6.159 3.563-6.109 2.886-6.336 4.351-13.511c.189-.771 2.583-10.677 5.632-28.285 3.163-18.271 10.019-87.925 10.087-88.627l.403-3.912.066-3.664-1.156-3.311-1.927-2.76-3.17-1.505-1.059-.388-1.294.119-1.194.029-1.159.584-1.413.599-1.172-2.762 1.366-.579 1.323-.671.643-.162 1.481-.036 1.475-.14.658.085 1.569.582 3.592 1.705.587.496 2.272 3.255.186.364 1.312 3.759.084.521-.08 4.123-.409 3.968c-.068.695-6.935 70.46-10.116 88.838-3.182 18.377-5.664 28.444-5.688 28.543l-.028.099-4.456 13.806-3.023 6.618-3.588 6.151-3.543 6.313zM285.28 70.739l-2.999-.073.2-8.279V45.872l-.2-8.239.151-6.342-.147-1.848-.542-4.593-5.466-7.518-4.088-1.889-4.511-.892-4.51.892-4.173 1.928-3.123 3.376-2.247 4.01-.298 2.458-.725 3.117-.651 2.8-1.737 9.224-3.896 18.511-2.146 9.228-2.922-.68 2.14-9.197 3.882-18.449 1.744-9.255 1.369-5.891.296-2.515.181-.557 2.688-4.711 3.445-3.725.472-.343 4.944-2.238 4.977-.984h.582l5.316 1.094 4.605 2.128.584.479 5.926 8.15.276.707.594 5.039.163 2.137-.153 6.347.2 8.203v16.588z"/><path d="m250.081 37.519-.365-2.977 3.879-.477 1.527-.459 2.377-2.111.792-8.603.185-.596 1.467-2.618.858-.698 2.913-.916.846-.016 3.798 1.058 4.754 2.121 4.502-.429 3.22-1.401 1.197 2.751-3.439 1.496-.456.118-5.132.489-.753-.124-5.01-2.234-3.048-.835-1.924.605-1.02 1.821-.817 8.876-.498.984-3.067 2.725-.564.315-2.216.643zm26.07 8.243-3.972-.13-3.58-.771-.486-.199-5.347-3.38-.687-1.081-.375-2.984.139-.842.667-1.375.79-1.412.647-.612 2.46-1.207.719-.153 2.553.099.426.079 1.607.548 3.584.867 2.159.32h6.199v3l-6.528-.017-2.469-.371-3.849-.937-1.464-.499-1.955-.076-1.701.835-.521.926-.431.893.231 1.841 4.524 2.86 3.183.686 3.456.091 1.975-.197 5.602.2-.107 2.998-5.495-.196z"/><path d="m274.934 31.403-1.445-2.782-1.513-.386-1.968.014-1.055 1.138-.739.878-2.292-1.936.786-.93 1.542-1.665 1.088-.48 2.81-.021.382.047 2.352.601.959.762 1.755 3.377zM37.163 619.125l-7.613-6.701-.278-.328-2.026-3.294-2.503-6.909-.526-3.7-.757-34.904-1.158-34.875-.758-34.917-1.158-34.872-.758-34.915 2.999-.065.758 34.898 1.157 34.872.758 34.916 1.158 34.876.757 34.829.474 3.272 2.319 6.313 1.69 2.697 7.447 6.554zm412.86-374.392-2.638-1.429 5.038-9.391-7.838-4.318-9.231-4.633-9.14-5.036-9.227-4.63-9.141-5.037-19.699-9.428-19.622-9.838-39.353-19.283-18.469-8.848-3.454 6.007-16.261 29.411-2.625-1.452 16.273-29.432 4.16-7.236 1.948-.605 19.736 9.456 39.378 19.294 19.609 9.832 19.751 9.455 9.166 5.05 9.227 4.63 9.14 5.036 9.23 4.632 9.127 5.027.63 1.959-1.012 2.123zm8.965-50.001-23.71-7.164-20.502-11.136-19.555-12.54-19.401-12.809-18.895-13.606 1.753-2.434 18.845 13.571 19.335 12.764 19.491 12.499 20.225 10.981 22.128 6.655 2.877-5.113-3.088-5.48-4.467-5.406-5.124-5.359-2.642-3.907 2.486-1.68 2.569 3.8 4.987 5.191 4.739 5.773 3.568 6.331.001 1.472-3.88 6.897z"/><path d="m443.107 227.598-2.361-1.852.431-.548 1.271-2.743.472-2.452-.061-2.305-1.141-2.008-1.537-1.72-2.259-.819-9.304-2.504-9.401-2.117-9.418-2.534-9.398-2.117-11.964-2.944.717-2.913 11.935 2.938 9.429 2.124 9.419 2.534 9.401 2.117 9.546 2.574 2.675.97.607.41 2.081 2.38 1.405 2.473.195.701.076 2.843-.026.323-.65 3.141-1.602 3.362zM54.058 467.826h-.609l-4.312-.931-3.723-1.678-.494-.359-2.936-3.287-2.031-3.544-.19-.584-.439-4.384.439-4.061.189-.584 2.221-3.806 2.745-3.024.495-.359 4.035-1.78 4-.83h.609l4.312.931 3.723 1.678.494.359 2.936 3.287 2.031 3.544.19.584.439 4.384-.439 4.061-.189.584-2.221 3.806-2.745 3.025-.495.359-4.035 1.78zm-3.838-3.734 3.533.733 3.533-.733 3.289-1.482 2.426-2.673 1.793-3.13.388-3.588-.388-3.588-1.793-3.13-2.426-2.672-3.289-1.482-3.533-.733-3.533.733-3.289 1.482-2.426 2.672-1.793 3.13-.388 3.588.388 3.588 1.793 3.13 2.426 2.673zm41.495-133.453-.625-.064-7.605-2.47-.545-.316-3.024-2.745-.359-.494-1.679-3.723-.132-.616v-7.999l.132-.616 1.678-3.724.359-.494 3.287-2.936 3.544-2.03.584-.19 4.385-.44 4.061.44.721.278 6.568 4.776.485.597 1.679 3.723.132.616v7.999l-.132.616-1.679 3.723-.486.597-6.568 4.775-.72.278zm-6.998-5.288 6.994 2.271 3.345-.362 5.923-4.306 1.383-3.067v-7.354l-1.383-3.067-5.923-4.307-3.502-.379-3.588.388-3.13 1.793-2.672 2.426-1.417 3.145v7.354l1.418 3.145z"/><path d="m445.618 218.08-2.541-1.594 5.119-8.157 3.192-5.327 3.595-5.214 3.151-5.263 3.859-6.861 2.615 1.471-3.88 6.897-3.224 5.379-3.595 5.214-3.156 5.272z"/><path d="M443.378 172.558c-1.672 3.187-5.447 9.571-7.618 12.4l.575.312 23.602 6.617 3.284-4.655-2.067-6.571c-3.694-4.576-9.184-11.141-14.021-14.538zm-24.071 167.703 3.992-7.27c3.515-2.524 11.242-6.315 15.329-7.755l7.795-3.168 6.549-.413c-2.427-4.402-6.427-10.034-9.947-13.607-1.457-2.038-4.624-5.955-6.319-7.799-2.18 3.594-6.234 10.988-8.096 14.756-1.669 4.417-5.959 12.769-8.752 16.566l-8.135 3.569z"/><path d="m432.459 411.551-1.376-2.666 12.217-6.304 10.916-7.991 8.162-10.63 4.809-12.455.441-13.341-3.638-12.518-6.334-11.738-6.933-11.42-7.931-10.843-8.24-10.633 2.372-1.837 8.264 10.666 8.066 11.035 7.004 11.542 6.569 12.238 3.748 12.9.058.468-.457 13.834-.099.49-4.979 12.894-.209.373-8.424 10.973-.304.297-11.382 8.308z"/></g></svg></g><g transform="translate(543.0 153.0) rotate(0.0 268.0 306.0) scale(1.057912832719507 1.0581717834690052)"><svg width="506.658" height="578.356" viewBox="0 0 506.658 578.356"><path d="m135.452 485.067-5.985-22.544 81.361-141.368 64.381-5.209s67.849 48.17 69.81 54.41 22.766 45.246 20.681 52.742-32.165 58.788-38.601 64.209-73.574 38.365-73.574 38.365-28.773 11.272-39.199 5.01c-10.425-6.263-78.874-45.615-78.874-45.615z" fill="#fff"/><path d="M357.68 447.619c-11.512-15.95-28.377-34.192-47.24-45.188 4.834 16.648 11.95 41.624 16.948 58.294l-1.229 1.899c-19.253 2.629-46.9 7.011-66.13 9.238-3.796 11.765-11.478 24.052-21.865 31.038l-1.844-2.366 6.317-4.923 5.059-6.142c.719-.322 8.099-16.304 8.647-17.305-36.354 4.055-84.385 11.649-120.889 12.903l5.789 20.738 9.569 20.457 12.52 18.72 16.459 15.23 19.646 10.648c47.063 9.382 39.544 9.523 86.434-.697 0 .002 36.474-24.946 36.474-24.946l29.495-33.328 23.569-36.831c-2.878-5.042-14.108-22.525-17.729-27.439z" fill="#231f20"/><path d="M311.131 415.52c-5.943-20.038-13.598-46.987-18.311-67.227-22.395 3.403-56.868 9.194-78.891 14.175l-.316-1.336.951-1.786c19.486-4.251 61.479-11.648 81.419-14.843 8.454 1.724 57.823-9.147 67.04-10.683-9.709-2.321-33.785-8.365-42.395-13.03 2.652-3.955 8.86-12.411 11.77-16.275l.291-5.852c-27.633 19.181-64.347 35.535-95.759 47.248-39.812 16.928-86.618 32.24-126.405 49.15l-10.841-2.732c-12.818-17.133-28.544-41.899-41.539-58.93-3.29 4.713-12.445 17.489-14.821 22.466l-5.676 13.764c-1.775 7.242-4.411 21.968-5.25 29.376l4.092 43.424 28.776 31.327 42.779 9.157c22.315.189 66.66-3.15 88.689-6.653 41.271-4 86.273-10.42 127.293-16.363-3.256-10.987-9.982-33.257-12.896-44.377zM61.248 175.669c-3.117-3.557-10.357-11.625-13.713-14.804-3.012 7.77-7.526 17.994-1.646 25.503zm96.646 89.885.193-4.81 2.772-5.307 8.578-2.148 7.205 4.355 5.955 7.102 2.291 7.757c-7.614-1.041-18.857-1.284-26.482-1.958z" fill="#231f20"/><path d="M118.555 108.912c-13.45-25.965-27.349-56.184-35.065-84.405L81.339 17.5l-2.771-4.209-2.982-1.442-3.241-.332-3.568.817-1.374-2.799-4.908-2.333-4.183.392-2.597 2.422c.085-1.043-2.381-5.98-2.807-6.98L47.382.493l-4.87.457-3.41 2.225-1.033 2.732-2.923-3.398L29.064.656l-4.167 1.066-5.308 6.085c-2 7.303-1.81 21.399-2.645 28.891l1.516.143-.196.936c-.494-.159-2.634-.887-3.103-.962L6.35 39.399 1.369 46.53C.32 56.69 6.351 71.375 9.495 80.862c2.654 8.522 2.561 22.59 4.253 31.297 1.561 9.949 13.118 21.94 19.384 29.508 7.161 10.434 18.461 26.236 27.676 34.861 20.359-13.886 47.591-36.992 66.802-52.115z" fill="#fff"/><path d="m413.767 406.391 1.689 10.264c6.986-13.285 19.103-36.378 25.716-49.848-4.883-2.022-27.145-11.281-31.556-13.049 1.022 10.684 3.322 41.502 4.151 52.633z" fill="#231f20"/><path d="m370.649 467.713-13.447-18.29-14.137-17.692-11.74-11.703 11.74 11.704 14.137 17.691 13.447 18.29 4.756 7.346v-.001zM342.232 339.82l-1.896.354zm-152.528-53.268 5.123 14.484 4.814 14.622.002.007-.001-.006-4.815-14.623-5.123-14.484-5.805-13.226h-.003.002zm137.322 129.196-.287-.228.36.295-.002-.001z" fill="none"/><path d="M501.046 262.575c-39.649-9.481-85.622-13.252-126.045-20.224-7.602.388-9.025 3.872-12.044 10.152 41.531 6.456 88.213 12.745 129.761 19.268 3.127.85 7.118 1.693 9.097 4.531 1.941-5.634 3.595-8.608-.769-13.727zm-143.241 19.818-6.447-1.694-5.501-3.12 5.7-9.723 6.062-9.549 2.831-5.18 26.551 4.108-1.351 7.372-3.499 7.3-5.865 5.58-7.117 3.859-7.994 1.056zm36.847 216.08c-7.893-6.362-17.634-22.832-23.181-31.326-16.148-23.313-37.576-49.502-61.031-65.853 12.238-3.735 26.153-7.316 38.402-11.021l.252-.4c-.044-.141-2.031-13.157-2.114-13.277-.097-.136-6.109-12.512-6.247-12.608-.159-.113-9.911-9.704-10.09-9.786l-12.304-6.496c-.161-.116-4.925-.698-5.102-.759l-.043-3.953c13.171-2.102 32.262-5.925 45.486-7.916-.443 4.318 1.012 9.859 2.591 13.833 3.469 6.305 8.026 10.408 14.399 13.665 2.619.903 7.914 1.917 10.673 2.169.161.048 7.302-.966 7.459-.955 4.237 41.955 10.082 91.629 13.42 133.63l-2.199 2.896c-.716.408-2.016 1.398-2.604 1.976z" fill="#fff"/><path d="m327.054 415.77-.028-.022.071.066zm53.749-50.778-5.465-1.453-4.883-2.851-4.489-3.432-2.925-3.757-2.616-3.976-1.547-4.501-1.184-4.609-.014-5.171 3.133-.517 18.735-3.498 10.931-1.805 3.412 35.362-7.488.977z" fill="#fff"/><path d="m255.327 78.368-3.838-3.907-3.871-6.112-3.249-6.48-3.353-6.104-5.27-7.163-2.173-6.005 9.848 4.301 8.506 4.538 8.487 4.799 7.613 6.152 4.602 8.522-2.228 5.195-4.27 3.535-5.531.372z" fill="#231f20"/><path d="M198.836 87.133c.765-8.963 1.207-20.294 1.814-29.252 4.298.391 11.814.666 16.029-.45 1.485-1.047 4.762-3.561 5.724-5.042.221-2.068.751-3.85-1.641-4.786l-1.505-.409c-5.683 1.285-12.065 1.468-17.919 1.032.814-7.351.744-12.907 6.969-18.18l3.736-1.727c3.809 8.836 13.518 12.635 22.229 14.625 3.771 14.192 7.533 29.955 10.515 44.355-11.952-.532-33.921.205-45.951-.166zm135.041 241.264-16.317-6.706c4.495-6.419 11.226-16.216 16.384-22.102l7.109-4.75 7.863-3.359 8.484-1.059c3.865-.004 10.909.919 14.617 1.939l9.072 3.39 6.97 6.786 4.418 8.667.598 9.709-2.643 9.532c-34.493 5.735-22.06 6.975-56.555-2.047z" fill="#fff"/><path d="m229.161 42.393-5.592-1.45-5.006-3.151-4.372-3.978-3.335-5.528 7.333-1.449 5.133 1.015 4.75 2.194 3.586 3.877 1.521 4.547 1.373 5.609z" fill="#231f20"/><path d="M200.613 58.882c.023-2.868.341-8.856.851-11.646 3.668.394 8.208-.106 11.908.163 1.661-.66 4.081-.862 5.81-1.261 1.099.162 3.032 1.001 3.915 1.675l.581 2.151-.338 3.044c-1.179 1.434-4.615 4.192-6.117 5.335-4.364 1.219-12.146.94-16.61.539zm201.836 443.264c.615-1.078 3.068-4.048 3.693-4.956-4.21-53.792-11.827-113.784-16.652-167.605 5.785-.875 15.302-4.058 18.075 3.329 6.252 50.916 10.376 108.324 15.417 159.465.684 3.609-1.875 6.994-4.845 8.805l-8.017 2.023zM116.683 385.384l-4.618-6.385.962-7.838 3.562-3.875c-1.961 1.33-8.502 2.979-10.833 3.576l-7.958-.727-5.271-5.98.683-7.961 4.443-3.587-5.535.468-7.358-2.189-5.082-5.81.533-7.718c6.449-6.984 7.323-5.661 15.336-9.048-1.528.745-6.058-.699-7.58-1.086l-3.541-4.468c-4.096-17.223 18.498-20.443 29.857-26.108l-6.102.405-8.205-1.39-4.02-7.336 1.603-8.266 6.533-5.234c24.902-2.448 6.371 3.502 28.623-8.057l7.721-.3c14.264 3.919 30.217 4.16 44.856 5.064 12.262 26.415 20.786 56.838 25.536 85.509-27.286 9.873-58.544 23.699-86.64 30.686 0-.002-7.505-2.345-7.505-2.345z" fill="#fff"/><path d="m345.237 177.77-16.408-39.591-25.725-33.876-21.441-12.819-25.336-4.995c-28.005-.41-62.805-.472-90.653-.874l-12.891 3.477-11.974 5.896-10.313 8.468-9.902 10.932 5.717 9.784c-23.51 18.375-52.761 44.293-78.725 59.357l-3.474-.081c6.592 14.817 17.581 29.448 25.433 43.615 38.813-19.321 83.4-41.598 122.356-60.632.046-2.601.213-15.33.076-17.617 3.203-8.174 16.475-8.839 23.734-11.536 8.394-2.463 19.535-6.537 28.049-8.013 4.606 1.368 4.941 1.767 7.235 5.928 5.745 20.607 11.55 46.01 15.745 66.952-2.167-.204-12.118 7.374-13.95 8.53l-8.42 9.951c-24.963 10.88-52.748 23.627-78.544 32.496 23.739 3.452 40.055 82.082 44.003 104.008 40.92-15.744 87.419-33.067 123.523-58.444l21.273-36.38.292-42.8z" fill="#433F43"/><path d="M44.021 252.073c-2.998-3.964-3.951-9.295.204-12.916 48.434-24.599 98.725-49.149 147.45-73.238 1.424-6.421-1.577-15.255 2.158-21.09 8.96-6.355 20.924-7.288 31.007-11.23 8.276-1.249 17.151-8.045 25.23-3.433 4.525 5.658 6.275 18.89 8.31 25.753 3.731 14.957 7.601 31.868 10.513 46.928-4.168.732-8.293 4.5-11.756 6.731-6.161-16.541-13.297-33.235-19.614-49.713a73.74 73.74 0 0 0-.421-.168c-51.178 24.464-104.205 48.786-155.381 73.254l-.111.421c3.126 4.504 6.755 9.445 9.578 14.144-12.181 5.495-26.848 12.065-39.081 17.376-2.016-3.194-6.072-9.625-8.086-12.819z" fill="#231f20"/><path d="M108.29 395.372c-6.572-.09-12.226-10.809-15.686-15.58-6.435-15.266-80.655-101.013-64.422-105.502 66.587-29.135 134.6-59.938 201.178-89.076 5.819-2.876 9.563 4.655 13.438 7.75 5.072 5.154 10.558 10.504 15.447 15.847-4.735 2.611-8.758 8.792-12.333 12.724-27.349 11.909-57.173 24.909-85.379 34.681-2.731 4.408-2.604 9.284-2.126 14.327-16.458-2.062-22.842-7.231-37.371 4.763-9.953-1.095-24.391-.174-24.103 12.615.651 1.784 3.739 4.922 4.582 6.645 1.942.755 5.816 1.069 7.892 1.48-.158 1.147.472 2.723.674 3.844-8.501 4.109-24.011 6.252-25.58 17.251-.993 8.345 7.523 10.38 14.173 11.534-5.68 2.095-14.01 4.087-17.528 9.43-.055 1.713-.468 5.027-.395 6.72 4.495 7.604 13.208 7.696 21.15 6.501-1.658 1.412-6.681 4.073-8.233 5.569-.194.104-.302 3.364-.372 3.517.037.245-.433 3.559-.176 3.702 5.262 9.718 18.415 4.342 26.745 2.179-1.227 1.447-3.818 3.923-4.903 5.458-6.281 10.14 4.772 14.329 12.656 16.642-3.377 2.246-7.945 3.822-11.68 5.38l-4.329 1.792c-.823-.047-2.495-.143-3.319-.193zm198.92-3.247c-3.38-11.398-9.202-35.252-11.732-46.961 5.499-2.153 17.358 1.086 23.098 1.535l12.724 6.718 10.313 10.032 6.364 12.908 2.288 14.53c-11.912 3.624-25.551 7.19-37.474 10.73l-.049.258c-.133.011-.661 1.402-.761 1.476l-.358-1.423-1.185.505z" fill="#fff"/><path d="M243.237 179.237c-1.953-4.51-5.702-13.729-7.38-18.315-49.226 23.534-104.72 49.031-153.942 72.567 2.148 3.069 6.138 8.701 8.146 11.891 42.462-18.805 95.258-42.405 137.867-61.068.965-.615 2.327-.849 3.451-.604 3.567-.298 6.779 4.27 8.962 6.502 3.723 3.28 8.222 8.519 11.895 11.835-2.441-6.339-6.766-16.359-8.999-22.808zm148.808 141.651c.016-.341-.488-9.18-.599-9.506-.133-.158-4.099-8.182-4.261-8.302-.185-.117-6.514-6.456-6.737-6.503l-8.595-3.212c-.82-.148-5.406-1.024-6.056-1.403-.192-.109-8.04-.47-8.229-.529-.086.079-8.355.946-8.452 1.049-2.782 1.118-9.237 3.866-11.495 5.852l-2.828-2.68c2.664-4.756 8.593-14.326 11.597-18.924.108.044 5.293 3.035 5.406 3.048 2.11.595 7.057 1.981 9.229 1.62.225-.077 7.704-.93 7.91-1.064l6.701-3.632c.238-.2 5.565-5.209 5.733-5.474l3.294-6.874c.1-.14 1.289-7.119 1.35-7.268a9259.947 9259.947 0 0 1 103.233 15.16c2.14.081 7.31 1.686 9.376 2.332 1.196 1.052 3.405 3.422 4.292 4.754-.176 2.183-6.001 11.696-7.144 13.724l-9.099 8.113-10.78 5.672c-12.48 3.919-30.43 6.22-43.508 6.29l-15.551 1.555-14.914 4.964c-.214.028-12.681 11.89-12.856 11.997z" fill="#fff"/><g fill="#231f20"><path d="m59.535 176.64-7.628-8.03-6.917-8.495-12.686-17.885-12.327-14.753-4.477-6.84-.172-.359-2.577-8.02-1.161-8.089-1.323-15.767-1.749-7.329-5.066-14.668L.25 53.078l-.042-.389.157-6.034.27-.82 4.796-6.866.807-.58 8.58-2.517.89.014 4.95 1.622.686.466 6.725 8.081.225.367 4.218 9.827.864 2.726 4.242 10.758-2.791 1.1-4.295-10.903-.857-2.704-4.051-9.419-6.31-7.583-4.098-1.343-7.628 2.238-4.236 6.064-.14 5.386 3.14 13.064 5.066 14.671 1.829 7.735 1.322 15.792 1.133 7.873 2.418 7.458 4.319 6.598 12.278 14.686L47.376 158.3l6.821 8.371 7.512 7.902z"/><path d="m44.917 45.443-2.845-11.709-1.996-13.955-1.094-5.946-1.511-5.554-3.463-4.028-4.992-1.52-3.021.774-4.538 5.201-1.344 7.345-.777 16.601-.4 4.233-2.987-.284.395-4.161.8-16.829 1.436-7.85.345-.716 5.116-5.864.758-.467 3.88-.993.809.018 5.81 1.769.701.457 3.968 4.615.31.584 1.644 6.065 1.115 6.068 1.995 13.934 2.801 11.502z"/><path d="m58.083 43.647-.31-3.433-1.752-10.433-.321-3.502-.835-5.876-.277-5.76-1.078-5.472-2.113-4.63-4.363-2.008-3.843.36-2.45 1.599L39.7 7.239l-2.805-1.063 1.214-3.204.583-.725 3.17-2.069.68-.237 4.613-.433.767.131 5.235 2.41.738.74 2.524 5.629 1.161 5.971.278 5.8.82 5.741.325 3.52 1.753 10.437.315 3.49zm-9.951 141.896-1.636-.038-3.752-2.569-.65-1.326.325-5.39.922-5.405 1.656-4.995 1.526-4.985 2.868.879-1.537 5.017-1.629 4.918-.834 4.987-.252 4.303 2.247 1.539 15.918-9.844 31.419-24.188 15.329-12.557 15.524-12.41 1.873 2.343-15.51 12.399-15.351 12.574-31.64 24.35z"/><path d="m140.489 146.549-12.671-17.816-11.024-18.871-9.692-19.483-9.394-19.766-7.958-20.236-5.149-15.108-1.413-5.203-1.61-4.972-2.066-6.733-2.311-3.51-2.17-1.049-2.561-.263-2.517.577-.67-2.925 2.758-.631.488-.03 3.07.315.5.141 2.78 1.344.6.525 2.657 4.035.181.385 2.122 6.917 1.624 5.02 1.406 5.181 5.097 14.952 7.914 20.122 9.319 19.6 9.659 19.414 10.916 18.68 12.56 17.648zm16.3 124.176-.2-4.666.002-.161.301-4.659.113-.483 2.472-5.899.877-.832 22.977-8.237 15.204-6.31 15.082-6.69 15.31-6.351 14.755-6.544 8.302-9.811.291-.265 10.905-7.542.41-.199 12.99-3.984 13.229-1.134.339.009 13.166 1.864-.42 2.97-12.998-1.84-12.898 1.106-12.301 3.806-10.551 7.299-8.396 9.922-.538.402-15.103 6.697-15.309 6.352-15.082 6.69-15.306 6.35-22.424 8.041-2.119 5.058-.279 4.328.196 4.585z"/><path d="m210.758 357.846-2.018-1.146-1.157-6.729-.825-4.393-3.398-15.015-3.718-14.906-4.814-14.624-5.123-14.483-6.188-14.097.756-1.97.182-.082.619 1.369 1.19-.522 6.25 14.25 5.152 14.566 4.873 14.813 3.739 14.991 3.417 15.102.84 4.469.851 4.948 23.724-9.147 25.282-10.104 24.74-11.252 24.278-12.05 22.455-14.567 20.764-35.509.286-42.029-9.588-41.348-14.323-34.559a50.698 50.698 0 0 0-4.785-8.907l-12.984-19.269a50.674 50.674 0 0 0-19.939-17.283l-4.41-2.133a50.69 50.69 0 0 0-12.251-4.095l-18.521-3.651-25.627-.45-25.729.266-25.814-.734-13 .046-12.449 3.36-11.594 5.708-10.02 8.227-8.82 9.738-2.224-2.014 9.054-9.971 10.529-8.594 12.152-5.952 12.78-3.449.385-.052 13.243-.046 25.804.734 25.713-.266 26.066.481 18.652 3.677a53.65 53.65 0 0 1 12.978 4.338l4.41 2.133a53.677 53.677 0 0 1 21.121 18.308l12.984 19.269a53.644 53.644 0 0 1 5.068 9.435l14.446 34.909 9.656 41.641.039.349-.29 42.607-.205.747-21.146 36.163-.479.501-22.976 14.893-24.401 12.11-24.85 11.301-25.364 10.138z"/><path d="m256.108 147.025-2.978-.358.931-7.66 1.245-5.415.14-.374 6.621-12.313 2.642 1.421-6.525 12.135-1.182 5.14zm-147.801 151.02-.35-.018-7.91-1.338-1.065-.759-3.816-6.966-.157-1.006 1.532-7.909.535-.885 6.273-5.026.799-.323 8.249-.753 7.072.227 6.025-3.951 6.667-3.41.625-.163 7.544-.293.401.038 7.338 1.725 7.326 1.107 7.319.944 7.41.316 7.503.57 4.925.121-1.045-2.346-2.702-4.145-2.744-3.976-3.477-2.961-6.849-2.296.953-2.845 7.125 2.388.496.281 3.847 3.277.262.29 2.878 4.171 2.903 4.485 2.06 4.624-1.407 2.11-7.376-.182-7.53-.572-7.552-.326-7.415-.957-7.538-1.143-7.198-1.693-7.01.273-6.3 3.222-6.213 4.085-.873.246-7.453-.24-7.52.698-5.493 4.399-1.323 6.837 3.206 5.855 7.02 1.188 8.889-.59.198 2.994z"/><path d="m93.659 329.593-.588-.031-5.189-1.329-.803-.522-3.342-4.215-.321-.819-.41-5.422.05-.512 1.448-5.243.396-.672 3.872-3.798.36-.261 9.35-4.835 9.659-3.817 9.574-3.979 9.855-3.519 9.708-3.569 1.035 2.816-9.721 3.574-9.797 3.497-9.527 3.96-9.613 3.799-8.943 4.633-3.423 3.359-1.272 4.602.356 4.702 2.743 3.46 4.409 1.129 5.459-.793.432 2.969z"/><path d="m92.295 354.063-.554-.057-7.128-2.122-.701-.45-4.85-5.544-.368-1.091.505-7.32.454-.975 5.269-5.094.52-.327 8.303-3.082 8.056-3.489 8.335-3.201 8.045-3.537 8.295-3.226 1.086 2.796-8.234 3.201-8.051 3.539-8.342 3.206-8.073 3.494-8.081 3.002-4.629 4.474-.422 6.124 4.154 4.749 6.441 1.916 7.155-.604.253 2.989z"/><path d="m105.575 371.849-7.669-.701-.989-.502-5-5.67-.369-1.121.647-7.535.552-1.039 6.257-4.999 6.301-3 6.427-2.757 6.164-3.168 6.42-2.925 6.182-3.103 1.345 2.681-6.232 3.128-6.408 2.918-6.241 3.206-6.421 2.753-6.087 2.9-5.325 4.299-.537 6.259 4.181 4.742 6.808.622 7.108-1.915 5.243-2.488 10.978-4.257 5.532-1.562 7.931-3.065 1.081 2.798-8.129 3.135-5.531 1.561-10.724 4.167-5.469 2.572-7.499 2.021z"/><path d="m124.521 388.679-.755-.036-7.223-2.255-.768-.553-4.405-6.091-.274-1.061.919-7.484.384-.833 5.446-5.925 2.209 2.03-5.12 5.571-.788 6.421 3.768 5.21 6.374 1.99 7.021-1.472 20.123-6.932 19.964-7.556 20.12-7.306 19.901-7.729 20.069-7.433 1.042 2.813-20.048 7.424-19.909 7.733-20.132 7.311-19.987 7.564-20.435 7.027zm285.366 115.505-7.94-1.098-.456-.14-7.206-3.54-.394-.28-5.853-5.813-5.007-6.477-12.382-19.123-13.446-18.29-14.137-17.691-16.011-15.961-16.496-13.103.493-2.609 5.762-1.769 8.248-2.147 8.004-2.493 8.256-2.15 6.698-2.024-1.97-12.508-6.076-12.326-9.861-9.59-12.162-6.421-13.829-1.982-2.066-.185h-4.292l-2.15.194-.27-2.988 2.352-.206 4.562.006 1.841.167-.025-.151 18.867-3.115 18.773-3.505 18.906-3.122 18.777-3.505 19.025-3.137 2.625-.224.708.111 2.667 1.144 2.208 1.436.488.519 1.409 2.541.937 2.849 2.744 31.381 3.141 31.326 2.746 31.4 3.142 31.329 2.746 31.404.142 2.043-.101.652-.739 1.88-.859 1.91-.396.526-1.539 1.308-1.662 1.277-.546.264-7.822 1.974zm-7.29-4.036 7.412 1.025 7.238-1.827 1.357-1.042 1.223-1.042.692-1.534.586-1.497-.117-1.679-2.742-31.358-3.142-31.329-2.746-31.4-3.141-31.326-2.729-31.216-.755-2.186-1.048-1.854-1.788-1.163-1.965-.824-2.199.187-18.819 3.107-18.777 3.505-18.905 3.122-18.773 3.505-9.938 1.641 5.112.732.487.158 12.583 6.643.346.251 10.201 9.921.299.412 6.291 12.763.137.43 2.209 14.024-1.048 1.669-8.005 2.418-8.244 2.146-8.004 2.493-8.253 2.149-2.976.914 14.458 11.496 16.244 16.206 14.227 17.806 13.534 18.411 12.398 19.143 4.835 6.247 5.477 5.423z"/><path d="m110.437 396.559-3.391-.216-3.103-.66-.638-.306-4.895-4.006-.287-.312-14.714-21.441-15.029-21.193-14.725-21.457-15.027-21.189-14.782-21.547-1.045-1.785-.205-.782.056-2.306.363-2.035.348-.725 1.537-1.727 1.598-1.313.35-.215 40.284-17.662 40.11-18.021 40.291-17.665 40.105-18.019 40.291-17.664 1.265-.591.761-.135 1.425.121 1.373.065.736.234 1.206.77 1.186.697.341.276 4.12 4.46 4.335 4.109 4.185 4.529 4.328 4.102 4.183 4.524-2.205 2.035-4.112-4.453-4.328-4.103-4.186-4.528-4.335-4.109-4.038-4.368-1.958-1.197-2.111-.141-.935.436-40.31 17.673-40.105 18.019-40.292 17.665-40.109 18.021-40.107 17.584-1.341 1.103-1.006 1.15-.268 1.506-.025 1.526.806 1.376 14.681 21.393 15.026 21.189 14.725 21.458 15.029 21.192 14.607 21.284 4.447 3.639 2.636.561 2.71.159 8.305-3.437 2.954-1.09 5.556-2.47 1.218 2.742-5.646 2.506-2.99 1.106-8.568 3.547zm278.899-65.17-.178-.091.606-1.18-.247-.203-.942-.261 2.482-8.952-.552-8.96-4.079-8.003-6.431-6.263-8.529-3.187-4.975-1.003-.973-.36-8.057-.497-8.021 1.001-7.433 3.175-6.691 4.471-16.571 21.531-2.377-1.83 11.523-14.972-.491-.312 6.006-9.452 5.639-9.618 6.034-9.498 5.641-9.621 6.039-9.505 2.88-5.269 1.245-2.684 2.978-5.449.276-.361 3.248-3.125.778-.396 6.547-1.161.474-.008 24.171 3.445 24.136 3.844 24.148 3.442 24.14 3.845 24.343 3.482 3.625 1.052 3.03 1.646.503.445 2.17 3.096 1.336 3.179.115.667-.196 3.443-.075.389-3.936 11.711-6.024 10.452-.302.371-9.294 8.227-10.994 5.74-11.843 3.084-15.884 2.48-15.905.74-15.58 1.56-14.533 4.875-11.306 10.602-.413-.34zm-21.914-40.957 4.981 1.005 8.938 3.34.521.33 6.835 6.656.29.394 4.333 8.501.161.589.587 9.522-.052.493-1.123 4.05 7.637-7.161.549-.328 15.331-5.103 15.827-1.582 15.903-.742 15.566-2.439 11.457-2.991 10.36-5.451 8.676-7.736 5.828-10.111 3.702-11.104.165-2.897-1.137-2.704-1.708-2.388-2.578-1.401-3.054-.853-24.079-3.432-24.141-3.845-24.148-3.442-24.136-3.844-23.91-3.408-5.862 1.039-2.753 2.65-2.824 5.16-1.245 2.684-2.974 5.44-6.061 9.544-5.641 9.621-6.034 9.498-5.088 8.679 4.184-2.764 7.755-3.313.404-.109 8.646-1.053 8.417.52.429.09z"/><path d="m503.173 281.121-.745-1.271-1.024.799-1.888-2.418-1.935-1.876-2.683-.828-2.92-.848-3.04-.455-25.697-3.977-25.725-3.576-25.714-3.979-25.73-3.577-25.718-3.98.458-2.965 25.696 3.977 25.73 3.577 25.714 3.979 25.725 3.576 29.041 4.491 3.041.884 3.049.94.602.356 2.406 2.353 1.953 2.5-.424 2.217zM72.32 41.977l-2.722-17.023-.442-5.081-1.252-4.776-1.99-4.055-3.781-1.799-2.956.277-2.445 2.282-2.047-2.194 2.819-2.63.883-.397 3.878-.363.784.139 4.626 2.2.702.694 2.391 4.939 1.365 5.296.449 5.152 2.701 16.868zm170.424 45.314-1.798-8.735-2.173-8.584-1.813-8.801-2.173-8.586-.884-2.736-2.648-10.823-1.358-4.061-3.024-3.269-4.173-1.929-4.51-.891-4.511.891-4.172 1.929-3.123 3.376-1.769 3.157-1.775 14.073-.296 8.637-.701 8.748-.295 8.64-.701 8.754-2.991-.24.698-8.686.295-8.639.701-8.749.305-8.772 1.82-14.432.179-.545 2.207-3.853 3.445-3.725.472-.343 4.943-2.238 4.978-.984h.582l5.315 1.094 4.606 2.128.472.343 3.445 3.725.321.543 1.515 4.545 2.649 10.83.864 2.672 2.216 8.746 1.813 8.801 2.173 8.584 1.812 8.801z"/><path d="m260.76 81.003-.547-.064-5.062-1.578-.624-.381-3.91-4.028-3.904-6.177-3.21-6.408-3.378-6.148-5.14-6.963-.204-.381-1.497-4.144-4.352-1.363-5.54-1.436-.422-.182-5.114-3.247-4.284-3.899-.274-.334-2.994-4.962 2.568-1.55 2.881 4.775 4.024 3.663 4.594 2.892 5.386 1.398 5.133 1.606.125.119.027-.062 8.867 3.879 8.521 4.547 8.646 4.911 7.501 6.062.378.452 4.439 8.221.059 1.304-2.084 4.862-.422.564-4.053 3.355-.855.341zm-4.357-4.395 4.435 1.383 4.515-.304 3.401-2.815 1.656-3.862-3.952-7.319-7.171-5.795-8.301-4.694-8.437-4.502-5.511-2.408.49 1.358 5.178 7.036 3.453 6.287 3.203 6.391 3.704 5.847zm-52.019-16.417-.133-.005-2.238-.185.247-2.99 2.172.18 8.728-.059 3.193-.652 3.516-2.799 1.56-1.583.22-1.978-.272-1.005-.944-.565-1.321-.359-1.556.312-1.881.27-1.867.585-.502.068-3.359-.121-3.804.001-2.193.192-1.965-.2.304-2.984 1.813.184 1.965-.192h3.934l3.156.112 1.974-.597 1.918-.274 1.82-.367.689.024 1.861.506.376.16 1.642.981.677.896.505 1.863.043.558-.308 2.778-.423.888-2.123 2.138-3.869 3.079-.633.295-3.979.785zm11.885-17.029-1.386-1.45-1.655-.725-1.502-.271-1.271.784-1.41 1.529-2.206-2.032 1.55-1.682.316-.261 1.935-1.192 1.052-.2 2.579.506 2.091.917.482.337 1.593 1.667zm186.739 459.939-1.989-2.246 1.429-1.244 1.191-.781 1.616-2.129.052-1.074-3.186-33.029-3.593-33.078-3.198-33.151-3.593-33.076-3.198-33.15 2.986-.288 3.197 33.133 3.592 33.075 3.198 33.151 3.593 33.078 3.204 33.373-.081 1.662-.322.857-1.045 1.322-.963 1.316-.387.367-1.326.871zM49.561 264.316l-7.429-11.783-2.759-5.106-.18-.75.057-2.336.144-.603 1.931-4.093.377-.497 2.091-1.736 29.457-14.383 29.266-14.733 29.473-14.391 29.268-14.736 28.66-13.993.166-12.916-.165-3.364.153-.737 1.803-3.648.54-.601 5.376-3.358 8.563-2.769 8.744-2.405 8.499-2.749 8.748-2.406 8.505-2.752.381-.07 2.633-.141.612.095 4.79 1.816.742.611 2.705 4.35.167.378 1.653 5.747 7.656 30.921 2.204 10.71 2.522 10.526 2.055 10.741-2.946.563-2.042-10.673-2.517-10.505-2.201-10.7-7.629-30.808-1.58-5.493-2.326-3.742-4.021-1.524-2.121.113-8.383 2.71-8.748 2.406-8.499 2.749-8.745 2.406-8.317 2.69-4.517 2.87-1.444 2.922.148 3.063-.18 13.943-.841 1.323-29.47 14.389-29.268 14.736-29.474 14.39-29.265 14.734-29.3 14.306-1.381 1.19-1.66 3.518-.04 1.621 2.546 4.711 7.35 11.653zm367.223 153.038-2.655-1.397 5.75-10.928 5.18-9.668 4.79-9.784 5.197-9.702 4.087-8.318-4.763-2.068-6.348-2.377-6.344-2.807-12.629-5.158 1.135-2.777 12.669 5.174 6.303 2.792 6.337 2.372 6.277 2.723.749 2.038-4.805 9.776-5.196 9.7-4.789 9.785-5.2 9.706z"/><path d="m88.187 248.07-1.169-1.923-4.255-6.233-4.323-6.152.581-2.216 31.318-14.944 31.515-14.595 31.312-14.942 31.519-14.596 31.345-14.953 2.046.816 3.85 10.023 4.099 9.774 3.765 10.014 4.096 9.767 3.767 10.021-2.809 1.055-3.745-9.968-4.097-9.768-3.764-10.013-4.095-9.764-3.286-8.551-29.896 14.261-31.519 14.597-31.312 14.942-31.515 14.595-29.7 14.172 3.314 4.717 4.31 6.317 1.212 1.988zm70.743-64.347-2.98-.353 2.609-22.008.033-7.368.336-7.392-.912-8.418-2.219-8.194-1.633-3.913 2.769-1.156 1.734 4.19 2.319 8.633.945 8.88-.341 7.445-.042 7.561zm227.669 183.021-.398-.001-5.685-.793-5.369-1.428-.371-.154-4.952-2.904-4.686-3.645-2.943-3.787-2.736-4.243-1.555-4.537-1.211-4.899-.011-4.677 3-.007.01 4.489 1.103 4.289 1.439 4.187 2.434 3.699 2.718 3.491 4.186 3.2 4.542 2.651 5.083 1.353 5.213.715 5.31-.692.387 2.974zm-25.46-83.343-3.642-.056-6.685-1.806-5.696-3.231 1.488-2.604 5.514 3.127 5.947 1.563 2.981.007 7.495-.99 6.559-3.555 5.407-5.144 3.224-6.728 1.394-7.611 2.952.54-1.431 7.808-.123.379-3.43 7.157-.319.438-5.75 5.471-.319.232-6.978 3.782-.519.169zM68.416 227.116l-5.084-8.677-5.395-8.418-5.111-8.722-5.488-8.589-5.106-10.918 2.718-1.27 5.064 10.828 5.369 8.381 5.112 8.723 5.394 8.417 5.115 8.728z"/></g></svg></g></svg>